<?xml version="1.0" encoding="UTF-8"?>
<svg id="big-dipper" xmlns="http://www.w3.org/2000/svg" version="1.1" viewBox="0 0 800 800">
  <!-- Generator: Adobe Illustrator 29.1.0, SVG Export Plug-In . SVG Version: 2.1.0 Build 142)  -->
  <defs>
    <style>
      .st0 {
        fill: #5c546a;
      }

      .st1 {
        fill: #ffcf00;
      }

      .st2 {
        fill: #fff2aa;
      }
    </style>
  </defs>
  <g id="big-dipper-dark">
    <path class="st0" d="M158.1,482.7c-6.1,3.7-7.9,11.7-4.1,17.8,2.5,3.9,6.7,6.1,11,6.1s4.8-.6,6.8-1.9c6.1-3.9,7.9-11.7,4.1-17.8-3.7-6.1-11.7-7.9-17.8-4.1Z"/>
    <path class="st0" d="M114.3,510.1c-6.1,3.7-7.9,11.7-4.1,17.8,2.4,3.9,6.7,6.1,11,6.1s4.8-.6,6.8-1.9c6.1-3.7,7.9-11.7,4.1-17.8s-11.7-7.9-17.8-4.1Z"/>
    <path class="st0" d="M70.6,537.4c-6.1,3.7-7.9,11.7-4.1,17.8,2.5,3.9,6.7,6.1,11,6.1s4.6-.6,6.8-1.9c6.1-3.9,7.9-11.7,4.1-17.8-3.7-6.1-11.7-7.9-17.8-4.1Z"/>
    <path class="st0" d="M382.1,487.9c-6.7-2.2-14.1,1.4-16.4,8.3-2.2,6.7,1.4,14.1,8.3,16.3,1.3.5,2.7.6,4,.6,5.4,0,10.4-3.4,12.3-8.8,2.3-6.7-1.4-14.1-8.1-16.4Z"/>
    <path class="st0" d="M333,471.6c-6.7-2.2-13.9,1.4-16.3,8.1-2.2,6.8,1.4,14.1,8.1,16.4,1.4.4,2.7.6,4.1.6,5.4,0,10.4-3.4,12.3-8.9,2.2-6.7-1.4-13.9-8.3-16.3Z"/>
    <path class="st0" d="M452.1,417.8c-7.1.8-12.1,7.2-11.4,14.3.6,6.6,6.3,11.4,12.8,11.5.5,0,1-.1,1.4-.1,7.1-.8,12.3-7.2,11.5-14.3-.8-7.1-7.2-12.1-14.3-11.4Z"/>
    <path class="st0" d="M449.3,392.1c7.1-.8,12.3-7.1,11.4-14.2-.8-7.1-7.1-12.3-14.2-11.4-7.1.8-12.3,7.1-11.4,14.2.6,6.6,6.2,11.5,12.8,11.5s.9,0,1.4-.1Z"/>
    <path class="st0" d="M566.8,257.9c-7,1.4-11.5,8.3-10.1,15.2,1.2,6.2,6.6,10.3,12.7,10.3s1.7,0,2.4-.3c7.1-1.3,11.6-8.1,10.2-15.1-1.4-7.1-8.1-11.6-15.2-10.2Z"/>
    <path class="st0" d="M516.3,268.1c-7,1.4-11.5,8.1-10.1,15.1,1.2,6.2,6.6,10.4,12.7,10.4s1.7-.1,2.4-.3c7.1-1.4,11.6-8.3,10.2-15.2-1.4-7-8.3-11.5-15.2-10.1Z"/>
    <path class="st0" d="M668.1,237.7c-7,1.4-11.6,8.3-10.2,15.2,1.3,6.2,6.7,10.3,12.6,10.3s1.7,0,2.6-.1c7-1.4,11.5-8.3,10.2-15.2-1.4-7-8.3-11.6-15.2-10.2Z"/>
    <path class="st0" d="M617.5,247.9c-7.1,1.4-11.6,8.1-10.2,15.2,1.3,6.1,6.6,10.3,12.7,10.3s1.7-.1,2.6-.3c7-1.4,11.5-8.3,10.1-15.2-1.4-7-8.1-11.5-15.1-10.1Z"/>
    <path class="st0" d="M728,466.1c-.6,7.1,4.6,13.3,11.7,13.9h1.2c6.6,0,12.3-5,12.8-11.7.6-7.1-4.6-13.3-11.7-13.9s-13.3,4.6-13.9,11.7Z"/>
    <path class="st0" d="M751,351.5c-7.1-.7-13.4,4.6-14.1,11.7-.6,7.1,4.6,13.3,11.7,13.9h1.2c6.6,0,12.3-5,12.8-11.7.6-7.1-4.5-13.3-11.6-13.9Z"/>
    <path class="st0" d="M745.3,428.6c6.7,0,12.3-5,12.9-11.9.6-7-4.6-13.3-11.7-13.9-7.1-.5-13.4,4.6-13.9,11.7-.6,7.1,4.5,13.4,11.7,14.1.3,0,.6,0,1,0Z"/>
    <path class="st0" d="M755.4,300c-7.1-.6-13.3,4.6-13.9,11.7-.6,7.1,4.6,13.4,11.7,14.1h1.2c6.6,0,12.3-5,12.8-11.7.6-7.1-4.6-13.4-11.7-14.1Z"/>
    <path class="st0" d="M608.4,516.1c-7.2,0-12.9,5.8-12.9,12.9s5.7,12.9,12.9,12.9,12.9-5.8,12.9-12.9-5.8-12.9-12.9-12.9Z"/>
    <path class="st0" d="M660,516.1c-7.2,0-12.9,5.8-12.9,12.9s5.7,12.9,12.9,12.9,12.8-5.8,12.8-12.9-5.7-12.9-12.8-12.9Z"/>
    <path class="st0" d="M556.8,516.1c-7.2,0-12.9,5.8-12.9,12.9s5.7,12.9,12.9,12.9,12.9-5.8,12.9-12.9-5.8-12.9-12.9-12.9Z"/>
  </g>
  <g id="big-dipper-darkyellow">
    <circle class="st1" cx="25.8" cy="580.6" r="25.8"/>
    <circle class="st1" cx="735.5" cy="529" r="25.8"/>
    <circle class="st1" cx="438.7" cy="296.8" r="25.8"/>
  </g>
  <g id="big-dipper-lightyellow">
    <circle class="st2" cx="464.5" cy="529" r="38.7"/>
    <circle class="st2" cx="761.3" cy="232.3" r="38.7"/>
    <circle class="st2" cx="232.3" cy="451.6" r="38.7"/>
  </g>
</svg>