<?xml version="1.0" encoding="UTF-8"?>
<svg id="jupiter" xmlns="http://www.w3.org/2000/svg" version="1.1" viewBox="0 0 1200 1200">
  <!-- Generator: Adobe Illustrator 29.1.0, SVG Export Plug-In . SVG Version: 2.1.0 Build 142)  -->
  <defs>
    <style>
      .st0 {
        fill: #f4b140;
      }

      .st1 {
        fill: #7e4b2c;
      }

      .st2 {
        fill: #aa663b;
      }

      .st3 {
        fill: #f5d67b;
      }
    </style>
  </defs>

  <g id="jupiter-group"> 
   <g id="jupiter-lightyellow">
    <path class="st3" d="M772.3,78.3c-4.5,3.8-8.9,7.8-13.6,11.4-7.2,5.6-14.6,11-22.1,16.3-9.4,6.7-19.5,12.3-30.2,16.7-11.6,4.8-23.2,9.5-34.9,14.1-7.1,2.8-14.4,5-21.6,7.5-6.4,2.2-12.9,4.3-19.2,6.7-11.9,4.5-22.1,11.6-31.4,20.3-6.3,5.9-12.7,11.7-19.1,17.5-7.4,6.7-16.3,11-25.7,14.1-9.3,3.1-18.7,6.1-28.1,9-20.4,6.2-39.3,15.6-58,25.8-6.2,3.4-12.6,6.6-18.8,10.1-8,4.4-15.9,9.1-23.1,14.8-8.3,6.6-15.2,14.5-21.4,23-3.6,4.9-7.1,9.9-10.4,15.1-4.7,7.5-10.6,13.6-17.9,18.4-3.4,2.2-6.6,4.7-9.9,7.2-4.6,3.6-9.7,6.1-15.3,7.7-11.7,3.4-23.4,6.9-34.7,11.8-11.9,5.2-22.6,12.1-32.3,20.9-13.4,12.2-24.5,26.2-35,40.8-10.5,14.4-22.3,27.7-35.4,39.9-3.8,3.6-8.1,6.7-12.5,9.6-7.8,5.1-15.9,9.8-23.9,14.6-5.7,3.4-10.8,7.5-15.4,12.3-6,6.3-7.1,13.7-5.2,21.7,1.8,7.3,8.9,12.6,17,13.1,5.6.4,11.2,0,16.7-1.4,21.5-5.6,43.1-10.6,64-18.2,6.1-2.2,11.9-5,17.3-8.6,2.9-1.9,5.9-3.3,9.2-4.2,8.5-2.5,16.3-6.8,23.7-11.5,10.7-6.9,20.6-14.9,29.8-23.7,6.2-6,12.4-12,18.9-17.8,11.3-10,22.8-19.7,34.9-28.8,14.1-10.6,29.8-17.4,47-20.9,8.3-1.7,16.6-3.3,24.9-5,13.8-2.9,26.2-9.1,37.6-17.4,5.9-4.3,11.7-8.7,17.5-13.1,1.6-1.2,3.2-2.6,4.6-4,5.3-5.4,11-10.5,16.3-16,8.3-8.7,17.3-16.7,27.3-23.5,11.4-7.8,23.5-14.1,36.1-19.7,11.9-5.3,23.9-10.5,35.9-15.7,5.3-2.3,10.7-4.3,16-6.5.6-.2,1.3-.4,1.8-.5.8,1,.1,1.4-.4,1.7-10.1,6-19,13.6-27.9,21.2-4.7,4.1-9.5,8.1-13.6,13-2.2,2.6-4.7,4.9-7,7.3-3.5,3.7-5.9,7.8-6.6,12.9-.2,1.6-.9,3.3-1.6,4.7-3.9,7.4.6,13.6,6.4,15.4.5.2,1,.3,1.5.4,10.1,1.3,20.1,2.3,29.9-2.2,10.1-4.6,19.5-10.2,29-15.9,15.1-9.1,29.2-19.8,42.9-30.8,6.1-4.9,10.8-11.2,14.8-18,2.4-4.1,3-8.7,2.2-13.3-.8-5-4.2-8.1-8.5-10-4.4-1.9-9-2.8-13.9-1.9-2.8.5-5.6.7-8.5,1.1-.1-1.5.9-1.7,1.6-2,16.3-6.8,32.5-13.7,49.5-18.5,5.5-1.5,11-3.4,16.5-5.1,10.6-3.3,21.5-5,32.4-6.6,13.8-2.1,27.5-4.4,40.6-9.2,5.7-2.1,11.3-4.6,16.8-7.1,3.7-1.7,7.3-3.6,10.9-5.4,1.2-.6,2.5-.9,3.5-1.3,1.3,1.3.5,2.1-.1,2.9-2.7,3.1-5.3,6.1-8.1,9.1-12,13.1-24.4,25.9-37.3,38.2-8.4,8.1-17.1,16-25.8,23.8-9.7,8.7-19.6,17.2-29.5,25.7-9.9,8.5-19.8,17-29.7,25.4-7.9,6.7-15.8,13.3-23.7,20-.4.3-.8.7-1.1,1-6.4,6-12.8,12.1-19.3,18.1-5.2,4.8-10.6,9.5-15.9,14.2-3.3,2.9-6.6,5.8-9.9,8.7-6.7,6-13.4,11.9-20.2,17.9-6.6,5.8-13.3,11.5-20,17.3-6.1,5.3-12.2,10.7-18.4,16-6.8,5.9-13.6,11.7-20.4,17.6-3.3,2.9-6.6,5.8-9.9,8.8-4.7,4.2-9.3,8.5-13.9,12.7-6,5.5-12.1,10.9-18.1,16.3-.4.3-.8.7-1.1,1-22.1,20.8-43.6,42.1-64.8,63.8-2.6,2.7-4.9,5.6-7.4,8.4-.2.3-.4.5-.6.8-.6.9-.9,1.9-.3,2.8.7,1,1.7,1,2.7.6,1.2-.5,2.5-1.1,3.7-1.7,5.9-3.4,11.8-6.7,17.5-10.3,6.8-4.2,13.4-8.7,20.1-13,1.2-.8,2.3-2,4.4-1.8,0,.7.5,1.6.2,2.2-.4,1.1-1.1,2.1-1.9,2.9-5.4,5.6-11,11-17.3,15.6-8.9,6.5-17.2,13.7-25.5,20.9-10.5,9.1-21.3,17.8-32,26.6-8.1,6.7-16.7,12.8-25.7,18.2-4.8,2.9-9.8,5.2-15.2,7-10.2,3.3-20.3,6.8-30.3,10.5-10.4,3.9-21,6.5-32,8-12.4,1.7-24.9,2.8-37.4,3.3-8.6.3-17.2,1.3-25.8,1.8-8.1.4-16.2,1.3-24.2,2.7-10.5,1.8-20.9,4.5-31.1,7.4-7.3,2.1-14.7,4.2-21.7,7.3-.4.2-1,.1-1.9.2.2-.8.2-1.5.6-1.9,1-1.2,2.1-2.2,3.1-3.3,9.8-9.8,19.6-19.7,29.5-29.4,10.6-10.4,21.4-20.8,32.1-31.1,7.7-7.4,15.2-15,23.2-22.1,9.9-8.8,18.8-18.6,28.6-27.5,11.3-10.3,21.8-21.3,32.8-31.9,8.2-7.9,16.3-15.8,24.6-23.5,10.1-9.5,20.2-19,30.5-28.4,8.9-8.1,17.9-16.1,26.8-24.1,2.5-2.3,4.9-4.7,7.3-7.1.6-.6,1-1.3,1.4-2.1.4-.8-.4-2.1-1.3-2.4-1.5-.3-2.6.3-3.8.9-5.6,3.1-11.4,6-16.9,9.4-11.4,7-22.8,14.1-33.9,21.5-20.3,13.6-39.9,28.1-59,43.3-11.8,9.4-23.5,18.9-35.1,28.5-6.3,5.2-12.3,10.7-18.4,16-7.5,6.6-15.1,13.1-22.5,19.7-5.1,4.5-10,9.2-15,13.7-6.4,5.8-12.8,11.6-19.2,17.4-.4.3-.8.7-1.1,1-7.7,7.3-15.5,14.7-23.2,22-8.9,8.5-17.7,17.3-26.8,25.6-13.6,12.3-26.2,25.5-39.1,38.5-5.4,5.4-10.2,11.3-15.3,16.9-3.4,3.8-6.9,7.5-10.2,11.4-6,7.1-12,14.3-17.9,21.4-1.8,2.2-3.7,4.4-5.5,6.6-.6-1.7-1.4-3.5-1.8-5.2-2.7-11.3-5.3-22.7-7.9-34-.2-1-.2-2-.3-3,1.7-1.4,3.6-2.6,5-4.2,5.5-6,10.8-12.1,16.2-18.3,6.2-7.1,12.5-14.3,18.7-21.4,6.5-7.6,13.1-15.1,19.4-22.9,9.1-11.4,17.9-23,26.7-34.6,3.1-4,5.9-8.3,8.8-12.5.6-.8,1.2-1.7,1.4-2.7.2-.7,0-1.7-.5-2.3-.3-.4-1.3-.5-1.8-.3-.8.2-1.5.7-2.2,1.2-2.4,1.6-4.7,3.3-7,5-13.9,10.3-27.6,20.8-40.8,31.9-6.8,5.8-13.5,11.8-20.1,17.9-4,3.7-7.6,7.7-11.7,11.3-5,4.4-9.8,8.9-14,14-1,1.1-2.3,1.9-3.5,2.9-.8-6.4-1.8-12.7-2.5-19.1-2.7-25.5-2.8-51-1.9-76.6.5-14.7,1.9-29.4,3.7-44,2.9-23.7,7.3-47.2,13.3-70.3,8.5-32.9,20-64.7,34.7-95.3.9-1.8,2-3.5,3-5.3,1.4.6,2.8,1.2,4.2,1.9,7.5,3.8,15.6,4.8,23.7,4.1,5.6-.4,11.2-.6,16.7-.6,5.4,0,10.8,0,16.3,0,1.7,0,3.4-.1,5.1-.3,15.4-2.1,29.3-8.1,41.9-17.2,12.4-9,23.5-19.4,34.6-29.8,11.2-10.6,21.8-21.8,32.8-32.6,3.6-3.5,7.6-6.7,11.6-9.9,5.8-4.6,12.5-7.4,19.7-8.9,17.1-3.6,34.1-7.4,51-11.9,7-1.9,14.1-3.7,21.2-5.5,15.7-3.9,31-8.8,45.8-15.2,11.7-5.1,22.9-11,33.3-18.4,10.8-7.6,21.1-15.9,31-24.6,9.1-8.1,18.2-16.3,26.8-24.9,5.4-5.4,10.8-10.8,16.2-16.1,1-1,1.9-1.9,2.9-2.8,8.4-7.8,16.9-15.7,25.3-23.5,4-3.7,8-7.3,12.1-10.8,8.5-7,17.1-13.9,25.6-20.9,3.8-3.1,7.9-5.9,12.3-8,5.7-2.6,11.4-5.2,17.2-7.6,15.7-6.7,31.8-12.7,48.2-17.6,3.4-1,6.7-2.4,10-3.6,4.5.7,9,1.3,13.5,2.2,20.9,4,41.5,9.5,61.8,15.9,1.9.6,3.7,1.5,5.6,2.3Z"/>
    <path class="st3" d="M119.3,868.7c5.6-2,11.2-3.9,16.7-6.1,18-7.5,36-14.9,53.8-22.7,17.8-7.8,35.6-15.9,53.3-24.1,14.8-6.8,29.4-13.9,44-21,18.6-9,37.2-18.1,55.7-27.3,15.3-7.6,30.7-15.2,45.9-23.1,15.8-8.2,31.5-16.5,47.1-25.1,24.1-13.2,48-26.6,71.6-40.6,23.5-13.9,46.8-28.1,69.9-42.6,1.8-1.1,3.5-2.5,5.7-2.9.5,1.6-.7,2-1.4,2.5-6.5,4.9-12.9,9.9-19.5,14.7-18.4,13.3-36.7,26.7-55.2,39.9-13.7,9.7-27.5,19.2-41.4,28.6-12.2,8.3-24.5,16.4-36.8,24.6-19.6,13.1-39.6,25.5-59.7,37.7-15.9,9.7-31.9,19.3-48,28.7-15.9,9.3-32,18.4-48.2,27.3-16.1,9-32.4,17.7-48.7,26.4-8.5,4.6-17.1,9-25.7,13.3-13.5,6.8-27,13.5-40.5,20.1-5.5,2.7-11,5.2-16.6,7.8-.8-1-1.8-2-2.5-3.2-6.2-10.1-12.3-20.3-18.4-30.4-.5-.9-.8-1.9-1.2-2.8Z"/>
    <path class="st2" d="M1148.7,588.4c-1.2-3.1-1.1-6.2-.3-9.4.9,3.1.9,6.2.3,9.4Z"/>
    <path class="st2" d="M1148.4,625c-.8-3.2-1-6.3.3-9.4.7,3.1.7,6.3-.3,9.4Z"/>
    <path class="st2" d="M1147.7,566.1c-1-1.4-1-2.8-.3-4.3.8,1.4.8,2.8.3,4.3Z"/>
    <path class="st2" d="M1147.4,642.3c-.7-1.5-.7-2.9.3-4.3.5,1.5.5,2.9-.3,4.3Z"/>
    <path class="st2" d="M1146.6,551.8c-.8-1-.9-2.1-.3-3.3.8,1,.9,2.1.3,3.3Z"/>
    <path class="st2" d="M1146.4,654.5c-.6-1.2-.6-2.3.3-3.3.5,1.2.4,2.3-.3,3.3Z"/>
    <path class="st2" d="M1145.7,541.7c-.7-.7-.8-1.5-.2-2.3,0,.8.1,1.5.2,2.3Z"/>
    <path class="st2" d="M1144.6,532.5c-.7-.7-.8-1.5-.2-2.3,0,.8.2,1.5.2,2.3Z"/>
    <path class="st2" d="M1145.5,663.7c-.6-.8-.5-1.6.2-2.3,0,.8-.1,1.6-.2,2.3Z"/>
    <path class="st2" d="M1144.4,672.8c-.6-.8-.5-1.6.2-2.3.5.8.4,1.6-.2,2.3Z"/>
    <path class="st2" d="M1142.6,517.2c-.6-.9-.8-1.8-.4-2.8.6.9.9,1.8.4,2.8Z"/>
    <path class="st2" d="M1139.2,705.9c-.4-1.1-.4-2.1.4-3.1-.1,1-.3,2.1-.4,3.1Z"/>
    <path class="st2" d="M1133.5,469.7c-.1-.5-.2-1-.3-1.5.1.5.2,1,.3,1.5Z"/>
    <path class="st2" d="M1134.4,473.7c0-.5-.2-1-.3-1.5.1.5.2,1,.3,1.5Z"/>
    <path class="st2" d="M1137.5,487.7c-.1-.6-.2-1.2-.4-1.8.1.6.2,1.2.4,1.8Z"/>
    <path class="st2" d="M1141.5,510.1c0-.6-.2-1.2-.3-1.8,0,.6.2,1.2.3,1.8Z"/>
    <path class="st2" d="M1143.6,524.6c0-.5,0-1-.1-1.5,0,.5,0,1,.1,1.5Z"/>
    <path class="st2" d="M1142.4,687.1c0-.5.2-.9.3-1.4,0,.5-.2.9-.3,1.4Z"/>
    <path class="st2" d="M1141.3,693.2c.1-.5.2-1,.3-1.5-.1.5-.2,1-.3,1.5Z"/>
    <path class="st2" d="M1138.2,711c.1-.6.2-1.2.4-1.9-.1.6-.2,1.2-.4,1.9Z"/>
    <path class="st2" d="M1137.1,716c.2-.6.3-1.2.5-1.8-.2.6-.3,1.2-.5,1.8Z"/>
    <path class="st2" d="M1135.2,724.7c.1-.5.2-1,.3-1.5-.1.5-.2,1-.3,1.5Z"/>
    <path class="st2" d="M1134.2,728.8c.1-.5.2-1,.3-1.5-.1.5-.2,1-.3,1.5Z"/>
    <path class="st2" d="M1133.2,733.5c.1-.7.3-1.4.4-2.1-.1.7-.3,1.4-.4,2.1Z"/>
    <path class="st2" d="M1140.5,504.1c-.1-.3-.3-.6-.4-.9,0-.1.1-.3.2-.5,0,.4.2.9.2,1.3Z"/>
    <path class="st2" d="M1139.6,499.1c0-.5-.2-1-.2-1.5,0,.5.2,1,.2,1.5Z"/>
    <path class="st2" d="M1138.5,492.8c-.1-.6-.2-1.2-.3-1.8.1.6.2,1.2.3,1.8Z"/>
    <path class="st2" d="M1140.3,699.3c0-.5.1-1,.2-1.5,0,.5-.1,1-.2,1.5Z"/>
    <path class="st3" d="M600,476.5c-.3-1.8,1-2.3,1.8-3,4.8-3.8,9.6-7.5,14.4-11.3,11-8.8,22-17.5,33-26.3,11.5-9.2,23-18.4,34.5-27.6,10.3-8.2,20.7-16.4,31.1-24.6,7.5-5.8,15.2-11.4,22.6-17.3,7.3-5.8,14.4-11.8,21.5-17.8,8.3-7,16.6-13.9,24.8-21,6.4-5.5,12.7-11.2,19.1-16.7,4.5-3.9,9-7.8,13.4-11.7,3.8-3.4,7.6-6.7,11.3-10.2,17-15.6,33.5-31.7,49.3-48.4,12-12.6,23.4-25.8,34.3-39.4.6-.8,1.3-1.4,1.9-2.1,1.4.7.8,1.6.5,2.2-1.9,3.6-3.8,7.2-5.8,10.7-7.6,13.6-15.9,26.8-25.7,39-4,5-7.3,10.6-10.9,15.9-6.3,9.4-12.5,18.9-19,28.2-5.9,8.4-13.2,15.4-21.3,21.7-13.7,10.6-28.2,20-43.3,28.4-8.3,4.6-16.7,9-25,13.5-10.5,5.7-20.5,12-29,20.4-3.6,3.6-6.9,7.5-10,11.4-7.4,9.3-14.1,19.1-20.5,29.1-2.2,3.4-4.5,6.8-6.7,10.2-4.4,6.9-9.9,12.9-15.9,18.4-3.8,3.4-8,6.2-12.8,8.1-10.3,4-20.7,7.4-31.4,10.3-11.3,3.1-22.5,6.3-33.8,9.4-.8.2-1.6.3-2.4.4Z"/>
    <polygon class="st3" points="586.3 631.3 586.3 631.7 586 631.5 586.3 631.3"/>
  </g>
  <g id="jupiter-darkyellow">
    <path class="st0" d="M834.9,103.3c1.4.5,2.9.8,4.3,1.4,9.5,4.9,19,9.9,28.5,14.9.7.4,1.4.9,2.1,1.4-1.6,1.2-3.3,2.4-4.9,3.5-11.2,7.4-22.5,14.5-33.5,22.1-7,4.8-14.2,9.3-21.8,12.9-14.8,7.1-29.2,15.2-43.4,23.4-1.3.8-2.6,1.5-3.8,2.5-1.7,1.3-1.5,3.2.5,4,2,.8,4.2,1.4,6.3,1.7,8.3,1.3,16.6.2,24.7-1.5,7.7-1.6,15-4.1,22.3-6.9,7.1-2.7,14.2-5.6,21.3-8.3,7.3-2.7,14.3-6.1,20.9-10.4,13.2-8.6,26.3-17.3,39.5-26,1.3.7,2.7,1.3,4,2.2,15.8,10.4,31,21.7,45.7,33.5,1.6,1.3,3,2.7,4.5,4.1-10.7,18.7-21.3,37.4-32,56.1-2.3,4-4.3,8.1-5.6,12.5-.9,3-1.1,6-.7,9.1.8,6.2,5.3,10.6,11.5,10.9,2.3.1,4.8-.2,7-.7,6.1-1.5,11.2-4.7,15.7-9,5.5-5.1,10.4-10.7,15-16.6,8-10.3,15.7-20.8,22.9-31.7,3.2,2.5,6.1,5.2,8.4,8.6-2.6,4-5.4,7.8-7.6,12-2.8,5.2-5.1,10.7-7.7,16-5.3,11.1-11.8,21.3-19.4,30.9-5.9,7.5-13.3,13.5-20.4,19.8-10,8.9-19.9,18-29.2,27.6-5.2,5.4-10,11.1-14.3,17.2-6.2,8.7-11.9,17.7-17,27.1-7.2,13.4-15.8,25.7-26.2,36.7-13.8,14.5-28.4,28.1-44.2,40.5-9.9,7.7-18.8,16.5-26.9,26.1-8.5,10.1-16.4,20.7-24.3,31.3-9.5,12.6-19.3,24.9-31.1,35.5-5.4,4.9-10.6,10-15.7,15.2-6.3,6.4-12.5,12.9-18.7,19.4-2.5,2.6-5,5.1-7.4,7.7-4.2,4.5-8.1,9.2-10.4,14.9-2.3,5.7-5.5,10.9-8.7,16.1-1.3,2-2.5,4.1-3.5,6.2-1.7,3.6-2.3,7.4-1.2,11.4,2.1,7.9,8.4,13.5,16.8,14,3.5.2,7.1-.1,10.6-.5,3.2-.3,6.3-1.1,9.5-1.5,10.1-1.3,19.4-4.7,28-10.1,10.6-6.7,20.5-14.5,29.8-22.9,10.7-9.6,21.1-19.6,31.6-29.5,4.7-4.4,9.4-8.8,14.1-13.2,7-6.6,15.2-11.2,24.1-14.8,7.1-2.9,14-6,21-9,.6-.2,1.2-.3,2.3-.6-1,2.5-2.7,3.7-4.1,5-3.7,3.5-7.4,7-11.1,10.4-5.5,5-11.1,10-16.7,14.8-4.8,4-10,7.6-14.7,11.8-12.9,11.3-25.1,23.3-37,35.6-2.1,2.2-4.1,4.5-6,6.9-5.9,7.4-11.7,15-17.5,22.4-4.3,5.5-8.6,11-13.1,16.2-7,8.1-15.2,15-24.7,20.1-5.1,2.7-10.2,5.4-15.3,8.1-9,4.7-17.9,9.6-26.4,15.2-9.3,6-17.9,12.9-25.5,20.9-11.8,12.3-21.7,26-30.5,40.6-9.8,16.3-20.3,32.1-31.8,47.2-10.7,14-21.5,27.9-32.3,41.9-5,6.5-10.4,12.5-16.2,18.2-3.9,3.8-7.6,7.7-11.2,11.8-9.3,10.6-17.1,22.3-24.7,34.1-10.8,16.7-22.2,32.9-37.1,46.2-1.4,1.2-2.7,2.6-3.9,4-.8.9-1.6,1.7-2.3,2.7-5,7.3-5.9,15.1-1.9,23.1,3.9,7.7,10.7,11,19.2,11.1,5.1,0,9.7-1.3,14.2-3.3,6.3-2.9,12.5-6,18.2-10,7.5-5.2,14.5-11.2,22.3-16,.9-.5,1.6-1.3,2.4-1.9,7.2-6.2,14.3-12.4,21.5-18.7,10.4-9.1,21.9-16.5,34.6-22,14.3-6.3,28.1-13.4,41.8-21,13-7.2,24.8-16,34.9-26.9,6.2-6.7,12.1-13.7,18.2-20.5,7.2-7.9,14.9-15.3,23.3-21.9,7.7-6.1,16.1-11.3,24.6-16.2,13.4-7.7,26.5-15.8,39.3-24.4,8.3-5.6,16.3-11.7,23.1-19,5.8-6.2,11.3-12.6,16.8-19.1,7-8.3,13.8-16.7,21.6-24.3,4.9-4.8,10.2-9,16.1-12.3,3.5-2,7.1-4,10.7-5.9,6.9-3.7,13.8-7.2,20.7-10.9,6.9-3.7,13.4-7.9,19.5-12.9,10.6-8.8,20.6-18.2,30.5-27.6,7.2-6.9,14.4-13.9,21.7-20.7,8.8-8.3,18.7-15.1,28.9-21.6.5-.3,1.2-.3,2.8-.8-1.4,1.9-2.1,3-3,3.9-7.6,8.2-15.1,16.5-22.8,24.6-16.5,17.3-32.9,34.6-49.7,51.7-44,44.7-88.2,89.2-133.9,132.1-3.9,3.7-8.1,7.2-12.4,10.5-8.9,7.1-17.9,13.9-26.8,21-7.1,5.7-14.2,11.6-21.1,17.5-11,9.3-21.8,18.8-33,27.9-11.8,9.7-24.1,18.7-37.3,26.5-8.8,5.2-17.5,10.4-26.1,15.7-16.8,10.4-32.2,22.5-46.4,36.2-5.1,4.9-10.1,10.1-15.2,15-3.8,3.6-7.7,7.1-11.8,10.5-8.3,6.8-17.8,11.7-27.6,16.1-8.5,3.8-16.9,7.8-25.4,11.7-5.9,2.7-11.2,6.3-16.3,10.3-7.5,5.9-14.2,12.6-20.5,19.7-10.1,11.3-18.9,23.5-26.5,36.6-3.2-1-6.5-1.9-9.6-3.1-32.8-12.3-64.2-27.6-94.1-45.9-1.9-1.1-3.6-2.5-5.3-3.8,1.1-.4,2.2-.9,3.3-1.3,6.3-2.1,12.1-5.4,17.4-9.4,11.3-8.5,21.4-18.3,29.4-30,4.2-6.1,8.5-12.2,12.6-18.5,2.9-4.5,6.6-8,11.3-10.7,8.1-4.7,15.2-10.7,21.3-17.9,9.9-11.7,18.7-24.1,26.6-37.1,2.9-4.8,6.1-9.3,9.8-13.6,3.7-4.2,7.2-8.5,11-12.7,3.8-4.1,7.8-8,11.6-12.1,4.2-4.3,7.5-9.2,9.9-14.6,1.3-3,2-6,2.2-9.3.5-9.8-8.1-19-19.9-16.7-3,.6-5.8,1.7-8.6,2.9-4.9,2-9.2,5-13.4,8.2-3.4,2.6-6.8,5.1-10.3,7.4-7.4,4.8-14.8,9.5-22.2,14.3-2.7,1.7-5.5,3.4-8.3,5-13.8,7.6-27,16.3-39.2,26.3-4.2,3.5-8.4,6.8-12.6,10.3-4.6,3.7-9.6,6.2-15.6,6.8-10.1,1.2-19.3,5-28,10-14.1,8.1-28.3,16-42.8,23.4-7.7,3.9-15,8.5-22.5,12.9-3.7,2.2-6.9,4.9-9.5,8.3-.9-.5-1.9-.9-2.6-1.6-4.5-4.4-8.9-8.8-13.2-13.3-.6-.6-.9-1.4-1.3-2.1,5.1-2.2,10.3-4.3,15.4-6.6,11.7-5.2,22.3-12.2,31.6-21,4.5-4.2,9.4-7.8,14.8-10.7,10.7-5.7,20.4-12.7,29.8-20.2,4.4-3.5,8.7-7,13.4-10.1,11.6-7.9,23.4-15.6,35.2-23.3,4.1-2.7,8.5-4.9,12.9-7.1,8.8-4.4,17.7-8.5,26.5-13,8.3-4.3,16.1-9.5,23.4-15.2,9.6-7.4,18.1-15.9,25.7-25.3,2.8-3.5,6.1-6.4,9.9-8.6,2.9-1.7,6-3.2,9-4.8,6.4-3.4,13-6.6,19.3-10.2,11.2-6.2,19.2-15.4,24.8-26.8.9-1.8,1.6-3.8,1.9-5.7.7-4.5-2.1-8.5-6.7-9.2-2.1-.3-4.4-.1-6.5.3-2.1.5-4.2,1.4-6.2,2.3-5.4,2.4-10.4,5.7-15.1,9.3-2.2,1.7-4.6,2.7-7.2,3.5-4.9,1.4-9.6,3.2-14.4,5.1-7,2.7-13.8,5.7-20.8,8.4-10.2,3.8-20.4,7.3-31.3,8.6-5.9.7-11.6,2.4-17,4.9-12.1,5.5-23.1,12.8-32.9,21.8-3.9,3.6-7.7,7.2-11.5,10.7-7.8,7.2-16.6,12.9-26.5,16.6-9.2,3.5-18.1,7.7-26.3,13.1-7.5,4.9-15.5,9-23.8,12.6-13.4,5.7-25.4,13.5-36.4,22.9-2.7,2.3-5.5,4.6-8.3,6.7-10.7,7.8-21.4,15.5-32.2,23.1-2.5,1.8-5.1,3.3-7.7,5-.8-.9-1.7-1.6-2.4-2.6-6.5-8.9-12.9-17.9-19.3-26.8-.8-1.1-1.3-2.4-1.9-3.5,5.5-2.6,11.1-5.1,16.6-7.8,13.5-6.7,27-13.4,40.5-20.1,8.6-4.3,17.2-8.8,25.7-13.3,16.3-8.7,32.5-17.5,48.7-26.4,16.1-9,32.2-18,48.2-27.3,16.1-9.4,32-19.1,48-28.7,20.1-12.2,40.2-24.6,59.7-37.7,12.2-8.2,24.6-16.3,36.8-24.6,13.9-9.4,27.7-18.9,41.4-28.6,18.5-13.2,36.8-26.5,55.2-39.9,6.6-4.8,13-9.7,19.5-14.7.7-.6,1.9-.9,1.4-2.5-2.2.4-3.9,1.8-5.7,2.9-23.1,14.5-46.4,28.7-69.9,42.6-23.6,14-47.5,27.4-71.6,40.6-15.6,8.5-31.3,16.9-47.1,25.1-15.2,7.9-30.5,15.5-45.9,23.1-18.5,9.2-37.1,18.3-55.7,27.3-14.6,7.1-29.3,14.2-44,21-17.7,8.2-35.4,16.3-53.3,24.1-17.9,7.8-35.9,15.3-53.8,22.7-5.5,2.3-11.1,4.1-16.7,6.1-3.6-6.7-7.3-13.4-10.9-20.1-.9-1.6-1.3-3.5-1.9-5.2,1.6-1,3.2-1.9,4.8-2.9,11.7-7.5,24.1-13.9,37.3-18.4,5.8-1.9,11.5-4.1,17.3-6.1,12.3-4.2,23.6-10.3,33.4-18.9,9.7-8.5,19.2-17.1,28.6-25.9,5.7-5.3,12.1-9.2,19.4-11.7,3-1.1,6.1-2,9.1-3.1,5.3-2,10.1-4.7,14-8.9,3.8-4,6.1-8.9,8.6-13.7,0-.2.1-.3.2-.5.8-2.7-.5-4.8-3.3-5.1-1.2-.1-2.4,0-3.5.2-6.9,1-13.8,1.3-20.8.7-6.6-.5-13.2,0-19.6,2-4.5,1.4-9.1,2.6-13.6,4.1-11.5,3.7-21.7,9.5-30.2,18.2-3.9,4-8.1,7.7-12.3,11.4-6.7,5.9-14,10.6-22.5,13.5-5.3,1.8-10.5,3.7-15.8,5.6-12.3,4.3-24.4,9.2-35.7,15.8-3.9,2.3-7.9,4.6-11.9,6.9-.8-1.7-1.6-3.3-2.3-5.1-5.8-15-10.9-30.3-15.3-45.8-.5-1.6-.7-3.3-1-5,1.8-2.2,3.7-4.4,5.5-6.6,6-7.1,11.9-14.3,17.9-21.4,3.3-3.9,6.8-7.6,10.2-11.4,5.1-5.7,10-11.5,15.3-16.9,12.9-13,25.5-26.2,39.1-38.5,9.2-8.3,17.9-17.1,26.8-25.6,7.7-7.4,15.5-14.7,23.2-22,.4-.3.8-.7,1.1-1,6.4-5.8,12.8-11.6,19.2-17.4,5-4.6,9.9-9.2,15-13.7,7.5-6.6,15-13.2,22.5-19.7,6.1-5.4,12.1-10.8,18.4-16,11.6-9.6,23.3-19.1,35.1-28.5,19.1-15.2,38.7-29.7,59-43.3,11.1-7.4,22.5-14.5,33.9-21.5,5.5-3.4,11.3-6.3,16.9-9.4,1.2-.7,2.4-1.3,3.8-.9.9.2,1.7,1.5,1.3,2.4-.4.7-.9,1.5-1.4,2.1-2.4,2.4-4.8,4.8-7.3,7.1-8.9,8.1-17.9,16-26.8,24.1-10.2,9.4-20.4,18.9-30.5,28.4-8.3,7.8-16.4,15.7-24.6,23.5-11,10.6-21.5,21.6-32.8,31.9-9.8,8.9-18.7,18.7-28.6,27.5-7.9,7.1-15.5,14.7-23.2,22.1-10.7,10.3-21.5,20.7-32.1,31.1-9.9,9.7-19.7,19.6-29.5,29.4-1.1,1.1-2.2,2.2-3.1,3.3-.3.4-.4,1.1-.6,1.9.9,0,1.5,0,1.9-.2,7-3.1,14.3-5.2,21.7-7.3,10.3-2.9,20.6-5.6,31.1-7.4,8-1.4,16.1-2.3,24.2-2.7,8.6-.5,17.2-1.4,25.8-1.8,12.5-.5,25-1.5,37.4-3.3,10.9-1.5,21.6-4.1,32-8,10-3.7,20.1-7.2,30.3-10.5,5.4-1.7,10.4-4.1,15.2-7,9.1-5.4,17.6-11.5,25.7-18.2,10.7-8.8,21.5-17.5,32-26.6,8.3-7.2,16.6-14.4,25.5-20.9,6.3-4.6,11.9-10.1,17.3-15.6.8-.8,1.5-1.9,1.9-2.9.2-.6-.1-1.5-.2-2.2-2.1-.2-3.1,1-4.4,1.8-6.7,4.3-13.3,8.8-20.1,13-5.8,3.6-11.7,6.9-17.5,10.3-1.2.7-2.4,1.2-3.7,1.7-1,.4-2.1.4-2.7-.6-.7-1-.3-1.9.3-2.8.2-.3.4-.6.6-.8,2.5-2.8,4.8-5.7,7.4-8.4,21.2-21.7,42.8-43,64.8-63.8.4-.3.8-.7,1.1-1,6-5.4,12.1-10.9,18.1-16.3,4.6-4.2,9.2-8.5,13.9-12.7,3.3-3,6.6-5.9,9.9-8.8,6.8-5.9,13.6-11.7,20.4-17.6,6.1-5.3,12.2-10.7,18.4-16,6.6-5.8,13.4-11.5,20-17.3,6.8-5.9,13.4-11.9,20.2-17.9,3.3-2.9,6.6-5.8,9.9-8.7,5.3-4.7,10.7-9.4,15.9-14.2,6.5-6,12.9-12,19.3-18.1.4-.3.8-.7,1.1-1,7.9-6.7,15.8-13.3,23.7-20,9.9-8.4,19.8-16.9,29.7-25.4,9.9-8.5,19.8-17,29.5-25.7,8.7-7.8,17.3-15.7,25.8-23.8,12.9-12.3,25.2-25.1,37.3-38.2,2.8-3,5.4-6.1,8.1-9.1.6-.7,1.5-1.6.1-2.9-1.1.4-2.4.8-3.5,1.3-3.7,1.8-7.2,3.8-10.9,5.4-5.6,2.5-11.1,5-16.8,7.1-13.1,4.8-26.8,7.2-40.6,9.2-10.9,1.6-21.8,3.3-32.4,6.6-5.5,1.7-11,3.6-16.5,5.1-17,4.7-33.2,11.7-49.5,18.5-.7.3-1.7.5-1.6,2,2.8-.4,5.7-.6,8.5-1.1,4.9-.9,9.5,0,13.9,1.9,4.4,1.9,7.7,5,8.5,10,.8,4.6.2,9.2-2.2,13.3-4,6.7-8.6,13.1-14.8,18-13.7,11-27.8,21.7-42.9,30.8-9.4,5.7-18.9,11.3-29,15.9-9.8,4.5-19.8,3.5-29.9,2.2-.5,0-1-.2-1.5-.4-5.8-1.9-10.3-8.1-6.4-15.4.8-1.5,1.4-3.1,1.6-4.7.7-5.1,3.1-9.3,6.6-12.9,2.3-2.5,4.9-4.7,7-7.3,4-4.9,8.8-8.9,13.6-13,8.9-7.6,17.8-15.2,27.9-21.2.5-.3,1.2-.7.4-1.7-.6.2-1.2.3-1.8.5-5.3,2.1-10.7,4.2-16,6.5-12,5.2-23.9,10.4-35.9,15.7-12.6,5.6-24.8,11.9-36.1,19.7-10,6.8-19,14.8-27.3,23.5-5.3,5.5-11,10.6-16.3,16-1.4,1.4-3,2.8-4.6,4-5.8,4.4-11.6,8.8-17.5,13.1-11.3,8.3-23.7,14.5-37.6,17.4-8.3,1.7-16.6,3.3-24.9,5-17.2,3.5-32.9,10.4-47,20.9-12.1,9.1-23.6,18.8-34.9,28.8-6.5,5.7-12.6,11.8-18.9,17.8-9.2,8.8-19.1,16.8-29.8,23.7-7.4,4.8-15.1,9-23.7,11.5-3.3,1-6.3,2.3-9.2,4.2-5.4,3.6-11.2,6.4-17.3,8.6-20.9,7.6-42.6,12.6-64,18.2-5.5,1.4-11,1.8-16.7,1.4-8.1-.5-15.2-5.8-17-13.1-2-8-.8-15.4,5.2-21.7,4.6-4.8,9.7-8.9,15.4-12.3,8-4.8,16-9.5,23.9-14.6,4.4-2.8,8.6-6,12.5-9.6,13.1-12.1,24.8-25.4,35.4-39.9,10.6-14.5,21.7-28.6,35-40.8,9.6-8.8,20.3-15.7,32.3-20.9,11.2-4.9,22.9-8.3,34.7-11.8,5.6-1.6,10.7-4.2,15.3-7.7,3.2-2.5,6.5-4.9,9.9-7.2,7.3-4.9,13.2-11,17.9-18.4,3.2-5.2,6.8-10.1,10.4-15.1,6.2-8.6,13.1-16.4,21.4-23,7.2-5.8,15.1-10.4,23.1-14.8,6.2-3.5,12.6-6.7,18.8-10.1,18.6-10.2,37.6-19.6,58-25.8,9.4-2.8,18.8-5.9,28.1-9,9.4-3.1,18.2-7.4,25.7-14.1,6.4-5.8,12.8-11.6,19.1-17.5,9.3-8.6,19.5-15.8,31.4-20.3,6.3-2.4,12.8-4.5,19.2-6.7,7.2-2.5,14.5-4.8,21.6-7.5,11.7-4.5,23.3-9.3,34.9-14.1,10.7-4.4,20.8-10,30.2-16.7,7.4-5.3,14.8-10.8,22.1-16.3,4.7-3.6,9.1-7.6,13.6-11.4,1.5.3,3,.5,4.4,1,11.1,4.1,22.1,8.2,33.2,12.4.9.4,1.8.9,2.7,1.4-2.4,1.6-4.7,3.3-7.2,4.8-10.5,5.9-21,11.7-31.5,17.5-6.5,3.6-13.1,7-19.6,10.7-8.4,4.8-16.2,10.4-23.1,17.2-5.3,5.2-10.7,10.4-16.1,15.5-3.4,3.3-6.8,6.7-10.4,9.7-4.3,3.5-7.7,7.6-10.6,12.2-2.6,4.2-4.7,8.6-5.6,13.5-.5,2.6.9,4,3.4,3.4,3.1-.7,6.3-1.4,9.4-2.2,5.5-1.4,10.4-3.9,15.1-7,7.2-4.8,14.4-9.6,21.7-14.1,7.3-4.6,14.6-9.2,21.5-14.4,2.4-1.9,4.9-3.7,7.4-5.4,14.5-10,29-20,43.4-30,8.9-6.2,17.4-12.9,24.6-21.1ZM600,476.5c.8-.1,1.6-.2,2.4-.4,11.3-3.1,22.5-6.3,33.8-9.4,10.6-2.9,21.1-6.4,31.4-10.3,4.8-1.9,9-4.7,12.8-8.1,6-5.5,11.5-11.5,15.9-18.4,2.2-3.4,4.5-6.8,6.7-10.2,6.4-10,13.1-19.8,20.5-29.1,3.1-4,6.4-7.9,10-11.4,8.5-8.4,18.5-14.7,29-20.4,8.3-4.5,16.7-8.9,25-13.5,15.1-8.4,29.6-17.8,43.3-28.4,8.1-6.2,15.4-13.3,21.3-21.7,6.5-9.3,12.7-18.8,19-28.2,3.6-5.3,6.9-10.9,10.9-15.9,9.8-12.2,18-25.4,25.7-39,2-3.5,3.9-7.1,5.8-10.7.3-.7.9-1.5-.5-2.2-.6.7-1.3,1.3-1.9,2.1-10.9,13.6-22.3,26.8-34.3,39.4-15.9,16.7-32.3,32.9-49.3,48.4-3.7,3.4-7.5,6.8-11.3,10.2-4.4,3.9-8.9,7.8-13.4,11.7-6.4,5.6-12.7,11.2-19.1,16.7-8.2,7.1-16.5,14-24.8,21-7.1,6-14.2,12-21.5,17.8-7.4,5.9-15.1,11.5-22.6,17.3-10.4,8.1-20.8,16.3-31.1,24.6-11.5,9.2-23,18.4-34.5,27.6-11,8.8-22,17.5-33,26.3-4.8,3.8-9.6,7.5-14.4,11.3-.8.7-2.1,1.1-1.8,3ZM344.4,734.5c3.1-.3,5.6-.5,8.1-.9,9.8-1.4,18.5-5.5,26.3-11.5,5.8-4.4,11.7-8.7,18.3-12,3.4-1.7,6.4-3.9,8.9-6.7,3.2-3.7,4.4-8,3.3-12.8-1.1-4.9-4-8.6-8.4-10.9-4.8-2.5-9.9-3.6-15.2-2.9-3.2.4-6.4,1-9.5,1.9-15.6,4.3-29.2,12.6-42.4,21.5-.8.6-1.6,1.3-2.3,2-2.1,2-3.8,4.3-5.1,6.9-4.5,9.6,0,20.6,10.2,23.9,2.7.9,5.6,1.1,7.9,1.5ZM559,709.9c-.7,0-2.5.2-4.3.7-9.2,2.5-17,7.4-23.5,14.3-2.3,2.5-3.8,5.6-4.5,9-1.5,7.3,2.6,14.4,9.5,17.1,3.8,1.5,7.6,1.4,11.4.2,2.9-.9,5.9-1.5,8.9-1.8,10.1-1.1,18-8.2,20.4-17.9,2.9-11.7-4.8-21.5-18-21.6ZM598,497.5c-7.6,0-18.3,6.2-22.1,12.7-3.7,6.4-2.4,13.8,3.3,18.2,2.6,2.1,5.7,3.1,9,3,6.3-.2,11.9-2.1,16.6-6.6,1.7-1.7,3.1-3.6,3.9-5.8.7-1.9,1.5-3.8,2.2-5.7,2-5.6,0-11-5.1-13.9-2.4-1.3-5-2-7.8-1.9ZM838.2,343.7c.3,1.7.4,3.4.9,4.9,2,5.7,8.1,9,14.4,7.6,6.8-1.6,11.8-5.8,14.6-12.2,1.3-2.9,2.7-5.8,3.9-8.8.9-2.2,1.7-4.5,2.1-6.8.6-3.7-.9-6.6-4.1-8.6-1.6-1-3.4-1.4-5.3-1.5-4.1-.2-7.6,1.3-10.9,3.6-5.6,4-9.9,9.2-13.5,15-1.3,2.1-1.9,4.3-2,6.8ZM391,1053.9c-6.2.4-11.1,1.5-15.4,4.4-5.3,3.5-8.1,8.7-7.8,15,.6,11.3,11.4,18.3,21.8,12.9,6.5-3.4,12.7-13.4,12.7-20.8,0-.3,0-.7,0-1-.2-4.1-2.3-7.1-5.9-8.8-1.9-.9-4.1-1.3-5.3-1.6ZM586.3,631.3l-.3.2.4.2v-.4Z"/>
    <path class="st0" d="M691.4,58c-3.3,1.2-6.6,2.6-10,3.6-16.4,4.9-32.4,10.9-48.2,17.6-5.8,2.5-11.5,5-17.2,7.6-4.5,2.1-8.5,4.9-12.3,8-8.5,7-17.1,13.8-25.6,20.9-4.2,3.5-8.1,7.1-12.1,10.8-8.5,7.8-16.9,15.6-25.3,23.5-1,.9-2,1.9-2.9,2.8-5.4,5.4-10.8,10.7-16.2,16.1-8.6,8.6-17.6,16.8-26.8,24.9-9.9,8.8-20.2,17-31,24.6-10.4,7.4-21.6,13.3-33.3,18.4-14.8,6.4-30.1,11.3-45.8,15.2-7.1,1.8-14.1,3.6-21.2,5.5-16.9,4.5-33.9,8.3-51,11.9-7.2,1.5-13.9,4.3-19.7,8.9-4,3.2-8,6.3-11.6,9.9-11,10.8-21.6,22-32.8,32.6-11,10.5-22.2,20.9-34.6,29.8-12.6,9.1-26.4,15.1-41.9,17.2-1.7.2-3.4.3-5.1.3-5.4,0-10.8,0-16.3,0-5.6,0-11.2.2-16.7.6-8.2.6-16.2-.3-23.7-4.1-1.4-.7-2.8-1.2-4.2-1.9.7-1.9,1.3-3.8,2.2-5.6,16.8-33.6,37-65,60.3-94.4,15.3-19.3,31.7-37.5,49.5-54.5,16.6-16,34.3-30.7,52.7-44.5,13.7-10.3,27.3-20.6,41.7-29.9,15.5-10,31.2-19.7,47.7-28.1,4.2-2.1,8.6-4,12.9-5.9-1,1.4-1.9,2.8-3,4-4,4.4-8,8.7-12,13.1-4,4.4-8,8.7-12.1,13-2.4,2.5-4.2,5.3-5.1,8.7-1.4,5.2.6,8.9,5.7,10.8,3.1,1.1,6.3,1.3,9.5.5,2.9-.8,5.9-1.7,8.6-3,9.3-4.4,18.3-9.6,26.5-15.9,11.4-8.8,22.2-18.3,32.6-28.2,9.8-9.4,18-20.2,26.5-30.7,1.9-.8,3.7-1.7,5.6-2.3,12-3.6,24.2-6.3,36.5-8.6,2.3-.4,4.6-1,6.9-1.7,3.1-1,6.2-1.6,9.5-1.5-.7,2.2-2.2,3.8-3.7,5.4-4.3,4.8-8.7,9.5-13,14.3-13.4,14.9-27.9,28.6-43.6,41.1-14.4,11.5-29.7,21.3-47,28-10.7,4.2-21.3,8.7-32,13.1-11.1,4.6-22.3,9.1-33.4,13.8-4.2,1.8-8.2,4-12.3,6.2-7.6,4.1-14.5,9.5-21.4,14.6-14.5,10.6-28.5,21.8-41.5,34.3-7.1,6.8-14.6,13.2-22.4,19.1-3.4,2.5-6.6,5.3-9.7,8.2-1.4,1.4-2.7,3.1-3.5,4.9-1.7,3.6-.9,7,1.6,9.9,1.8,2.1,4.2,3.4,7,3.7,3.4.4,6.8.2,9.9-1.4,2.7-1.4,5.4-2.9,7.9-4.6,7.9-5.2,15.8-10.5,23.6-15.9,10.1-7.1,20.1-14.4,30.2-21.6,8-5.7,15.9-11.6,24-17.1,11.1-7.4,23-12.8,36.3-15.3,12.6-2.5,25.1-5.7,37.2-10.2,7.3-2.7,14.6-5.6,21.8-8.6,10.8-4.5,21.2-9.9,30.8-16.7,25.9-18.2,49.2-39.4,70.1-63.2,9.6-10.9,19.1-22,28.5-33.2,4.3-5,8.2-10.4,12.2-15.6,4.3-.2,8.5-.4,12.8-.5-.8,1.5-1.6,3-2.5,4.4-3.5,5.6-6.3,11.6-8.1,18-3.4,12.3,6.2,22.6,18.8,20.2,1.8-.3,3.6-1,5.3-1.7,1.6-.6,3-1.5,4.5-2.3,10.7-5.4,21.4-10.8,32.2-16.2,6-3,12.2-5.9,18.2-9,5-2.6,9.5-5.9,12.3-11,9.9,1.4,19.7,2.7,29.6,4.1.6,0,1.3.4,1.9.7Z"/>
    <path class="st0" d="M530.2,1145.4c14.9-5.7,27.6-15.1,40.2-24.6,12-9,22.5-19.6,32.4-30.7,9.5-10.6,18.6-21.5,28-32.2,2.1-2.4,4.5-4.6,7.2-6.4,11.7-8.2,23.4-16.2,35.2-24.2,4.2-2.9,8.7-5.2,13.5-7.1,11.9-4.9,23.8-9.8,35.6-14.9,5.7-2.5,11.2-5.7,16.7-8.6.8-.4,1.7-.8,3.5-1.6-.8,1.4-1,2-1.4,2.5-1.6,1.7-3.3,3.5-5,5.1-15.2,14.8-30.3,29.7-45.6,44.3-17.2,16.4-34.8,32.2-52.8,47.7-20.3,17.5-41,34.5-62.2,50.9-1.5,1.1-2.8,2.4-4.3,3.6-2.4,0-4.7.2-7.1,0-9.1-.7-18.1-1.4-27.1-2.3-2.3-.2-4.6-.9-6.9-1.3Z"/>
    <path class="st0" d="M55.8,673.3c1.2-1,2.5-1.8,3.5-2.9,4.3-5.1,9.1-9.6,14-14,4.1-3.6,7.7-7.7,11.7-11.3,6.6-6.1,13.3-12.1,20.1-17.9,13.2-11.2,26.9-21.7,40.8-31.9,2.3-1.7,4.7-3.4,7-5,.7-.5,1.4-1,2.2-1.2.6-.1,1.6,0,1.8.3.4.6.7,1.6.5,2.3-.2,1-.8,1.8-1.4,2.7-2.9,4.2-5.7,8.4-8.8,12.5-8.8,11.6-17.7,23.2-26.7,34.6-6.2,7.8-12.8,15.3-19.4,22.9-6.2,7.2-12.4,14.3-18.7,21.4-5.4,6.1-10.7,12.2-16.2,18.3-1.5,1.6-3.3,2.8-5,4.2-1.4-7.1-2.8-14.2-4-21.4-.7-4.5-1.1-9-1.6-13.6Z"/>
    <path class="st0" d="M669.5,1144.9c4.3-3,8.5-6.1,12.9-9,22.3-14.8,45.2-28.5,67.9-42.6,4.9-3,9.6-6.3,14.4-9.4,1-.6,2-1.1,2.8-1.6,1.2.7,1.1,1.6.7,2.4-1.4,3.3-3.6,6.2-6.1,8.7-4.9,4.9-9.8,9.9-15,14.5-10.5,9.3-21.4,18.1-32.7,26.5-1.5,1.1-2.8,2.4-4.2,3.7-2.3.6-4.5,1.5-6.8,1.9-9.5,1.7-19,3.2-28.5,4.8-1.8.3-3.7.2-5.6.3Z"/>
  </g>
  <g id="jupiter-lightbrown">
    <path class="st2" d="M415,1118.4c7.5-13.1,16.4-25.3,26.5-36.6,6.3-7.1,13-13.8,20.5-19.7,5.1-4,10.4-7.6,16.3-10.3,8.4-3.9,16.9-7.9,25.4-11.7,9.8-4.4,19.2-9.3,27.6-16.1,4.1-3.3,8-6.8,11.8-10.5,5.2-4.9,10.1-10.1,15.2-15,14.2-13.7,29.7-25.8,46.4-36.2,8.6-5.4,17.4-10.5,26.1-15.7,13.2-7.8,25.5-16.8,37.3-26.5,11.1-9.1,22-18.6,33-27.9,7-5.9,14-11.8,21.1-17.5,8.9-7.1,17.9-13.9,26.8-21,4.2-3.4,8.4-6.8,12.4-10.5,45.8-42.9,90-87.4,133.9-132.1,16.8-17,33.2-34.4,49.7-51.7,7.7-8.1,15.2-16.4,22.8-24.6.9-.9,1.6-2,3-3.9-1.6.4-2.3.5-2.8.8-10.2,6.4-20.1,13.3-28.9,21.6-7.3,6.9-14.4,13.9-21.7,20.7-9.9,9.5-19.9,18.9-30.5,27.6-6,5-12.6,9.2-19.5,12.9-6.9,3.7-13.8,7.2-20.7,10.9-3.6,1.9-7.1,3.9-10.7,5.9-5.9,3.4-11.2,7.6-16.1,12.3-7.8,7.6-14.6,16-21.6,24.3-5.5,6.5-11,12.9-16.8,19.1-6.9,7.3-14.8,13.4-23.1,19-12.8,8.6-26,16.7-39.3,24.4-8.5,4.9-16.9,10.1-24.6,16.2-8.4,6.6-16.1,14-23.3,21.9-6.1,6.8-12,13.8-18.2,20.5-10.1,10.9-21.9,19.7-34.9,26.9-13.7,7.5-27.5,14.7-41.8,21-12.7,5.6-24.2,12.9-34.6,22-7.1,6.3-14.3,12.5-21.5,18.7-.8.7-1.5,1.4-2.4,1.9-7.8,4.8-14.8,10.8-22.3,16-5.7,4-11.9,7.2-18.2,10-4.5,2-9.2,3.4-14.2,3.3-8.5-.1-15.2-3.5-19.2-11.1-4.1-7.9-3.1-15.7,1.9-23.1.7-1,1.5-1.9,2.3-2.7,1.3-1.4,2.6-2.7,3.9-4,15-13.3,26.4-29.5,37.1-46.2,7.6-11.8,15.4-23.5,24.7-34.1,3.6-4.1,7.3-8,11.2-11.8,5.8-5.7,11.3-11.7,16.2-18.2,10.8-14,21.6-27.8,32.3-41.9,11.5-15.1,22-30.9,31.8-47.2,8.8-14.6,18.7-28.3,30.5-40.6,7.6-8,16.2-14.9,25.5-20.9,8.5-5.6,17.4-10.5,26.4-15.2,5.1-2.7,10.2-5.4,15.3-8.1,9.6-5.1,17.7-12,24.7-20.1,4.5-5.3,8.8-10.8,13.1-16.2,5.9-7.5,11.6-15,17.5-22.4,1.9-2.4,3.9-4.7,6-6.9,11.9-12.3,24.1-24.3,37-35.6,4.7-4.1,9.9-7.7,14.7-11.8,5.7-4.8,11.2-9.8,16.7-14.8,3.8-3.4,7.5-6.9,11.1-10.4,1.4-1.4,3.1-2.5,4.1-5-1.1.3-1.7.3-2.3.6-7,3-14,6.1-21,9-8.9,3.6-17.1,8.3-24.1,14.8-4.7,4.4-9.4,8.8-14.1,13.2-10.5,9.8-20.9,19.8-31.6,29.5-9.3,8.4-19.2,16.2-29.8,22.9-8.6,5.4-17.9,8.8-28,10.1-3.2.4-6.3,1.2-9.5,1.5-3.5.4-7.1.7-10.6.5-8.3-.6-14.7-6.1-16.8-14-1-4-.4-7.8,1.2-11.4,1-2.1,2.2-4.2,3.5-6.2,3.2-5.2,6.4-10.4,8.7-16.1,2.4-5.7,6.2-10.5,10.4-14.9,2.4-2.6,5-5.1,7.4-7.7,6.2-6.5,12.4-13,18.7-19.4,5.1-5.2,10.3-10.3,15.7-15.2,11.8-10.6,21.6-22.9,31.1-35.5,7.9-10.6,15.8-21.2,24.3-31.3,8.1-9.6,17-18.4,26.9-26.1,15.8-12.3,30.4-26,44.2-40.5,10.5-11,19.1-23.3,26.2-36.7,5-9.4,10.8-18.4,17-27.1,4.3-6.1,9.1-11.8,14.3-17.2,9.3-9.6,19.2-18.6,29.2-27.6,7.1-6.3,14.5-12.3,20.4-19.8,7.6-9.6,14.2-19.9,19.4-30.9,2.5-5.4,4.9-10.8,7.7-16,2.2-4.2,5.1-8,7.6-12,2.9,2.8,6.1,5.4,8.8,8.4,8.9,10,17.6,20.1,26.3,30.2,1.2,1.4,2.1,3,3.2,4.5-1.7,1.7-3.5,3.2-5,5-10.5,13.5-20.9,27.1-31.9,40.1-7.3,8.7-14.4,17.5-21.6,26.3-6.6,8.1-13.2,16.3-19.8,24.5-9.4,11.6-16.6,24.7-24.9,37.1-.6.9-.9,2.2-1.2,3.3-.2,1,.9,2.1,1.9,1.9,1.3-.3,2.6-.7,3.8-1.3,4.4-2.5,8.9-4.9,13.2-7.5,7.9-4.7,15.7-9.3,22.6-15.5,2.8-2.5,5.7-4.8,8.4-7.4,6.4-6.1,12.8-12.1,18.9-18.4,6.7-6.9,13.2-14.1,19.5-21.3,7.7-8.8,16.1-16.9,24.2-25.3.9-1,1.7-2.1,2.6-3.1,3.2-3.5,6.2-7.2,10.2-9.8.6.6,1.3,1.1,1.8,1.8,5.3,8.2,10.5,16.5,15.7,24.7-2.2.8-2.9,2.7-3.7,4.6-4.6,10.5-9.3,21.1-14,31.6-3.9,8.7-7.9,17.2-11.8,25.9-5.4,12-10.8,24.1-16.2,36.2-4.8,10.8-9.5,21.7-14.6,32.4-5.5,11.6-11.4,23.1-17.2,34.6-3.3,6.5-7,12.8-10.2,19.3-3.5,7.2-6.6,14.5-9.9,21.7-1,2.3-1.6,4.8-1.9,7.3-.6,5.6,4.7,11,10.5,10.4,3-.3,5.6-1.2,7.7-3.4,3.2-3.7,6.4-7.4,9.6-11.2,5.9-7,11.5-14.3,17.7-21,10.4-11.2,21.1-22,31.8-32.8,7.3-7.3,14.6-14.6,22.2-21.7,10.5-9.8,20.5-20.2,31.2-29.8,3.4-3.1,6.8-6.1,10.2-9.1.7-.6,1.8-1,2.6-1.5.7,1.5,1.6,3,2.1,4.5,3.4,10.6,6.8,21.2,10.1,31.8.8,2.6,1.6,5.2,2.3,7.8.4,1.6.7,3.3,1,4.9-2.4.5-2.9,2.7-3.7,4.5-6.4,13.7-12.5,27.4-19.2,40.9-7.6,15.3-15.7,30.4-23.7,45.6-4.4,8.4-8.9,16.8-13.7,25-8.7,15.1-17.5,30.2-26.5,45.1-13.2,22.1-27,43.8-41.7,65-14,20.2-28.2,40.2-43.5,59.5-6.8,8.6-13.8,17.1-20.9,25.6-4.7,5.6-9.5,11-14.4,16.4-6.2,6.9-12.3,14-18.9,20.6-8.8,8.9-18,17.4-27,26.1-.6.6-1.3,1.1-1.9,1.6-5.4,4.9-11.2,9.4-16.1,14.7-6.4,6.9-12.3,14.4-18.2,21.8-1.5,1.8-2.5,4-3.4,6.2-2.6,6.6-.6,12,5.3,15.7,1.7,1.1,3.5,2.2,4.8,3.7,3.5,4.1,7.7,5.9,13,5.3,1.7-.2,3.4,0,5.1-.4,7-1.4,13.7-3.8,20-7.3,5.2-2.9,10.2-6.1,15.1-9.4,19.5-13.1,39.1-26.3,58.5-39.7,13-9,25.5-18.5,37.4-28.9.6-.5,1.3-.8,2-1.2,1.1,1.4.3,2.2-.2,3-5.1,8.2-10.1,16.5-15.3,24.6-7.2,11.1-15.1,21.7-23.3,32.1-9.1,11.6-18.8,22.7-28.9,33.4-10.3,10.8-20.7,21.4-31.9,31.3-6.3,5.6-12.6,11.3-19,16.9-9.6,8.3-19.5,16.4-29.7,23.8-5,3.6-9.4,7.7-13.6,12.2-4.7,5.2-8.4,11.1-11.2,17.5-1,2.3-1.6,4.8-1.5,7.4,0,2.2.9,3.9,2.4,5.4,2.2,2.2,4.8,3.1,7.8,3.1,8.2.2,16.2-1.2,23.9-4.1,16.2-6,32.6-11.6,48.3-18.9,5.4-2.5,10.8-4.9,16.1-7.6,3.6-1.8,7.2-3.8,10.7-5.8,8.3-4.6,16.6-9.2,24.9-13.7,1.2-.7,2.4-1.4,3.6-1.9.5-.2,1.2,0,2.4,0-1,1.4-1.6,2.4-2.4,3.2-2.8,2.9-5.7,5.8-8.6,8.7-10,10.4-20.6,20.1-31.6,29.4-9.8,8.3-19.9,16.4-29.8,24.5-7.4,6-14.6,12.1-22.2,17.8-9.6,7.3-19.5,14.2-29.2,21.2-1.9,1.4-3.9,2.8-5.7,4.3-5.7,4.7-8.9,10.6-8.5,18.1-1.3.7-2.6,1.6-4,2.2-34,15-69.2,26.5-105.5,34.4-2.1.5-4.3.7-6.5,1,1.4-1.2,2.7-2.6,4.2-3.7,11.3-8.4,22.2-17.2,32.7-26.5,5.2-4.6,10.1-9.5,15-14.5,2.5-2.5,4.6-5.4,6.1-8.7.3-.8.5-1.6-.7-2.4-.8.5-1.9,1-2.8,1.6-4.8,3.1-9.6,6.4-14.4,9.4-22.7,14.1-45.7,27.8-67.9,42.6-4.4,2.9-8.6,6-12.9,9-3.3.5-6.7,1.1-10,1.5-12.1,1.4-24.2,2.3-36.4,2.9-12.2.6-24.4.9-36.5.6-5.1-.1-10.1-.6-15.2-.9,1.4-1.2,2.8-2.5,4.3-3.6,21.2-16.4,41.8-33.4,62.2-50.9,18-15.5,35.6-31.4,52.8-47.7,15.3-14.6,30.4-29.5,45.6-44.3,1.7-1.7,3.3-3.4,5-5.1.4-.4.6-1,1.4-2.5-1.8.8-2.6,1.2-3.5,1.6-5.6,2.9-11,6.1-16.7,8.6-11.8,5.2-23.7,10-35.6,14.9-4.7,2-9.3,4.2-13.5,7.1-11.7,8.1-23.5,16.1-35.2,24.2-2.6,1.8-5,4-7.2,6.4-9.4,10.7-18.5,21.6-28,32.2-10,11.1-20.4,21.7-32.4,30.7-12.6,9.5-25.3,18.9-40.2,24.6-9.7-.4-19.1-2.2-28.6-3.9-27.3-4.9-54.2-11.8-80.4-20.8-2.1-.7-4.1-1.6-6.1-2.4Z"/>
    <path class="st2" d="M219.4,997.7c2.6-3.4,5.9-6.1,9.5-8.3,7.4-4.4,14.8-8.9,22.5-12.9,14.5-7.4,28.7-15.3,42.8-23.4,8.8-5,17.9-8.9,28-10,5.9-.7,11-3.1,15.6-6.8,4.2-3.4,8.4-6.8,12.6-10.3,12.2-10.1,25.3-18.7,39.2-26.3,2.8-1.5,5.6-3.2,8.3-5,7.4-4.7,14.9-9.4,22.2-14.3,3.5-2.3,6.9-4.9,10.3-7.4,4.2-3.2,8.5-6.2,13.4-8.2,2.8-1.2,5.7-2.3,8.6-2.9,11.8-2.3,20.4,6.9,19.9,16.7-.2,3.3-.9,6.4-2.2,9.3-2.5,5.4-5.8,10.3-9.9,14.6-3.9,4-7.9,7.9-11.6,12.1-3.8,4.1-7.3,8.5-11,12.7-3.7,4.2-6.9,8.8-9.8,13.6-8,13-16.8,25.4-26.6,37.1-6.1,7.2-13.2,13.2-21.3,17.9-4.7,2.7-8.4,6.2-11.3,10.7-4,6.3-8.4,12.3-12.6,18.5-8.1,11.7-18.1,21.5-29.4,30-5.3,4-11.1,7.2-17.4,9.4-1.1.4-2.2.9-3.3,1.3-6.4-4.1-13-8-19.3-12.3-17.6-12.1-34.4-25.3-50.5-39.4-4.5-3.9-8.8-7.9-13.1-12-1.3-1.3-2.4-2.8-3.6-4.2Z"/>
    <path class="st2" d="M165.1,938c2.6-1.7,5.2-3.2,7.7-5,10.8-7.7,21.5-15.4,32.2-23.1,2.9-2.1,5.6-4.3,8.3-6.7,11-9.4,23.1-17.2,36.4-22.9,8.3-3.5,16.3-7.6,23.8-12.6,8.3-5.4,17.1-9.7,26.3-13.1,10-3.7,18.7-9.4,26.5-16.6,3.9-3.6,7.7-7.2,11.5-10.7,9.8-9,20.8-16.3,32.9-21.8,5.4-2.5,11.1-4.2,17-4.9,10.9-1.4,21.1-4.8,31.3-8.6,7-2.6,13.8-5.7,20.8-8.4,4.7-1.8,9.5-3.6,14.4-5.1,2.7-.8,5.1-1.8,7.2-3.5,4.7-3.6,9.7-6.9,15.1-9.3,2-.9,4-1.9,6.2-2.3,2.1-.4,4.4-.7,6.5-.3,4.6.7,7.4,4.7,6.7,9.2-.3,2-1,3.9-1.9,5.7-5.6,11.4-13.6,20.6-24.8,26.8-6.4,3.5-12.9,6.8-19.3,10.2-3,1.6-6,3.1-9,4.8-3.9,2.2-7.1,5.1-9.9,8.6-7.6,9.4-16.1,17.9-25.7,25.3-7.4,5.7-15.2,10.9-23.4,15.2-8.7,4.5-17.7,8.6-26.5,13-4.4,2.2-8.8,4.5-12.9,7.1-11.8,7.6-23.6,15.4-35.2,23.3-4.6,3.1-9,6.7-13.4,10.1-9.4,7.5-19.2,14.5-29.8,20.2-5.4,2.9-10.3,6.5-14.8,10.7-9.4,8.8-19.9,15.7-31.6,21-5.1,2.3-10.3,4.4-15.4,6.6-2.2-2.1-4.6-4-6.6-6.2-9.7-10.6-19.2-21.4-28-32.7-.9-1.2-1.7-2.5-2.6-3.7Z"/>
    <path class="st2" d="M566.5,51.3c-4.1,5.2-8,10.5-12.2,15.6-9.4,11.1-18.8,22.2-28.5,33.2-20.9,23.8-44.1,45-70.1,63.2-9.6,6.8-20,12.2-30.8,16.7-7.2,3-14.5,5.8-21.8,8.6-12.1,4.5-24.6,7.8-37.2,10.2-13.2,2.6-25.2,7.9-36.3,15.3-8.2,5.5-16,11.4-24,17.1-10.1,7.2-20,14.5-30.2,21.6-7.8,5.4-15.7,10.7-23.6,15.9-2.5,1.7-5.2,3.2-7.9,4.6-3.1,1.6-6.5,1.8-9.9,1.4-2.8-.3-5.2-1.6-7-3.7-2.5-3-3.3-6.3-1.6-9.9.8-1.8,2-3.6,3.5-4.9,3.1-2.9,6.3-5.6,9.7-8.2,7.9-5.9,15.4-12.3,22.4-19.1,13-12.5,27-23.7,41.5-34.3,7-5.1,13.8-10.4,21.4-14.6,4-2.2,8.1-4.4,12.3-6.2,11.1-4.7,22.2-9.2,33.4-13.8,10.7-4.4,21.2-8.9,32-13.1,17.2-6.7,32.6-16.5,47-28,15.7-12.5,30.2-26.2,43.6-41.1,4.3-4.8,8.6-9.6,13-14.3,1.5-1.6,3-3.3,3.7-5.4,1.5-.3,3-.7,4.5-.9,9.9-1.2,19.8-2.4,29.7-3.6,6.5-.8,13.1-1.5,19.6-2.2,1.3-.1,2.7,0,4,0Z"/>
    <path class="st2" d="M89.9,806.4c4-2.3,7.9-4.6,11.9-6.9,11.3-6.6,23.4-11.5,35.7-15.8,5.3-1.8,10.5-3.8,15.8-5.6,8.5-2.8,15.9-7.6,22.5-13.5,4.2-3.7,8.4-7.4,12.3-11.4,8.5-8.7,18.7-14.5,30.2-18.2,4.5-1.4,9.1-2.7,13.6-4.1,6.4-1.9,13-2.5,19.6-2,7,.5,13.9.3,20.8-.7,1.2-.2,2.4-.3,3.5-.2,2.8.3,4.1,2.4,3.3,5.1,0,.2,0,.3-.2.5-2.5,4.8-4.8,9.7-8.6,13.7-4,4.2-8.7,6.9-14,8.9-3,1.1-6.1,2-9.1,3.1-7.3,2.6-13.7,6.4-19.4,11.7-9.4,8.8-18.9,17.4-28.6,25.9-9.8,8.6-21.1,14.7-33.4,18.9-5.8,2-11.5,4.1-17.3,6.1-13.3,4.5-25.6,10.8-37.3,18.4-1.6,1-3.2,1.9-4.8,2.9-.8-1.2-1.8-2.4-2.4-3.8-4.6-10.4-9.1-20.9-13.7-31.3-.3-.6-.3-1.3-.5-1.9Z"/>
    <path class="st2" d="M834.9,103.3c-7.2,8.2-15.7,14.9-24.6,21.1-14.5,10-29,20-43.4,30-2.5,1.7-5,3.5-7.4,5.4-6.8,5.3-14.1,9.9-21.5,14.4-7.3,4.5-14.5,9.3-21.7,14.1-4.7,3.1-9.7,5.6-15.1,7-3.1.8-6.2,1.6-9.4,2.2-2.6.5-3.9-.8-3.4-3.4,1-4.9,3-9.3,5.6-13.5,2.9-4.6,6.3-8.7,10.6-12.2,3.7-3,7-6.4,10.4-9.7,5.4-5.1,10.8-10.3,16.1-15.5,6.9-6.8,14.7-12.5,23.1-17.2,6.5-3.7,13.1-7.1,19.6-10.7,10.5-5.8,21-11.6,31.5-17.5,2.5-1.4,4.8-3.2,7.2-4.8,1.8.6,3.5,1.1,5.2,1.8,4.3,1.8,8.7,3.7,12.9,5.7,1.5.7,2.8,1.8,4.2,2.7Z"/>
    <path class="st2" d="M897.9,138.2c-13.2,8.7-26.3,17.4-39.5,26-6.6,4.3-13.6,7.7-20.9,10.4-7.1,2.7-14.2,5.5-21.3,8.3-7.3,2.8-14.7,5.3-22.3,6.9-8.2,1.7-16.4,2.8-24.7,1.5-2.2-.3-4.3-.9-6.3-1.7-2-.8-2.2-2.7-.5-4,1.2-.9,2.5-1.7,3.8-2.5,14.2-8.3,28.5-16.3,43.4-23.4,7.7-3.7,14.8-8.1,21.8-12.9,11-7.6,22.3-14.8,33.5-22.1,1.7-1.1,3.3-2.4,4.9-3.5,9.7,4.7,18.7,10.4,27.5,16.5.3.2.5.5.7.7Z"/>
    <path class="st2" d="M985.9,208.5c-7.1,10.9-14.9,21.4-22.9,31.7-4.6,5.9-9.5,11.5-15,16.6-4.5,4.2-9.7,7.5-15.7,9-2.3.6-4.7.8-7,.7-6.2-.3-10.8-4.7-11.5-10.9-.4-3-.1-6.1.7-9.1,1.3-4.4,3.4-8.5,5.6-12.5,10.7-18.7,21.3-37.4,32-56.1,1.5,1.1,3.1,2,4.5,3.2,8.8,7.9,17.6,15.8,26.3,23.8,1.1,1,2,2.3,3,3.4Z"/>
    <path class="st2" d="M450.2,72c-8.5,10.5-16.8,21.3-26.5,30.7-10.4,10-21.2,19.4-32.6,28.2-8.2,6.3-17.2,11.5-26.5,15.9-2.7,1.3-5.7,2.2-8.6,3-3.2.9-6.4.7-9.5-.5-5.1-1.8-7.1-5.6-5.7-10.8.9-3.3,2.7-6.1,5.1-8.7,4.1-4.3,8-8.7,12.1-13,4-4.4,8.1-8.7,12-13.1,1.1-1.2,2-2.7,3-4,4.2-1.9,8.3-3.9,12.5-5.7,5.9-2.6,11.9-5,17.8-7.6,13.2-5.8,27.1-9.8,41-13.5,1.9-.5,4-.7,6-1Z"/>
    <path class="st2" d="M659.9,53.2c-2.7,5.2-7.2,8.4-12.3,11-6,3.1-12.1,5.9-18.2,9-10.7,5.4-21.5,10.8-32.2,16.2-1.5.8-3,1.6-4.5,2.3-1.7.7-3.5,1.4-5.3,1.7-12.6,2.3-22.2-7.9-18.8-20.2,1.7-6.4,4.5-12.4,8.1-18,.9-1.4,1.7-2.9,2.5-4.4,1.8-.2,3.7-.7,5.5-.7,14,0,28-.2,42,.2,9.1.2,18.2,1.2,27.2,2,2,.2,4,.7,6,1Z"/>
    <path class="st2" d="M344.4,734.5c-2.3-.4-5.2-.7-7.9-1.5-10.1-3.2-14.8-14.3-10.2-23.9,1.2-2.6,2.9-5,5.1-6.9.7-.7,1.5-1.4,2.3-2,13.3-8.9,26.8-17.2,42.4-21.5,3.1-.8,6.3-1.5,9.5-1.9,5.4-.7,10.5.4,15.2,2.9,4.4,2.3,7.3,6,8.4,10.9,1.1,4.8,0,9.1-3.3,12.8-2.5,2.9-5.5,5.1-8.9,6.7-6.6,3.2-12.5,7.5-18.3,12-7.8,6-16.5,10-26.3,11.5-2.5.4-5,.6-8.1.9Z"/>
    <path class="st2" d="M559,709.9c13.3,0,20.9,9.8,18,21.6-2.4,9.7-10.3,16.7-20.4,17.9-3,.3-6,.9-8.9,1.8-3.8,1.2-7.6,1.3-11.4-.2-6.9-2.7-11-9.8-9.5-17.1.7-3.4,2.1-6.5,4.5-9,6.5-7,14.3-11.8,23.5-14.3,1.8-.5,3.7-.6,4.3-.7Z"/>
    <path class="st2" d="M598,497.5c2.8,0,5.4.6,7.8,1.9,5.2,2.9,7.2,8.3,5.1,13.9-.7,1.9-1.5,3.8-2.2,5.7-.9,2.2-2.2,4.2-3.9,5.8-4.6,4.5-10.3,6.4-16.6,6.6-3.3,0-6.4-.9-9-3-5.7-4.5-7-11.8-3.3-18.2,3.7-6.5,14.5-12.7,22.1-12.7Z"/>
    <path class="st2" d="M838.2,343.7c.2-2.5.8-4.8,2-6.8,3.6-5.8,7.9-11,13.5-15,3.2-2.3,6.8-3.8,10.9-3.6,1.9,0,3.7.5,5.3,1.5,3.2,2,4.7,5,4.1,8.6-.3,2.3-1.2,4.6-2.1,6.8-1.2,3-2.6,5.9-3.9,8.8-2.9,6.5-7.8,10.6-14.6,12.2-6.2,1.5-12.4-1.8-14.4-7.6-.5-1.6-.6-3.3-.9-4.9Z"/>
    <path class="st2" d="M391,1053.9c1.2.3,3.4.7,5.3,1.6,3.6,1.7,5.6,4.8,5.9,8.8,0,.3,0,.7,0,1,0,7.4-6.2,17.3-12.7,20.8-10.3,5.4-21.2-1.5-21.8-12.9-.3-6.4,2.5-11.5,7.8-15,4.3-2.9,9.3-4,15.4-4.4Z"/>
  </g>
  <g id="jupiter-darkbrown">
    <path class="st1" d="M826.3,1100.3c-.4-7.6,2.8-13.4,8.5-18.1,1.8-1.5,3.8-2.9,5.7-4.3,9.7-7.1,19.6-14,29.2-21.2,7.6-5.7,14.8-11.8,22.2-17.8,10-8.1,20-16.2,29.8-24.5,11-9.3,21.7-19,31.6-29.4,2.8-2.9,5.7-5.8,8.6-8.7.8-.8,1.4-1.8,2.4-3.2-1.2,0-1.9-.2-2.4,0-1.2.5-2.4,1.2-3.6,1.9-8.3,4.6-16.6,9.2-24.9,13.7-3.6,2-7.1,4-10.7,5.8-5.3,2.6-10.7,5.1-16.1,7.6-15.7,7.2-32.1,12.8-48.3,18.9-7.7,2.9-15.7,4.3-23.9,4.1-3,0-5.6-.9-7.8-3.1-1.5-1.5-2.3-3.3-2.4-5.4,0-2.6.5-5.1,1.5-7.4,2.8-6.4,6.4-12.3,11.2-17.5,4.1-4.5,8.6-8.6,13.6-12.2,10.3-7.5,20.1-15.5,29.7-23.8,6.4-5.5,12.6-11.3,19-16.9,11.2-9.9,21.6-20.6,31.9-31.3,10.2-10.6,19.8-21.8,28.9-33.4,8.2-10.4,16.1-21,23.3-32.1,5.3-8.1,10.3-16.4,15.3-24.6.5-.8,1.3-1.7.2-3-.6.4-1.4.7-2,1.2-11.9,10.4-24.4,19.9-37.4,28.9-19.4,13.4-39,26.5-58.5,39.7-4.9,3.3-10,6.5-15.1,9.4-6.2,3.5-13,5.9-20,7.3-1.6.3-3.4.3-5.1.4-5.3.5-9.6-1.2-13-5.3-1.3-1.5-3.1-2.6-4.8-3.7-5.9-3.8-7.9-9.2-5.3-15.7.9-2.2,1.9-4.4,3.4-6.2,5.9-7.4,11.8-14.9,18.2-21.8,4.9-5.3,10.7-9.8,16.1-14.7.6-.6,1.3-1.1,1.9-1.6,9-8.7,18.2-17.2,27-26.1,6.5-6.6,12.7-13.7,18.9-20.6,4.9-5.4,9.7-10.9,14.4-16.4,7.1-8.4,14-17,20.9-25.6,15.3-19.3,29.5-39.3,43.5-59.5,14.7-21.2,28.4-42.9,41.7-65,9-15,17.8-30,26.5-45.1,4.7-8.2,9.2-16.6,13.7-25,8-15.1,16.1-30.2,23.7-45.6,6.7-13.5,12.8-27.3,19.2-40.9.8-1.8,1.3-3.9,3.7-4.5.9,3.5,1.8,7.1,2.7,10.6.1.5.2,1,.3,1.5.2.9.4,1.7.6,2.6,0,.5.2,1,.3,1.5.9,4.1,1.8,8.1,2.7,12.2.1.6.2,1.2.4,1.8.2,1.1.4,2.2.7,3.3.1.6.2,1.2.3,1.8.3,1.6.6,3.2.9,4.8,0,.5.2,1,.2,1.5.2,1.2.5,2.4.7,3.6,0,.1-.2.3-.2.5,0,.3.3.6.4.9.2,1.4.5,2.8.7,4.2,0,.6.2,1.2.3,1.8.2,1.4.5,2.9.7,4.3-.4,1-.2,2,.4,2.8.3,1.9.6,3.9.9,5.8,0,.5,0,1,.1,1.5.3,1.9.5,3.8.8,5.7-.5.8-.5,1.6.2,2.3.3,2.3.5,4.6.8,6.8-.6.8-.5,1.6.2,2.3.2,2.3.5,4.6.7,6.9-.6,1.1-.6,2.2.3,3.3.3,3.3.5,6.6.8,9.9-.7,1.5-.7,2.9.3,4.3.2,4.3.5,8.7.7,13-.8,3.1-1,6.3.3,9.4,0,9.1,0,18.1,0,27.2-1.2,3.1-1.1,6.2-.3,9.4-.2,4.3-.5,8.7-.7,13-1,1.4-1,2.8-.3,4.3-.2,3-.5,5.9-.7,8.9-.9,1-.9,2.1-.3,3.3-.2,2.3-.5,4.6-.7,6.8-.7.7-.8,1.5-.2,2.3-.3,2.3-.6,4.5-.8,6.8-.7.7-.8,1.5-.2,2.3-.6,4.3-1.2,8.6-1.8,12.9,0,.4-.2.9-.3,1.4-.2,1.5-.5,3.1-.7,4.6,0,.5-.2,1-.3,1.5-.3,1.5-.5,3.1-.8,4.6,0,.5-.1,1-.2,1.5-.2,1.2-.5,2.4-.7,3.6-.8.9-.8,2-.4,3.1-.2,1.1-.4,2.1-.7,3.2-.1.6-.2,1.2-.4,1.9-.2,1.1-.4,2.2-.6,3.2-.2.6-.3,1.2-.5,1.8-.5,2.4-1,4.8-1.6,7.1-.1.5-.2,1-.3,1.5-.2.9-.4,1.7-.6,2.6-.1.5-.2,1-.3,1.5-.2.9-.5,1.7-.7,2.6-.1.7-.3,1.4-.4,2.1-5.1,21.5-11.8,42.4-19.7,63-22.2,57.2-52.9,109.4-92.4,156.4-52.3,62.4-115.4,110.7-189.1,145.3-1.8.9-3.8,1.4-5.7,2.2Z"/>
    <path class="st1" d="M1115.1,408.6c-.9.5-1.9.8-2.6,1.5-3.4,3-6.8,6.1-10.2,9.1-10.7,9.6-20.7,20-31.2,29.8-7.6,7.1-14.9,14.3-22.2,21.7-10.7,10.8-21.4,21.7-31.8,32.8-6.2,6.7-11.8,14-17.7,21-3.2,3.8-6.3,7.5-9.6,11.2-2,2.3-4.6,3.1-7.7,3.4-5.8.6-11.1-4.8-10.5-10.4.3-2.6.8-5,1.9-7.3,3.3-7.3,6.4-14.6,9.9-21.7,3.2-6.5,6.9-12.8,10.2-19.3,5.8-11.5,11.7-22.9,17.2-34.6,5.1-10.7,9.7-21.6,14.6-32.4,5.4-12.1,10.8-24.1,16.2-36.2,3.9-8.6,7.9-17.2,11.8-25.9,4.7-10.5,9.4-21,14-31.6.8-1.9,1.5-3.8,3.7-4.6,3.4,5.7,6.8,11.3,10,17.1,12.5,22.4,23.1,45.6,32,69.6.8,2.2,1.3,4.5,1.9,6.8Z"/>
    <path class="st1" d="M1053.6,288.6c-4,2.6-7,6.4-10.2,9.8-.9,1-1.7,2.1-2.6,3.1-8.2,8.4-16.5,16.5-24.2,25.3-6.4,7.2-12.8,14.4-19.5,21.3-6.1,6.3-12.5,12.4-18.9,18.4-2.7,2.6-5.6,4.9-8.4,7.4-6.8,6.2-14.7,10.8-22.6,15.5-4.4,2.6-8.8,5.1-13.2,7.5-1.2.6-2.5,1-3.8,1.3-1,.2-2.1-.9-1.9-1.9.2-1.1.5-2.3,1.2-3.3,8.3-12.4,15.6-25.4,24.9-37.1,6.6-8.2,13.1-16.4,19.8-24.5,7.2-8.8,14.3-17.6,21.6-26.3,11-13.1,21.4-26.6,31.9-40.1,1.4-1.8,3.3-3.4,5-5,1.7,1.9,3.4,3.7,4.9,5.7,5.2,7.1,10.3,14.2,15.4,21.3.3.4.4.9.7,1.4Z"/>
  </g>
  </g>
</svg>