<?xml version="1.0" encoding="utf-8"?>
<!-- Designed by Vexels.com - 2020 All Rights Reserved - https://vexels.com/terms-and-conditions/  -->
<svg version="1.1" id="Capa_1" xmlns="http://www.w3.org/2000/svg" xmlns:xlink="http://www.w3.org/1999/xlink" x="0px" y="0px"
	 viewBox="0 0 1200 1200" enable-background="new 0 0 1200 1200" xml:space="preserve">
<g>
	<path fill="#F4B140" d="M834.927,103.327c1.425,0.466,2.944,0.75,4.26,1.426c9.541,4.902,19.045,9.878,28.549,14.853
		c0.736,0.385,1.382,0.942,2.065,1.419c-1.648,1.184-3.251,2.43-4.942,3.544c-11.178,7.366-22.514,14.503-33.514,22.124
		c-6.994,4.845-14.175,9.268-21.829,12.945c-14.832,7.123-29.162,15.173-43.373,23.442c-1.315,0.765-2.643,1.539-3.84,2.47
		c-1.66,1.291-1.469,3.211,0.511,3.98c2.029,0.789,4.184,1.368,6.336,1.707c8.339,1.313,16.56,0.182,24.726-1.506
		c7.657-1.583,15.044-4.074,22.329-6.875c7.118-2.737,14.196-5.579,21.338-8.253c7.333-2.746,14.34-6.136,20.891-10.408
		c13.202-8.608,26.348-17.301,39.516-25.959c1.333,0.715,2.73,1.333,3.991,2.158c15.837,10.356,30.983,21.657,45.695,33.545
		c1.571,1.27,3.005,2.709,4.5,4.068c-10.657,18.688-21.299,37.384-31.976,56.06c-2.278,3.984-4.318,8.056-5.647,12.469
		c-0.896,2.975-1.122,6.003-0.749,9.052c0.754,6.159,5.347,10.578,11.525,10.873c2.33,0.111,4.754-0.163,7.025-0.715
		c6.066-1.473,11.205-4.722,15.728-8.955c5.455-5.104,10.399-10.688,14.981-16.573c8.015-10.294,15.737-20.806,22.883-31.73
		c3.176,2.503,6.118,5.236,8.437,8.584c-2.565,3.987-5.388,7.832-7.629,11.992c-2.809,5.212-5.136,10.683-7.677,16.039
		c-5.253,11.074-11.848,21.301-19.408,30.934c-5.907,7.527-13.3,13.523-20.365,19.839c-9.985,8.925-19.859,17.957-29.208,27.552
		c-5.215,5.352-10.005,11.058-14.304,17.166c-6.15,8.736-11.935,17.707-16.984,27.132c-7.161,13.369-15.772,25.716-26.225,36.707
		c-13.797,14.507-28.404,28.147-44.223,40.459c-9.931,7.729-18.814,16.522-26.944,26.141c-8.543,10.108-16.383,20.74-24.32,31.309
		c-9.472,12.613-19.317,24.895-31.102,35.507c-5.41,4.872-10.584,10.016-15.708,15.193c-6.318,6.383-12.467,12.931-18.697,19.4
		c-2.469,2.564-4.99,5.078-7.434,7.665c-4.21,4.455-8.072,9.18-10.425,14.92c-2.328,5.677-5.494,10.879-8.733,16.055
		c-1.256,2.007-2.495,4.051-3.474,6.2c-1.652,3.625-2.28,7.406-1.233,11.385c2.088,7.931,8.415,13.45,16.751,14.019
		c3.518,0.24,7.103-0.127,10.63-0.486c3.197-0.326,6.343-1.12,9.535-1.526c10.089-1.284,19.37-4.687,27.977-10.111
		c10.649-6.711,20.484-14.491,29.804-22.884c10.7-9.635,21.071-19.636,31.59-29.473c4.702-4.397,9.411-8.787,14.124-13.173
		c7.045-6.556,15.233-11.223,24.12-14.818c7.065-2.859,14.026-5.976,21.042-8.956c0.555-0.236,1.182-0.299,2.299-0.568
		c-0.955,2.529-2.669,3.681-4.083,5.031c-3.676,3.511-7.368,7.008-11.142,10.413c-5.534,4.993-11.06,10.002-16.749,14.815
		c-4.784,4.048-9.962,7.636-14.672,11.763c-12.883,11.285-25.082,23.296-36.974,35.615c-2.115,2.191-4.142,4.486-6.031,6.874
		c-5.888,7.441-11.659,14.974-17.536,22.424c-4.302,5.453-8.551,10.959-13.088,16.214c-7.031,8.143-15.156,15.021-24.715,20.095
		c-5.089,2.702-10.164,5.432-15.268,8.107c-9.011,4.723-17.909,9.633-26.445,15.187c-9.272,6.034-17.862,12.914-25.504,20.9
		c-11.769,12.298-21.703,26.005-30.457,40.579c-9.782,16.286-20.294,32.086-31.792,47.209c-10.666,14.03-21.518,27.918-32.286,41.87
		c-4.978,6.45-10.432,12.468-16.232,18.194c-3.856,3.807-7.615,7.729-11.192,11.797c-9.317,10.593-17.094,22.308-24.734,34.134
		c-10.777,16.68-22.178,32.888-37.143,46.222c-1.389,1.238-2.662,2.611-3.942,3.965c-0.813,0.86-1.627,1.743-2.289,2.718
		c-4.976,7.334-5.93,15.149-1.857,23.08c3.93,7.652,10.668,10.964,19.17,11.108c5.056,0.086,9.725-1.277,14.238-3.312
		c6.342-2.859,12.517-6.039,18.247-10.024c7.508-5.222,14.46-11.215,22.282-16.003c0.859-0.526,1.599-1.255,2.365-1.922
		c7.158-6.227,14.336-12.433,21.457-18.702c10.391-9.146,21.93-16.465,34.607-22.019c14.296-6.263,28.139-13.437,41.806-20.951
		c13.01-7.154,24.802-15.956,34.918-26.856c6.223-6.705,12.122-13.709,18.247-20.506c7.159-7.944,14.868-15.311,23.273-21.949
		c7.739-6.112,16.071-11.313,24.59-16.231c13.362-7.714,26.494-15.797,39.313-24.385c8.329-5.58,16.283-11.662,23.142-18.99
		c5.785-6.182,11.282-12.639,16.759-19.1c7.012-8.273,13.848-16.686,21.642-24.272c4.891-4.761,10.166-8.963,16.081-12.35
		c3.529-2.021,7.085-3.998,10.678-5.902c6.888-3.651,13.842-7.18,20.712-10.864c6.884-3.692,13.436-7.908,19.457-12.91
		c10.564-8.777,20.554-18.19,30.503-27.646c7.246-6.888,14.407-13.866,21.663-20.744c8.774-8.317,18.676-15.146,28.864-21.579
		c0.487-0.308,1.151-0.338,2.763-0.779c-1.403,1.86-2.092,2.955-2.955,3.89c-7.589,8.214-15.12,16.484-22.839,24.575
		c-16.493,17.289-32.924,34.643-49.674,51.682c-43.962,44.719-88.173,89.191-133.927,132.094
		c-3.948,3.702-8.139,7.162-12.377,10.533c-8.884,7.065-17.939,13.917-26.802,21.007c-7.144,5.715-14.152,11.603-21.147,17.502
		c-11.01,9.284-21.828,18.8-32.969,27.922c-11.807,9.668-24.119,18.674-37.285,26.459c-8.753,5.176-17.504,10.359-26.148,15.712
		c-16.775,10.387-32.206,22.526-46.437,36.18c-5.136,4.928-10.056,10.081-15.212,14.987c-3.802,3.618-7.715,7.139-11.776,10.462
		c-8.331,6.814-17.815,11.707-27.571,16.128c-8.49,3.848-16.938,7.788-25.385,11.73c-5.867,2.738-11.201,6.326-16.301,10.296
		c-7.523,5.857-14.191,12.62-20.524,19.686c-10.093,11.26-18.914,23.479-26.461,36.598c-3.212-1.024-6.474-1.913-9.627-3.094
		c-32.846-12.292-64.228-27.596-94.127-45.927c-1.859-1.14-3.559-2.541-5.329-3.82c1.102-0.443,2.182-0.943,3.303-1.321
		c6.327-2.134,12.07-5.368,17.387-9.351c11.329-8.486,21.354-18.271,29.42-29.963c4.232-6.135,8.55-12.216,12.584-18.48
		c2.92-4.534,6.61-7.974,11.292-10.685c8.11-4.694,15.22-10.653,21.306-17.865c9.859-11.682,18.674-24.093,26.638-37.121
		c2.923-4.782,6.132-9.341,9.81-13.573c3.666-4.217,7.207-8.548,10.977-12.67c3.77-4.123,7.756-8.048,11.644-12.063
		c4.166-4.302,7.465-9.196,9.936-14.645c1.342-2.96,2.028-6.047,2.202-9.325c0.52-9.813-8.057-18.966-19.855-16.665
		c-2.96,0.577-5.846,1.723-8.645,2.895c-4.872,2.041-9.201,5.022-13.403,8.202c-3.375,2.554-6.761,5.112-10.295,7.435
		c-7.358,4.838-14.805,9.543-22.243,14.26c-2.717,1.723-5.459,3.418-8.278,4.966c-13.849,7.603-26.966,16.282-39.159,26.344
		c-4.18,3.45-8.426,6.82-12.621,10.253c-4.561,3.733-9.634,6.152-15.581,6.846c-10.096,1.178-19.274,5.011-28.033,10.041
		c-14.104,8.099-28.337,15.959-42.816,23.384c-7.677,3.937-15.035,8.504-22.482,12.879c-3.674,2.159-6.904,4.895-9.526,8.294
		c-0.859-0.51-1.862-0.873-2.554-1.553c-4.458-4.376-8.864-8.807-13.243-13.263c-0.573-0.583-0.899-1.407-1.337-2.121
		c5.147-2.189,10.327-4.296,15.429-6.579c11.701-5.235,22.297-12.179,31.647-20.959c4.48-4.206,9.386-7.809,14.785-10.701
		c10.655-5.707,20.404-12.724,29.848-20.214c4.38-3.473,8.74-7.002,13.363-10.131c11.649-7.885,23.388-15.643,35.208-23.269
		c4.115-2.655,8.508-4.911,12.892-7.113c8.783-4.411,17.734-8.495,26.454-13.022c8.283-4.3,16.051-9.465,23.443-15.182
		c9.566-7.398,18.082-15.864,25.668-25.262c2.808-3.479,6.082-6.38,9.939-8.593c2.937-1.686,5.968-3.21,8.968-4.786
		c6.449-3.389,12.973-6.644,19.344-10.174c11.193-6.201,19.196-15.448,24.829-26.814c0.891-1.797,1.633-3.767,1.941-5.735
		c0.71-4.548-2.131-8.529-6.689-9.235c-2.115-0.328-4.41-0.119-6.52,0.33c-2.125,0.452-4.163,1.415-6.169,2.31
		c-5.449,2.432-10.38,5.728-15.103,9.339c-2.185,1.67-4.584,2.705-7.248,3.492c-4.866,1.437-9.64,3.224-14.374,5.065
		c-6.95,2.703-13.78,5.716-20.754,8.354c-10.153,3.84-20.422,7.27-31.291,8.629c-5.904,0.738-11.623,2.444-17.047,4.924
		c-12.114,5.541-23.101,12.811-32.909,21.835c-3.866,3.556-7.67,7.179-11.532,10.74c-7.807,7.199-16.557,12.896-26.546,16.627
		c-9.24,3.451-18.075,7.73-26.333,13.145c-7.539,4.943-15.532,9.035-23.8,12.574c-13.367,5.723-25.41,13.499-36.433,22.931
		c-2.702,2.312-5.465,4.571-8.342,6.659c-10.7,7.762-21.442,15.464-32.207,23.135c-2.481,1.768-5.114,3.321-7.677,4.973
		c-0.811-0.86-1.729-1.642-2.416-2.591c-6.457-8.917-12.888-17.852-19.284-26.812c-0.777-1.089-1.3-2.36-1.94-3.547
		c5.524-2.586,11.091-5.082,16.561-7.777c13.525-6.661,27.032-13.36,40.494-20.147c8.622-4.347,17.204-8.782,25.712-13.348
		c16.269-8.732,32.54-17.466,48.685-26.422c16.146-8.956,32.23-18.032,48.175-27.339c16.093-9.393,32.021-19.072,47.953-28.739
		c20.133-12.216,40.161-24.599,59.718-37.728c12.238-8.215,24.58-16.276,36.762-24.573c13.862-9.441,27.697-18.929,41.364-28.649
		c18.499-13.156,36.849-26.52,55.215-39.862c6.579-4.779,13.023-9.743,19.508-14.65c0.736-0.556,1.885-0.934,1.417-2.547
		c-2.211,0.358-3.918,1.769-5.705,2.891c-23.1,14.508-46.402,28.68-69.886,42.562c-23.63,13.969-47.55,27.415-71.626,40.585
		c-15.604,8.536-31.317,16.881-47.112,25.059c-15.194,7.867-30.521,15.479-45.853,23.075c-18.523,9.177-37.084,18.279-55.684,27.299
		c-14.634,7.096-29.289,14.155-44.049,20.984c-17.68,8.179-35.403,16.276-53.252,24.077c-17.85,7.802-35.854,15.256-53.845,22.731
		c-5.467,2.271-11.114,4.108-16.678,6.144c-3.643-6.688-7.331-13.351-10.894-20.08c-0.859-1.623-1.301-3.467-1.932-5.211
		c1.593-0.973,3.201-1.917,4.769-2.922c11.745-7.527,24.052-13.898,37.314-18.353c5.783-1.942,11.499-4.084,17.265-6.076
		c12.306-4.25,23.636-10.274,33.426-18.9c9.659-8.511,19.214-17.147,28.608-25.949c5.684-5.327,12.134-9.172,19.422-11.728
		c3.038-1.066,6.13-1.985,9.144-3.112c5.292-1.977,10.062-4.739,14.04-8.895c3.837-4.01,6.136-8.893,8.595-13.717
		c0.076-0.15,0.124-0.316,0.173-0.478c0.82-2.718-0.481-4.835-3.256-5.101c-1.165-0.112-2.374-0.012-3.539,0.154
		c-6.905,0.983-13.817,1.266-20.786,0.723c-6.638-0.517-13.205,0.042-19.619,1.99c-4.54,1.379-9.127,2.605-13.644,4.054
		c-11.479,3.682-21.665,9.498-30.2,18.15c-3.922,3.976-8.124,7.686-12.312,11.389c-6.661,5.889-14.025,10.626-22.546,13.454
		c-5.307,1.761-10.542,3.739-15.82,5.586c-12.338,4.318-24.424,9.197-35.737,15.828c-3.945,2.313-7.912,4.589-11.869,6.881
		c-0.777-1.689-1.645-3.344-2.316-5.074c-5.827-15.017-10.912-30.285-15.262-45.794c-0.454-1.62-0.655-3.31-0.973-4.968
		c1.844-2.211,3.686-4.423,5.533-6.632c5.974-7.145,11.906-14.327,17.941-21.42c3.291-3.868,6.753-7.591,10.15-11.369
		c5.093-5.667,9.978-11.541,15.338-16.944c12.886-12.99,25.519-26.234,39.116-38.519c9.173-8.288,17.892-17.077,26.842-25.613
		c7.723-7.366,15.485-14.692,23.232-22.033c0.369-0.35,0.761-0.674,1.137-1.016c6.394-5.806,12.798-11.6,19.176-17.423
		c5.004-4.567,9.916-9.237,14.977-13.74c7.465-6.64,15.025-13.172,22.546-19.749c6.12-5.351,12.121-10.846,18.388-16.018
		c11.627-9.594,23.33-19.101,35.146-28.46c19.135-15.156,38.74-29.694,59.041-43.253c11.13-7.434,22.516-14.494,33.914-21.514
		c5.477-3.373,11.251-6.262,16.889-9.375c1.197-0.661,2.389-1.29,3.842-0.941c0.943,0.226,1.744,1.547,1.302,2.374
		c-0.392,0.734-0.852,1.473-1.435,2.056c-2.396,2.397-4.785,4.809-7.296,7.083c-8.914,8.071-17.945,16.013-26.802,24.145
		c-10.231,9.394-20.363,18.898-30.466,28.43c-8.256,7.79-16.417,15.682-24.6,23.549c-10.994,10.568-21.515,21.612-32.805,31.889
		c-9.77,8.892-18.703,18.667-28.559,27.499c-7.944,7.119-15.499,14.674-23.183,22.081c-10.735,10.348-21.486,20.68-32.125,31.126
		c-9.918,9.737-19.701,19.611-29.538,29.431c-1.079,1.077-2.169,2.151-3.146,3.317c-0.341,0.407-0.356,1.088-0.592,1.887
		c0.916-0.089,1.451-0.016,1.872-0.201c7.005-3.08,14.327-5.216,21.661-7.317c10.269-2.942,20.616-5.564,31.148-7.398
		c8.018-1.396,16.086-2.295,24.22-2.737c8.62-0.468,17.217-1.437,25.84-1.758c12.542-0.467,25.02-1.513,37.438-3.256
		c10.939-1.535,21.605-4.141,31.986-8.034c9.994-3.748,20.097-7.232,30.258-10.502c5.381-1.732,10.381-4.084,15.206-6.95
		c9.056-5.378,17.609-11.461,25.729-18.156c10.715-8.835,21.55-17.531,32.04-26.626c8.325-7.217,16.625-14.44,25.544-20.916
		c6.339-4.602,11.895-10.061,17.344-15.638c0.805-0.824,1.495-1.855,1.923-2.918c0.249-0.617-0.13-1.486-0.223-2.218
		c-2.058-0.172-3.146,1.047-4.385,1.843c-6.703,4.304-13.311,8.76-20.077,12.961c-5.756,3.573-11.672,6.889-17.54,10.279
		c-1.169,0.675-2.428,1.206-3.677,1.73c-1.014,0.425-2.055,0.374-2.725-0.603c-0.653-0.952-0.345-1.939,0.269-2.832
		c0.192-0.279,0.395-0.552,0.617-0.807c2.451-2.807,4.78-5.734,7.38-8.395c21.202-21.7,42.752-43.049,64.849-63.84
		c0.37-0.348,0.753-0.683,1.131-1.024c6.033-5.448,12.075-10.886,18.096-16.346c4.643-4.21,9.242-8.467,13.894-12.667
		c3.268-2.951,6.57-5.865,9.895-8.752c6.776-5.885,13.589-11.727,20.365-17.612c6.137-5.331,12.23-10.712,18.369-16.041
		c6.649-5.772,13.361-11.473,19.986-17.272c6.754-5.912,13.434-11.907,20.151-17.861c3.295-2.92,6.61-5.818,9.9-8.744
		c5.313-4.727,10.671-9.406,15.904-14.22c6.482-5.964,12.856-12.045,19.279-18.074c0.371-0.348,0.757-0.679,1.146-1.007
		c7.904-6.652,15.836-13.271,23.707-19.961c9.936-8.445,19.849-16.917,29.723-25.435c9.872-8.517,19.77-17.007,29.493-25.692
		c8.714-7.784,17.328-15.69,25.767-23.77c12.853-12.308,25.207-25.115,37.255-38.213c2.751-2.991,5.419-6.058,8.085-9.125
		c0.636-0.732,1.457-1.554,0.137-2.852c-1.095,0.408-2.371,0.772-3.548,1.343c-3.66,1.777-7.224,3.76-10.931,5.426
		c-5.559,2.499-11.122,5.035-16.838,7.133c-13.116,4.815-26.82,7.174-40.585,9.225c-10.898,1.624-21.786,3.32-32.352,6.582
		c-5.506,1.7-10.964,3.568-16.514,5.11c-17.04,4.735-33.246,11.68-49.517,18.461c-0.711,0.296-1.684,0.503-1.564,1.979
		c2.828-0.361,5.668-0.597,8.458-1.108c4.872-0.892,9.518,0.011,13.903,1.928c4.351,1.903,7.732,5.039,8.545,10.001
		c0.757,4.619,0.25,9.17-2.194,13.284c-4.005,6.741-8.63,13.06-14.77,17.989c-13.748,11.036-27.758,21.741-42.902,30.837
		c-9.438,5.669-18.905,11.26-28.957,15.865c-9.818,4.497-19.814,3.494-29.937,2.211c-0.499-0.063-0.985-0.25-1.468-0.405
		c-5.837-1.875-10.301-8.07-6.443-15.446c0.768-1.469,1.413-3.108,1.643-4.735c0.719-5.093,3.121-9.264,6.573-12.92
		c2.327-2.465,4.877-4.738,7.037-7.338c4.032-4.855,8.829-8.922,13.562-12.982c8.865-7.605,17.802-15.176,27.905-21.18
		c0.513-0.305,1.228-0.726,0.412-1.681c-0.565,0.153-1.222,0.264-1.825,0.506c-5.349,2.144-10.73,4.214-16.022,6.492
		c-11.985,5.159-23.947,10.376-35.878,15.658c-12.575,5.567-24.75,11.9-36.119,19.674c-9.967,6.814-18.982,14.804-27.294,23.508
		c-5.27,5.519-10.98,10.558-16.308,16c-1.417,1.448-2.969,2.787-4.581,4.016c-5.793,4.415-11.597,8.818-17.473,13.123
		c-11.343,8.311-23.717,14.457-37.556,17.374c-8.29,1.747-16.614,3.333-24.912,5.046c-17.182,3.547-32.897,10.352-46.975,20.928
		c-12.066,9.064-23.594,18.774-34.874,28.775c-6.461,5.728-12.642,11.777-18.868,17.764c-9.188,8.835-19.071,16.789-29.783,23.695
		c-7.429,4.79-15.147,9.047-23.686,11.54c-3.297,0.963-6.313,2.345-9.175,4.238c-5.391,3.566-11.185,6.358-17.267,8.569
		c-20.914,7.601-42.565,12.611-64.044,18.224c-5.46,1.427-11.042,1.782-16.655,1.408c-8.051-0.537-15.161-5.809-16.986-13.132
		c-1.994-7.997-0.808-15.43,5.152-21.718c4.586-4.838,9.704-8.926,15.433-12.327c8.014-4.758,16.048-9.498,23.865-14.568
		c4.387-2.845,8.63-6.041,12.461-9.593c13.076-12.124,24.848-25.418,35.371-39.85c10.58-14.508,21.673-28.586,35.042-40.754
		c9.64-8.774,20.334-15.732,32.264-20.89c11.234-4.857,22.94-8.327,34.652-11.75c5.628-1.645,10.701-4.16,15.322-7.729
		c3.218-2.485,6.474-4.937,9.859-7.184c7.316-4.855,13.231-10.973,17.9-18.425c3.235-5.164,6.82-10.117,10.385-15.066
		c6.161-8.554,13.079-16.385,21.371-23.015c7.193-5.751,15.054-10.388,23.054-14.832c6.221-3.456,12.568-6.685,18.818-10.091
		c18.631-10.152,37.555-19.615,57.97-25.775c9.411-2.84,18.769-5.862,28.093-8.974c9.396-3.136,18.218-7.413,25.659-14.122
		c6.413-5.782,12.827-11.567,19.141-17.457c9.264-8.641,19.505-15.768,31.396-20.287c6.334-2.407,12.799-4.468,19.205-6.686
		c7.207-2.495,14.494-4.784,21.602-7.534c11.696-4.526,23.294-9.307,34.898-14.064c10.707-4.388,20.773-9.985,30.184-16.702
		c7.448-5.315,14.813-10.754,22.057-16.342c4.683-3.612,9.081-7.592,13.607-11.407c1.475,0.33,3.011,0.497,4.416,1.017
		c11.076,4.095,22.13,8.248,33.179,12.415c0.938,0.354,1.791,0.929,2.682,1.403c-2.396,1.594-4.7,3.346-7.199,4.75
		c-10.475,5.887-20.999,11.686-31.523,17.486c-6.522,3.594-13.123,7.047-19.604,10.714c-8.43,4.769-16.221,10.418-23.147,17.236
		c-5.306,5.224-10.699,10.359-16.088,15.498c-3.429,3.27-6.767,6.661-10.422,9.662c-4.255,3.492-7.7,7.613-10.599,12.21
		c-2.631,4.171-4.668,8.65-5.629,13.519c-0.518,2.622,0.855,3.966,3.409,3.434c3.147-0.655,6.27-1.438,9.382-2.249
		c5.459-1.423,10.431-3.885,15.122-7.016c7.176-4.789,14.354-9.584,21.686-14.127c7.344-4.55,14.628-9.163,21.478-14.441
		c2.412-1.859,4.879-3.652,7.382-5.387c14.467-10.027,28.951-20.029,43.432-30.037C819.218,118.208,827.693,111.493,834.927,103.327
		z M599.963,476.495c0.816-0.15,1.618-0.235,2.384-0.448c11.264-3.123,22.512-6.305,33.788-9.386
		c10.636-2.905,21.089-6.352,31.37-10.324c4.802-1.855,9.048-4.658,12.827-8.096c6.032-5.487,11.515-11.473,15.912-18.395
		c2.18-3.432,4.507-6.77,6.701-10.193c6.401-9.988,13.113-19.762,20.473-29.066c3.145-3.976,6.435-7.887,10.038-11.443
		c8.509-8.4,18.544-14.716,29.015-20.371c8.346-4.508,16.734-8.94,25.029-13.539c15.136-8.392,29.602-17.818,43.32-28.381
		c8.101-6.237,15.426-13.277,21.288-21.665c6.5-9.3,12.688-18.818,19.037-28.225c3.601-5.334,6.936-10.886,10.942-15.9
		c9.767-12.226,18.017-25.41,25.655-39.013c1.99-3.544,3.924-7.119,5.829-10.71c0.348-0.656,0.9-1.513-0.499-2.241
		c-0.617,0.671-1.321,1.348-1.925,2.104c-10.893,13.629-22.339,26.802-34.339,39.442c-15.859,16.707-32.303,32.854-49.31,48.41
		c-3.747,3.428-7.531,6.817-11.34,10.176c-4.443,3.918-8.94,7.775-13.398,11.676c-6.37,5.574-12.676,11.222-19.102,16.731
		c-8.225,7.052-16.522,14.02-24.825,20.979c-7.136,5.981-14.227,12.023-21.517,17.813c-7.426,5.898-15.125,11.451-22.605,17.284
		c-10.416,8.122-20.759,16.337-31.095,24.562c-11.528,9.173-23.008,18.405-34.516,27.603c-10.979,8.775-21.959,17.55-32.954,26.304
		c-4.77,3.798-9.595,7.526-14.36,11.33C600.938,474.193,599.637,474.659,599.963,476.495z M344.422,734.471
		c3.1-0.338,5.633-0.534,8.142-0.901c9.794-1.434,18.463-5.493,26.273-11.47c5.793-4.434,11.667-8.713,18.251-11.961
		c3.351-1.653,6.383-3.858,8.873-6.71c3.232-3.704,4.374-7.976,3.276-12.766c-1.125-4.908-3.998-8.566-8.433-10.902
		c-4.763-2.509-9.878-3.625-15.241-2.949c-3.183,0.401-6.367,1.016-9.461,1.859c-15.608,4.253-29.157,12.615-42.429,21.498
		c-0.839,0.562-1.587,1.271-2.333,1.96c-2.143,1.978-3.821,4.312-5.064,6.941c-4.55,9.62,0.092,20.637,10.209,23.881
		C339.19,733.817,342.101,734.042,344.422,734.471z M559.039,709.851c-0.66,0.097-2.543,0.185-4.317,0.669
		c-9.201,2.512-17.014,7.369-23.484,14.349c-2.346,2.531-3.765,5.612-4.452,8.985c-1.482,7.272,2.581,14.436,9.513,17.086
		c3.824,1.462,7.626,1.355,11.432,0.151c2.916-0.923,5.868-1.456,8.913-1.801c10.083-1.143,18.017-8.194,20.409-17.874
		C579.95,719.695,572.295,709.878,559.039,709.851z M598.042,497.463c-7.59,0.002-18.347,6.165-22.097,12.66
		c-3.686,6.383-2.351,13.769,3.311,18.229c2.633,2.074,5.725,3.058,8.989,2.971c6.275-0.167,11.946-2.101,16.581-6.554
		c1.738-1.67,3.052-3.605,3.929-5.845c0.739-1.887,1.518-3.759,2.218-5.66c2.049-5.562,0.042-10.992-5.14-13.878
		C603.42,498.042,600.809,497.413,598.042,497.463z M838.173,343.688c0.3,1.654,0.393,3.379,0.936,4.948
		c1.99,5.748,8.121,9.046,14.355,7.568c6.85-1.624,11.767-5.751,14.632-12.232c1.299-2.938,2.684-5.842,3.854-8.83
		c0.857-2.19,1.711-4.451,2.06-6.756c0.555-3.665-0.918-6.624-4.107-8.634c-1.62-1.021-3.409-1.415-5.312-1.497
		c-4.101-0.178-7.639,1.323-10.878,3.63c-5.605,3.993-9.94,9.158-13.51,14.989C838.939,338.938,838.335,341.219,838.173,343.688z
		 M391.028,1053.93c-6.156,0.363-11.084,1.485-15.418,4.374c-5.324,3.549-8.127,8.667-7.813,15.034
		c0.559,11.329,11.435,18.266,21.75,12.852c6.534-3.429,12.704-13.424,12.686-20.778c-0.001-0.338-0.003-0.677-0.023-1.014
		c-0.244-4.078-2.257-7.093-5.862-8.833C394.417,1054.633,392.206,1054.278,391.028,1053.93z M586.316,631.289l-0.337,0.248
		l0.362,0.17L586.316,631.289z"/>
	<path fill="#AA663B" d="M414.971,1118.448c7.547-13.12,16.368-25.338,26.461-36.598c6.333-7.066,13.002-13.828,20.524-19.686
		c5.1-3.971,10.434-7.559,16.301-10.296c8.447-3.942,16.895-7.883,25.385-11.73c9.756-4.421,19.24-9.314,27.571-16.128
		c4.062-3.322,7.974-6.844,11.776-10.462c5.156-4.906,10.076-10.06,15.212-14.987c14.231-13.654,29.663-25.794,46.437-36.18
		c8.645-5.353,17.396-10.536,26.148-15.712c13.166-7.785,25.478-16.791,37.285-26.459c11.141-9.122,21.959-18.639,32.969-27.922
		c6.995-5.898,14.003-11.787,21.147-17.502c8.864-7.09,17.918-13.942,26.802-21.007c4.239-3.371,8.429-6.831,12.377-10.533
		c45.754-42.903,89.965-87.375,133.927-132.094c16.75-17.039,33.181-34.392,49.674-51.682c7.719-8.091,15.25-16.361,22.839-24.575
		c0.864-0.935,1.553-2.03,2.955-3.89c-1.612,0.442-2.275,0.471-2.763,0.779c-10.188,6.434-20.09,13.262-28.864,21.579
		c-7.256,6.878-14.417,13.856-21.663,20.744c-9.948,9.456-19.938,18.868-30.503,27.646c-6.02,5.002-12.573,9.219-19.457,12.91
		c-6.871,3.684-13.824,7.213-20.712,10.864c-3.593,1.904-7.149,3.881-10.678,5.902c-5.915,3.388-11.19,7.59-16.081,12.35
		c-7.794,7.586-14.629,15.999-21.642,24.272c-5.477,6.461-10.974,12.918-16.759,19.1c-6.858,7.329-14.813,13.411-23.142,18.99
		c-12.819,8.588-25.95,16.671-39.313,24.385c-8.519,4.918-16.851,10.119-24.59,16.231c-8.404,6.638-16.114,14.005-23.273,21.949
		c-6.125,6.797-12.024,13.801-18.247,20.506c-10.116,10.899-21.908,19.702-34.918,26.856c-13.666,7.514-27.51,14.689-41.806,20.951
		c-12.677,5.553-24.216,12.872-34.607,22.019c-7.122,6.269-14.299,12.474-21.457,18.702c-0.767,0.667-1.506,1.396-2.365,1.922
		c-7.821,4.788-14.774,10.782-22.282,16.003c-5.73,3.985-11.905,7.165-18.247,10.024c-4.514,2.035-9.183,3.397-14.238,3.312
		c-8.502-0.144-15.24-3.456-19.17-11.108c-4.073-7.931-3.118-15.746,1.857-23.08c0.662-0.976,1.476-1.858,2.289-2.718
		c1.28-1.355,2.553-2.728,3.942-3.965c14.965-13.334,26.366-29.543,37.143-46.222c7.641-11.826,15.417-23.541,24.734-34.134
		c3.578-4.068,7.337-7.99,11.192-11.797c5.8-5.726,11.253-11.744,16.232-18.194c10.768-13.952,21.62-27.84,32.286-41.87
		c11.497-15.123,22.009-30.923,31.792-47.209c8.754-14.574,18.687-28.281,30.457-40.579c7.642-7.986,16.232-14.866,25.504-20.9
		c8.535-5.554,17.434-10.465,26.445-15.187c5.104-2.675,10.178-5.405,15.268-8.107c9.559-5.075,17.684-11.952,24.715-20.095
		c4.536-5.255,8.786-10.76,13.088-16.214c5.877-7.45,11.648-14.983,17.536-22.424c1.89-2.388,3.916-4.683,6.031-6.874
		c11.892-12.319,24.091-24.331,36.974-35.615c4.711-4.126,9.889-7.715,14.672-11.763c5.689-4.814,11.215-9.822,16.749-14.815
		c3.774-3.405,7.466-6.901,11.142-10.413c1.414-1.351,3.128-2.503,4.083-5.031c-1.116,0.269-1.744,0.332-2.299,0.568
		c-7.016,2.98-13.977,6.098-21.042,8.956c-8.887,3.595-17.074,8.262-24.12,14.818c-4.713,4.386-9.422,8.776-14.124,13.173
		c-10.519,9.837-20.89,19.837-31.59,29.473c-9.32,8.393-19.155,16.174-29.804,22.884c-8.608,5.424-17.888,8.827-27.977,10.111
		c-3.192,0.406-6.338,1.201-9.535,1.526c-3.527,0.359-7.111,0.726-10.63,0.486c-8.337-0.569-14.663-6.088-16.751-14.019
		c-1.048-3.979-0.419-7.76,1.233-11.385c0.979-2.149,2.218-4.192,3.474-6.2c3.239-5.176,6.406-10.378,8.733-16.055
		c2.353-5.74,6.214-10.464,10.425-14.92c2.444-2.587,4.965-5.101,7.434-7.665c6.23-6.469,12.38-13.018,18.697-19.4
		c5.124-5.177,10.298-10.321,15.708-15.193c11.785-10.613,21.63-22.894,31.102-35.507c7.937-10.569,15.777-21.201,24.32-31.309
		c8.13-9.619,17.013-18.412,26.944-26.141c15.819-12.312,30.427-25.952,44.223-40.459c10.453-10.991,19.064-23.338,26.225-36.707
		c5.048-9.424,10.834-18.395,16.984-27.132c4.3-6.108,9.09-11.814,14.304-17.166c9.349-9.595,19.222-18.627,29.208-27.552
		c7.066-6.315,14.458-12.312,20.365-19.839c7.56-9.634,14.155-19.861,19.408-30.934c2.541-5.356,4.868-10.827,7.677-16.039
		c2.241-4.159,5.064-8.005,7.629-11.992c2.933,2.782,6.081,5.374,8.758,8.384c8.87,9.974,17.587,20.085,26.316,30.184
		c1.203,1.392,2.144,3.009,3.207,4.525c-1.665,1.665-3.534,3.171-4.965,5.017c-10.472,13.51-20.9,27.052-31.918,40.131
		c-7.304,8.67-14.447,17.476-21.61,26.263c-6.628,8.132-13.202,16.309-19.773,24.488c-9.359,11.65-16.618,24.717-24.934,37.07
		c-0.63,0.937-0.92,2.154-1.162,3.285c-0.209,0.975,0.899,2.113,1.882,1.897c1.292-0.283,2.611-0.685,3.763-1.319
		c4.449-2.45,8.873-4.949,13.236-7.548c7.855-4.679,15.736-9.328,22.586-15.483c2.768-2.487,5.7-4.799,8.388-7.367
		c6.361-6.08,12.776-12.116,18.88-18.448c6.69-6.941,13.169-14.095,19.532-21.338c7.719-8.786,16.081-16.941,24.232-25.306
		c0.942-0.966,1.694-2.115,2.613-3.106c3.217-3.466,6.187-7.194,10.206-9.83c0.59,0.591,1.311,1.099,1.751,1.786
		c5.27,8.229,10.499,16.486,15.74,24.737c-2.182,0.764-2.855,2.707-3.681,4.584c-4.642,10.541-9.283,21.083-14.002,31.59
		c-3.886,8.653-7.913,17.242-11.816,25.886c-5.438,12.04-10.822,24.105-16.223,36.161c-4.848,10.82-9.497,21.735-14.584,32.442
		c-5.522,11.624-11.393,23.084-17.221,34.56c-3.297,6.493-6.99,12.79-10.183,19.331c-3.491,7.151-6.619,14.479-9.885,21.74
		c-1.049,2.332-1.597,4.765-1.87,7.338c-0.594,5.594,4.711,10.982,10.477,10.409c3.038-0.302,5.649-1.167,7.655-3.436
		c3.25-3.677,6.43-7.417,9.593-11.17c5.891-6.991,11.463-14.275,17.683-20.958c10.385-11.157,21.096-22.014,31.822-32.848
		c7.267-7.34,14.623-14.587,22.176-21.652c10.51-9.831,20.517-20.203,31.223-29.841c3.397-3.059,6.772-6.143,10.219-9.145
		c0.742-0.646,1.752-0.986,2.638-1.466c0.706,1.511,1.583,2.967,2.091,4.542c3.41,10.57,6.751,21.162,10.089,31.754
		c0.809,2.568,1.578,5.151,2.263,7.754c0.424,1.611,0.656,3.273,0.974,4.913c-2.398,0.526-2.879,2.667-3.724,4.472
		c-6.388,13.655-12.503,27.446-19.205,40.945c-7.608,15.325-15.681,30.421-23.661,45.559c-4.424,8.392-8.913,16.757-13.652,24.973
		c-8.718,15.115-17.543,30.171-26.504,45.143c-13.23,22.104-27.017,43.85-41.675,65.05c-13.977,20.214-28.228,40.217-43.502,59.474
		c-6.839,8.623-13.83,17.13-20.884,25.579c-4.664,5.587-9.506,11.029-14.37,16.445c-6.221,6.928-12.33,13.977-18.877,20.588
		c-8.818,8.905-18.006,17.444-27.044,26.131c-0.609,0.586-1.307,1.078-1.936,1.645c-5.408,4.873-11.183,9.406-16.119,14.718
		c-6.443,6.935-12.29,14.433-18.234,21.817c-1.46,1.813-2.533,4.031-3.387,6.219c-2.565,6.572-0.618,11.976,5.317,15.742
		c1.697,1.077,3.5,2.195,4.763,3.704c3.462,4.135,7.744,5.858,13.041,5.321c1.684-0.171,3.411-0.095,5.056-0.434
		c7.015-1.445,13.743-3.806,19.981-7.307c5.167-2.9,10.205-6.06,15.124-9.367c19.55-13.145,39.125-26.256,58.502-39.652
		c12.959-8.959,25.518-18.485,37.384-28.883c0.581-0.509,1.335-0.823,1.973-1.206c1.087,1.351,0.252,2.217-0.242,3.015
		c-5.08,8.214-10.086,16.478-15.343,24.578c-7.199,11.092-15.115,21.671-23.276,32.082c-9.1,11.61-18.773,22.735-28.94,33.38
		c-10.29,10.774-20.716,21.438-31.897,31.349c-6.333,5.613-12.578,11.325-18.976,16.875c-9.605,8.333-19.454,16.351-29.732,23.826
		c-4.971,3.615-9.438,7.735-13.57,12.229c-4.741,5.157-8.361,11.079-11.175,17.482c-1.03,2.343-1.631,4.797-1.549,7.403
		c0.067,2.155,0.868,3.902,2.372,5.432c2.159,2.197,4.78,3.056,7.792,3.139c8.248,0.228,16.222-1.223,23.915-4.078
		c16.204-6.012,32.562-11.638,48.297-18.851c5.391-2.471,10.783-4.944,16.103-7.562c3.646-1.794,7.18-3.818,10.744-5.776
		c8.316-4.568,16.619-9.161,24.93-13.739c1.186-0.654,2.357-1.352,3.597-1.883c0.502-0.215,1.172-0.035,2.41-0.035
		c-1.048,1.394-1.643,2.379-2.421,3.186c-2.823,2.929-5.747,5.76-8.562,8.696c-9.978,10.408-20.633,20.093-31.643,29.378
		c-9.839,8.297-19.857,16.383-29.834,24.514c-7.352,5.992-14.625,12.094-22.188,17.811c-9.595,7.253-19.451,14.16-29.186,21.229
		c-1.919,1.394-3.856,2.774-5.683,4.283c-5.68,4.691-8.926,10.557-8.508,18.125c-1.314,0.747-2.575,1.616-3.951,2.223
		c-34.013,15.009-69.173,26.511-105.513,34.383c-2.142,0.464-4.332,0.703-6.492,1.045c1.397-1.233,2.703-2.576,4.189-3.678
		c11.284-8.367,22.2-17.193,32.701-26.512c5.18-4.598,10.059-9.543,14.95-14.454c2.508-2.518,4.64-5.383,6.089-8.678
		c0.345-0.785,0.525-1.614-0.721-2.363c-0.846,0.489-1.862,1.016-2.816,1.637c-4.816,3.138-9.555,6.401-14.433,9.439
		c-22.686,14.128-45.669,27.781-67.924,42.594c-4.357,2.9-8.604,5.965-12.902,8.954c-3.341,0.497-6.67,1.097-10.025,1.473
		c-12.11,1.357-24.249,2.304-36.427,2.902c-12.181,0.599-24.357,0.856-36.543,0.591c-5.07-0.11-10.133-0.57-15.195-0.871
		c1.418-1.211,2.782-2.486,4.252-3.624c21.178-16.393,41.85-33.407,62.155-50.861c17.992-15.466,35.616-31.354,52.802-47.709
		c15.345-14.602,30.417-29.491,45.597-44.267c1.7-1.654,3.338-3.374,4.955-5.109c0.401-0.43,0.609-1.038,1.406-2.453
		c-1.771,0.829-2.646,1.204-3.49,1.639c-5.572,2.87-11.004,6.057-16.734,8.569c-11.793,5.17-23.735,10.005-35.636,14.929
		c-4.716,1.951-9.253,4.217-13.463,7.107c-11.737,8.056-23.509,16.064-35.166,24.235c-2.61,1.83-5.049,4.035-7.156,6.429
		c-9.401,10.684-18.502,21.632-27.999,32.229c-9.959,11.113-20.443,21.729-32.435,30.716c-12.624,9.46-25.295,18.854-40.204,24.583
		c-9.657-0.42-19.141-2.194-28.619-3.878c-27.342-4.86-54.168-11.767-80.449-20.757
		C419.044,1120.095,417.019,1119.237,414.971,1118.448z"/>
	<path fill="#F5D67B" d="M772.327,78.297c-4.526,3.815-8.924,7.795-13.607,11.407c-7.244,5.588-14.61,11.027-22.057,16.342
		c-9.411,6.716-19.478,12.313-30.184,16.702c-11.605,4.757-23.203,9.538-34.898,14.064c-7.108,2.751-14.395,5.039-21.602,7.534
		c-6.406,2.218-12.871,4.279-19.205,6.686c-11.891,4.519-22.132,11.645-31.396,20.287c-6.314,5.89-12.727,11.675-19.141,17.457
		c-7.441,6.709-16.263,10.986-25.659,14.122c-9.324,3.112-18.683,6.135-28.093,8.974c-20.415,6.16-39.339,15.623-57.97,25.775
		c-6.25,3.406-12.597,6.635-18.818,10.091c-7.999,4.444-15.861,9.081-23.054,14.832c-8.291,6.63-15.21,14.461-21.371,23.015
		c-3.565,4.949-7.149,9.902-10.385,15.066c-4.669,7.452-10.584,13.569-17.9,18.425c-3.385,2.247-6.642,4.699-9.859,7.184
		c-4.621,3.569-9.694,6.084-15.322,7.729c-11.712,3.422-23.418,6.893-34.652,11.75c-11.93,5.158-22.624,12.116-32.264,20.89
		c-13.37,12.168-24.462,26.246-35.042,40.754c-10.524,14.432-22.295,27.726-35.371,39.85c-3.831,3.552-8.074,6.748-12.461,9.593
		c-7.817,5.069-15.851,9.809-23.865,14.568c-5.729,3.402-10.847,7.489-15.433,12.327c-5.96,6.288-7.146,13.72-5.152,21.718
		c1.826,7.323,8.935,12.595,16.986,13.132c5.613,0.374,11.194,0.019,16.655-1.408c21.479-5.613,43.13-10.623,64.044-18.224
		c6.081-2.21,11.876-5.003,17.267-8.569c2.863-1.893,5.878-3.275,9.175-4.238c8.54-2.494,16.257-6.751,23.686-11.54
		c10.712-6.906,20.595-14.86,29.783-23.695c6.227-5.988,12.407-12.036,18.868-17.764c11.28-10,22.808-19.71,34.874-28.775
		c14.078-10.576,29.793-17.38,46.975-20.928c8.298-1.713,16.622-3.299,24.912-5.046c13.839-2.917,26.213-9.062,37.556-17.374
		c5.875-4.305,11.68-8.708,17.473-13.123c1.612-1.229,3.164-2.568,4.581-4.016c5.328-5.442,11.038-10.481,16.308-16
		c8.312-8.704,17.327-16.694,27.294-23.508c11.369-7.773,23.545-14.106,36.119-19.674c11.932-5.282,23.893-10.499,35.878-15.658
		c5.292-2.278,10.673-4.348,16.022-6.492c0.604-0.242,1.26-0.352,1.825-0.506c0.816,0.954,0.101,1.376-0.412,1.681
		c-10.103,6.004-19.04,13.575-27.905,21.18c-4.732,4.06-9.53,8.128-13.562,12.982c-2.159,2.6-4.709,4.873-7.037,7.338
		c-3.452,3.656-5.854,7.828-6.573,12.92c-0.23,1.627-0.874,3.266-1.643,4.735c-3.857,7.376,0.606,13.571,6.443,15.446
		c0.484,0.155,0.97,0.342,1.468,0.405c10.122,1.283,20.119,2.286,29.937-2.211c10.053-4.605,19.52-10.196,28.957-15.865
		c15.144-9.096,29.154-19.801,42.902-30.837c6.139-4.928,10.765-11.248,14.77-17.989c2.444-4.114,2.951-8.665,2.194-13.284
		c-0.813-4.961-4.194-8.097-8.545-10.001c-4.385-1.918-9.031-2.821-13.903-1.928c-2.79,0.511-5.63,0.747-8.458,1.108
		c-0.12-1.476,0.853-1.683,1.564-1.979c16.271-6.781,32.477-13.726,49.517-18.461c5.549-1.542,11.008-3.41,16.514-5.11
		c10.565-3.263,21.454-4.959,32.352-6.582c13.765-2.051,27.469-4.41,40.585-9.225c5.716-2.098,11.278-4.634,16.838-7.133
		c3.707-1.667,7.271-3.65,10.931-5.426c1.176-0.571,2.453-0.935,3.548-1.343c1.321,1.299,0.5,2.121-0.137,2.852
		c-2.666,3.067-5.334,6.135-8.085,9.125c-12.048,13.098-24.402,25.905-37.255,38.213c-8.439,8.081-17.052,15.986-25.767,23.77
		c-9.723,8.685-19.621,17.175-29.493,25.692c-9.873,8.518-19.787,16.99-29.723,25.435c-7.871,6.69-15.803,13.309-23.707,19.961
		c-0.389,0.327-0.775,0.659-1.146,1.007c-6.423,6.028-12.796,12.11-19.279,18.074c-5.233,4.814-10.591,9.494-15.904,14.22
		c-3.289,2.926-6.605,5.824-9.9,8.744c-6.717,5.954-13.397,11.949-20.151,17.861c-6.625,5.799-13.337,11.5-19.986,17.272
		c-6.139,5.329-12.232,10.71-18.369,16.041c-6.776,5.885-13.589,11.727-20.365,17.612c-3.324,2.887-6.627,5.802-9.895,8.752
		c-4.652,4.2-9.251,8.457-13.894,12.667c-6.021,5.46-12.063,10.899-18.096,16.346c-0.377,0.341-0.76,0.675-1.131,1.024
		c-22.098,20.791-43.648,42.14-64.849,63.84c-2.6,2.661-4.93,5.588-7.38,8.395c-0.222,0.255-0.425,0.528-0.617,0.807
		c-0.614,0.894-0.922,1.881-0.269,2.832c0.67,0.976,1.711,1.028,2.725,0.603c1.249-0.523,2.507-1.054,3.677-1.73
		c5.869-3.389,11.785-6.705,17.54-10.279c6.766-4.201,13.374-8.657,20.077-12.961c1.239-0.796,2.327-2.015,4.385-1.843
		c0.093,0.732,0.472,1.602,0.223,2.218c-0.429,1.062-1.118,2.093-1.923,2.918c-5.449,5.577-11.005,11.035-17.344,15.638
		c-8.919,6.476-17.22,13.699-25.544,20.916c-10.49,9.095-21.326,17.792-32.04,26.626c-8.119,6.695-16.673,12.779-25.729,18.156
		c-4.825,2.866-9.825,5.218-15.206,6.95c-10.161,3.27-20.264,6.754-30.258,10.502c-10.381,3.893-21.047,6.499-31.986,8.034
		c-12.418,1.743-24.896,2.788-37.438,3.256c-8.623,0.321-17.22,1.291-25.84,1.758c-8.134,0.441-16.202,1.34-24.22,2.737
		c-10.532,1.834-20.878,4.456-31.148,7.398c-7.334,2.101-14.656,4.238-21.661,7.317c-0.421,0.185-0.956,0.112-1.872,0.201
		c0.235-0.799,0.25-1.48,0.592-1.887c0.977-1.166,2.067-2.24,3.146-3.317c9.836-9.82,19.62-19.694,29.538-29.431
		c10.64-10.445,21.39-20.778,32.125-31.126c7.684-7.407,15.239-14.962,23.183-22.081c9.856-8.832,18.789-18.607,28.559-27.499
		c11.29-10.276,21.812-21.321,32.805-31.889c8.184-7.867,16.344-15.759,24.6-23.549c10.103-9.533,20.235-19.036,30.466-28.43
		c8.857-8.132,17.889-16.074,26.802-24.145c2.511-2.274,4.9-4.686,7.296-7.083c0.583-0.583,1.044-1.322,1.435-2.056
		c0.441-0.828-0.359-2.148-1.302-2.374c-1.453-0.348-2.644,0.28-3.842,0.941c-5.638,3.112-11.412,6.001-16.889,9.375
		c-11.398,7.021-22.784,14.081-33.914,21.514c-20.301,13.559-39.906,28.097-59.041,43.253c-11.817,9.359-23.52,18.866-35.146,28.46
		c-6.268,5.172-12.269,10.667-18.388,16.018c-7.521,6.577-15.081,13.109-22.546,19.749c-5.062,4.502-9.973,9.172-14.977,13.74
		c-6.379,5.822-12.783,11.617-19.176,17.423c-0.376,0.342-0.769,0.667-1.137,1.016c-7.747,7.341-15.508,14.667-23.232,22.033
		c-8.95,8.536-17.669,17.325-26.842,25.613c-13.597,12.285-26.23,25.529-39.116,38.519c-5.36,5.403-10.245,11.277-15.338,16.944
		c-3.396,3.779-6.858,7.502-10.15,11.369c-6.036,7.093-11.968,14.274-17.941,21.42c-1.846,2.209-3.688,4.421-5.533,6.632
		c-0.612-1.744-1.387-3.451-1.81-5.24c-2.681-11.338-5.293-22.692-7.897-34.048c-0.224-0.978-0.224-2.007-0.329-3.015
		c1.685-1.398,3.565-2.615,5.021-4.219c5.462-6.017,10.801-12.145,16.155-18.258c6.246-7.132,12.497-14.259,18.677-21.448
		c6.512-7.576,13.133-15.07,19.36-22.875c9.084-11.386,17.904-22.984,26.743-34.564c3.081-4.037,5.898-8.277,8.799-12.45
		c0.575-0.827,1.178-1.725,1.4-2.676c0.164-0.7-0.083-1.677-0.51-2.269c-0.273-0.379-1.259-0.488-1.833-0.345
		c-0.791,0.197-1.54,0.679-2.226,1.156c-2.364,1.645-4.713,3.314-7.031,5.023c-13.911,10.254-27.635,20.755-40.83,31.919
		c-6.849,5.794-13.514,11.811-20.139,17.862c-4.001,3.655-7.622,7.731-11.676,11.322c-4.956,4.389-9.757,8.894-14.015,13.977
		c-0.956,1.141-2.31,1.948-3.48,2.909c-0.846-6.368-1.842-12.72-2.511-19.106c-2.671-25.475-2.81-51.036-1.94-76.591
		c0.501-14.708,1.88-29.375,3.693-43.999c2.941-23.72,7.315-47.16,13.324-70.287c8.537-32.86,20.016-64.663,34.671-95.303
		c0.87-1.819,1.977-3.526,2.973-5.282c1.392,0.62,2.817,1.173,4.171,1.864c7.485,3.817,15.552,4.789,23.723,4.143
		c5.588-0.442,11.153-0.639,16.74-0.649c5.422-0.01,10.844,0.044,16.266,0.013c1.69-0.01,3.393-0.1,5.066-0.331
		c15.431-2.131,29.307-8.058,41.868-17.192c12.358-8.986,23.532-19.369,34.579-29.846c11.183-10.605,21.794-21.81,32.802-32.603
		c3.615-3.544,7.607-6.723,11.57-9.889c5.801-4.633,12.504-7.387,19.741-8.895c17.087-3.56,34.103-7.42,50.982-11.873
		c7.044-1.858,14.084-3.735,21.154-5.489c15.652-3.884,30.972-8.764,45.766-15.208c11.672-5.084,22.893-11.027,33.308-18.382
		c10.796-7.624,21.113-15.85,31.03-24.603c9.144-8.071,18.163-16.259,26.766-24.906c5.377-5.404,10.812-10.752,16.224-16.122
		c0.962-0.954,1.924-1.911,2.916-2.833c8.435-7.832,16.855-15.68,25.326-23.473c3.986-3.667,7.97-7.348,12.133-10.808
		c8.462-7.033,17.053-13.909,25.573-20.873c3.821-3.123,7.865-5.912,12.343-7.984c5.686-2.631,11.42-5.166,17.182-7.628
		c15.747-6.728,31.755-12.742,48.183-17.619c3.399-1.009,6.691-2.378,10.033-3.581c4.493,0.728,9.009,1.343,13.477,2.204
		c20.925,4.03,41.499,9.451,61.817,15.852C768.633,76.649,770.459,77.539,772.327,78.297z"/>
	<path fill="#7E4B2C" d="M826.313,1100.341c-0.417-7.568,2.828-13.434,8.508-18.125c1.827-1.509,3.764-2.889,5.683-4.283
		c9.734-7.069,19.591-13.976,29.186-21.229c7.563-5.717,14.836-11.819,22.188-17.811c9.978-8.132,19.996-16.217,29.834-24.514
		c11.01-9.285,21.665-18.97,31.643-29.378c2.815-2.936,5.739-5.768,8.562-8.696c0.778-0.807,1.373-1.792,2.421-3.186
		c-1.238,0-1.908-0.179-2.41,0.035c-1.241,0.531-2.411,1.23-3.597,1.883c-8.311,4.578-16.614,9.17-24.93,13.739
		c-3.564,1.958-7.098,3.982-10.744,5.776c-5.32,2.618-10.712,5.091-16.103,7.562c-15.735,7.213-32.093,12.839-48.297,18.851
		c-7.693,2.854-15.667,4.306-23.915,4.078c-3.012-0.083-5.633-0.942-7.792-3.139c-1.505-1.531-2.305-3.277-2.372-5.432
		c-0.082-2.607,0.52-5.06,1.549-7.403c2.814-6.404,6.434-12.326,11.175-17.482c4.131-4.494,8.599-8.615,13.57-12.229
		c10.278-7.474,20.127-15.493,29.732-23.826c6.398-5.55,12.643-11.262,18.976-16.875c11.181-9.911,21.607-20.575,31.897-31.349
		c10.167-10.645,19.84-21.77,28.94-33.38c8.16-10.41,16.077-20.989,23.276-32.082c5.257-8.1,10.263-16.364,15.343-24.578
		c0.493-0.798,1.329-1.664,0.242-3.015c-0.639,0.384-1.392,0.697-1.973,1.206c-11.866,10.399-24.425,19.924-37.384,28.883
		c-19.377,13.396-38.953,26.507-58.502,39.652c-4.919,3.307-9.956,6.467-15.124,9.367c-6.238,3.5-12.966,5.862-19.981,7.307
		c-1.645,0.339-3.372,0.263-5.056,0.434c-5.297,0.537-9.579-1.186-13.041-5.321c-1.264-1.51-3.067-2.628-4.763-3.704
		c-5.935-3.766-7.882-9.17-5.317-15.742c0.854-2.187,1.927-4.406,3.387-6.219c5.945-7.384,11.791-14.881,18.234-21.817
		c4.936-5.312,10.712-9.845,16.119-14.718c0.629-0.567,1.327-1.059,1.936-1.645c9.038-8.687,18.226-17.226,27.044-26.131
		c6.547-6.611,12.655-13.66,18.877-20.588c4.864-5.416,9.705-10.858,14.37-16.445c7.054-8.449,14.045-16.956,20.884-25.579
		c15.273-19.257,29.525-39.26,43.502-59.474c14.658-21.2,28.445-42.946,41.675-65.05c8.961-14.972,17.786-30.028,26.504-45.143
		c4.739-8.216,9.228-16.581,13.652-24.973c7.98-15.138,16.053-30.234,23.661-45.559c6.702-13.499,12.817-27.29,19.205-40.945
		c0.844-1.805,1.325-3.945,3.724-4.472c0.894,3.532,1.788,7.065,2.681,10.595c0.102,0.491,0.205,0.986,0.308,1.481
		c0.216,0.871,0.431,1.741,0.646,2.607c0.099,0.487,0.199,0.978,0.299,1.469c0.901,4.071,1.801,8.142,2.698,12.209
		c0.12,0.6,0.243,1.204,0.367,1.809c0.222,1.087,0.444,2.175,0.664,3.258c0.105,0.607,0.213,1.218,0.321,1.829
		c0.288,1.607,0.576,3.213,0.864,4.815c0.08,0.494,0.16,0.993,0.241,1.492c0.227,1.2,0.454,2.4,0.68,3.596
		c-0.066,0.149-0.215,0.327-0.178,0.451c0.088,0.301,0.262,0.577,0.402,0.863c0.249,1.413,0.498,2.826,0.745,4.234
		c0.092,0.61,0.186,1.225,0.28,1.839c0.23,1.434,0.46,2.867,0.688,4.296c-0.371,1.007-0.245,1.95,0.391,2.822
		c0.285,1.946,0.569,3.893,0.853,5.834c0.045,0.493,0.09,0.99,0.135,1.488c0.269,1.885,0.538,3.77,0.807,5.65
		c-0.538,0.823-0.481,1.591,0.228,2.295c0.275,2.282,0.549,4.564,0.824,6.842c-0.57,0.827-0.524,1.602,0.21,2.315
		c0.237,2.293,0.474,4.585,0.71,6.873c-0.642,1.148-0.583,2.244,0.265,3.277c0.264,3.316,0.527,6.632,0.791,9.943
		c-0.724,1.483-0.696,2.922,0.275,4.302c0.245,4.334,0.49,8.669,0.735,12.998c-0.84,3.14-0.99,6.267,0.254,9.356
		c-0.001,9.07-0.002,18.14-0.003,27.204c-1.246,3.085-1.08,6.216-0.268,9.366c-0.238,4.328-0.477,8.656-0.714,12.978
		c-0.989,1.376-1.013,2.823-0.296,4.321c-0.239,2.97-0.478,5.94-0.716,8.905c-0.89,1.03-0.936,2.139-0.29,3.309
		c-0.245,2.284-0.49,4.567-0.735,6.846c-0.725,0.716-0.781,1.498-0.212,2.336c-0.28,2.275-0.56,4.55-0.84,6.821
		c-0.69,0.718-0.752,1.495-0.202,2.326c-0.599,4.302-1.199,8.604-1.797,12.902c-0.086,0.448-0.172,0.902-0.258,1.355
		c-0.244,1.526-0.487,3.052-0.73,4.574c-0.1,0.501-0.202,1.006-0.304,1.511c-0.265,1.531-0.53,3.061-0.794,4.588
		c-0.07,0.503-0.142,1.01-0.214,1.517c-0.237,1.199-0.475,2.398-0.711,3.592c-0.759,0.943-0.835,1.981-0.402,3.084
		c-0.22,1.069-0.441,2.138-0.661,3.202c-0.124,0.618-0.248,1.241-0.372,1.864c-0.211,1.078-0.423,2.155-0.634,3.227
		c-0.154,0.592-0.31,1.189-0.465,1.786c-0.524,2.384-1.047,4.768-1.569,7.148c-0.115,0.499-0.233,1.002-0.349,1.506
		c-0.202,0.858-0.405,1.715-0.606,2.569c-0.104,0.503-0.21,1.01-0.316,1.516c-0.226,0.859-0.451,1.718-0.675,2.573
		c-0.125,0.703-0.253,1.411-0.38,2.119c-5.088,21.464-11.762,42.435-19.726,62.996c-22.162,57.219-52.935,109.381-92.36,156.396
		c-52.304,62.372-115.419,110.743-189.105,145.332C830.161,1099.04,828.208,1099.628,826.313,1100.341z"/>
	<path fill="#F4B140" d="M691.423,57.99c-3.342,1.203-6.634,2.572-10.033,3.581c-16.428,4.877-32.437,10.891-48.183,17.619
		c-5.762,2.462-11.495,4.997-17.182,7.628c-4.478,2.072-8.523,4.861-12.343,7.984c-8.52,6.963-17.112,13.84-25.573,20.873
		c-4.163,3.46-8.147,7.14-12.133,10.808c-8.47,7.793-16.891,15.641-25.326,23.473c-0.993,0.922-1.954,1.878-2.916,2.833
		c-5.412,5.37-10.847,10.717-16.224,16.122c-8.603,8.646-17.622,16.835-26.766,24.906c-9.917,8.753-20.234,16.979-31.03,24.603
		c-10.415,7.355-21.636,13.298-33.308,18.382c-14.793,6.444-30.114,11.324-45.766,15.208c-7.07,1.754-14.11,3.631-21.154,5.489
		c-16.879,4.452-33.895,8.313-50.982,11.873c-7.237,1.508-13.94,4.261-19.741,8.895c-3.963,3.166-7.955,6.344-11.57,9.889
		c-11.008,10.793-21.62,21.998-32.802,32.603c-11.047,10.477-22.221,20.86-34.579,29.846c-12.562,9.134-26.438,15.061-41.868,17.192
		c-1.673,0.231-3.376,0.321-5.066,0.331c-5.422,0.031-10.844-0.023-16.266-0.013c-5.587,0.01-11.152,0.207-16.74,0.649
		c-8.171,0.646-16.238-0.326-23.723-4.143c-1.355-0.691-2.779-1.244-4.171-1.864c0.738-1.882,1.335-3.832,2.235-5.63
		c16.82-33.563,36.967-65.004,60.28-94.427c15.266-19.268,31.724-37.451,49.472-54.462c16.642-15.951,34.328-30.66,52.741-44.526
		c13.661-10.287,27.294-20.59,41.686-29.861c15.522-9.997,31.201-19.716,47.663-28.106c4.215-2.148,8.598-3.97,12.898-5.939
		c-0.996,1.356-1.881,2.805-2.998,4.046c-3.962,4.399-8.001,8.728-12.015,13.08c-4.014,4.352-8.001,8.73-12.06,13.039
		c-2.367,2.513-4.176,5.322-5.09,8.659c-1.424,5.199,0.574,8.949,5.697,10.767c3.119,1.107,6.341,1.31,9.499,0.454
		c2.926-0.793,5.863-1.729,8.593-3.026c9.344-4.441,18.31-9.586,26.495-15.928c11.373-8.812,22.23-18.264,32.587-28.239
		c9.764-9.404,18.008-20.188,26.528-30.702c1.87-0.763,3.693-1.682,5.618-2.265c11.998-3.632,24.223-6.312,36.54-8.603
		c2.32-0.431,4.64-0.957,6.886-1.67c3.097-0.984,6.213-1.629,9.465-1.489c-0.689,2.172-2.171,3.802-3.659,5.438
		c-4.334,4.763-8.667,9.526-12.97,14.316c-13.394,14.906-27.866,28.638-43.554,41.146c-14.414,11.492-29.738,21.272-46.982,27.986
		c-10.738,4.181-21.329,8.739-31.988,13.124c-11.129,4.579-22.296,9.067-33.37,13.774c-4.2,1.785-8.242,3.971-12.258,6.153
		c-7.62,4.14-14.454,9.451-21.434,14.554c-14.519,10.615-28.503,21.842-41.487,34.326c-7.08,6.807-14.568,13.192-22.44,19.11
		c-3.38,2.541-6.617,5.299-9.704,8.188c-1.444,1.35-2.652,3.117-3.488,4.918c-1.659,3.57-0.904,6.959,1.644,9.914
		c1.844,2.138,4.203,3.409,7.022,3.721c3.425,0.379,6.821,0.194,9.933-1.406c2.706-1.391,5.368-2.902,7.904-4.581
		c7.915-5.239,15.839-10.47,23.614-15.912c10.134-7.095,20.124-14.396,30.185-21.595c7.993-5.719,15.873-11.606,24.031-17.08
		c11.072-7.428,23.027-12.753,36.276-15.325c12.64-2.454,25.141-5.684,37.233-10.227c7.298-2.742,14.555-5.601,21.755-8.59
		c10.83-4.495,21.167-9.919,30.79-16.676c25.931-18.209,49.157-39.418,70.052-63.189c9.62-10.943,19.076-22.033,28.465-33.176
		c4.251-5.045,8.154-10.382,12.216-15.587c4.251-0.176,8.502-0.353,12.751-0.529c-0.833,1.46-1.609,2.956-2.506,4.375
		c-3.547,5.614-6.346,11.608-8.084,17.981c-3.368,12.349,6.226,22.582,18.81,20.244c1.809-0.336,3.574-1.022,5.29-1.717
		c1.562-0.632,3.028-1.5,4.538-2.259c10.723-5.393,21.437-10.805,32.174-16.169c6.05-3.022,12.179-5.888,18.199-8.968
		c5.033-2.575,9.511-5.855,12.252-11.019c9.873,1.368,19.748,2.728,29.618,4.123C690.174,57.407,690.79,57.759,691.423,57.99z"/>
	<path fill="#AA663B" d="M219.45,997.681c2.622-3.4,5.852-6.136,9.526-8.294c7.447-4.376,14.805-8.942,22.482-12.879
		c14.479-7.426,28.712-15.285,42.816-23.384c8.759-5.03,17.937-8.863,28.033-10.041c5.947-0.694,11.02-3.113,15.581-6.846
		c4.195-3.433,8.44-6.803,12.621-10.253c12.193-10.062,25.31-18.742,39.159-26.344c2.819-1.547,5.561-3.243,8.278-4.966
		c7.438-4.717,14.885-9.422,22.243-14.26c3.534-2.324,6.92-4.881,10.295-7.435c4.202-3.181,8.531-6.162,13.403-8.202
		c2.799-1.172,5.685-2.318,8.645-2.895c11.799-2.3,20.375,6.852,19.855,16.665c-0.174,3.279-0.86,6.365-2.202,9.325
		c-2.47,5.449-5.77,10.343-9.936,14.645c-3.888,4.015-7.874,7.94-11.644,12.063c-3.769,4.122-7.31,8.453-10.977,12.67
		c-3.678,4.232-6.887,8.791-9.81,13.573c-7.963,13.027-16.779,25.439-26.638,37.121c-6.086,7.212-13.196,13.171-21.306,17.865
		c-4.682,2.71-8.372,6.151-11.292,10.685c-4.034,6.263-8.352,12.345-12.584,18.48c-8.067,11.692-18.091,21.477-29.42,29.963
		c-5.318,3.983-11.06,7.217-17.387,9.351c-1.121,0.378-2.201,0.879-3.303,1.321c-6.427-4.094-12.968-8.016-19.253-12.312
		c-17.65-12.065-34.409-25.292-50.486-39.378c-4.46-3.908-8.828-7.925-13.149-11.988
		C221.665,1000.675,220.625,999.106,219.45,997.681z"/>
	<path fill="#AA663B" d="M165.1,938.035c2.563-1.652,5.196-3.206,7.677-4.973c10.765-7.671,21.508-15.374,32.207-23.135
		c2.877-2.087,5.64-4.346,8.342-6.659c11.023-9.432,23.066-17.208,36.433-22.931c8.268-3.54,16.261-7.631,23.8-12.574
		c8.258-5.414,17.093-9.694,26.333-13.145c9.989-3.731,18.739-9.428,26.546-16.627c3.862-3.561,7.666-7.183,11.532-10.74
		c9.808-9.024,20.795-16.294,32.909-21.835c5.424-2.481,11.143-4.187,17.047-4.924c10.868-1.358,21.138-4.789,31.291-8.629
		c6.974-2.638,13.804-5.651,20.754-8.354c4.734-1.841,9.507-3.628,14.374-5.065c2.664-0.787,5.063-1.822,7.248-3.492
		c4.724-3.611,9.655-6.907,15.103-9.339c2.006-0.895,4.044-1.858,6.169-2.31c2.11-0.449,4.406-0.657,6.52-0.33
		c4.558,0.706,7.399,4.687,6.689,9.235c-0.307,1.968-1.05,3.937-1.941,5.735c-5.633,11.366-13.636,20.614-24.829,26.814
		c-6.371,3.529-12.895,6.785-19.344,10.174c-3,1.576-6.03,3.1-8.968,4.786c-3.857,2.214-7.131,5.114-9.939,8.593
		c-7.585,9.398-16.101,17.864-25.668,25.262c-7.392,5.717-15.161,10.882-23.443,15.182c-8.721,4.528-17.671,8.611-26.454,13.022
		c-4.385,2.202-8.777,4.458-12.892,7.113c-11.82,7.627-23.559,15.384-35.208,23.269c-4.623,3.129-8.984,6.658-13.363,10.131
		c-9.444,7.49-19.193,14.507-29.848,20.214c-5.4,2.892-10.305,6.495-14.785,10.701c-9.351,8.779-19.946,15.724-31.647,20.959
		c-5.102,2.283-10.283,4.39-15.429,6.579c-2.216-2.067-4.576-4.002-6.62-6.227c-9.724-10.583-19.186-21.397-28.019-32.744
		C166.748,940.582,165.956,939.284,165.1,938.035z"/>
	<path fill="#AA663B" d="M566.479,51.253c-4.061,5.205-7.965,10.542-12.216,15.587c-9.388,11.143-18.845,22.232-28.465,33.176
		c-20.895,23.771-44.121,44.979-70.052,63.189c-9.623,6.758-19.96,12.181-30.79,16.676c-7.2,2.988-14.457,5.848-21.755,8.59
		c-12.092,4.543-24.592,7.773-37.233,10.227c-13.249,2.572-25.204,7.897-36.276,15.325c-8.158,5.473-16.038,11.361-24.031,17.08
		c-10.061,7.199-20.05,14.501-30.185,21.595c-7.775,5.443-15.699,10.674-23.614,15.912c-2.536,1.678-5.199,3.189-7.904,4.581
		c-3.111,1.6-6.508,1.785-9.933,1.406c-2.819-0.312-5.178-1.584-7.022-3.721c-2.548-2.954-3.303-6.343-1.644-9.914
		c0.837-1.8,2.044-3.567,3.488-4.918c3.088-2.888,6.325-5.647,9.704-8.188c7.872-5.918,15.359-12.303,22.44-19.11
		c12.985-12.484,26.968-23.711,41.487-34.326c6.98-5.103,13.814-10.414,21.434-14.554c4.016-2.182,8.058-4.367,12.258-6.153
		c11.074-4.708,22.241-9.195,33.37-13.774c10.659-4.385,21.25-8.943,31.988-13.124c17.244-6.714,32.568-16.494,46.982-27.986
		c15.688-12.508,30.16-26.24,43.554-41.146c4.304-4.79,8.637-9.553,12.97-14.316c1.488-1.636,2.97-3.266,3.659-5.438
		c1.49-0.295,2.963-0.684,4.461-0.868c9.883-1.217,19.769-2.402,29.658-3.572c6.537-0.773,13.076-1.528,19.621-2.229
		C563.768,51.116,565.13,51.248,566.479,51.253z"/>
	<path fill="#F5D67B" d="M119.337,868.71c5.565-2.036,11.212-3.873,16.678-6.144c17.991-7.476,35.995-14.929,53.845-22.731
		c17.849-7.801,35.572-15.897,53.252-24.077c14.76-6.828,29.415-13.887,44.049-20.984c18.6-9.02,37.161-18.122,55.684-27.299
		c15.332-7.596,30.659-15.208,45.853-23.075c15.795-8.178,31.508-16.523,47.112-25.059c24.076-13.17,47.996-26.616,71.626-40.585
		c23.484-13.883,46.785-28.054,69.886-42.562c1.786-1.122,3.494-2.533,5.705-2.891c0.468,1.613-0.682,1.99-1.417,2.547
		c-6.485,4.907-12.93,9.871-19.508,14.65c-18.366,13.342-36.716,26.706-55.215,39.862c-13.667,9.72-27.502,19.208-41.364,28.649
		c-12.182,8.297-24.524,16.358-36.762,24.573c-19.557,13.129-39.586,25.512-59.718,37.728c-15.932,9.667-31.86,19.346-47.953,28.739
		c-15.946,9.307-32.03,18.383-48.175,27.339c-16.146,8.957-32.416,17.69-48.685,26.422c-8.508,4.566-17.09,9.001-25.712,13.348
		c-13.462,6.787-26.969,13.486-40.494,20.147c-5.47,2.694-11.037,5.19-16.561,7.777c-0.846-1.048-1.82-2.018-2.516-3.157
		c-6.181-10.12-12.322-20.264-18.441-30.421C119.988,870.65,119.72,869.646,119.337,868.71z"/>
	<path fill="#7E4B2C" d="M1115.092,408.617c-0.886,0.481-1.896,0.82-2.638,1.466c-3.447,3.002-6.822,6.086-10.219,9.145
		c-10.705,9.638-20.712,20.009-31.223,29.841c-7.553,7.065-14.909,14.312-22.176,21.652c-10.726,10.833-21.437,21.691-31.822,32.848
		c-6.22,6.683-11.792,13.967-17.683,20.958c-3.163,3.753-6.343,7.493-9.593,11.17c-2.006,2.269-4.617,3.135-7.655,3.436
		c-5.766,0.573-11.071-4.815-10.477-10.409c0.273-2.573,0.821-5.006,1.87-7.338c3.266-7.26,6.395-14.588,9.885-21.74
		c3.193-6.542,6.886-12.838,10.183-19.331c5.828-11.476,11.698-22.936,17.221-34.56c5.087-10.707,9.736-21.622,14.584-32.442
		c5.401-12.056,10.786-24.121,16.223-36.161c3.904-8.645,7.931-17.234,11.816-25.886c4.719-10.507,9.36-21.049,14.002-31.59
		c0.827-1.877,1.499-3.82,3.681-4.584c3.352,5.685,6.826,11.306,10.038,17.072c12.471,22.389,23.067,45.649,32.038,69.649
		C1113.972,404.015,1114.452,406.345,1115.092,408.617z"/>
	<path fill="#AA663B" d="M89.939,806.399c3.957-2.293,7.924-4.569,11.869-6.881c11.313-6.631,23.399-11.51,35.737-15.828
		c5.279-1.847,10.513-3.825,15.82-5.586c8.52-2.828,15.884-7.565,22.546-13.454c4.188-3.703,8.39-7.413,12.312-11.389
		c8.535-8.652,18.721-14.468,30.2-18.15c4.517-1.449,9.104-2.675,13.644-4.054c6.414-1.949,12.981-2.507,19.619-1.99
		c6.969,0.543,13.881,0.26,20.786-0.723c1.166-0.166,2.374-0.266,3.539-0.154c2.775,0.266,4.075,2.383,3.256,5.101
		c-0.049,0.162-0.096,0.328-0.173,0.478c-2.458,4.825-4.757,9.707-8.595,13.717c-3.978,4.156-8.748,6.918-14.04,8.895
		c-3.015,1.126-6.106,2.046-9.144,3.112c-7.288,2.556-13.737,6.401-19.422,11.728c-9.393,8.802-18.949,17.438-28.608,25.949
		c-9.79,8.626-21.12,14.65-33.426,18.9c-5.767,1.991-11.482,4.133-17.265,6.076c-13.263,4.454-25.569,10.825-37.314,18.353
		c-1.569,1.005-3.177,1.949-4.769,2.922c-0.826-1.248-1.845-2.411-2.442-3.76c-4.604-10.416-9.131-20.866-13.658-31.316
		C90.15,807.74,90.092,807.049,89.939,806.399z"/>
	<path fill="#F4B140" d="M530.187,1145.439c14.909-5.73,27.58-15.123,40.204-24.583c11.992-8.987,22.476-19.603,32.435-30.716
		c9.496-10.596,18.598-21.545,27.999-32.229c2.107-2.394,4.545-4.6,7.156-6.429c11.657-8.171,23.429-16.178,35.166-24.235
		c4.21-2.89,8.748-5.156,13.463-7.107c11.901-4.924,23.842-9.759,35.636-14.929c5.729-2.512,11.161-5.699,16.734-8.569
		c0.844-0.435,1.719-0.81,3.49-1.639c-0.797,1.414-1.005,2.023-1.406,2.453c-1.617,1.735-3.255,3.455-4.955,5.109
		c-15.18,14.776-30.252,29.664-45.597,44.267c-17.186,16.354-34.81,32.242-52.802,47.709
		c-20.305,17.455-40.977,34.469-62.155,50.861c-1.47,1.138-2.834,2.413-4.252,3.624c-2.356,0.018-4.721,0.2-7.058,0.024
		c-9.054-0.68-18.104-1.42-27.143-2.262C534.774,1146.57,532.49,1145.901,530.187,1145.439z"/>
	<path fill="#7E4B2C" d="M1053.581,288.568c-4.019,2.636-6.989,6.363-10.206,9.83c-0.919,0.991-1.672,2.14-2.613,3.106
		c-8.151,8.365-16.513,16.52-24.232,25.306c-6.363,7.243-12.842,14.397-19.532,21.338c-6.104,6.333-12.518,12.369-18.88,18.448
		c-2.688,2.569-5.62,4.88-8.388,7.367c-6.85,6.155-14.731,10.804-22.586,15.483c-4.363,2.599-8.788,5.098-13.236,7.548
		c-1.151,0.634-2.471,1.036-3.763,1.319c-0.984,0.216-2.091-0.922-1.882-1.897c0.242-1.131,0.531-2.349,1.162-3.285
		c8.317-12.353,15.575-25.421,24.934-37.07c6.571-8.179,13.144-16.356,19.773-24.488c7.163-8.788,14.306-17.594,21.61-26.263
		c11.018-13.079,21.446-26.621,31.918-40.131c1.431-1.845,3.3-3.351,4.965-5.016c1.651,1.902,3.443,3.703,4.929,5.728
		c5.183,7.062,10.264,14.199,15.369,21.318C1053.211,287.611,1053.365,288.112,1053.581,288.568z"/>
	<path fill="#AA663B" d="M834.927,103.327c-7.234,8.166-15.709,14.88-24.644,21.056c-14.48,10.008-28.964,20.01-43.432,30.037
		c-2.503,1.735-4.97,3.528-7.382,5.387c-6.85,5.278-14.134,9.891-21.478,14.441c-7.332,4.542-14.51,9.338-21.686,14.127
		c-4.691,3.13-9.662,5.592-15.122,7.016c-3.112,0.811-6.234,1.594-9.382,2.249c-2.554,0.531-3.927-0.812-3.409-3.434
		c0.961-4.868,2.998-9.348,5.629-13.519c2.899-4.597,6.344-8.717,10.599-12.21c3.655-3,6.993-6.392,10.422-9.662
		c5.388-5.139,10.782-10.275,16.088-15.498c6.926-6.818,14.717-12.467,23.147-17.236c6.481-3.666,13.082-7.12,19.604-10.714
		c10.524-5.799,21.049-11.599,31.523-17.486c2.499-1.405,4.803-3.156,7.199-4.75c1.751,0.581,3.548,1.052,5.24,1.768
		c4.334,1.836,8.652,3.717,12.913,5.716C832.243,101.314,833.542,102.412,834.927,103.327z"/>
	<path fill="#AA663B" d="M897.949,138.235c-13.169,8.658-26.315,17.352-39.516,25.959c-6.552,4.272-13.558,7.662-20.891,10.408
		c-7.141,2.674-14.22,5.516-21.338,8.253c-7.285,2.802-14.672,5.292-22.329,6.875c-8.165,1.688-16.387,2.819-24.726,1.506
		c-2.152-0.339-4.307-0.918-6.336-1.707c-1.98-0.769-2.171-2.689-0.511-3.98c1.197-0.931,2.525-1.705,3.84-2.47
		c14.211-8.269,28.542-16.319,43.373-23.442c7.654-3.676,14.835-8.099,21.829-12.945c11-7.621,22.336-14.758,33.514-22.124
		c1.691-1.114,3.294-2.36,4.942-3.544c9.662,4.656,18.676,10.386,27.478,16.468C897.546,137.677,897.728,137.985,897.949,138.235z"
		/>
	<path fill="#AA663B" d="M985.907,208.486c-7.145,10.924-14.868,21.436-22.883,31.73c-4.582,5.886-9.527,11.469-14.981,16.573
		c-4.523,4.233-9.662,7.482-15.728,8.955c-2.271,0.551-4.695,0.826-7.025,0.715c-6.177-0.295-10.771-4.714-11.525-10.873
		c-0.373-3.049-0.147-6.077,0.749-9.052c1.329-4.412,3.369-8.484,5.647-12.469c10.677-18.676,21.319-37.372,31.976-56.06
		c1.507,1.077,3.128,2.022,4.496,3.249c8.805,7.893,17.568,15.832,26.304,23.8C984.046,206.067,984.922,207.336,985.907,208.486z"/>
	<path fill="#AA663B" d="M450.187,71.955c-8.52,10.515-16.763,21.298-26.528,30.702c-10.357,9.975-21.214,19.426-32.587,28.239
		c-8.184,6.342-17.151,11.488-26.495,15.928c-2.73,1.298-5.667,2.234-8.593,3.026c-3.158,0.856-6.38,0.653-9.499-0.454
		c-5.123-1.819-7.121-5.568-5.697-10.767c0.914-3.337,2.723-6.146,5.09-8.659c4.06-4.309,8.046-8.687,12.06-13.039
		c4.014-4.352,8.053-8.681,12.015-13.08c1.117-1.241,2.002-2.69,2.998-4.046c4.158-1.91,8.286-3.879,12.472-5.713
		c5.9-2.585,11.861-5.03,17.763-7.608c13.249-5.787,27.086-9.788,41.004-13.539C446.137,72.421,448.185,72.276,450.187,71.955z"/>
	<path fill="#F4B140" d="M55.765,673.324c1.171-0.961,2.525-1.768,3.48-2.909c4.258-5.083,9.058-9.587,14.015-13.977
		c4.054-3.591,7.674-7.668,11.676-11.322c6.625-6.051,13.291-12.068,20.139-17.862c13.195-11.164,26.919-21.665,40.83-31.919
		c2.318-1.709,4.667-3.377,7.031-5.023c0.686-0.477,1.435-0.959,2.226-1.156c0.574-0.143,1.56-0.034,1.833,0.345
		c0.427,0.592,0.674,1.569,0.51,2.269c-0.222,0.951-0.825,1.849-1.4,2.676c-2.901,4.173-5.718,8.413-8.799,12.45
		c-8.838,11.58-17.659,23.178-26.743,34.564c-6.228,7.805-12.849,15.299-19.36,22.875c-6.179,7.189-12.431,14.317-18.677,21.448
		c-5.354,6.113-10.693,12.241-16.155,18.258c-1.455,1.603-3.336,2.821-5.021,4.219c-1.352-7.123-2.824-14.229-4.013-21.382
		C56.593,682.397,56.275,677.844,55.765,673.324z"/>
	<path fill="#AA663B" d="M659.903,53.192c-2.741,5.164-7.219,8.444-12.252,11.019c-6.02,3.08-12.149,5.946-18.199,8.968
		c-10.738,5.364-21.451,10.776-32.174,16.169c-1.51,0.76-2.976,1.627-4.538,2.259c-1.716,0.695-3.481,1.381-5.29,1.717
		c-12.584,2.338-22.178-7.895-18.81-20.244c1.738-6.374,4.537-12.367,8.084-17.981c0.897-1.42,1.673-2.915,2.506-4.375
		c1.829-0.238,3.656-0.68,5.484-0.682c13.993-0.01,27.992-0.165,41.978,0.196c9.088,0.235,18.159,1.228,27.231,1.96
		C655.93,52.36,657.91,52.852,659.903,53.192z"/>
	<path fill="#F4B140" d="M669.491,1144.93c4.298-2.989,8.545-6.054,12.902-8.954c22.255-14.813,45.238-28.467,67.924-42.594
		c4.878-3.038,9.617-6.301,14.433-9.439c0.954-0.622,1.97-1.148,2.816-1.637c1.246,0.749,1.066,1.578,0.721,2.363
		c-1.449,3.295-3.581,6.16-6.089,8.678c-4.892,4.911-9.77,9.857-14.95,14.454c-10.501,9.32-21.418,18.145-32.701,26.512
		c-1.486,1.102-2.792,2.445-4.189,3.678c-2.281,0.635-4.52,1.459-6.833,1.866c-9.481,1.672-18.978,3.25-28.483,4.779
		C673.222,1144.929,671.343,1144.842,669.491,1144.93z"/>
	<path fill="#AA663B" d="M1148.693,588.414c-1.244-3.089-1.095-6.216-0.254-9.356
		C1149.366,582.158,1149.345,585.278,1148.693,588.414z"/>
	<path fill="#AA663B" d="M1148.422,624.984c-0.812-3.15-0.977-6.281,0.269-9.366
		C1149.345,618.765,1149.379,621.889,1148.422,624.984z"/>
	<path fill="#AA663B" d="M1147.704,566.061c-0.971-1.379-1-2.819-0.275-4.302C1148.221,563.152,1148.25,564.588,1147.704,566.061z"
		/>
	<path fill="#AA663B" d="M1147.411,642.284c-0.717-1.498-0.693-2.945,0.296-4.321
		C1148.252,639.45,1148.231,640.894,1147.411,642.284z"/>
	<path fill="#AA663B" d="M1146.638,551.816c-0.848-1.032-0.908-2.129-0.265-3.277C1147.135,549.58,1147.228,550.67,1146.638,551.816
		z"/>
	<path fill="#AA663B" d="M1146.405,654.497c-0.646-1.17-0.6-2.279,0.29-3.309C1147.236,652.351,1147.143,653.453,1146.405,654.497z"
		/>
	<path fill="#AA663B" d="M1145.662,541.666c-0.734-0.713-0.779-1.489-0.21-2.315
		C1145.523,540.125,1145.593,540.896,1145.662,541.666z"/>
	<path fill="#AA663B" d="M1144.629,532.509c-0.709-0.704-0.766-1.472-0.228-2.295
		C1144.477,530.982,1144.553,531.745,1144.629,532.509z"/>
	<path fill="#AA663B" d="M1145.458,663.679c-0.569-0.839-0.513-1.62,0.212-2.336
		C1145.599,662.125,1145.528,662.902,1145.458,663.679z"/>
	<path fill="#AA663B" d="M1144.415,672.826c-0.55-0.831-0.488-1.608,0.202-2.326
		C1145.096,671.326,1145.026,672.099,1144.415,672.826z"/>
	<path fill="#AA663B" d="M1142.606,517.242c-0.637-0.872-0.763-1.814-0.391-2.822
		C1142.837,515.296,1143.068,516.221,1142.606,517.242z"/>
	<path fill="#AA663B" d="M1139.206,705.949c-0.433-1.104-0.357-2.141,0.402-3.084
		C1139.473,703.896,1139.339,704.922,1139.206,705.949z"/>
	<path fill="#AA663B" d="M1133.499,469.655c-0.103-0.495-0.206-0.99-0.308-1.481
		C1133.294,468.671,1133.397,469.163,1133.499,469.655z"/>
	<path fill="#AA663B" d="M1134.444,473.73c-0.1-0.491-0.2-0.982-0.299-1.469C1134.246,472.754,1134.345,473.242,1134.444,473.73z"/>
	<path fill="#AA663B" d="M1137.509,487.747c-0.123-0.604-0.246-1.209-0.367-1.809
		C1137.267,486.545,1137.388,487.146,1137.509,487.747z"/>
	<path fill="#AA663B" d="M1141.527,510.124c-0.094-0.615-0.189-1.229-0.28-1.839
		C1141.342,508.901,1141.434,509.513,1141.527,510.124z"/>
	<path fill="#AA663B" d="M1143.594,524.564c-0.045-0.498-0.091-0.995-0.135-1.488
		C1143.505,523.575,1143.549,524.069,1143.594,524.564z"/>
	<path fill="#AA663B" d="M1142.36,687.082c0.086-0.453,0.173-0.907,0.258-1.355C1142.531,686.182,1142.446,686.632,1142.36,687.082z
		"/>
	<path fill="#AA663B" d="M1141.326,693.168c0.102-0.505,0.204-1.01,0.304-1.511C1141.528,692.163,1141.427,692.665,1141.326,693.168
		z"/>
	<path fill="#AA663B" d="M1138.173,711.014c0.124-0.623,0.248-1.246,0.372-1.864C1138.42,709.775,1138.297,710.395,1138.173,711.014
		z"/>
	<path fill="#AA663B" d="M1137.074,716.028c0.155-0.597,0.311-1.195,0.465-1.786
		C1137.384,714.841,1137.229,715.434,1137.074,716.028z"/>
	<path fill="#AA663B" d="M1135.155,724.681c0.117-0.503,0.234-1.006,0.35-1.506C1135.387,723.68,1135.271,724.181,1135.155,724.681z
		"/>
	<path fill="#AA663B" d="M1134.234,728.767c0.106-0.507,0.212-1.014,0.316-1.516
		C1134.443,727.758,1134.339,728.262,1134.234,728.767z"/>
	<path fill="#AA663B" d="M1133.179,733.458c0.127-0.708,0.254-1.415,0.38-2.119C1133.431,732.049,1133.305,732.753,1133.179,733.458
		z"/>
	<path fill="#AA663B" d="M1140.502,504.051c-0.14-0.286-0.314-0.562-0.402-0.863c-0.036-0.124,0.113-0.302,0.178-0.451
		C1140.353,503.177,1140.428,503.614,1140.502,504.051z"/>
	<path fill="#AA663B" d="M1139.599,499.14c-0.081-0.499-0.161-0.997-0.241-1.492C1139.438,498.149,1139.519,498.645,1139.599,499.14
		z"/>
	<path fill="#AA663B" d="M1138.494,492.834c-0.108-0.611-0.216-1.222-0.321-1.829
		C1138.281,491.618,1138.388,492.226,1138.494,492.834z"/>
	<path fill="#AA663B" d="M1140.319,699.273c0.072-0.507,0.143-1.014,0.214-1.517C1140.46,698.264,1140.389,698.768,1140.319,699.273
		z"/>
	<path fill="#F5D67B" d="M599.963,476.495c-0.326-1.836,0.976-2.302,1.825-2.98c4.765-3.804,9.59-7.532,14.36-11.33
		c10.996-8.754,21.975-17.529,32.954-26.304c11.508-9.198,22.988-18.43,34.516-27.603c10.336-8.224,20.679-16.439,31.095-24.562
		c7.479-5.832,15.179-11.385,22.605-17.284c7.29-5.79,14.381-11.831,21.517-17.813c8.303-6.96,16.6-13.928,24.825-20.979
		c6.426-5.509,12.731-11.157,19.102-16.731c4.458-3.901,8.956-7.758,13.398-11.676c3.809-3.359,7.592-6.749,11.34-10.176
		c17.007-15.556,33.451-31.703,49.31-48.41c11.999-12.64,23.445-25.813,34.339-39.442c0.604-0.756,1.308-1.433,1.925-2.104
		c1.399,0.727,0.847,1.584,0.499,2.241c-1.905,3.59-3.839,7.166-5.829,10.71c-7.638,13.603-15.888,26.787-25.655,39.013
		c-4.005,5.014-7.341,10.566-10.942,15.9c-6.349,9.406-12.537,18.924-19.037,28.225c-5.863,8.388-13.187,15.427-21.288,21.665
		c-13.718,10.562-28.185,19.989-43.32,28.381c-8.295,4.599-16.683,9.031-25.029,13.539c-10.47,5.655-20.505,11.971-29.015,20.371
		c-3.603,3.557-6.893,7.467-10.038,11.443c-7.36,9.305-14.072,19.078-20.473,29.066c-2.194,3.423-4.521,6.761-6.701,10.193
		c-4.396,6.922-9.88,12.908-15.912,18.395c-3.779,3.437-8.025,6.241-12.827,8.096c-10.281,3.971-20.734,7.419-31.37,10.324
		c-11.276,3.08-22.524,6.263-33.788,9.386C601.58,476.26,600.779,476.345,599.963,476.495z"/>
	<path fill="#AA663B" d="M344.422,734.471c-2.321-0.429-5.233-0.654-7.938-1.521c-10.117-3.245-14.759-14.262-10.209-23.881
		c1.243-2.628,2.921-4.963,5.064-6.941c0.746-0.689,1.493-1.398,2.333-1.96c13.272-8.883,26.821-17.245,42.429-21.498
		c3.095-0.843,6.278-1.458,9.461-1.859c5.362-0.676,10.478,0.44,15.241,2.949c4.435,2.336,7.308,5.994,8.433,10.902
		c1.098,4.791-0.044,9.063-3.276,12.766c-2.49,2.852-5.522,5.057-8.873,6.71c-6.584,3.248-12.458,7.527-18.251,11.961
		c-7.81,5.978-16.479,10.036-26.273,11.47C350.055,733.937,347.522,734.133,344.422,734.471z"/>
	<path fill="#AA663B" d="M559.039,709.851c13.256,0.027,20.911,9.844,18.014,21.566c-2.393,9.68-10.326,16.731-20.409,17.874
		c-3.045,0.345-5.997,0.879-8.913,1.801c-3.805,1.204-7.608,1.311-11.432-0.151c-6.931-2.651-10.995-9.814-9.513-17.086
		c0.687-3.373,2.107-6.454,4.452-8.985c6.47-6.98,14.283-11.837,23.484-14.349C556.496,710.035,558.379,709.948,559.039,709.851z"/>
	<path fill="#AA663B" d="M598.042,497.463c2.768-0.05,5.379,0.579,7.792,1.923c5.182,2.886,7.189,8.315,5.14,13.878
		c-0.7,1.901-1.479,3.773-2.218,5.66c-0.877,2.24-2.191,4.175-3.929,5.845c-4.635,4.453-10.306,6.388-16.581,6.554
		c-3.264,0.087-6.357-0.897-8.989-2.971c-5.662-4.46-6.997-11.846-3.311-18.229C579.695,503.627,590.452,497.464,598.042,497.463z"
		/>
	<path fill="#AA663B" d="M838.173,343.688c0.162-2.469,0.766-4.75,2.03-6.814c3.57-5.831,7.905-10.997,13.51-14.989
		c3.239-2.307,6.777-3.808,10.878-3.63c1.903,0.083,3.692,0.476,5.312,1.497c3.189,2.01,4.662,4.968,4.107,8.634
		c-0.349,2.306-1.203,4.566-2.06,6.756c-1.17,2.988-2.555,5.892-3.854,8.83c-2.865,6.482-7.781,10.609-14.632,12.232
		c-6.234,1.478-12.365-1.821-14.355-7.568C838.565,347.066,838.472,345.341,838.173,343.688z"/>
	<path fill="#AA663B" d="M391.028,1053.93c1.178,0.348,3.388,0.703,5.32,1.635c3.605,1.74,5.618,4.755,5.862,8.833
		c0.02,0.337,0.022,0.676,0.023,1.014c0.019,7.354-6.152,17.348-12.686,20.778c-10.315,5.414-21.191-1.523-21.75-12.852
		c-0.314-6.367,2.489-11.485,7.813-15.034C379.944,1055.415,384.873,1054.293,391.028,1053.93z"/>
	<polygon fill="#F5D67B" points="586.316,631.289 586.34,631.706 585.978,631.537 	"/>
</g>
</svg>
