<?xml version="1.0" encoding="UTF-8"?>
<svg id="mars" xmlns="http://www.w3.org/2000/svg" version="1.1" viewBox="0 0 1200 1200">
  <!-- Generator: Adobe Illustrator 29.1.0, SVG Export Plug-In . SVG Version: 2.1.0 Build 142)  -->
  <defs>
    <style>
      .st0 {
        fill: none;
      }

      .st1 {
        fill: #cf200d;
      }

      .st2 {
        fill: #db310c;
      }

      .st3 {
        fill: #e6691b;
      }

      .st4 {
        fill: #e34b1d;
      }

      .st5 {
        fill: #db3b18;
      }

      #mars-group:hover {
        transform: scale(1.1) rotate(360deg);
        transition: transform 7s ease;
        transform-origin: center;
      }
 
      #mars-group:hover #mars-lines path {
        fill: red;
   }
    </style>

    <script>
    const marsObj = document.querySelector('#mars');

    function logId() {
      console.log(this.id);
    }

    marsObj.addEventListener('click',logId);
    </script>

  </defs>

  <g id="mars-group">
   <g id="mars-background">
    <path class="st0" d="M894.2,765.3c0,0,0-.2,0-.2h0c0,0,0,.2,0,.2Z"/>
    <path class="st0" d="M877.3,764.3c-.5,0-1,0-1.4-.1.5,0,1,0,1.4.1Z"/>
    <path class="st0" d="M733.4,200.7c-1.8-.5-3.5-1-5.3-1.5,1.8.5,3.5,1.1,5.3,1.5,2.7.4,5.3.8,8,1.2-2.7-.4-5.3-.8-8-1.2Z"/>
    <path class="st0" d="M657.8,709.6c-1.5-.5-3.1-.9-4.6-1.4,1.5.5,3.1.9,4.6,1.4.8-2.7,1.6-5.5,2.4-8.2-.8,2.7-1.6,5.5-2.4,8.2Z"/>
    <path class="st0" d="M891.1,770.4c.8-1.6,1.7-3.2,3.1-4.3h0c-1.5,1.2-2.4,2.7-3.1,4.3Z"/>
    <path class="st0" d="M760.2,993.8c.4.2.9.4,1.3.6-.4-.2-.9-.4-1.3-.6t0,0Z"/>
    <path class="st0" d="M815.7,911.5c.5,0,1.1,0,1.6,0-.5,0-1.1,0-1.6,0h0Z"/>
    <path class="st0" d="M458.4,1106.4c-1.4-.9-2.9-1.8-4.3-2.6-2-1.5-4-3-6-4.5,2,1.5,4,3,6,4.5,1.4.9,2.9,1.7,4.3,2.6Z"/>
    <path class="st0" d="M765.4,969.5c4,.5,8.1.9,12.1,1.4-2.5,3.8-5,7.7-7.5,11.5,2.6-3.8,5-7.6,7.5-11.5.3,0,.6,0,.9,0h0c-.3,0-.6,0-.9,0-4-.5-8.1-.9-12.1-1.4Z"/>
    <path class="st0" d="M732.4,1034.8c0,.3,0,.7,0,1,0-.3,0-.7,0-1h0Z"/>
    <path class="st0" d="M939.4,642.6c.3-1.6.5-3.1.8-4.7.6-.3,1.2-.7,1.8-1-.6.3-1.2.7-1.8,1-.3,1.6-.5,3.1-.8,4.7Z"/>
    <path class="st0" d="M981.5,290.7c.3,0,.5,0,.8,0h0c-.3,0-.5,0-.8,0Z"/>
    <path class="st0" d="M719.9,397.8c3.1-.3,6.3-.7,9.4-1.1,4.9-.9,9.9-1.7,14.8-2.6-4.9.9-9.9,1.7-14.8,2.6-3.1.4-6.3.8-9.4,1.1Z"/>
    <path class="st0" d="M942,636.9h0c.2-1,.4-2,.6-3-.2,1-.4,2-.6,3Z"/>
    <path class="st0" d="M713.6,398.3c-2.1.2-4.2.3-6.3.4,2.1-.1,4.2-.3,6.3-.4Z"/>
    <path class="st0" d="M712.5,568.2c-4.5.5-9,1.1-13.6.8h0c4.6.3,9.1-.2,13.6-.8Z"/>
    <path class="st0" d="M715.7,592.8c-7.8.7-15.7,1.4-23.5,2.1-3.7.1-7.4.3-11.1.4,3.7-.1,7.4-.3,11.1-.4-2.3,8.8-4.6,17.5-7,26.3,2.4-8.7,4.7-17.5,7-26.3,7.8-.7,15.7-1.4,23.5-2.1Z"/>
    <path class="st0" d="M736.8,327.2c-.8,0-1.6-.1-2.4-.2-2.1-.6-4.1-1.3-6.2-1.9,2.1.6,4.1,1.3,6.2,1.9.8,0,1.6.2,2.4.2Z"/>
    <path class="st0" d="M656.8,1121c.6,0,1.3,0,1.9,0,1.6.7,3.1,1.6,4.8,2.1-1.6-.5-3.2-1.4-4.8-2.1,2.1-2.3,4.1-4.6,6.1-6.9-2.1,2.3-4.1,4.6-6.1,6.9-.6,0-1.3,0-1.9,0Z"/>
    <path class="st0" d="M654.5,1136.8c-2.7-.5-5.4-1-8.2-1.5h0c2.7.5,5.4,1,8.2,1.5Z"/>
    <path class="st0" d="M644.5,1135.4h0c-14.1-2.7-28-6.3-41.8-10.4,13.8,4.1,27.7,7.7,41.8,10.4Z"/>
    <path class="st0" d="M759,997.4c-.2.3-.4.7-.6,1,.2-.3.4-.6.6-1Z"/>
    <path class="st0" d="M934.1,697.9c.8,0,1.6-.1,2.3-.2-.8,0-1.6.2-2.3.2Z"/>
    <path class="st0" d="M480.6,1068.1c-1.2-.5-2.4-.9-3.5-1.6,1.1.6,2.3,1,3.5,1.6.9-1.8,1.6-3.8,2.7-5.5-1.1,1.7-1.8,3.7-2.7,5.5Z"/>
    <path class="st0" d="M671.1,1107.3c1.7-1.9,3.4-3.8,4-6.3.8,0,1.6,0,2.4,0-.8,0-1.6,0-2.4,0-.7,2.5-2.3,4.4-4,6.3Z"/>
    <path class="st0" d="M542,967h0c1.2-2.3,2.3-4.7,3.5-7-1.2,2.3-2.3,4.7-3.5,7Z"/>
    <path class="st0" d="M682,1080.8c3.1.6,6.2,1.3,9.3,1.9h0c.6,0,1.3,0,1.9,0-.6,0-1.3,0-1.9,0-3.1-.7-6.2-1.3-9.3-1.9Z"/>
    <path class="st0" d="M596.7,859.8c-1.9-1.1-3.8-2.3-5.8-3.4,2,1.1,3.9,2.2,5.8,3.4,1.6.6,3.2,1.1,4.7,1.7-1.6-.6-3.2-1.1-4.7-1.7Z"/>
    <path class="st0" d="M510.6,1018.6c-4.9-2.7-9.7-5.4-14.6-8.1,4.9,2.7,9.7,5.4,14.6,8.1,4.5,2.1,9,4.1,13.4,6.3-4.4-2.2-8.9-4.2-13.4-6.4Z"/>
    <path class="st0" d="M576,905.7c-.5-.3-.9-.6-1.4-1-1.7-1.1-3.4-2.1-5-3.2,1.7,1.1,3.4,2.1,5,3.2.5.3,1,.6,1.4,1Z"/>
    <path class="st0" d="M718.3,117.6c1.5.3,3,.6,4.6.9,1.1.4,2.2.8,3.4,1.2-1.1-.3-2.2-.8-3.4-1.2-1.5-.3-3.1-.5-4.6-.9Z"/>
    <path class="st3" d="M78.8,580.9c18.1-6.7,36.7-11.7,55.8-14.8,10.9-1.8,21.7-3.2,32.7-4,10.6-.8,21.3-1.8,32-1.7,13.9.1,27.7-.6,41.6.9,8.2.9,16.5,1.3,24.7,2.4,18,2.5,35.8,6.1,53.4,10.6,30.9,7.8,61.3,17.4,91.2,28.6,21.3,8,42.4,16.6,63.3,25.8,24.8,10.9,49.4,22.3,74,33.5,14.9,6.8,29.8,13.8,44.8,20.4,19.4,8.5,39,16.6,58.5,24.8.7.3,1.5.6,2.2.8,1.5.5,3.1.9,4.6,1.4.8-2.7,1.6-5.5,2.4-8.2.3-.9.6-1.8.9-2.7,8.6-25.6,16.8-51.4,24.1-77.4,2.4-8.7,4.7-17.5,7-26.3-3.7.1-7.4.3-11.1.4-1.2,0-2.5,0-3.7,0-6,0-12.1,0-18.1-.1-1.4,0-2.9-.3-4.3-.4-11.1-.2-22.3,0-33.4-1-7-.7-14-1-21-1.6-6.8-.6-13.6-1.3-20.4-2.1-7.9-1-15.8-2.1-23.6-3.4-8.6-1.5-17.2-3.3-25.8-5-.9-.2-1.9-.4-2.8-.6-4.8-1.5-7.9-5.8-7.8-10.8.1-4.9,3.1-8.8,8-10.1,2.1-.5,4.4-.7,6.6-.4,8.9.9,17.7,2.1,26.6,3.2,11.1,1.3,22.1,2.9,33.2,3.9,10.6,1,21.3,1.8,31.9,2.4,11,.6,22,.6,33,.9,1.6,0,3.2.3,4.8.4,2.9.1,5.7.2,8.6.2,5.4-.2,10.8-.4,16.2-.7,3.3-.2,6.6-.6,10-1h0c.2-1.1.3-2.1.5-3.2,0-.4.1-.7.2-1,2.2-9.6,4.5-19.2,6.6-28.8,1.8-8.4,3.4-16.8,5.1-25.2-1.2.1-2.4.2-3.6.3-.4,0-.8,0-1.2.1-3.6.5-7.3,1-10.9,1.4-7.4.8-14.9,1.6-22.3,2.3-6.2.6-12.4,1.3-18.6,1.4-14.8.2-29.7,0-44.5,0-1.1,0-2.2,0-3.3-.1-9.8-.9-19.7-1.5-29.5-2.8-11.2-1.4-22.4-3.1-33.5-5.3-13-2.5-25.8-5.8-38.5-9.7-26.7-8.1-52.1-18.9-76.2-33-14.3-8.4-28-17.8-41.3-27.7-14.1-10.5-27.7-21.5-40.6-33.5-11.8-10.9-23-22.5-33.4-34.8-15.7-18.7-29.8-38.6-42.8-59.3-10.9-17.3-20.3-35.4-28.3-54.2-5.4-12.8-10.1-25.8-14.3-39-1.8-5.6-3.6-11.2-5.4-16.9h0c-.6.5-1.3.9-1.9,1.4-28,26.6-53,55.8-74.8,87.7-.6.9-1.1,1.9-1.6,2.9,1.9,1,3.1,2.7,4.2,4.4,2.5,4.1,5,8.1,7.5,12.2,5.7,9.2,11.9,18.1,18.5,26.7,8.6,11.1,17.1,22.2,25.9,33.2,4.1,5.1,8.5,9.9,13,14.6,6.3,6.6,12.7,13,19.3,19.3,9.3,9,19.1,17.3,29.2,25.3,11.3,8.9,22.5,17.8,33.8,26.6,13.8,10.6,28,20.5,42.5,30.2,20,13.5,41.3,24.7,63.4,34.4,9.9,4.4,19.8,8.7,29.7,13.2,2.6,1.2,5.1,2.6,7.5,4.2,2.9,1.9,4.6,4.8,5.5,8.1,1.9,7.2-3.2,14.2-10.8,14-2.6,0-5.1-.5-7.4-1.6-5.3-2.3-10.6-4.4-15.8-6.8-15.1-6.7-30.3-13.5-45.1-20.9-11-5.5-21.6-11.7-31.9-18.3-15.7-10.1-31.1-20.5-46-31.8-13.6-10.3-26.9-21-40.2-31.6-5.6-4.5-11.2-9-16.6-13.7-5.7-4.9-11.2-9.9-16.7-15-4.2-3.9-8.1-8.1-12.2-12.1-9.5-9.3-18.1-19.3-26.3-29.7-7.8-9.9-15.4-19.9-23-29.9-6.5-8.5-12.4-17.4-18-26.5-1.3-2.2-2.9-4.2-4.3-6.3-.8,1.2-1.7,2.3-2.5,3.5-21.1,35.3-38.1,72.5-50.8,111.6-2.8,8.5-5,17.1-7.5,25.7,9.9,1.4,19.9,2.8,29.8,4.1,11.2,1.5,22.3,3.6,33.3,6.1,9,2.1,17.9,4.4,26.6,7.7,3.6,1.3,7.1,2.9,10.2,5.2,7.1,5.3,7.6,15.8,1,21.7-2,1.8-4.3,2.8-6.9,3-1.9.2-3.8,0-5.7.2-3.3.2-6.6.5-10,.7-1.7.1-3.5.3-5.2.3-17.4-.8-34.7,1.2-51.8,4.1-11.3,1.9-22.6,3.7-33.9,5.5-1,6.6-2.1,13.2-3,19.8-1.8,13.6-2.8,27.2-3.5,40.9-.3,5.9-.2,11.8-.3,17.6,1.6-.6,3.3-1.2,4.9-1.8,7.9-3.1,15.7-6.3,23.6-9.2Z"/>
    <path class="st3" d="M95.3,766.4c1.7-.1,3.5-.2,5.2-.3,2.7,0,5.4,0,8.1,0,17.1,0,34,1.2,51,3.5,18.3,2.5,36.5,5.9,54.4,10.4,14.2,3.6,28.1,8.2,41.8,13.4,19.2,7.4,37.7,16.3,55.7,26.3,11.7,6.5,23.4,13,34.9,19.9,14.8,8.8,28.9,18.6,42.9,28.7,15.7,11.4,31.5,22.7,47.4,34,13.9,9.8,27.9,19.5,42,29.2,12.3,8.6,25.4,15.9,38.5,23,6.3,3.4,12.6,6.8,19,10.1,1.8.9,3.8,1.6,5.7,2.4,1.2-2.3,2.3-4.7,3.5-7,.4-.8.8-1.6,1.2-2.3,4.3-8.1,8.7-16.2,13.2-24.3.9-1.7,2.2-3.1,3.2-4.7-.9-1.5-2.2-2.7-3.6-3.7-15.1-10.1-29.3-21.5-43.7-32.5-13.2-10.1-26.1-20.4-40-29.5-9.3-6.1-19-11.6-28.8-17.1-9.3-5.2-19-9.7-28.7-14.2-7.8-3.6-15.9-6.6-24.4-8.2-2-.4-4-1-5.9-1.8-1.4-.6-2.8-1.5-3.9-2.6-3.1-3.2-4.4-7-2.6-11.4,1.8-4.3,5.9-7.2,10.5-7,3.6.2,7.3.8,10.9,1.4,11.6,1.9,22.6,5.6,33.2,10.5,8.1,3.7,16.1,7.8,23.9,12,8.2,4.5,16.3,9.4,24.3,14.2,9.9,5.9,19.1,12.7,28.2,19.7,17.4,13.2,34.7,26.5,52.1,39.7,1.6,1.2,3.2,2.3,4.9,3.4,1.7,1.1,3.4,2.1,5,3.2,1.1-2.1,2.2-4.2,3.3-6.4,4.2-8.6,8.5-17.1,12.7-25.7,2.1-4.3,4.1-8.6,6.2-12.9-1.9-1.1-3.8-2.3-5.8-3.4-10.8-5.9-21.7-11.5-32.3-17.6-13-7.5-25.7-15.3-38.6-23.1-11.9-7.2-23.3-15.1-34.5-23.2-12.3-8.8-24.5-17.8-37.1-26.2-22.7-14.9-46.2-28.3-71.1-39.2-14-6.1-28.3-11.8-42.9-16.2-2.4-.7-4.8-1.6-7.2-2.5-14.6-5.6-29.5-10.3-44.7-13.9-20.2-4.8-40.4-9.1-61.1-11.3-11.1-1.2-22.2-2.1-33.4-2.2-7.8,0-15.6.6-23.4.8-9.3.3-18.5,1.2-27.6,2.5-23.9,3.4-47.3,8.9-70.1,16.8-2.3.8-4.6,1.4-6.9,2.1,1.1,7.7,2.8,15.3,4.8,22.8,12.1-2,24.2-4.1,36.3-6,6.6-1.1,13.3-1.7,20-1.6,12.8,0,25.5,0,38.3,0,11,0,22,1.2,32.9,2.5,15.5,1.9,30.9,4.9,46.2,7.9,4.8,1,9.6,2.3,14.3,3.7,7.9,2.4,15.8,5,23.7,7.5,2,.6,3.9,1.3,5.7,2.3,5.2,2.9,7.2,8.2,5.3,13.4-2,5.3-7.4,8.3-13.1,7-5-1.1-9.9-2.3-14.9-3.6-16.2-4.3-32.6-7.4-49.1-10.3-12.2-2.2-24.6-3.8-37-4.8-19.1-1.5-38.2-.7-57.4-.7-3.6,0-7.3.6-10.9,1.1-11.3,1.8-22.7,3.7-34,5.6,1,6,3,11.7,5.1,17.4,2.9,0,5.7,0,8.6-.2,3.5-.2,7-.4,10.5-.7Z"/>
    <path class="st3" d="M317,154.6c5.1,9.6,10.2,19.1,15.3,28.7,8.7,16.4,19.5,31.3,31.1,45.8,10.9,13.5,22.4,26.5,34.4,39.1,10,10.5,20,21,31,30.4,10.2,8.7,20.3,17.5,31.1,25.3,19.1,13.8,38.3,27.5,59.2,38.7,16.5,8.8,33.2,17,51.1,22.4,3.4,1,6.7,2.1,10.1,3,9.5,2.6,19,5.3,28.7,7.5,12.1,2.8,24.5,3.9,37,4.2,2.7,0,5.4,0,8.1.4,8.1.8,16.2.6,24.4.3,8.6-.3,17.2-1.2,25.7-1.5,1.1,0,2.1,0,3.2-.1,2.1-.1,4.2-.3,6.3-.4,2.1-.2,4.2-.4,6.3-.6,3.1-.3,6.3-.7,9.4-1.1.6-7.3,1.3-14.5,1.9-21.8.5-5.7.8-11.4,1.2-17.1.5-7.3,1.1-14.5,1.6-21.8.2-3,.2-6,.3-9-2.1-.6-4.1-1.3-6.2-1.9-.7-.2-1.4-.4-2.1-.6-15.8-3.9-31.6-7.5-47.4-11.6-23.5-6.1-46.6-13.1-69.6-20.9-16.1-5.5-32.1-11.5-48.1-17.5-26-9.7-51.3-21-76.3-33.1-14.8-7.2-29.4-14.7-43.7-22.8-16-9-31.7-18.4-47-28.6-12.6-8.4-25-17.1-36.9-26.5-9.1-7.2-18.2-14.5-26.7-22.5-4.4-4.1-8.9-8.2-13.4-12.2-3.3,2-6.6,4-9.8,6,.8,2.1,1.5,4.2,2.5,6.2,2.3,4.5,4.8,9,7.2,13.5Z"/>
    <path class="st3" d="M389.9,111.8c5.3,3.8,10.5,7.7,16,11.3,10.6,6.8,21.4,13.4,32,20.2,10.3,6.6,21,12.7,32,18.2,16.2,8,32.3,15.9,48.4,24.1,16.4,8.3,33.1,15.7,50.2,22.5,20.5,8.1,41.2,15.6,62,22.6,28.5,9.7,57.2,18.9,86.3,26.9,1.5.4,3.1.8,4.6,1.2,4.6,1.2,9.3,2.2,13.9,3.4h0c0-6.7,0-13.3,0-20,0-4.9,0-9.8-.7-14.7-.3-1.7-.1-3.5-.2-5.2-.2-3.8-.5-7.6-.7-11.4-.2-3.3-.2-6.7-.3-10-1.8-.5-3.5-1-5.3-1.5s-3.5-1-5.3-1.3c-20.7-4.1-40.9-9.8-60.9-16.4-15.4-5.1-30.7-10.7-46-16.1-21.8-7.7-43.2-16.5-64.1-26.3-23.4-10.9-46.6-22.2-69.9-33.3-3.6-1.7-7.2-3.3-10.8-5.1-10.1-5.1-20.2-10.2-30.3-15.4-4.2-2.2-8.3-4.7-12.5-7-.9.2-1.9.3-2.8.6-16.8,5.6-33.3,12.1-49.5,19.3-.9.4-1.6.9-2.4,1.4,1.9,1.5,3.7,3,5.6,4.5,3.6,2.7,7.2,5.3,10.8,7.9Z"/>
    <path class="st3" d="M141.1,883.8c5.4,0,10.8-.1,16.3-.1,2.7,0,5.5,0,8.1.3,7.1,1.2,14.2,2.3,21.1,4,13.8,3.3,27.1,8.2,40.1,14,16.2,7.2,32,15.1,47.7,23.2,7.7,3.9,15.2,8,22.6,12.5,16.8,10.1,32.6,21.8,48,33.9,9.5,7.5,18.9,15.2,28.3,22.7,9.5,7.5,19,15,28.5,22.5,10.6,8.4,21.3,16.7,32.8,24,5.9,3.8,11.8,7.6,17.8,11.2,8.2,4.9,16.4,9.8,24.7,14.6,1.1.6,2.3,1,3.5,1.6.9-1.8,1.7-3.8,2.7-5.5,8-12.6,16.1-25.1,24.1-37.7,1.3-2,2.1-4.2,3.1-6.4-4.9-2.7-9.7-5.4-14.6-8.1-10.7-5.9-21.7-11.5-32.1-17.9-20.8-12.7-41.4-25.8-62-38.7-18.1-11.3-36.1-22.7-54.4-33.8-21-12.7-41.9-25.6-63.4-37.3-13.4-7.3-27.1-14.1-41.2-20.1-9.1-3.9-18.5-6.9-28-9.7-21-6.2-42.4-10.1-64.4-10.4-2.2,0-4.4-.3-6.7-.4-1.3,0-2.5-.2-3.8-.2-6.8.2-13.7.3-20.5.8-1,0-2,.2-3,.3-2.9.4-5.9,1-8.8,1.5.4,1,.7,2.1,1.2,3.1,5.6,10.3,11.2,20.6,16.8,30.8.7,1.2,1.6,2.4,2.3,3.5,1.3.2,2.6.2,3.7.7,3.1,1.2,6.2,1.3,9.4,1.3Z"/>
    <path class="st5" d="M1092.4,505.9c-5.9,0-11.8,0-17.7,0-2.2,0-4.4.3-6.7.5-1.3.1-2.5.3-3.8.4-6.2.4-12.4.5-18.6,1.2-10.9,1.2-21.8,2.7-32.6,4.3-12.3,1.8-24.2,5.4-36.3,8.3-2.3.6-4.7,1-7,1.5h0c-.3.3-.7.6-1,1-.2,1.7-.2,3.5-.6,5.2-1.7,8.4-3.3,16.9-5.2,25.3-2.5,11-5,22.1-7.8,33-3.8,14.8-8,29.5-12,44.3-.3,1-.5,2-.7,3-.2,1-.4,2-.6,3,1.4-.2,2.9-.3,4.3-.4,2.4-.2,4.8-.4,7.1-.9,10.5-1.9,21-3.8,31.4-6.1,12.7-2.9,25.4-6.1,38-9.7,14.4-4.2,28.6-9,42.8-13.7,8.3-2.8,16.5-5.8,24.8-8.8,6.1-2.3,12.2-4.6,18.2-7.2,12.1-5.3,24.2-10.8,36.2-16.2,1.5-.7,2.9-1.4,4.3-2.1,0-.9.1-1.9,0-2.8-.8-10.1-1.5-20.2-2.5-30.2-.7-6.8-1.9-13.4-2.9-20.2-2.9-1-5.7-1.9-8.6-3-11.5-4.3-23.4-7.4-35.6-9-2.4-.3-4.7-.5-7.1-.6Z"/>
    <path class="st5" d="M1115.1,661.5c-16.9,6.3-33.8,12.2-51.2,16.8-17.7,4.7-35.6,8.7-53.6,11.6-9,1.4-18,2.4-27,3.5-7.4.9-14.8,1.8-22.3,2.5-6.2.6-12.4.9-18.6,1.3-1.3,0-2.6,0-3.8.2-.7.1-1.5.2-2.2.3-.8,0-1.6.2-2.3.2-4.4.3-8.7.2-13.1.2-.3,0-.7,0-1,0-.4,1.7-.6,3.5-1.3,5.1-6.1,15.3-12.3,30.6-18.4,45.8-1.5,3.7-3.1,7.3-4.6,11-.6,1.6-1,3.3-1.5,5,0,0,0,.2,0,.2,0,.2,0,.5,0,.7h0c3.5,0,7,0,10.5,0,1.9,0,3.8.2,5.7.3,3.2.2,6.4.6,9.5.6,12.6,0,25.2.2,37.8,0,8.3-.1,16.5-.7,24.8-1.1.6,0,1.3-.2,1.9-.2,5.6-.5,11.1-1,16.7-1.5,8.2-.8,16.5-1.3,24.7-2.4,11.5-1.6,23-3.4,34.5-5.4,12.6-2.2,24.9-5.4,36.8-10.3,11.1-4.5,22-9.4,32.5-15.1,1.5-.8,3.2-1.5,4.8-2.2.3-.9.7-1.8.9-2.7,5.2-22,9.1-44.2,11.5-66.7.3-3,.5-6,.7-9-1.9.4-3.8.6-5.6,1.2-9,3.2-17.9,6.6-26.9,9.9Z"/>
    <path class="st5" d="M1053.6,860.4c-9.7,5.2-19.6,9.9-29.5,14.8-12,5.9-24.5,10.8-37.3,14.9-11.5,3.7-23.1,7.2-34.8,10.5-12.7,3.7-25.6,6.6-38.7,8.9-13.2,2.3-26.6,2.9-39.9,3.8-15.1.9-30.2-.8-45.4-1-.6,0-1.3-.2-1.9-.2-2.9-.2-5.7-.4-8.6-.6h0c-.1,0-.2,0-.3,0-.5,0-1.1,0-1.6,0-2.2,3.9-4.1,7.9-6.5,11.6-7.6,11.9-15.3,23.8-23.1,35.6-1.6,2.4-3.3,4.7-4.9,7.1-1,1.6-1.9,3.3-2.8,5h0c2.8.4,5.6.8,8.4,1,1.9.2,3.7.3,5.6.4s3.7.2,5.6.3c.9,0,1.9.1,2.8.2,2.7.1,5.4.4,8.1.6,1.1,0,2.2.3,3.3.3,13.9-.3,27.7,1.5,41.5,1,4.3-.2,8.6,0,12.9,0,3.2,0,6.3-.4,9.5-.6,3.2-.2,6.4-.2,9.5-.3,4-.2,7.9-.5,11.9-.7,1.1,0,2.2-.2,3.3-.2,9.6-.2,19-1.5,28.5-2.7,12.7-1.6,25.1-4.2,37.6-7,18.5-4.1,36.6-9.8,54.3-16.6,2.4-.9,4.9-1.4,7.3-2.1,0,0-.1-.3-.1-.3h-.3c.5-.2,1-.6,1.5-.9-.5.3-1,.7-1.5,1,.5-.3,1-.7,1.5-1,.2-.2.5-.4.7-.6,6.5-8.6,12.9-17.2,19.4-25.8.3-.4.4-.9.6-1.3-2-.8-3.8,0-5.6.6-7.3,2.3-14.5,4.7-21.9,6.9-6.6,2-13.2,3.7-20,4.4-2.5.3-5.1.5-7.6.3-5.2-.2-9.5-4-10-8.6-.8-6.3,1.6-10.4,7.2-12.4,1.5-.5,3.1-.9,4.6-1.1,7.7-1.4,15.1-3.9,22.4-6.7,11.3-4.3,22.7-8.5,34.3-11.8,4-1.2,7.9-2.6,11.8-3.8,1.1-.3,2.1-.6,3.2-.8s2.2-.4,3.3-.7h0c.8-1.2,1.7-2.3,2.4-3.5,6.7-11.5,13.1-23.2,18.9-35.1.8-1.7,1.5-3.5,2.3-5.2-.7.3-1.5.6-2.2.9-.7.3-1.5.6-2.2,1-12.6,6.9-25.1,13.9-37.7,20.7Z"/>
    <path class="st3" d="M451.4,1108.7c1.1-1.5,1.8-3.3,2.7-5-2-1.5-4-3-6-4.5-.7-.5-1.4-1-2-1.4-17.2-11.9-33.7-24.6-50.2-37.4-10.1-7.8-20-15.8-30-23.7-9.7-7.7-19.6-15.3-29.1-23.2-12.3-10.2-25.1-19.6-38.4-28.4-11.6-7.6-23.2-15.2-34.9-22.6-8.7-5.6-17.5-11.2-26.8-15.6-7.5-3.5-15.2-6.7-22.7-10-16.4-7.2-32.9-13.8-50-19.1-4.9-1.5-9.7-3.1-14.9-3.3.5.8.9,1.7,1.4,2.5,14.2,20.2,29.8,39.3,46.5,57.4.7.8,1.6,1.5,2.5,2.2.7.4,1.3.8,2,1.2-.2,0-.3,0-.5,0h0c1.5.5,3.1.8,4.5,1.4,5.1,2.2,10.1,4.7,15.3,6.6,9.8,3.4,19.2,7.7,28.7,11.9,9.5,4.1,19,8.2,28.4,12.5,14.9,6.7,30.1,12.9,44.6,20.6,4.1,2.2,8.1,4.3,12.1,6.6,1.5.9,2.9,1.9,4.1,3.2,4.8,5.2,4.5,12.7-.6,17.6-2.5,2.4-5.3,3.9-8.8,4.5-6.7,1.1-13.3.8-20,.7-1.6,0-3.2,0-4.7.1,1.3.9,2.5,2,3.8,2.8,39.7,24.8,81.9,44.2,126.6,58.3,1.5.5,3.1.7,4.6,1.1,1.1-1.7,2.1-3.5,3.3-5.2,2.8-4,5.8-7.9,8.6-11.9Z"/>
    <path class="st5" d="M942.7,993c-9.4,1.5-18.9,2.5-28.4,3.6-6.5.7-13,1.3-19.5,1.7-3.8.3-7.6,0-11.5.2-3.5.1-7,.4-10.5.6-2.1.1-4.1.3-6.2.3-7.8,0-15.6,0-23.4,0-4,0-7.9-.5-11.9-.7-4.3-.2-8.6-.1-12.9-.3-4-.2-7.9-.5-11.9-.7-.6,0-1.3-.1-1.9-.2-6.8-.4-13.7-.6-20.5-1.1-4.9-.3-9.8-1-14.7-1.4-.6,0-1.2,0-1.8-.1-1.8-.1-3.6-.2-5.4-.3-.2-.1-.5-.2-.7-.3-.4-.2-.9-.4-1.3-.6-.1,1.3-.6,2.5-1.2,3.6-.2.3-.4.7-.6,1-.3.5-.6.9-1,1.4-7.2,9.6-14.4,19.2-21.7,28.9-.7.9-1.5,1.9-2.1,2.9-.6,1-1.1,2.1-1.2,3.3,0,.3,0,.7,0,1,5.4.8,10.7,1.7,16.1,2.4,9.3,1.2,18.6,2.4,28,3.5,8.7,1,17.4,1.8,26.1,2.6,1.9.2,3.8.2,5.7.2,4.8,0,9.6,0,14.3.7,1.7.3,3.5.2,5.2.2,6.2,0,12.4,0,18.6,0,3.2,0,6.3-.4,9.5-.6,1.9-.1,3.8-.3,5.7-.3,5.3,0,10.5,0,15.7-.8,4.6-.6,9.2-.7,13.8-1.1,10-.8,20-1.8,29.6-4.8,4.2-1.3,8.4-1.7,12.7-.9,1.2-.8,2.4-1.5,3.5-2.4,19.5-15.1,37.8-31.4,55.1-49,1-1,1.9-2.1,2.8-3.2-2.4.4-4.8.5-7.1,1.1-15,3.9-30.1,7.1-45.4,9.6Z"/>
    <path class="st5" d="M1092.7,427.8c-8.7-1.2-17.4-2.2-26.1-2.2-9.9,0-19.7-.6-29.6.8-5.4.7-10.8.9-16.1,1.7-10.6,1.6-20.9,4.2-31.2,7.2-2.7.8-5.6,1.2-8.4,1.8,0,.3,0,.7,0,1h0c-1.5,12.9-2.8,25.8-4.5,38.7-.6,4.3-1.2,8.6-1.8,12.9-.3,1.9-.3,3.8-.4,5.7,3.4-.8,6.8-1.6,10.2-2.4,10.5-2.4,21.1-4.9,31.8-6.4,10.9-1.5,21.7-3,32.7-3.7,6.7-.4,13.3-1.1,20-1.6,1.7-.1,3.5-.2,5.2-.2,5.1,0,10.2,0,15.3,0,9.3,0,18.4,1.2,27.4,3.4,5,1.2,9.8,2.6,14.8,3.9,2.2.5,4.4.8,6.5,1.3-.2-1.4-.3-2.9-.6-4.2-3.5-15.9-7.5-31.6-12.3-47.1-.4-1.4-1.1-2.6-1.6-4-1.6-.3-3.2-.5-4.7-.9-8.8-2.4-17.6-4.3-26.6-5.6Z"/>
    <path class="st4" d="M722.5,115.2c.2,1.1.2,2.2.4,3.3,1.1.4,2.2.8,3.4,1.2.4.1.8.2,1.1.3,8.7,1.8,17.5,3.6,26.3,5.2,19.3,3.4,38.8,5.8,58.2,7.8,11.6,1.2,23.1,2.8,34.7,2.7,1.6,0,3.2.4,4.8.4,5.4.1,10.8.3,16.2.2,4.3,0,8.6-.6,12.9-.6,1.9,0,3.8-.1,5.7-.3,1.9-.2,3.8-.5,5.6-1h0c-1.3-.9-2.6-1.9-3.9-2.7-53.8-33-111.5-56.1-173.2-69.3-1.1-.2-2.2-.3-3.3-.4.8,3.4,1.5,6.8,2.3,10.2,3.5,14.2,6.4,28.5,8.8,42.9Z"/>
    <path class="st3" d="M601.9,81.4c22.2,7.3,44.5,14.4,66.9,21.4,16,5,32,9.6,48.1,14.4.5.1,1,.3,1.5.4,1.5.3,3,.6,4.6.9-.1-1.1-.2-2.2-.4-3.3-2.3-14.4-5.2-28.8-8.8-42.9-.8-3.4-1.6-6.8-2.3-10.2-3.2-.7-6.5-1.5-9.8-2.2-27.3-5.1-54.7-8.6-82.5-9.3-19.6-.5-39.2-.4-58.7,1.1-6.8.5-13.6,1.4-20.4,2.1,1.2.8,2.3,1.7,3.6,2.3,18.8,9.9,38.1,18.7,58.2,25.3Z"/>
    <path class="st5" d="M974.7,234.7c2,12.9,3.7,25.9,5.3,38.8.7,5.7.8,11.4,1.2,17.1,0,0,.2,0,.2,0,.3,0,.5,0,.8,0,3,0,6,0,9-.2,8.8-.8,17.7-1.7,26.5-2.6,10.6-1.1,21.1-2.1,31.6-4.1-.7-1.2-1.4-2.5-2.2-3.6-20.2-28.2-42.9-54.3-68-78.2-.8-.8-1.7-1.3-2.6-2-2.6.6-5.1,1.2-7.7,1.9.4,2.4.7,4.7,1.2,7.1,1.6,8.6,3.4,17.2,4.8,25.9Z"/>
    <path class="st5" d="M835.5,1094.1c-13.5,1.3-27,1.1-40.6,1.1-.5,0-1,0-1.4,0-11.3.4-22.6-.8-33.8-2.3-19.4-2.5-38.8-5.5-58.2-8.3-2.8-.4-5.6-1.2-8.4-1.8-.6,0-1.3,0-1.9,0-1.6,3.3-3.9,5.9-6.3,8.5-.8.9-1.6,1.7-2.4,2.6-1.9,2.1-4,4.1-4.6,7,1.8.7,3.5,1.5,5.3,2.1.6.2,1.2.4,1.8.6,10.1,2.8,20.4,5.1,30.8,6.5,5.4.7,10.8.8,16.1,1.5,8.7,1.2,17.5.7,26.2.8,2.4,0,4.8-.3,7.1-.5.6,0,1.3-.2,1.9-.2,7.5-.4,14.9-.8,22.4-1.1,4.1-.2,8.2-.5,12.4-.7,1.3,0,2.5,0,3.8,0,.5,0,1,0,1.4-.3,10.2-4.5,20.3-8.9,30.4-13.5.8-.4,1.4-1.2,2.1-1.8-1.4,0-2.9-.3-4.3-.2Z"/>
    <path class="st4" d="M499.3,1131.5c-13.5-7.5-26.7-15.6-39.5-24.2-.5-.3-.9-.6-1.4-.9-1.4-.9-2.9-1.8-4.3-2.6-.9,1.7-1.6,3.4-2.7,5-2.8,4-5.8,7.9-8.6,11.9-1.2,1.7-2.2,3.5-3.3,5.2,1.9.7,3.9,1.5,5.8,2,17,5,34.1,9.3,51.6,12.4,9.2,1.7,18.5,3,27.8,4.4-2.2-1.2-4.5-2.4-6.7-3.6-6.2-3.2-12.6-6.1-18.7-9.5Z"/>
    <path class="st5" d="M697.1,1131.9c-11.4-2.2-22.5-5.5-33.6-8.9-1.6-.5-3.2-1.4-4.8-2.1-.6,0-1.3,0-1.9,0-1,3.3-3.3,5.7-5.6,8-.9.9-1.9,1.8-2.8,2.8-.9,1-1.6,2.1-2,3.4,2.7.5,5.4,1,8.2,1.5,2.7.5,5.4,1,8.2,1.3,8.8,1.2,17.6,2,26.4,3.1.5,0,1.1.2,1.6.3.5.1,1.1.3,1.6.4h0c4.1-.6,8.1-1.2,12.2-2,5.6-1.1,11.1-2.5,16.6-3.7-.8-.2-1.5-.4-2.3-.5-.8-.2-1.5-.4-2.3-.5-6.4-1.1-12.9-2-19.3-3.3Z"/>
    <path class="st1" d="M690.7,1141.5c-.5-.1-1.1-.3-1.6-.3-8.8-1-17.6-1.9-26.4-3.1-2.7-.4-5.5-.8-8.2-1.3-2.7-.5-5.4-1-8.2-1.5-.6,0-1.2,0-1.8.1h0c-.9,1.2-1.7,2.5-2.6,3.7-.3.4-.6.8-1,1.2-1.3,1.4-2.6,2.9-3.9,4.3-1.3,1.4-2.7,2.8-4,4.2h0c2.1,0,4.1.1,6.2,0,12.4-1.3,24.7-2.5,37.1-4,5.4-.6,10.7-1.8,16-2.7h0c-.5-.1-1.1-.3-1.6-.4Z"/>
    <path class="st1" d="M611.9,1149.6c2.2,0,4.4,0,6.6-.1-2.2-1-4.4-.9-6.6.1Z"/>
    <path class="st1" d="M582.3,1149.5c1.9,0,3.8,0,5.7,0-1.9-1-3.8-1-5.7,0Z"/>
    <path class="st0" d="M564.9,1148.6c-.6,0-1.2,0-1.8,0"/>
    <path class="st2" d="M201.4,977.7c-.7-.4-1.3-.8-2-1.2.4.7.7,1.3,1.5,1.3.1,0,.3,0,.5,0Z"/>
    <path class="st0" d="M1028.2,944.1c.5-.3,1-.7,1.5-1"/>
    <path class="st4" d="M925.3,207.9c-11.5,1.6-23,3.1-34.7,3.4-1.1,0-2.2.2-3.3.3-3,.2-6,.6-9,.6-14.5,0-29,.2-43.5,0-7.3,0-14.6-.6-21.9-1.1-8.7-.7-17.4-1.7-26.1-2.6-12.5-1.3-25-2.8-37.4-5.1-2.7-.5-5.3-.9-8-1.4s-5.3-.8-8-1.2c0,3.3.1,6.7.3,10,.2,3.8.5,7.6.7,11.4,0,1.7,0,3.5.2,5.2.8,4.9.7,9.8.7,14.7,0,6.7,0,13.3,0,20h0c1.5.5,3,1.1,4.5,1.5,21.3,5.3,42.6,10.7,64.2,14.8,22.7,4.3,45.5,7.5,68.5,10.2,3.9.5,7.9.8,11.9,1.1,7.3.4,14.6.7,21.9,1.1.8,0,1.6.2,2.4.2,3,.2,6,.6,9,.6,15.3,0,30.6,0,45.9,0,1.5,0,2.9,0,4.4,0,4.4,0,8.8-.2,13.2-1-.4-5.7-.5-11.5-1.2-17.1-1.6-13-3.4-25.9-5.3-38.8-1.3-8.7-3.2-17.2-4.8-25.9-.4-2.3-.8-4.7-1.2-7.1-1,0-1.9.1-2.9.2-1,0-1.9.1-2.8.3-12.6,1.9-25.2,4-37.8,5.7Z"/>
    <path class="st4" d="M712.5,568.2c1.5-.2,3-.4,4.5-.5,14.6-1.5,29.1-3.7,43.4-6.6,10.5-2.1,20.8-4.6,31.2-7.3,8.6-2.2,17.2-4.8,25.6-7.6,9.1-3,18-6.4,27-9.7,18.2-6.7,36.4-13.7,54.7-20.2,15.3-5.5,30.9-9.9,46.7-13.7,6.8-1.7,13.6-3.4,20.4-5.1,2.5-.6,5-.9,7.5-1.3.3-.3.7-.6,1-.9.1-1.9,0-3.8.4-5.7.7-4.3,1.3-8.6,1.8-12.9,1.7-12.9,3-25.8,4.5-38.7h0c-1.4.3-2.8.5-4.2.9-14.9,4.7-29.8,9.5-44.7,14.2-22,6.9-44.1,14-66.2,20.6-30.3,9-60.8,17.1-91.5,24.2-18.2,4.2-36.4,8.1-54.8,11.1-2.8.5-5.6,1.1-8.5,1.6-1.7,8.4-3.3,16.8-5.1,25.2-2.1,9.6-4.4,19.2-6.6,28.8,0,.3-.1.7-.2,1-.2,1.1-.3,2.1-.5,3.2h0c4.6.3,9.1-.2,13.6-.8Z"/>
    <path class="st4" d="M734.1,336c-.5,7.3-1.1,14.5-1.6,21.8-.4,5.7-.7,11.4-1.2,17.1-.6,7.3-1.3,14.5-1.9,21.8,4.9-.9,9.9-1.7,14.8-2.6,4.9-.9,9.9-1.7,14.8-2.6,14.8-2.7,29.3-6.3,43.5-11.1,10.9-3.7,21.6-7.7,32.5-11.4,17.3-5.9,34.4-12.6,52-17.8.8-.2,1.9-.3,2.2-1.5-.2-.2-.5-.5-.7-.5-3.5-.4-7-.8-10.4-1.1-5.2-.5-10.5-.7-15.7-1.3-12.2-1.4-24.4-2.7-36.5-4.4-14.7-2-29.3-4.1-43.9-6.7-14.3-2.5-28.5-5.5-42.7-8.2-.8-.1-1.6-.2-2.4-.3-.8,0-1.6-.1-2.4-.2,0,3-.1,6-.3,9Z"/>
    <path class="st4" d="M943.3,630.8c4-14.8,8.2-29.5,12-44.3,2.8-10.9,5.3-22,7.8-33,1.9-8.4,3.5-16.8,5.2-25.3.3-1.7.4-3.5.6-5.2-1.9.3-3.8.4-5.7.8-17.8,4.2-35.5,9-52.9,14.8-7.4,2.5-14.7,5.3-22,8-10.3,3.8-20.6,7.7-30.9,11.5-9.7,3.6-19.4,7.3-29.2,10.6-19.1,6.6-38.7,11.9-58.5,15.9-15.3,3.1-30.7,5.7-46.2,7.3-2.6.3-5.2.5-7.8.8-7.8.7-15.7,1.4-23.5,2.1-2.3,8.8-4.6,17.5-7,26.3-7.3,26-15.5,51.8-24.1,77.4-.3.9-.6,1.8-.9,2.7-.8,2.7-1.6,5.5-2.4,8.2,1.1.6,2.1,1.4,3.3,1.9,12.4,4.6,24.7,9.3,37.2,13.7,14.6,5.1,29.4,9.4,44.3,13.7,21,6,42.2,11.1,63.6,15.3,15.2,3,30.4,5.5,45.7,7.3,7.1.8,14.2,1.9,21.3,2.4.9,0,1.7.1,2.6.2.5,0,1,0,1.4.1,5.6.6,11.2,1.3,16.9.8h0c.5-1.7.9-3.4,1.5-5,1.5-3.7,3.1-7.3,4.6-11,6.2-15.3,12.3-30.5,18.4-45.8.6-1.6.9-3.4,1.3-5.1-17.9,0-35.7,0-53.6,0-3.7,0-7.3-.4-11-.7-1.6,0-3.2-.2-4.8-.3-2.7-.2-5.4-.4-8.1-.6-1.9-.1-3.8-.2-5.7-.3-7.8-.6-15.6-.6-23.4-1.2-14.6-1.1-29.2-2.8-43.6-5.6-5-1-10-2.2-14.7-4.2-3.1-1.3-6.3-2.4-9.4-3.6-7.7-3-12.1-10.7-10.2-18.8,1-4.3,3.8-7.6,7-10.6,2.5-2.4,5.6-2.8,8.9-2.9,8,0,15.9,0,23.9,0,2.9,0,5.7-.4,8.6-.6,2.2-.1,4.5-.3,6.7-.3,7.5,0,15,0,22.5,0,4.8,0,9.5,0,14.3-.7,5.2-.7,10.5-.8,15.7-1.2,6.3-.5,12.7-1.1,19-1.7,5.7-.5,11.4-.8,17.2-1.2,4.9-.4,9.8-.8,14.8-1.3,5.9-.5,11.7-1.1,17.6-1.7,6.8-.7,13.6-1.5,20.4-2.2,2.7-.3,5.4-.4,8.1-.5.6-.3,1.2-.7,1.8-1,.2-1,.4-2,.6-3,.2-1,.4-2,.7-3Z"/>
    <path class="st4" d="M808.1,910.6c-9.2-.8-18.4-1.3-27.6-2.2-9.5-1-19-2.3-28.4-3.5-19.9-2.5-39.6-6.3-59.1-11.2-17.2-4.3-34.1-9.4-50.7-15.5-13.3-4.9-26.5-10-39.4-16-.5-.2-1-.5-1.5-.7-1.6-.6-3.2-1.1-4.7-1.7-2.1,4.3-4.1,8.6-6.2,12.9-4.2,8.6-8.4,17.1-12.7,25.7-1.1,2.1-2.2,4.2-3.3,6.4.5.3,1,.6,1.4,1,2.3,1.5,4.6,3.1,6.9,4.6.9.6,1.9,1.2,2.8,1.8,11.4,6.7,22.9,13.3,34.8,19,10.4,4.9,20.9,9.4,31.7,13.2,14.4,5.1,29,9.7,43.8,13.4,18.9,4.7,37.9,8.3,57.3,10.5,4,.4,8.1.9,12.1,1.4,4,.5,8.1.9,12.1,1.4.3,0,.6,0,.9,0,.9-1.7,1.8-3.4,2.8-5,1.6-2.4,3.3-4.7,4.9-7.1,7.7-11.9,15.5-23.7,23.1-35.6,2.4-3.7,4.4-7.7,6.5-11.6h0c-2.5-.3-5.1-.7-7.6-.9Z"/>
    <path class="st4" d="M754.9,993.6c-9.8-1.4-19.6-2.6-29.3-4.3-13-2.3-26-5-38.8-8.4-21.1-5.6-41.9-12.2-62.1-20.7-11.9-5-23.5-10.7-34.7-17.1-7.2-4.1-14.4-8.3-21.6-12.3-1.6-.9-3.5-1.5-5.2-2.2-1.1,1.6-2.3,3-3.2,4.7-4.4,8.1-8.8,16.2-13.2,24.3-.4.8-.8,1.5-1.2,2.3-1.2,2.3-2.3,4.7-3.5,7,1.8,1,3.5,2.2,5.4,3.1,9.8,5,19.7,9.7,29.8,14.1,18.2,8,36.4,16.1,55.1,23.1,13.7,5.1,27.4,10.3,41.6,14.3,17,4.8,34.1,9.2,51.5,12.5,2.3.4,4.7.5,7.1.7h0c.1-1.3.6-2.3,1.2-3.3.6-1,1.4-1.9,2.1-2.9,7.2-9.6,14.4-19.3,21.7-28.9.3-.4.7-.9,1-1.4.2-.3.4-.6.6-1,.6-1.1,1.1-2.3,1.2-3.6h0c-1.7,0-3.5,0-5.2-.2Z"/>
    <path class="st4" d="M682,1080.8c-5.2-1.1-10.3-2.1-15.4-3.4-11-2.7-21.9-5.7-32.7-8.9-16.5-4.8-32.8-10.3-48.8-16.5-20.8-8-41.2-17-61.1-27.1-4.4-2.2-8.9-4.2-13.4-6.3-1,2.1-1.9,4.4-3.1,6.4-8,12.6-16.1,25.1-24.1,37.7-1.1,1.7-1.8,3.7-2.7,5.5,1.2.8,2.4,1.6,3.6,2.3,12.3,7,24.6,14,36.9,21.1,12.2,6.9,24.8,13,37.8,18.4,12.4,5.2,25.1,9.3,37.9,13.3,2,.6,3.9,1.2,5.9,1.8,13.8,4.1,27.7,7.7,41.8,10.4.6,0,1.2,0,1.8-.1h0c.4-1.4,1.2-2.4,2-3.4.9-1,1.9-1.9,2.8-2.8,2.3-2.4,4.6-4.8,5.6-8-9.8-3.3-19.6-6.6-29.5-9.9-7.4-2.5-14.8-5.1-22.2-7.5-21.5-7.1-42.5-15.5-63-25.1-3.2-1.5-6.5-2.8-9.6-4.4-1.8-.9-3.5-2.2-5-3.6-3.6-3-4.1-11.6.7-15.5,2.6-2.2,5.5-3.1,8.9-2.5,1.6.3,3.1.8,4.6,1.3,4.2,1.5,8.4,3,12.6,4.6,15.4,5.8,30.7,11.6,46.1,17.4.7.3,1.5.5,2.3.8,16,5.4,32,10.9,48,16.3,5,1.7,10,3.2,15,4.8,3.2,1,6.3,2.2,9.5,3.3.8,0,1.6,0,2.4,0,.1,0,.3,0,.4,0h0c.6-2.9,2.7-4.9,4.6-7,.8-.9,1.6-1.7,2.4-2.6,2.4-2.6,4.7-5.3,6.3-8.5h0c-3.1-.7-6.2-1.3-9.3-1.9Z"/>
    </g>
   <g id="mars-lines">
    <path class="st2" d="M228.5,216.9c4.2,13.2,8.9,26.3,14.3,39,8,18.8,17.4,36.9,28.3,54.2,13,20.7,27.1,40.6,42.8,59.3,10.4,12.4,21.6,23.9,33.4,34.8,12.9,11.9,26.5,22.9,40.6,33.5,13.3,9.9,26.9,19.3,41.3,27.7,24.1,14.1,49.5,24.9,76.2,33,12.7,3.8,25.5,7.1,38.5,9.7,11.1,2.2,22.3,3.9,33.5,5.3,9.8,1.3,19.7,1.9,29.5,2.8,1.1,0,2.2.1,3.3.1,14.8,0,29.7.1,44.5,0,6.2,0,12.4-.8,18.6-1.4,7.5-.7,14.9-1.5,22.3-2.3,3.6-.4,7.3-1,10.9-1.4.4,0,.8,0,1.2-.1,1.2-.1,2.4-.2,3.6-.3,2.8-.5,5.6-1.1,8.5-1.6,18.4-3,36.7-6.9,54.8-11.1,30.8-7.1,61.3-15.2,91.5-24.2,22.1-6.6,44.2-13.7,66.2-20.6,14.9-4.7,29.8-9.5,44.7-14.2,1.4-.4,2.8-.6,4.2-.9,0-.3,0-.7,0-1,.5-6.3.9-12.7,1.4-19,0-1.1.4-2.2.4-3.3,0-9.9,1.5-19.7,1.1-29.6-.1-4,.5-7.9.6-11.9.3-8.1.6-16.2-.2-24.3-.2-2.2-.4-4.4-.4-6.7,0-4.8,0-9.6,0-14.3,0-3.7-.5-7.3-.7-11-.4-7.3-.8-14.6-1.2-21.9,0-.4,0-.7,0-1.1,0-1.1,0-2.2,0-3.2-.3,0-.5,0-.8,0,0,0-.2,0-.2,0-4.4.8-8.8.9-13.2,1-1.5,0-2.9,0-4.4,0-15.3,0-30.6,0-45.9,0-3,0-6-.4-9-.6-.8,0-1.6-.2-2.4-.2-7.3-.4-14.6-.7-21.9-1.1-4-.2-7.9-.6-11.9-1.1-22.9-2.7-45.8-5.9-68.5-10.2-21.6-4.1-42.9-9.5-64.2-14.8-1.5-.4-3-1-4.5-1.5h0c-4.6-1.1-9.3-2.2-13.9-3.4s-3.1-.8-4.6-1.2c-29.1-8-57.8-17.2-86.3-26.9-20.8-7-41.6-14.5-62-22.6-17.1-6.8-33.8-14.2-50.2-22.5-16.1-8.2-32.2-16.1-48.4-24.1-11-5.4-21.7-11.5-32-18.2-10.6-6.8-21.4-13.3-32-20.2-5.5-3.5-10.7-7.5-16-11.3-3.6-2.6-7.2-5.2-10.8-7.9-1.9-1.4-3.7-3-5.6-4.5-1.3.5-2.7.9-4,1.5-17,7.8-33.6,16.5-49.6,26.1-.9.6-1.8,1.3-2.7,1.9,4.5,4.1,9,8.1,13.4,12.2,8.5,7.9,17.6,15.2,26.7,22.5,11.9,9.4,24.3,18.1,36.9,26.5,15.3,10.2,31,19.6,47,28.6,14.3,8,28.9,15.6,43.7,22.8,25,12.1,50.3,23.4,76.3,33.1,16,6,31.9,12,48.1,17.5,22.9,7.8,46.1,14.8,69.6,20.9,15.7,4.1,31.6,7.7,47.4,11.6.7.2,1.4.4,2.1.6,2.1.6,4.1,1.3,6.2,1.9.8,0,1.6.2,2.4.2.8,0,1.6.2,2.4.3,14.2,2.7,28.4,5.7,42.7,8.2,14.6,2.5,29.3,4.6,43.9,6.7,12.1,1.7,24.3,3,36.5,4.4,5.2.6,10.5.8,15.7,1.3,3.5.3,7,.7,10.4,1.1.3,0,.5.3.7.5-.3,1.2-1.3,1.2-2.2,1.5-17.6,5.2-34.7,11.8-52,17.8-10.9,3.7-21.6,7.7-32.5,11.4-14.2,4.8-28.7,8.4-43.5,11.1-4.9.9-9.9,1.8-14.8,2.6s-9.9,1.7-14.8,2.6c-3.1.4-6.3.8-9.4,1.1-2.1.2-4.2.4-6.3.6-2.1.2-4.2.3-6.3.4-1.1,0-2.1.1-3.2.1-8.6.3-17.2,1.2-25.7,1.5-8.1.3-16.2.5-24.4-.3-2.7-.3-5.4-.3-8.1-.4-12.4-.3-24.8-1.4-37-4.2-9.6-2.2-19.1-4.9-28.7-7.5-3.4-.9-6.7-2-10.1-3-17.9-5.4-34.6-13.6-51.1-22.4-20.9-11.1-40.1-24.8-59.2-38.7-10.8-7.8-21-16.6-31.1-25.3-11-9.5-21.1-19.9-31-30.4-11.9-12.6-23.5-25.6-34.4-39.1-11.6-14.4-22.4-29.4-31.1-45.8-5.1-9.6-10.2-19.1-15.3-28.7-2.4-4.5-4.9-9-7.2-13.5-1-2-1.7-4.1-2.5-6.2-1.2.7-2.5,1.3-3.7,2.1-27.7,17.7-53.5,37.7-77.6,60-1,1-1.9,2.1-2.9,3.1h0c1.8,5.6,3.6,11.2,5.4,16.9Z"/>
    <path class="st2" d="M136.9,684.2c9.1-1.3,18.3-2.2,27.6-2.5,7.8-.3,15.6-.9,23.4-.8,11.2,0,22.3,1,33.4,2.2,20.6,2.2,40.9,6.6,61.1,11.3,15.2,3.6,30.1,8.4,44.7,13.9,2.4.9,4.8,1.8,7.2,2.5,14.7,4.5,28.9,10.1,42.9,16.2,24.9,10.9,48.5,24.2,71.1,39.2,12.6,8.3,24.8,17.4,37.1,26.2,11.3,8.1,22.7,16,34.5,23.2,12.8,7.8,25.6,15.6,38.6,23.1,10.6,6.1,21.5,11.8,32.3,17.6,2,1.1,3.8,2.2,5.8,3.4,1.6.6,3.2,1.1,4.7,1.7.5.2,1,.4,1.5.7,12.8,6,26,11.2,39.4,16,16.6,6.1,33.5,11.2,50.7,15.5,19.5,4.9,39.2,8.7,59.1,11.2,9.5,1.2,18.9,2.5,28.4,3.5,9.2.9,18.4,1.5,27.6,2.2,2.5.2,5.1.6,7.6.9.5,0,1.1,0,1.6,0,.1,0,.2,0,.3,0h0c.6-1.6,1.1-3.3,1.9-4.8,4.8-8.4,9.8-16.8,14.6-25.2,4.1-7.2,8.2-14.4,12.2-21.6,5.7-10.3,11.2-20.7,16.8-31.1,1.7-3.2,3.3-6.5,4.9-9.8,3-6.1,6-12.3,8.9-18.5,4.4-9.2,8.6-18.4,13-27.7.1-.3.3-.6.4-.9.2-.5.5-1,.7-1.5.8-1.6,1.7-3.2,3.1-4.3,0-.2,0-.5,0-.7,0,0,0-.2,0-.2-5.7.5-11.3-.2-16.9-.8-.5,0-1,0-1.4-.1-.9,0-1.7-.2-2.6-.2-7.1-.5-14.2-1.6-21.3-2.4-15.3-1.8-30.6-4.3-45.7-7.3-21.4-4.2-42.6-9.4-63.6-15.3-14.9-4.2-29.7-8.5-44.3-13.7-12.5-4.4-24.8-9.1-37.2-13.7-1.2-.4-2.2-1.2-3.3-1.9-1.5-.5-3.1-.9-4.6-1.4-.7-.2-1.5-.5-2.2-.8-19.5-8.2-39.1-16.4-58.5-24.8-15-6.6-29.9-13.6-44.8-20.4-24.7-11.2-49.2-22.6-74-33.5-20.9-9.2-42-17.8-63.3-25.8-29.9-11.2-60.3-20.8-91.2-28.6-17.6-4.5-35.4-8.1-53.4-10.6-8.2-1.1-16.5-1.5-24.7-2.4-13.8-1.5-27.7-.8-41.6-.9-10.7-.1-21.3.9-32,1.7-11,.8-21.9,2.2-32.7,4-19.1,3.1-37.7,8.1-55.8,14.8-7.9,2.9-15.7,6.1-23.6,9.2-1.6.6-3.3,1.2-4.9,1.8,0,1.6-.3,3.2-.3,4.8-.3,30.8,2.2,61.5,7.1,91.9.8,4.9,1.9,9.7,2.8,14.5,2.3-.7,4.6-1.3,6.9-2.1,22.8-7.9,46.2-13.4,70.1-16.8Z"/>
    <path class="st2" d="M139.9,841.9c1.3,0,2.5.1,3.8.2,2.2.1,4.4.4,6.7.4,22,.3,43.4,4.2,64.4,10.4,9.5,2.8,18.9,5.9,28,9.7,14.1,6,27.8,12.8,41.2,20.1,21.6,11.7,42.5,24.6,63.4,37.3,18.2,11.1,36.3,22.5,54.4,33.8,20.7,12.9,41.2,26,62,38.7,10.5,6.4,21.4,12,32.1,17.9,4.9,2.7,9.7,5.4,14.6,8.1,4.5,2.1,9,4.1,13.4,6.3,19.9,10.1,40.3,19.1,61.1,27.1,16,6.2,32.3,11.7,48.8,16.5,10.8,3.2,21.8,6.1,32.7,8.9,5.1,1.3,10.3,2.3,15.4,3.4,3.1.6,6.2,1.3,9.3,1.9.6,0,1.3,0,1.9,0,1.2-3.3,3.8-5.4,5.9-8,9.2-11.6,18.6-23,27.9-34.5,1.5-1.9,3.1-3.7,5.5-4.4,0-.3,0-.7,0-1-2.4-.2-4.8-.3-7.1-.7-17.4-3.3-34.5-7.7-51.5-12.5-14.1-4-27.8-9.2-41.6-14.3-18.7-7-36.8-15.1-55.1-23.1-10.1-4.4-20-9-29.8-14.1-1.8-.9-3.6-2.1-5.4-3.1h0c-1.9-.8-3.9-1.4-5.7-2.4-6.4-3.3-12.7-6.6-19-10.1-13.1-7.2-26.2-14.5-38.5-23-14-9.7-28-19.4-42-29.2-15.9-11.2-31.7-22.6-47.4-34-13.9-10.1-28.1-19.9-42.9-28.7-11.5-6.8-23.2-13.4-34.9-19.9-18-9.9-36.5-18.9-55.7-26.3-13.7-5.3-27.6-9.8-41.8-13.4-17.9-4.5-36.1-7.9-54.4-10.4-16.9-2.3-33.9-3.6-51-3.5-2.7,0-5.4,0-8.1,0-1.8,0-3.5.2-5.2.3-3.5.2-7,.5-10.5.7-2.9.1-5.7.1-8.6.2.3,1.2.6,2.5,1,3.7,7.9,24.1,17.4,47.5,28.5,70.3.6,1.1,1.3,2.2,1.9,3.3,2.9-.5,5.9-1.1,8.8-1.5,1-.1,2-.2,3-.3,6.8-.5,13.7-.6,20.5-.8Z"/>
    <path class="st2" d="M471,100.5c3.6,1.8,7.2,3.4,10.8,5.1,23.3,11.1,46.5,22.4,69.9,33.3,21,9.8,42.3,18.6,64.1,26.3,15.3,5.4,30.6,11,46,16.1,20,6.6,40.2,12.4,60.9,16.4,1.8.4,3.6.8,5.3,1.3,1.8.5,3.5,1.1,5.3,1.5,2.7.4,5.3.8,8,1.2,2.7.4,5.3.9,8,1.4,12.4,2.3,24.9,3.8,37.4,5.1,8.7.9,17.4,1.9,26.1,2.6,7.3.6,14.6,1.1,21.9,1.1,14.5.2,29,0,43.5,0,3,0,6-.4,9-.6,1.1,0,2.2-.3,3.3-.3,11.6-.3,23.2-1.8,34.7-3.4,12.6-1.7,25.2-3.8,37.8-5.7.9-.1,1.9-.2,2.8-.3,1,0,1.9-.1,2.9-.2,2.6-.6,5.1-1.2,7.7-1.9-.7-.8-1.4-1.7-2.2-2.5-4.2-3.9-8.4-7.7-12.7-11.5-17.6-15.4-36.2-29.6-55.6-42.6-4.6-3.1-9.4-5.9-14.1-8.8h0c-1.9.5-3.7.8-5.6,1-1.9.2-3.8.3-5.7.3-4.3,0-8.6.6-12.9.6-5.4,0-10.8,0-16.2-.2-1.6,0-3.2-.4-4.8-.4-11.7,0-23.2-1.5-34.7-2.7-19.5-2.1-38.9-4.5-58.2-7.8-8.8-1.5-17.5-3.4-26.3-5.2-.4,0-.8-.2-1.1-.3-1.1-.3-2.2-.8-3.4-1.2-1.5-.3-3.1-.5-4.6-.9-.5-.1-1-.2-1.5-.4-16-4.8-32.1-9.4-48.1-14.4-22.3-7-44.6-14.1-66.9-21.4-20.2-6.6-39.4-15.4-58.2-25.3-1.3-.7-2.4-1.5-3.6-2.3-4.3.5-8.6.8-12.8,1.4-31.4,4-62.1,11.1-92.3,20.5-2.3.7-4.5,1.7-6.7,2.5,4.2,2.3,8.3,4.8,12.5,7,10,5.2,20.2,10.3,30.3,15.4Z"/>
    <path class="st1" d="M1097.2,746.1c-11.9,4.8-24.2,8.1-36.8,10.3-11.5,2-23,3.8-34.5,5.4-8.2,1.1-16.5,1.7-24.7,2.4-5.5.5-11.1,1-16.7,1.5-.6,0-1.3.2-1.9.2-8.3.4-16.5.9-24.8,1.1-12.6.2-25.2,0-37.8,0-3.2,0-6.4-.4-9.5-.6-1.9-.1-3.8-.3-5.7-.3-3.5,0-7,0-10.5,0-1.5,1.2-2.4,2.7-3.1,4.3-.2.5-.5,1-.7,1.5-.1.3-.3.6-.4.9-4.3,9.2-8.6,18.4-13,27.7-2.9,6.2-5.9,12.3-8.9,18.5-1.6,3.3-3.2,6.6-4.9,9.8-5.6,10.4-11.1,20.7-16.8,31.1-4,7.3-8,14.5-12.2,21.6-4.8,8.4-9.8,16.8-14.6,25.2-.9,1.5-1.3,3.2-1.9,4.8,2.9.2,5.7.4,8.6.6.6,0,1.3.2,1.9.2,15.1.2,30.2,1.9,45.4,1,13.3-.8,26.7-1.5,39.9-3.8,13-2.3,25.9-5.2,38.7-8.9,11.6-3.4,23.3-6.8,34.8-10.5,12.8-4.1,25.2-8.9,37.3-14.9,9.9-4.9,19.8-9.7,29.5-14.8,12.7-6.7,25.1-13.8,37.7-20.7.7-.4,1.4-.7,2.2-1s1.5-.6,2.2-.9c1.2-2.3,2.4-4.5,3.5-6.8,13.7-29.6,24.7-60.1,32.9-91.6.9-3.5,1.6-7.1,2.3-10.7-1.6.7-3.2,1.4-4.8,2.2-10.5,5.7-21.4,10.6-32.5,15.1Z"/>
    <path class="st2" d="M637,1144.5c1.3-1.4,2.7-2.8,3.9-4.3.3-.4.6-.8,1-1.2.9-1.2,1.7-2.4,2.6-3.7-14.1-2.7-28-6.3-41.8-10.4-2-.6-3.9-1.2-5.9-1.8-12.8-4-25.5-8.1-37.9-13.3-12.9-5.4-25.6-11.5-37.8-18.4-12.3-7-24.6-14-36.9-21.1-1.2-.7-2.4-1.6-3.6-2.3-1.2-.5-2.4-.9-3.5-1.6-8.2-4.8-16.5-9.6-24.7-14.6-6-3.6-11.9-7.4-17.8-11.2-11.4-7.3-22.1-15.6-32.8-24-9.5-7.5-19.1-14.9-28.5-22.5-9.5-7.5-18.8-15.2-28.3-22.7-15.4-12.1-31.2-23.8-48-33.9-7.4-4.4-14.9-8.6-22.6-12.5-15.7-8.1-31.6-16-47.7-23.2-13-5.8-26.3-10.6-40.1-14-7-1.7-14.1-2.8-21.1-4-2.7-.4-5.4-.3-8.1-.3-5.4,0-10.8,0-16.3.1-3.2,0-6.4,0-9.4-1.3-1.2-.5-2.5-.5-3.7-.7.5,1,.9,2,1.5,2.9,5.5,8.6,11.1,17.2,16.6,25.8.9,1.3,1.9,2.5,2.9,3.7,5.2.1,10,1.7,14.9,3.3,17,5.4,33.6,12,50,19.1,7.6,3.3,15.3,6.5,22.7,10,9.4,4.4,18.1,10.1,26.8,15.6,11.7,7.4,23.3,15,34.9,22.6,13.3,8.8,26.1,18.2,38.4,28.4,9.6,7.9,19.4,15.5,29.1,23.2,10,7.9,19.9,15.9,30,23.7,16.5,12.8,33,25.6,50.2,37.4.7.5,1.4,1,2,1.4,2,1.5,4,3,6,4.5,1.4.9,2.9,1.7,4.3,2.6.5.3.9.6,1.4.9,12.8,8.6,26,16.7,39.5,24.2,6.1,3.4,12.5,6.3,18.7,9.5,2.3,1.2,4.5,2.4,6.7,3.6,8.7,1,17.3,2.2,26,3.1,4.1.4,8.2.6,12.4.8.6,0,1.2,0,1.8,0,5.8.3,11.5.6,17.3.9,1.9-.9,3.8-.9,5.7,0,8,0,16,0,24,0,2.2-1.1,4.4-1.1,6.6-.1,4.8-.3,9.6-.5,14.4-.8h0c1.3-1.4,2.7-2.8,4-4.2Z"/>
    <path class="st1" d="M991.3,290.5c-3,.3-6,.2-9,.2h0c0,1.1,0,2.2,0,3.2,0,.4,0,.7,0,1.1.4,7.3.8,14.6,1.2,21.9.2,3.7.6,7.3.7,11,.1,4.8,0,9.6,0,14.3,0,2.2.2,4.5.4,6.7.8,8.1.5,16.2.2,24.3-.1,4-.8,7.9-.6,11.9.4,9.9-1.1,19.7-1.1,29.6,0,1.1-.3,2.2-.4,3.3-.5,6.3-.9,12.7-1.4,19,2.8-.6,5.7-1,8.4-1.8,10.3-3,20.6-5.6,31.2-7.2,5.3-.8,10.8-1,16.1-1.7,9.8-1.4,19.7-.8,29.6-.8,8.8,0,17.5,1,26.1,2.2,9,1.2,17.9,3.2,26.6,5.6,1.5.4,3.1.6,4.7.9-.5-2-.9-4-1.6-6-4.6-13.9-9.7-27.6-15.4-41.1-14.7-35-32.9-68.1-54.4-99.4-1-1.4-2.2-2.7-3.2-4.1-10.4,2-21,3.1-31.6,4.1-8.8.9-17.7,1.8-26.5,2.6Z"/>
    <path class="st1" d="M1149.5,575c0-1.1-.3-2.2-.5-3.3-1.4.7-2.8,1.5-4.3,2.1-12.1,5.4-24.1,10.9-36.2,16.2-6,2.6-12.1,5-18.2,7.2-8.2,3.1-16.4,6.1-24.8,8.8-14.2,4.7-28.4,9.5-42.8,13.7-12.5,3.7-25.2,6.8-38,9.7-10.4,2.4-20.9,4.2-31.4,6.1-2.3.4-4.7.7-7.1.9-1.4.1-2.9.2-4.3.4h0c-.6.3-1.2.7-1.8,1-.3,1.6-.5,3.1-.8,4.7-.2.9-.4,1.8-.7,2.7-4.4,13.6-9,27.1-13.5,40.6-1.4,4.1-2.8,8.1-4.2,12.1,4.4,0,8.7.1,13.1-.2.8,0,1.6-.1,2.3-.2.7,0,1.5-.2,2.2-.3,1.2-.2,2.5,0,3.8-.2,6.2-.4,12.4-.7,18.6-1.3,7.4-.7,14.9-1.6,22.3-2.5,9-1.1,18-2.1,27-3.5,18.1-2.9,35.9-6.9,53.6-11.6,17.4-4.6,34.4-10.6,51.2-16.8,8.9-3.3,17.9-6.7,26.9-9.9,1.8-.6,3.7-.8,5.6-1.2.1-.9.3-1.9.4-2.8,2.3-24.1,2.4-48.3,1.5-72.5Z"/>
    <path class="st2" d="M152.9,347.2c7.6,10,15.2,20.1,23,29.9,8.2,10.4,16.8,20.4,26.3,29.7,4.1,4,8.1,8.2,12.2,12.1,5.5,5.1,11,10.1,16.7,15,5.4,4.7,11,9.2,16.6,13.7,13.3,10.6,26.6,21.3,40.2,31.6,14.9,11.2,30.3,21.7,46,31.8,10.3,6.6,20.9,12.8,31.9,18.3,14.8,7.4,30,14.2,45.1,20.9,5.2,2.3,10.6,4.5,15.8,6.8,2.4,1,4.8,1.5,7.4,1.6,7.5.3,12.6-6.8,10.8-14-.9-3.4-2.6-6.2-5.5-8.1-2.4-1.6-4.9-3-7.5-4.2-9.9-4.5-19.8-8.8-29.7-13.2-22.1-9.7-43.3-20.9-63.4-34.4-14.4-9.7-28.7-19.6-42.5-30.2-11.3-8.8-22.6-17.7-33.8-26.6-10.1-8-20-16.3-29.2-25.3-6.5-6.3-13-12.7-19.3-19.3-4.5-4.7-8.9-9.6-13-14.6-8.8-10.9-17.3-22.1-25.9-33.2-6.6-8.6-12.8-17.5-18.5-26.7-2.5-4.1-5-8.1-7.5-12.2-1.1-1.8-2.3-3.5-4.2-4.4-.6.7-1.3,1.4-1.8,2.1-3.9,6-7.7,12-11.6,18-.4.7-.6,1.4-.9,2.2,1.4,2.1,3,4.1,4.3,6.3,5.6,9.1,11.5,18,18,26.5Z"/>
    <path class="st1" d="M920.9,1037.8c-9.7,3-19.6,3.9-29.6,4.8-4.6.4-9.2.5-13.8,1.1-5.2.7-10.5.7-15.7.8-1.9,0-3.8.2-5.7.3-3.2.2-6.3.5-9.5.6-6.2,0-12.4,0-18.6,0-1.8,0-3.5,0-5.2-.2-4.7-.8-9.5-.7-14.3-.7-1.9,0-3.8,0-5.7-.2-8.7-.8-17.4-1.6-26.1-2.6-9.3-1-18.6-2.2-28-3.5-5.4-.7-10.7-1.6-16.1-2.4-2.4.7-4,2.5-5.5,4.4-9.3,11.5-18.7,22.9-27.9,34.5-2.1,2.6-4.8,4.8-5.9,8,2.8.6,5.6,1.4,8.4,1.8,19.4,2.8,38.7,5.8,58.2,8.3,11.2,1.5,22.4,2.7,33.8,2.3.5,0,1,0,1.4,0,13.5,0,27.1.2,40.6-1.1,1.4-.1,2.8,0,4.3.2,1.9.2,3.3-.9,4.9-1.7,30.6-15.1,59.4-33,86.6-53.5.9-.7,1.6-1.5,2.4-2.2-4.3-.8-8.6-.4-12.7.9Z"/>
    <path class="st1" d="M966.9,963c-12.4,2.8-24.9,5.4-37.6,7-9.5,1.2-18.9,2.5-28.5,2.7-1.1,0-2.2.2-3.3.2-4,.2-7.9.5-11.9.7-3.2.2-6.4.2-9.5.3-3.2.2-6.3.5-9.5.6-4.3.1-8.6,0-12.9,0-13.9.5-27.7-1.4-41.5-1-1.1,0-2.2-.2-3.3-.3-2.7-.2-5.4-.4-8.1-.6-.9,0-1.9-.1-2.8-.2-1.9-.1-3.7-.2-5.6-.3s-3.7-.3-5.6-.4c-2.8-.3-5.6-.6-8.4-1h0c-.3,0-.6,0-.9,0-2.5,3.8-5,7.7-7.5,11.5-1.8,2.6-3.8,5.1-5.5,7.7-.9,1.4-1.5,3.1-2.3,4.6,1.8.1,3.6.2,5.4.3.6,0,1.2,0,1.8.1,4.9.4,9.8,1.1,14.7,1.4,6.8.5,13.7.8,20.5,1.1.6,0,1.3.1,1.9.2,4,.2,7.9.5,11.9.7,4.3.2,8.6.1,12.9.3,4,.1,7.9.6,11.9.7,7.8.1,15.6,0,23.4,0,2.1,0,4.1-.2,6.2-.3,3.5-.2,7-.5,10.5-.6,3.8-.1,7.7,0,11.5-.2,6.5-.4,13-1,19.5-1.7,9.5-1.1,19-2.1,28.4-3.6,15.3-2.4,30.4-5.7,45.4-9.6,2.3-.6,4.7-.8,7.1-1.1.8-.7,1.7-1.4,2.4-2.2,7.4-8.2,14.9-16.4,22.2-24.7,3.1-3.5,5.9-7.4,8.8-11.1-2.4.7-4.9,1.2-7.3,2.1-17.7,6.8-35.8,12.5-54.3,16.6Z"/>
    <path class="st2" d="M116,743.2c19.1,0,38.3-.8,57.4.7,12.4,1,24.7,2.6,37,4.8,16.5,2.9,32.9,6,49.1,10.3,4.9,1.3,9.9,2.5,14.9,3.6,5.7,1.3,11.1-1.7,13.1-7,1.9-5.1-.1-10.5-5.3-13.4-1.8-1-3.8-1.7-5.7-2.3-7.9-2.6-15.8-5.2-23.7-7.5-4.7-1.4-9.5-2.7-14.3-3.7-15.3-3.1-30.7-6.1-46.2-7.9-10.9-1.3-21.9-2.5-32.9-2.5-12.8,0-25.5,0-38.3,0-6.7,0-13.4.6-20,1.6-12.1,2-24.2,4-36.3,6,1.5,8,3.6,15.9,6.1,23.7,0,.1.2.3.3.4,11.3-1.9,22.6-3.8,34-5.6,3.6-.6,7.3-1.1,10.9-1.1Z"/>
    <path class="st2" d="M142.8,504c1.7,0,3.5-.1,5.2-.3,3.3-.2,6.6-.5,10-.7,1.9-.1,3.8,0,5.7-.2,2.6-.2,4.9-1.2,6.9-3,6.6-5.9,6.1-16.4-1-21.7-3.1-2.3-6.6-3.8-10.2-5.2-8.7-3.2-17.6-5.6-26.6-7.7-11-2.5-22.1-4.7-33.3-6.1-9.9-1.3-19.9-2.7-29.8-4.1-.5,1.5-1,3-1.4,4.5-3.5,12.7-6.3,25.6-8.7,38.6-1,5.1-1.7,10.3-2.5,15.5,11.3-1.8,22.6-3.6,33.9-5.5,17.1-2.9,34.4-4.9,51.8-4.1Z"/>
    <path class="st1" d="M1117.2,484.4c-9-2.2-18.1-3.5-27.4-3.4-5.1,0-10.2,0-15.3,0-1.7,0-3.5,0-5.2.2-6.7.5-13.3,1.2-20,1.6-11,.6-21.8,2.1-32.7,3.7-10.7,1.5-21.3,4-31.8,6.4-3.4.8-6.8,1.6-10.2,2.4-.3.3-.7.6-1,.9-.8,5.3-1.5,10.7-2.3,16-.5,3.3-1,6.6-1.5,9.9,2.3-.5,4.7-.9,7-1.5,12.1-2.9,24-6.5,36.3-8.3,10.9-1.6,21.7-3.1,32.6-4.3,6.2-.7,12.4-.8,18.6-1.2,1.3,0,2.5-.3,3.8-.4,2.2-.2,4.4-.5,6.7-.5,5.9,0,11.8,0,17.7,0,2.4,0,4.8.3,7.1.6,12.2,1.6,24,4.8,35.6,9,2.8,1,5.7,2,8.6,2.9,0-.5,0-1,0-1.4-1.3-7.8-2.7-15.6-4.1-23.4-.2-1.4-.7-2.7-1.1-4.1-2.2-.4-4.4-.7-6.5-1.3-4.9-1.2-9.8-2.7-14.8-3.9Z"/>
    <path class="st2" d="M329.3,1062.7c3.5-.6,6.3-2.1,8.8-4.5,5.1-4.9,5.3-12.4.6-17.6-1.2-1.3-2.6-2.3-4.1-3.2-4-2.3-8.1-4.5-12.1-6.6-14.5-7.7-29.7-13.9-44.6-20.6-9.4-4.3-18.9-8.3-28.4-12.5-9.5-4.1-18.9-8.4-28.7-11.9-5.2-1.8-10.2-4.4-15.3-6.6-1.4-.6-3-.9-4.5-1.3.9,1.1,1.7,2.3,2.7,3.3,29.4,30.5,61.8,57.3,97.3,80.3,1.2.8,2.5,1.4,3.7,2.1,1.6,0,3.2-.1,4.7-.1,6.7,0,13.4.4,20-.7Z"/>
    <path class="st1" d="M789.6,1110.4c-7.5.4-14.9.8-22.4,1.1-.6,0-1.3.2-1.9.2-2.4.2-4.8.5-7.1.5-8.7,0-17.5.4-26.2-.8-5.3-.7-10.8-.8-16.1-1.5-10.4-1.4-20.7-3.7-30.8-6.5-.6-.2-1.2-.4-1.8-.6-1.8-.6-3.5-1.4-5.3-2.1h0c-.1,0-.3,0-.4,0-.8,0-1.6,0-2.4,0-.7,2.5-2.3,4.4-4,6.3-2.1,2.3-4.1,4.6-6.2,6.8-2.1,2.3-4.1,4.6-6.1,6.9,1.6.7,3.1,1.6,4.8,2.1,11.1,3.3,22.2,6.7,33.6,8.9,6.4,1.2,12.8,2.2,19.3,3.3.8.1,1.6.3,2.3.5.8.2,1.5.4,2.3.5,1.1-.2,2.2-.2,3.3-.5,26.7-6.1,52.7-14.3,78.1-24.3,1.2-.5,2.3-1.1,3.4-1.7-1.3,0-2.5,0-3.8,0-4.1.2-8.2.5-12.4.7Z"/>
    <path class="st1" d="M1068.8,882.5c-1.1.2-2.2.5-3.2.8-4,1.2-7.8,2.7-11.8,3.8-11.6,3.4-23,7.5-34.3,11.8-7.3,2.8-14.7,5.3-22.4,6.7-1.6.3-3.1.6-4.6,1.1-5.7,2-8,6-7.2,12.4.6,4.6,4.8,8.3,10,8.6,2.5.1,5.1,0,7.6-.3,6.8-.7,13.5-2.4,20-4.4,7.3-2.2,14.6-4.6,21.9-6.9,1.8-.6,3.6-1.4,5.6-.6.5-.6,1.1-1.1,1.6-1.7,6.4-9.9,12.9-19.8,19.3-29.8.4-.6.6-1.4,1-2.1h0c-1.1.2-2.2.5-3.3.7Z"/>
    <path class="st2" d="M715.7,592.8c2.6-.2,5.2-.5,7.8-.8,15.5-1.6,30.9-4.3,46.2-7.3,19.8-4,39.4-9.3,58.5-15.9,9.8-3.4,19.5-7.1,29.2-10.6,10.3-3.8,20.6-7.7,30.9-11.5,7.3-2.7,14.6-5.5,22-8,17.4-5.9,35-10.7,52.9-14.8,1.8-.4,3.8-.5,5.7-.8.3-.3.7-.6,1-1h0c.5-3.3,1-6.6,1.5-9.9.8-5.3,1.5-10.7,2.3-16-2.5.4-5.1.7-7.5,1.3-6.8,1.6-13.6,3.4-20.4,5.1-15.8,3.8-31.4,8.3-46.7,13.7-18.3,6.5-36.4,13.5-54.7,20.2-9,3.3-17.9,6.7-27,9.7-8.5,2.8-17,5.4-25.6,7.6-10.3,2.7-20.7,5.2-31.2,7.3-14.4,2.9-28.9,5.1-43.4,6.6-1.5.2-3,.3-4.5.5-4.5.5-9,1.1-13.6.8-3.3.3-6.6.8-10,1-5.4.3-10.8.6-16.2.7-2.9,0-5.7,0-8.6-.2-1.6,0-3.2-.4-4.8-.4-11-.3-22-.3-33-.9-10.7-.6-21.3-1.5-31.9-2.4-11.1-1-22.2-2.5-33.2-3.9-8.9-1.1-17.7-2.2-26.6-3.2-2.2-.2-4.5,0-6.6.4-4.9,1.2-7.9,5.2-8,10.1-.1,5.1,2.9,9.3,7.8,10.8.9.3,1.9.5,2.8.6,8.6,1.7,17.2,3.5,25.8,5,7.8,1.3,15.7,2.4,23.6,3.4,6.8.9,13.6,1.5,20.4,2.1,7,.6,14,.9,21,1.6,11.1,1.1,22.3.8,33.4,1,1.4,0,2.9.4,4.3.4,6,0,12.1.2,18.1.1,1.2,0,2.5,0,3.7,0,3.7-.1,7.4-.3,11.1-.4,7.8-.7,15.7-1.4,23.5-2.1Z"/>
    <path class="st2" d="M765.4,969.5c-4-.5-8.1-.9-12.1-1.4-19.3-2.1-38.4-5.8-57.3-10.5-14.8-3.7-29.4-8.3-43.8-13.4-10.8-3.8-21.4-8.2-31.7-13.2-11.9-5.7-23.4-12.2-34.8-19-1-.6-1.9-1.2-2.8-1.8-2.3-1.5-4.6-3.1-6.9-4.6-.5-.3-.9-.6-1.4-1-1.7-1.1-3.4-2.1-5-3.2-1.7-1.1-3.3-2.2-4.9-3.4-17.4-13.2-34.7-26.5-52.1-39.7-9.1-6.9-18.4-13.8-28.2-19.7-8.1-4.8-16.1-9.7-24.3-14.2-7.8-4.3-15.8-8.3-23.9-12-10.6-4.9-21.6-8.6-33.2-10.5-3.6-.6-7.2-1.2-10.9-1.4-4.6-.3-8.7,2.7-10.5,7-1.8,4.4-.5,8.1,2.6,11.4,1.1,1.1,2.5,2,3.9,2.6,1.9.8,3.9,1.4,5.9,1.8,8.5,1.6,16.6,4.5,24.4,8.2,9.7,4.5,19.4,9,28.7,14.2,9.7,5.4,19.4,10.9,28.8,17.1,13.9,9.1,26.8,19.4,40,29.5,14.4,11,28.6,22.4,43.7,32.5,1.5,1,2.7,2.2,3.6,3.7,1.8.7,3.6,1.3,5.2,2.2,7.2,4.1,14.4,8.3,21.6,12.3,11.3,6.3,22.8,12,34.7,17.1,20.1,8.5,40.9,15.1,62.1,20.7,12.8,3.4,25.7,6.1,38.8,8.4,9.7,1.7,19.5,2.9,29.3,4.3,1.7.2,3.5.2,5.3.2.4.2.9.4,1.3.6.2.1.5.2.7.3.8-1.5,1.4-3.2,2.3-4.6,1.7-2.6,3.7-5.1,5.5-7.7,2.6-3.8,5-7.6,7.5-11.5-4-.5-8.1-.9-12.1-1.4Z"/>
    <path class="st2" d="M932.1,638.5c-6.8.7-13.6,1.5-20.4,2.2-5.9.6-11.7,1.1-17.6,1.7-4.9.4-9.8.9-14.8,1.3-5.7.4-11.4.8-17.2,1.2-6.3.5-12.7,1.1-19,1.7-5.2.4-10.5.5-15.7,1.2-4.8.6-9.5.7-14.3.7-7.5,0-15,0-22.5,0-2.2,0-4.5.2-6.7.3-2.9.2-5.7.5-8.6.6-8,0-15.9,0-23.9,0-3.3,0-6.4.5-8.9,2.9-3.1,3-6,6.3-7,10.6-1.8,8.1,2.5,15.8,10.2,18.8,3.1,1.2,6.3,2.3,9.4,3.6,4.7,2,9.7,3.2,14.7,4.2,14.4,2.8,29,4.5,43.6,5.6,7.8.6,15.6.6,23.4,1.2,1.9.2,3.8.2,5.7.3,2.7.2,5.4.4,8.1.6,1.6.1,3.2.2,4.8.3,3.7.2,7.3.6,11,.7,17.9,0,35.7,0,53.6,0,.3,0,.7,0,1,0,1.4-4,2.8-8.1,4.2-12.1,4.5-13.5,9.1-27.1,13.5-40.6.3-.9.5-1.8.7-2.7.3-1.6.5-3.1.8-4.7-2.7.2-5.4.2-8.1.5Z"/>
    <path class="st2" d="M665.6,1097.6c-5-1.6-10.1-3.1-15-4.8-16-5.4-32-10.9-48-16.3-.8-.3-1.5-.5-2.3-.8-15.4-5.8-30.7-11.6-46.1-17.4-4.2-1.6-8.4-3.1-12.6-4.6-1.5-.5-3-1-4.6-1.3-3.3-.6-6.3.4-8.9,2.5-4.7,3.9-4.2,12.5-.7,15.5,1.6,1.3,3.2,2.6,5,3.6,3.1,1.6,6.4,2.9,9.6,4.4,20.5,9.6,41.5,18.1,63,25.1,7.4,2.4,14.8,5,22.2,7.5,9.8,3.3,19.6,6.6,29.5,9.9.6,0,1.3,0,1.9,0,2.1-2.3,4.1-4.6,6.1-6.9,2-2.3,4.1-4.6,6.2-6.8,1.7-1.9,3.4-3.8,4-6.3-3.2-1.1-6.3-2.3-9.5-3.3Z"/>
   </g>
  </g>
</svg>