<?xml version="1.0" encoding="utf-8"?>
<!-- Designed by Vexels.com - 2020 All Rights Reserved - https://vexels.com/terms-and-conditions/  -->
<svg version="1.1" id="Capa_1" xmlns="http://www.w3.org/2000/svg" xmlns:xlink="http://www.w3.org/1999/xlink" x="0px" y="0px"
	 viewBox="0 0 1200 1200" enable-background="new 0 0 1200 1200" xml:space="preserve">
<g>
	<path fill="none" d="M894.175,765.275c-0.004-0.077-0.007-0.155-0.011-0.232l0,0C894.168,765.12,894.171,765.197,894.175,765.275z"
		/>
	<path fill="none" d="M877.251,764.268c-0.475-0.048-0.951-0.094-1.426-0.14C876.3,764.173,876.775,764.22,877.251,764.268z"/>
	<path fill="none" d="M733.422,200.73c-1.763-0.487-3.515-1.031-5.273-1.542C729.907,199.698,731.659,200.243,733.422,200.73
		c2.669,0.43,5.345,0.83,8.017,1.248C738.767,201.559,736.092,201.159,733.422,200.73z"/>
	<path fill="none" d="M657.775,709.586c-1.528-0.477-3.087-0.879-4.611-1.365C654.688,708.707,656.247,709.109,657.775,709.586
		c0.811-2.741,1.556-5.503,2.392-8.236C659.331,704.082,658.586,706.845,657.775,709.586z"/>
	<path fill="none" d="M891.077,770.362c0.776-1.617,1.673-3.159,3.132-4.347v0C892.75,767.204,891.853,768.746,891.077,770.362z"/>
	<path fill="none" d="M760.153,993.791c0.435,0.189,0.87,0.378,1.306,0.567c-0.435-0.189-0.87-0.379-1.306-0.568
		C760.153,993.79,760.153,993.79,760.153,993.791z"/>
	<path fill="none" d="M815.682,911.493c0.534-0.009,1.069-0.018,1.603-0.027C816.751,911.475,816.216,911.484,815.682,911.493
		L815.682,911.493z"/>
	<path fill="none" d="M458.363,1106.374c-1.411-0.897-2.851-1.75-4.27-2.635c-2.022-1.484-4.018-3.007-6.05-4.476
		c2.032,1.469,4.027,2.992,6.049,4.476C455.511,1104.624,456.952,1105.477,458.363,1106.374z"/>
	<path fill="none" d="M765.399,969.455c4.029,0.466,8.059,0.936,12.088,1.399c-2.506,3.826-4.971,7.679-7.533,11.466
		c2.562-3.787,5.028-7.64,7.534-11.466c0.301-0.025,0.602-0.055,0.903-0.088l0,0c-0.3,0.033-0.601,0.062-0.903,0.087
		C773.458,970.391,769.429,969.921,765.399,969.455z"/>
	<path fill="none" d="M732.448,1034.823c0.007,0.327,0.014,0.653,0.02,0.98C732.462,1035.476,732.455,1035.149,732.448,1034.823
		L732.448,1034.823C732.448,1034.823,732.448,1034.823,732.448,1034.823z"/>
	<path fill="none" d="M939.373,642.618c0.296-1.551,0.494-3.135,0.792-4.686c0.615-0.343,1.229-0.685,1.844-1.028
		c-0.615,0.343-1.229,0.685-1.845,1.027C939.867,639.483,939.67,641.067,939.373,642.618z"/>
	<path fill="none" d="M981.496,290.664c0.265,0.017,0.53,0.035,0.795,0.052c0,0,0-0.001,0-0.001
		C982.027,290.698,981.761,290.681,981.496,290.664z"/>
	<path fill="none" d="M719.932,397.751c3.146-0.318,6.288-0.69,9.426-1.111c4.942-0.865,9.886-1.718,14.829-2.578
		c-4.943,0.86-9.887,1.713-14.83,2.578C726.219,397.06,723.078,397.432,719.932,397.751z"/>
	<path fill="none" d="M942.009,636.905L942.009,636.905c0.205-1.012,0.382-2.031,0.576-3.046
		C942.392,634.874,942.215,635.893,942.009,636.905z"/>
	<path fill="none" d="M713.632,398.315c-2.102,0.164-4.208,0.302-6.316,0.415C709.424,398.617,711.529,398.479,713.632,398.315z"/>
	<path fill="none" d="M712.502,568.247c-4.505,0.536-9.016,1.051-13.579,0.751l0,0C703.486,569.299,707.997,568.784,712.502,568.247
		z"/>
	<path fill="none" d="M715.69,592.848c-7.838,0.745-15.687,1.393-23.529,2.11c-3.698,0.134-7.395,0.325-11.092,0.434
		c3.697-0.109,7.394-0.299,11.091-0.433c-2.338,8.756-4.583,17.537-7.031,26.262c2.448-8.725,4.693-17.506,7.032-26.263
		C700.003,594.241,707.852,593.593,715.69,592.848z"/>
	<path fill="none" d="M736.78,327.223c-0.792-0.078-1.588-0.14-2.378-0.229c-2.054-0.616-4.091-1.298-6.152-1.889
		c2.06,0.59,4.098,1.273,6.151,1.889C735.193,327.083,735.988,327.145,736.78,327.223z"/>
	<path fill="none" d="M656.833,1120.989c0.635-0.003,1.269-0.006,1.904-0.01c1.584,0.706,3.113,1.595,4.761,2.087
		c-1.648-0.492-3.177-1.381-4.761-2.087c2.053-2.29,4.096-4.59,6.147-6.883c-2.051,2.293-4.094,4.592-6.147,6.883
		C658.102,1120.983,657.468,1120.985,656.833,1120.989z"/>
	<path fill="none" d="M654.492,1136.781c-2.719-0.491-5.435-1.011-8.157-1.484l0,0
		C649.057,1135.77,651.772,1136.29,654.492,1136.781z"/>
	<path fill="none" d="M644.492,1135.399C644.492,1135.399,644.492,1135.399,644.492,1135.399
		c-14.116-2.724-28.01-6.293-41.772-10.417C616.482,1129.106,630.375,1132.676,644.492,1135.399z"/>
	<path fill="none" d="M758.963,997.405c-0.188,0.331-0.386,0.657-0.6,0.976C758.577,998.062,758.774,997.735,758.963,997.405z"/>
	<path fill="none" d="M934.099,697.944c0.779-0.06,1.557-0.135,2.335-0.231C935.656,697.809,934.878,697.883,934.099,697.944z"/>
	<path fill="none" d="M480.617,1068.124c-1.163-0.514-2.388-0.921-3.478-1.559c1.09,0.638,2.315,1.045,3.479,1.561
		c0.904-1.839,1.649-3.779,2.742-5.498C482.267,1064.347,481.522,1066.287,480.617,1068.124z"/>
	<path fill="none" d="M671.075,1107.254c1.732-1.883,3.366-3.771,4.018-6.314c0.802-0.022,1.604-0.045,2.406-0.068
		c-0.802,0.022-1.604,0.045-2.406,0.067C674.44,1103.483,672.806,1105.371,671.075,1107.254z"/>
	<path fill="none" d="M542.002,966.968C542.002,966.968,542.002,966.968,542.002,966.968c1.181-2.338,2.329-4.694,3.523-7.025
		C544.33,962.273,543.183,964.63,542.002,966.968z"/>
	<path fill="none" d="M681.971,1080.814c3.099,0.634,6.2,1.261,9.293,1.92c0,0,0,0,0,0c0.635-0.004,1.27-0.009,1.904-0.013
		c-0.635,0.004-1.27,0.009-1.904,0.013C688.171,1082.075,685.07,1081.448,681.971,1080.814z"/>
	<path fill="none" d="M596.654,859.768c-1.923-1.119-3.82-2.286-5.773-3.351C592.834,857.482,594.731,858.649,596.654,859.768
		c1.567,0.576,3.175,1.067,4.727,1.674C599.829,860.835,598.222,860.344,596.654,859.768z"/>
	<path fill="none" d="M510.581,1018.564c-4.874-2.7-9.748-5.4-14.62-8.101c4.873,2.702,9.747,5.401,14.619,8.102
		c4.455,2.111,8.958,4.122,13.353,6.349C519.538,1022.686,515.034,1020.675,510.581,1018.564z"/>
	<path fill="none" d="M575.975,905.705c-0.475-0.32-0.949-0.644-1.427-0.961c-1.665-1.089-3.365-2.132-5.045-3.203
		c1.68,1.07,3.38,2.113,5.045,3.203C575.026,905.061,575.5,905.384,575.975,905.705z"/>
	<path fill="none" d="M718.314,117.645c1.508,0.342,3.05,0.572,4.567,0.884c1.13,0.377,2.242,0.844,3.379,1.187
		c-1.137-0.343-2.249-0.81-3.379-1.187C721.364,118.217,719.822,117.987,718.314,117.645z"/>
	<path fill="#DB310C" d="M228.539,216.935c4.214,13.219,8.925,26.253,14.33,39.039c7.963,18.838,17.416,36.887,28.27,54.216
		c12.964,20.697,27.058,40.561,42.789,59.274c10.385,12.354,21.615,23.884,33.424,34.826c12.866,11.921,26.506,22.949,40.57,33.452
		c13.299,9.93,26.94,19.338,41.27,27.721c24.063,14.076,49.514,24.933,76.194,33.005c12.685,3.838,25.51,7.117,38.491,9.667
		c11.098,2.18,22.307,3.878,33.527,5.322c9.791,1.261,19.666,1.878,29.505,2.762c1.11,0.1,2.23,0.126,3.346,0.127
		c14.831,0.007,29.663,0.137,44.491-0.062c6.201-0.083,12.401-0.79,18.587-1.361c7.458-0.689,14.905-1.503,22.349-2.329
		c3.643-0.404,7.267-0.98,10.905-1.435c0.395-0.049,0.79-0.092,1.186-0.13c1.188-0.115,2.381-0.192,3.571-0.296
		c2.816-0.541,5.622-1.148,8.452-1.612c18.416-3.023,36.655-6.894,54.837-11.088c30.774-7.099,61.285-15.193,91.536-24.23
		c22.146-6.616,44.152-13.708,66.202-20.645c14.903-4.689,29.771-9.488,44.666-14.203c1.357-0.429,2.796-0.601,4.197-0.891
		c0.011-0.332,0.022-0.665,0.033-0.997c0.469-6.345,0.93-12.691,1.414-19.035c0.085-1.11,0.381-2.212,0.383-3.319
		c0.024-9.871,1.499-19.681,1.131-29.579c-0.147-3.954,0.484-7.931,0.633-11.903c0.304-8.114,0.61-16.231-0.228-24.339
		c-0.229-2.214-0.406-4.442-0.439-6.665c-0.07-4.778,0.055-9.561-0.064-14.337c-0.091-3.654-0.453-7.299-0.662-10.95
		c-0.418-7.306-0.829-14.612-1.203-21.92c-0.018-0.357-0.025-0.715-0.025-1.073c0.001-1.074,0.066-2.151,0.083-3.227
		c-0.265-0.017-0.53-0.035-0.795-0.052c-0.081-0.005-0.162-0.011-0.243-0.016c-4.374,0.787-8.781,0.947-13.197,0.974
		c-1.472,0.009-2.945,0.003-4.418,0.001c-15.286-0.026-30.571,0.018-45.856-0.043c-3.014-0.012-6.028-0.36-9.041-0.568
		c-0.793-0.055-1.581-0.206-2.374-0.246c-7.305-0.373-14.615-0.677-21.916-1.116c-3.968-0.238-7.933-0.609-11.881-1.073
		c-22.924-2.694-45.762-5.888-68.462-10.185c-21.613-4.091-42.888-9.529-64.209-14.819c-1.537-0.381-3.019-0.988-4.526-1.488
		c0,0,0,0.001,0,0.001c-4.64-1.145-9.3-2.213-13.932-3.386c-1.544-0.391-3.085-0.794-4.62-1.215
		c-29.074-7.977-57.766-17.199-86.316-26.851c-20.844-7.047-41.552-14.501-62.012-22.611c-17.052-6.76-33.822-14.156-50.185-22.479
		c-16.06-8.169-32.22-16.144-48.378-24.119c-11.025-5.442-21.663-11.535-32.011-18.169c-10.603-6.798-21.385-13.316-31.963-20.15
		c-5.485-3.543-10.716-7.481-16.033-11.283c-3.631-2.596-7.231-5.237-10.806-7.91c-1.912-1.43-3.742-2.968-5.61-4.456
		c-1.33,0.493-2.699,0.9-3.983,1.49c-17.008,7.805-33.556,16.488-49.635,26.06c-0.939,0.559-1.778,1.287-2.663,1.936
		c4.477,4.073,8.996,8.1,13.421,12.229c8.515,7.944,17.572,15.24,26.681,22.475c11.865,9.424,24.269,18.11,36.865,26.514
		c15.253,10.177,30.991,19.57,46.977,28.554c14.317,8.046,28.888,15.609,43.667,22.76c24.974,12.085,50.308,23.366,76.302,33.095
		c15.97,5.978,31.941,11.979,48.084,17.465c22.941,7.797,46.13,14.847,69.586,20.94c15.732,4.086,31.587,7.699,47.374,11.575
		c0.693,0.17,1.383,0.357,2.069,0.554c2.06,0.59,4.098,1.273,6.152,1.889c0.79,0.089,1.585,0.151,2.378,0.229
		c0.793,0.078,1.582,0.171,2.361,0.32c14.237,2.734,28.425,5.745,42.709,8.204c14.595,2.512,29.262,4.631,43.934,6.662
		c12.143,1.681,24.332,3.049,36.516,4.424c5.216,0.589,10.473,0.811,15.705,1.263c3.488,0.301,6.968,0.704,10.447,1.094
		c0.252,0.029,0.473,0.336,0.715,0.519c-0.254,1.193-1.349,1.225-2.191,1.472c-17.598,5.155-34.671,11.846-52.006,17.765
		c-10.854,3.706-21.614,7.689-32.47,11.389c-14.2,4.84-28.733,8.439-43.492,11.107c-4.937,0.893-9.879,1.76-14.822,2.62
		c-4.943,0.86-9.887,1.713-14.829,2.578c-3.138,0.421-6.28,0.793-9.426,1.111c-2.098,0.212-4.198,0.401-6.3,0.564
		c-2.102,0.164-4.208,0.302-6.316,0.415c-1.054,0.056-2.109,0.106-3.164,0.149c-8.587,0.349-17.153,1.197-25.74,1.527
		c-8.112,0.312-16.24,0.535-24.353-0.302c-2.687-0.278-5.406-0.279-8.112-0.351c-12.446-0.332-24.831-1.392-36.97-4.196
		c-9.62-2.222-19.125-4.941-28.664-7.503c-3.383-0.909-6.718-2.001-10.072-3.017c-17.936-5.437-34.642-13.638-51.116-22.434
		c-20.874-11.145-40.062-24.846-59.168-38.658c-10.844-7.839-20.978-16.599-31.129-25.323c-11.019-9.47-21.077-19.92-31.029-30.445
		c-11.924-12.61-23.509-25.558-34.372-39.106c-11.572-14.433-22.397-29.399-31.121-45.778c-5.091-9.558-10.169-19.123-15.259-28.682
		c-2.395-4.498-4.87-8.956-7.176-13.499c-1.002-1.974-1.67-4.118-2.491-6.183c-1.249,0.686-2.541,1.302-3.737,2.066
		c-27.657,17.656-53.489,37.674-77.561,59.963c-1.041,0.964-1.942,2.078-2.908,3.122l0,0c0.001-0.001,0.001-0.001,0.002-0.002
		C224.961,205.697,226.748,211.317,228.539,216.935z"/>
	<path fill="#DB310C" d="M136.906,684.239c9.147-1.29,18.339-2.169,27.601-2.472c7.799-0.255,15.581-0.885,23.4-0.822
		c11.172,0.09,22.281,1.015,33.369,2.221c20.643,2.245,40.907,6.588,61.086,11.341c15.229,3.587,30.098,8.353,44.712,13.931
		c2.381,0.909,4.789,1.763,7.226,2.509c14.657,4.483,28.873,10.125,42.907,16.244c24.916,10.865,48.475,24.238,71.128,39.166
		c12.636,8.327,24.805,17.367,37.122,26.174c11.285,8.068,22.68,15.969,34.547,23.16c12.814,7.765,25.582,15.613,38.562,23.095
		c10.628,6.126,21.541,11.758,32.316,17.631c1.953,1.064,3.85,2.231,5.773,3.351c1.568,0.576,3.175,1.067,4.727,1.674
		c0.518,0.202,1.029,0.418,1.531,0.654c12.843,6.032,26.04,11.175,39.358,16.048c16.621,6.081,33.535,11.207,50.687,15.513
		c19.476,4.889,39.177,8.693,59.108,11.224c9.475,1.203,18.939,2.525,28.439,3.493c9.177,0.935,18.396,1.461,27.592,2.217
		c2.537,0.208,5.058,0.596,7.586,0.901c0.534-0.009,1.069-0.018,1.603-0.027c0.115-0.002,0.229-0.004,0.344-0.006c0,0,0,0,0,0
		c0.626-1.619,1.057-3.35,1.911-4.839c4.826-8.42,9.8-16.755,14.634-25.171c4.119-7.172,8.179-14.381,12.154-21.635
		c5.656-10.322,11.235-20.688,16.797-31.061c1.727-3.221,3.322-6.514,4.924-9.799c2.996-6.148,5.992-12.297,8.918-18.479
		c4.356-9.203,8.647-18.436,12.975-27.651c0.143-0.305,0.283-0.613,0.423-0.92c0.234-0.516,0.469-1.032,0.714-1.542
		c0.776-1.616,1.673-3.159,3.132-4.347c-0.011-0.248-0.023-0.494-0.034-0.741c-0.004-0.077-0.007-0.155-0.011-0.232
		c-5.675,0.477-11.295-0.211-16.914-0.775c-0.475-0.048-0.951-0.094-1.426-0.14c-0.871-0.082-1.742-0.159-2.613-0.226
		c-7.133-0.545-14.226-1.615-21.337-2.448c-15.347-1.796-30.576-4.325-45.731-7.325c-21.41-4.239-42.595-9.377-63.59-15.347
		c-14.859-4.225-29.686-8.549-44.263-13.656c-12.468-4.368-24.818-9.076-37.201-13.683c-1.173-0.436-2.212-1.229-3.314-1.856
		c-1.528-0.477-3.088-0.879-4.611-1.366c-0.744-0.238-1.481-0.49-2.198-0.791c-19.534-8.228-39.105-16.371-58.53-24.85
		c-15.041-6.565-29.879-13.592-44.822-20.383c-24.663-11.208-49.242-22.607-74.037-33.516c-20.858-9.177-41.957-17.814-63.301-25.82
		c-29.872-11.204-60.264-20.762-91.197-28.588c-17.629-4.46-35.427-8.102-53.442-10.555c-8.199-1.116-16.489-1.546-24.722-2.441
		c-13.833-1.504-27.705-0.754-41.561-0.886c-10.686-0.101-21.312,0.934-31.954,1.732c-10.978,0.823-21.871,2.25-32.725,4.008
		c-19.096,3.092-37.693,8.124-55.84,14.783c-7.926,2.908-15.733,6.139-23.6,9.208c-1.632,0.637-3.29,1.208-4.936,1.81
		c-0.093,1.586-0.252,3.172-0.269,4.759c-0.329,30.834,2.199,61.452,7.079,91.883c0.781,4.868,1.87,9.686,2.816,14.528
		c2.288-0.69,4.605-1.298,6.861-2.082C89.602,693.099,113.008,687.609,136.906,684.239z"/>
	<path fill="#E6691B" d="M78.834,580.914c18.147-6.659,36.745-11.691,55.84-14.783c10.854-1.757,21.747-3.184,32.725-4.008
		c10.643-0.798,21.268-1.833,31.954-1.732c13.856,0.131,27.729-0.619,41.561,0.886c8.232,0.895,16.523,1.324,24.722,2.441
		c18.016,2.453,35.814,6.095,53.442,10.555c30.934,7.826,61.326,17.384,91.197,28.588c21.345,8.006,42.444,16.643,63.301,25.82
		c24.795,10.909,49.374,22.309,74.037,33.516c14.943,6.79,29.782,13.818,44.822,20.383c19.425,8.479,38.996,16.622,58.53,24.85
		c0.716,0.302,1.454,0.554,2.198,0.791c1.524,0.487,3.083,0.888,4.611,1.365c0.811-2.741,1.556-5.503,2.392-8.236
		c0.278-0.911,0.567-1.818,0.871-2.72c8.641-25.614,16.787-51.382,24.092-77.409c2.448-8.725,4.693-17.506,7.031-26.262
		c-3.697,0.134-7.394,0.325-11.091,0.433c-1.232,0.036-2.465,0.064-3.698,0.077c-6.048,0.064-12.098-0.038-18.146-0.121
		c-1.429-0.02-2.853-0.34-4.282-0.371c-11.145-0.245-22.301,0.059-33.427-1.041c-6.969-0.689-13.974-0.998-20.95-1.615
		c-6.82-0.604-13.639-1.262-20.431-2.117c-7.9-0.994-15.8-2.054-23.645-3.403c-8.633-1.485-17.205-3.33-25.801-5.025
		c-0.938-0.185-1.884-0.36-2.794-0.644c-4.844-1.518-7.87-5.77-7.75-10.831c0.116-4.909,3.071-8.849,7.971-10.062
		c2.116-0.524,4.437-0.677,6.607-0.445c8.868,0.945,17.711,2.122,26.568,3.181c11.07,1.323,22.122,2.857,33.222,3.851
		c10.62,0.951,21.252,1.808,31.911,2.413c10.989,0.624,21.969,0.642,32.955,0.896c1.589,0.037,3.171,0.333,4.761,0.393
		c2.862,0.11,5.73,0.25,8.59,0.166c5.41-0.158,10.82-0.404,16.223-0.734c3.331-0.204,6.648-0.632,9.971-0.959l0,0h0
		c0.18-1.056,0.324-2.12,0.518-3.172c0.064-0.351,0.135-0.701,0.214-1.048c2.185-9.608,4.487-19.19,6.579-28.817
		c1.822-8.385,3.417-16.818,5.112-25.23c-1.19,0.104-2.383,0.181-3.571,0.296c-0.396,0.038-0.791,0.081-1.186,0.13
		c-3.638,0.455-7.262,1.031-10.905,1.435c-7.444,0.826-14.891,1.64-22.349,2.329c-6.187,0.572-12.386,1.278-18.587,1.361
		c-14.828,0.199-29.661,0.069-44.491,0.062c-1.116-0.001-2.236-0.027-3.346-0.127c-9.839-0.884-19.714-1.501-29.505-2.762
		c-11.22-1.445-22.429-3.143-33.527-5.322c-12.982-2.55-25.806-5.829-38.491-9.667c-26.68-8.072-52.131-18.93-76.194-33.005
		c-14.331-8.383-27.971-17.791-41.27-27.721c-14.064-10.503-27.704-21.531-40.57-33.452c-11.809-10.942-23.039-22.472-33.424-34.826
		c-15.731-18.713-29.825-38.577-42.789-59.274c-10.854-17.329-20.308-35.378-28.27-54.216c-5.405-12.786-10.116-25.82-14.33-39.039
		c-1.791-5.618-3.579-11.238-5.366-16.858c-0.001,0.001-0.001,0.001-0.002,0.002c-0.631,0.464-1.322,0.868-1.887,1.405
		c-28.023,26.604-52.97,55.833-74.824,87.697c-0.62,0.904-1.059,1.934-1.582,2.904c1.95,0.966,3.13,2.68,4.231,4.441
		c2.535,4.052,5.021,8.135,7.54,12.197c5.715,9.215,11.861,18.135,18.502,26.707c8.587,11.085,17.123,22.211,25.885,33.156
		c4.076,5.091,8.49,9.934,13.007,14.644c6.287,6.554,12.742,12.953,19.257,19.281c9.264,8.999,19.108,17.344,29.246,25.342
		c11.26,8.883,22.479,17.819,33.827,26.588c13.75,10.625,28.049,20.489,42.45,30.211c20.017,13.514,41.288,24.683,63.363,34.391
		c9.92,4.362,19.847,8.709,29.72,13.175c2.599,1.175,5.099,2.631,7.481,4.206c2.902,1.919,4.65,4.778,5.519,8.129
		c1.873,7.221-3.203,14.247-10.753,13.978c-2.594-0.092-5.054-0.548-7.43-1.563c-5.276-2.254-10.589-4.422-15.83-6.753
		c-15.144-6.735-30.266-13.514-45.103-20.921c-10.999-5.491-21.583-11.652-31.926-18.282
		c-15.706-10.068-31.141-20.535-46.012-31.783c-13.595-10.283-26.853-21.011-40.203-31.614c-5.613-4.457-11.166-8.999-16.59-13.682
		c-5.665-4.891-11.215-9.921-16.679-15.035c-4.187-3.918-8.135-8.092-12.241-12.098c-9.486-9.256-18.062-19.323-26.266-29.698
		c-7.807-9.873-15.359-19.948-23.007-29.947c-6.493-8.49-12.37-17.399-18.006-26.473c-1.342-2.161-2.886-4.197-4.336-6.292
		c-0.827,1.155-1.741,2.26-2.47,3.476c-21.143,35.272-38.115,72.453-50.84,111.552c-2.758,8.473-5.028,17.105-7.523,25.664
		c9.934,1.368,19.863,2.777,29.805,4.091c11.22,1.483,22.322,3.585,33.345,6.135c9.005,2.083,17.936,4.414,26.608,7.656
		c3.596,1.345,7.106,2.864,10.193,5.166c7.13,5.316,7.572,15.779,1.002,21.715c-1.97,1.78-4.264,2.788-6.874,3.002
		c-1.901,0.156-3.822,0.056-5.727,0.174c-3.328,0.207-6.65,0.508-9.976,0.743c-1.745,0.123-3.501,0.332-5.241,0.255
		c-17.439-0.771-34.652,1.191-51.8,4.101c-11.302,1.918-22.627,3.702-33.942,5.547c-1.016,6.592-2.149,13.168-3.025,19.778
		c-1.796,13.563-2.816,27.203-3.486,40.862c-0.288,5.866-0.195,11.75-0.275,17.626c1.646-0.601,3.304-1.173,4.936-1.81
		C63.101,587.053,70.908,583.822,78.834,580.914z"/>
	<path fill="#E6691B" d="M95.319,766.397c1.748-0.11,3.497-0.246,5.247-0.28c2.708-0.052,5.418-0.022,8.127-0.036
		c17.072-0.089,34.046,1.216,50.953,3.522c18.328,2.5,36.489,5.854,54.432,10.374c14.237,3.586,28.149,8.173,41.845,13.43
		c19.224,7.379,37.709,16.347,55.721,26.28c11.716,6.461,23.374,13.039,34.881,19.863c14.81,8.781,28.928,18.62,42.863,28.728
		c15.732,11.411,31.526,22.739,47.389,33.966c13.914,9.847,27.948,19.523,41.953,29.239c12.326,8.551,25.397,15.866,38.546,23.043
		c6.292,3.435,12.641,6.765,19.008,10.059c1.827,0.945,3.806,1.597,5.715,2.383c1.181-2.338,2.329-4.695,3.523-7.025
		c0.398-0.777,0.802-1.551,1.214-2.321c4.347-8.124,8.721-16.235,13.161-24.309c0.911-1.656,2.158-3.128,3.249-4.685
		c-0.911-1.535-2.15-2.713-3.642-3.713c-15.104-10.129-29.286-21.498-43.711-32.541c-13.159-10.074-26.133-20.395-40.003-29.509
		c-9.332-6.131-19.028-11.64-28.777-17.069c-9.339-5.201-19.016-9.712-28.691-14.227c-7.818-3.648-15.878-6.627-24.419-8.179
		c-2.023-0.368-4.044-0.975-5.933-1.783c-1.427-0.61-2.842-1.524-3.915-2.637c-3.098-3.214-4.431-6.968-2.624-11.362
		c1.751-4.257,5.921-7.206,10.478-6.955c3.646,0.2,7.276,0.838,10.891,1.423c11.572,1.873,22.592,5.603,33.185,10.498
		c8.095,3.74,16.079,7.757,23.904,12.03c8.247,4.504,16.287,9.394,24.346,14.233c9.851,5.915,19.085,12.738,28.232,19.665
		c17.405,13.18,34.705,26.498,52.113,39.674c1.583,1.198,3.242,2.295,4.921,3.365c1.68,1.07,3.38,2.113,5.045,3.203
		c1.089-2.121,2.204-4.228,3.261-6.365c4.234-8.559,8.466-17.118,12.664-25.694c2.098-4.287,4.122-8.61,6.18-12.917
		c-1.922-1.12-3.819-2.287-5.773-3.351c-10.775-5.873-21.687-11.505-32.316-17.631c-12.979-7.482-25.748-15.329-38.562-23.095
		c-11.867-7.192-23.262-15.092-34.547-23.16c-12.317-8.806-24.486-17.846-37.122-26.174c-22.654-14.928-46.213-28.302-71.128-39.166
		c-14.035-6.12-28.251-11.761-42.907-16.244c-2.437-0.745-4.845-1.6-7.226-2.509c-14.614-5.578-29.483-10.344-44.712-13.931
		c-20.179-4.753-40.443-9.095-61.086-11.341c-11.088-1.206-22.197-2.131-33.369-2.221c-7.819-0.063-15.601,0.566-23.4,0.822
		c-9.261,0.303-18.454,1.182-27.601,2.472c-23.898,3.37-47.304,8.86-70.122,16.782c-2.256,0.783-4.573,1.392-6.861,2.082
		c1.058,7.706,2.753,15.277,4.844,22.764c12.108-2.019,24.208-4.083,36.325-6.039c6.615-1.068,13.271-1.684,19.994-1.639
		c12.756,0.084,25.514,0.028,38.271,0.038c11.02,0.009,21.953,1.197,32.872,2.503c15.528,1.857,30.867,4.851,46.181,7.946
		c4.834,0.977,9.616,2.29,14.341,3.717c7.936,2.396,15.816,4.98,23.698,7.548c1.963,0.64,3.947,1.341,5.745,2.334
		c5.184,2.864,7.248,8.24,5.321,13.38c-1.985,5.293-7.411,8.262-13.133,6.998c-4.98-1.1-9.938-2.319-14.865-3.636
		c-16.193-4.328-32.645-7.414-49.129-10.346c-12.247-2.179-24.559-3.77-36.972-4.764c-19.117-1.531-38.245-0.667-57.367-0.692
		c-3.645-0.005-7.314,0.566-10.931,1.135c-11.339,1.785-22.658,3.696-33.985,5.558c1.013,5.988,2.964,11.699,5.102,17.356
		c2.867-0.062,5.737-0.067,8.601-0.202C88.333,766.896,91.825,766.616,95.319,766.397z"/>
	<path fill="#DB310C" d="M139.891,841.884c1.267-0.041,2.542,0.124,3.812,0.204c2.224,0.141,4.447,0.389,6.672,0.421
		c21.984,0.317,43.386,4.156,64.416,10.402c9.478,2.814,18.867,5.857,27.977,9.711c14.099,5.964,27.779,12.803,41.223,20.099
		c21.57,11.707,42.476,24.557,63.435,37.303c18.237,11.09,36.275,22.506,54.38,33.812c20.671,12.908,41.212,26.031,62.023,38.709
		c10.465,6.375,21.405,11.971,32.131,17.918c4.873,2.702,9.747,5.401,14.62,8.101c4.453,2.111,8.957,4.123,13.351,6.349
		c19.893,10.079,40.253,19.102,61.055,27.127c16.044,6.189,32.338,11.666,48.835,16.503c10.839,3.179,21.752,6.13,32.712,8.865
		c5.111,1.275,10.271,2.35,15.437,3.406c3.099,0.634,6.2,1.261,9.293,1.919c0.634-0.004,1.269-0.008,1.904-0.013
		c1.163-3.262,3.85-5.43,5.913-8.016c9.222-11.56,18.607-22.99,27.911-34.486c1.519-1.876,3.061-3.675,5.477-4.416
		c-0.006-0.327-0.013-0.653-0.02-0.98c-2.371-0.24-4.775-0.303-7.107-0.746c-17.386-3.308-34.509-7.706-51.529-12.528
		c-14.121-4-27.836-9.16-41.563-14.301c-18.659-6.988-36.832-15.123-55.076-23.1c-10.077-4.406-20.035-9.044-29.819-14.057
		c-1.835-0.94-3.57-2.077-5.351-3.123c0,0,0,0,0,0c-1.909-0.786-3.888-1.438-5.715-2.383c-6.367-3.294-12.717-6.624-19.008-10.059
		c-13.148-7.177-26.22-14.492-38.546-23.043c-14.005-9.716-28.04-19.392-41.953-29.239c-15.864-11.227-31.658-22.554-47.389-33.966
		c-13.936-10.108-28.054-19.947-42.863-28.728c-11.507-6.823-23.166-13.401-34.881-19.863c-18.013-9.934-36.497-18.902-55.721-26.28
		c-13.696-5.257-27.609-9.844-41.845-13.43c-17.943-4.52-36.104-7.874-54.432-10.374c-16.908-2.306-33.881-3.611-50.953-3.522
		c-2.709,0.014-5.419-0.016-8.127,0.036c-1.75,0.034-3.499,0.17-5.247,0.28c-3.495,0.219-6.986,0.499-10.483,0.664
		c-2.864,0.135-5.734,0.14-8.601,0.202c0.315,1.228,0.562,2.479,0.955,3.681c7.874,24.082,17.36,47.514,28.474,70.284
		c0.552,1.131,1.29,2.171,1.941,3.253c2.94-0.462,5.87-1.079,8.815-1.477c0.982-0.132,1.965-0.24,2.951-0.309
		C126.197,842.219,133.049,842.106,139.891,841.884z"/>
	<path fill="#E6691B" d="M317.045,154.61c5.09,9.559,10.168,19.124,15.259,28.682c8.724,16.379,19.549,31.346,31.121,45.778
		c10.863,13.549,22.448,26.496,34.372,39.106c9.952,10.525,20.01,20.975,31.029,30.445c10.151,8.724,20.285,17.484,31.129,25.323
		c19.106,13.812,38.295,27.512,59.168,38.658c16.473,8.796,33.18,16.997,51.116,22.434c3.354,1.017,6.689,2.109,10.072,3.017
		c9.539,2.562,19.045,5.281,28.664,7.503c12.139,2.804,24.524,3.865,36.97,4.196c2.706,0.072,5.425,0.073,8.112,0.351
		c8.113,0.837,16.241,0.614,24.353,0.302c8.587-0.33,17.153-1.178,25.74-1.527c1.056-0.043,2.111-0.093,3.164-0.149
		c2.108-0.112,4.213-0.251,6.316-0.415c2.102-0.163,4.202-0.352,6.3-0.564c3.146-0.318,6.288-0.69,9.426-1.111
		c0.644-7.256,1.327-14.509,1.918-21.77c0.462-5.682,0.797-11.375,1.212-17.061c0.53-7.263,1.119-14.522,1.608-21.788
		c0.202-3.002,0.21-6.017,0.306-9.026c-2.054-0.616-4.091-1.298-6.151-1.889c-0.687-0.197-1.376-0.383-2.069-0.554
		c-15.787-3.877-31.642-7.489-47.374-11.575c-23.456-6.093-46.646-13.143-69.586-20.94c-16.142-5.486-32.114-11.487-48.084-17.465
		c-25.994-9.73-51.328-21.01-76.302-33.095c-14.779-7.151-29.35-14.714-43.667-22.76c-15.985-8.983-31.724-18.377-46.977-28.554
		c-12.596-8.404-25-17.09-36.865-26.514c-9.109-7.236-18.166-14.532-26.681-22.475c-4.425-4.128-8.944-8.156-13.421-12.228
		c-3.284,1.995-6.567,3.99-9.848,5.983c0.822,2.066,1.489,4.209,2.491,6.183C312.175,145.654,314.65,150.111,317.045,154.61z"/>
	<path fill="#DB310C" d="M471.021,100.542c3.56,1.788,7.204,3.406,10.8,5.123c23.303,11.128,46.524,22.431,69.927,33.342
		c20.956,9.77,42.328,18.586,64.145,26.284c15.332,5.41,30.603,11.004,46.03,16.128c19.98,6.635,40.221,12.376,60.913,16.43
		c1.79,0.35,3.555,0.827,5.314,1.339c1.758,0.511,3.51,1.056,5.273,1.542c2.669,0.429,5.345,0.83,8.017,1.248
		c2.672,0.418,5.34,0.853,7.997,1.354c12.372,2.33,24.852,3.839,37.361,5.141c8.701,0.906,17.4,1.865,26.119,2.56
		c7.29,0.581,14.605,1.059,21.914,1.147c14.489,0.175,28.982,0.084,43.473,0.022c3.014-0.013,6.028-0.37,9.041-0.582
		c1.111-0.079,2.217-0.263,3.329-0.29c11.636-0.288,23.162-1.796,34.664-3.379c12.614-1.735,25.177-3.844,37.769-5.744
		c0.94-0.142,1.89-0.221,2.843-0.282c0.952-0.062,1.907-0.107,2.858-0.181c2.572-0.62,5.145-1.24,7.718-1.859
		c-0.723-0.834-1.373-1.749-2.183-2.491c-4.219-3.865-8.423-7.749-12.733-11.51c-17.628-15.382-36.15-29.605-55.623-42.576
		c-4.617-3.075-9.411-5.886-14.123-8.819l0,0l0,0c-1.867,0.468-3.749,0.764-5.645,0.951c-1.895,0.186-3.805,0.263-5.727,0.293
		c-4.292,0.066-8.576,0.578-12.867,0.643c-5.407,0.081-10.818-0.063-16.225-0.177c-1.587-0.034-3.169-0.435-4.753-0.432
		c-11.656,0.024-23.185-1.51-34.738-2.748c-19.484-2.088-38.933-4.458-58.237-7.848c-8.785-1.543-17.518-3.383-26.26-5.16
		c-0.386-0.078-0.768-0.179-1.147-0.293c-1.137-0.343-2.249-0.81-3.379-1.187c-1.517-0.312-3.059-0.541-4.567-0.884
		c-0.503-0.114-1.002-0.241-1.495-0.387c-16.032-4.752-32.096-9.404-48.054-14.395c-22.344-6.988-44.649-14.11-66.889-21.423
		c-20.172-6.634-39.44-15.429-58.225-25.291c-1.26-0.661-2.4-1.55-3.598-2.333c-4.272,0.456-8.553,0.832-12.812,1.379
		c-31.385,4.031-62.104,11.082-92.304,20.458c-2.267,0.704-4.457,1.656-6.684,2.493c4.163,2.35,8.258,4.829,12.501,7.024
		C450.804,90.371,460.91,95.461,471.021,100.542z"/>
	<path fill="#CF200D" d="M1097.162,746.094c-11.853,4.845-24.202,8.071-36.791,10.274c-11.46,2.005-22.958,3.832-34.487,5.391
		c-8.202,1.109-16.482,1.654-24.728,2.428c-5.55,0.521-11.104,0.998-16.655,1.502c-0.635,0.058-1.264,0.2-1.899,0.229
		c-8.273,0.378-16.544,0.944-24.822,1.062c-12.594,0.18-25.194,0.086-37.791,0.017c-3.178-0.017-6.354-0.389-9.531-0.585
		c-1.908-0.118-3.817-0.27-5.727-0.307c-3.507-0.068-7.016-0.063-10.523-0.088c-1.46,1.188-2.356,2.73-3.132,4.347
		c-0.245,0.51-0.48,1.026-0.714,1.542c-0.139,0.307-0.279,0.615-0.423,0.92c-4.328,9.216-8.619,18.449-12.975,27.651
		c-2.927,6.182-5.922,12.331-8.918,18.479c-1.601,3.286-3.197,6.579-4.924,9.799c-5.562,10.374-11.14,20.739-16.797,31.061
		c-3.975,7.254-8.034,14.462-12.154,21.635c-4.833,8.416-9.807,16.751-14.634,25.171c-0.854,1.489-1.285,3.22-1.911,4.839
		c2.856,0.21,5.713,0.415,8.569,0.632c0.635,0.048,1.266,0.198,1.9,0.206c15.13,0.18,30.243,1.907,45.374,0.975
		c13.343-0.822,26.719-1.464,39.933-3.769c13.046-2.276,25.947-5.196,38.664-8.868c11.635-3.36,23.251-6.808,34.781-10.51
		c12.755-4.096,25.237-8.948,37.263-14.891c9.858-4.872,19.765-9.656,29.475-14.81c12.663-6.722,25.145-13.784,37.726-20.661
		c0.692-0.378,1.418-0.694,2.153-0.993c0.735-0.299,1.48-0.581,2.209-0.893c1.17-2.258,2.43-4.474,3.497-6.779
		c13.687-29.572,24.651-60.126,32.933-91.637c0.928-3.53,1.557-7.137,2.324-10.709c-1.59,0.736-3.227,1.386-4.762,2.223
		C1119.155,736.708,1108.231,741.57,1097.162,746.094z"/>
	<path fill="#DB310C" d="M636.954,1144.478c1.334-1.408,2.657-2.825,3.946-4.273c0.331-0.372,0.647-0.758,0.953-1.152
		c0.918-1.184,1.747-2.446,2.638-3.653c-14.117-2.724-28.01-6.293-41.772-10.417c-1.966-0.589-3.929-1.19-5.89-1.8
		c-12.786-3.984-25.519-8.069-37.88-13.252c-12.941-5.426-25.58-11.465-37.777-18.414c-12.315-7.017-24.638-14.02-36.946-21.05
		c-1.242-0.709-2.406-1.555-3.608-2.34c-1.164-0.516-2.389-0.923-3.479-1.561c-8.25-4.828-16.513-9.636-24.691-14.585
		c-5.997-3.629-11.894-7.428-17.794-11.214c-11.415-7.326-22.108-15.643-32.752-24.021c-9.516-7.49-19.054-14.949-28.53-22.488
		c-9.475-7.538-18.814-15.248-28.34-22.72c-15.429-12.102-31.198-23.751-48.011-33.882c-7.364-4.437-14.937-8.555-22.592-12.473
		c-15.745-8.058-31.564-15.965-47.715-23.204c-12.985-5.82-26.309-10.63-40.122-13.974c-6.956-1.684-14.057-2.8-21.128-3.957
		c-2.651-0.434-5.403-0.332-8.109-0.34c-5.418-0.016-10.838,0.036-16.256,0.107c-3.203,0.042-6.353-0.066-9.408-1.26
		c-1.157-0.452-2.491-0.451-3.744-0.656c0.498,0.979,0.917,2.007,1.506,2.926c5.526,8.626,11.067,17.243,16.643,25.836
		c0.852,1.313,1.907,2.496,2.868,3.739c5.175,0.111,10.03,1.721,14.887,3.254c17.039,5.377,33.613,11.973,49.965,19.145
		c7.586,3.327,15.255,6.476,22.743,10.01c9.38,4.428,18.105,10.052,26.839,15.61c11.692,7.44,23.314,14.993,34.876,22.633
		c13.298,8.788,26.107,18.24,38.404,28.404c9.575,7.914,19.416,15.508,29.147,23.232c9.98,7.922,19.896,15.928,29.974,23.724
		c16.506,12.769,33.006,25.551,50.199,37.403c0.688,0.474,1.37,0.958,2.047,1.448c2.032,1.469,4.027,2.992,6.05,4.476
		c1.419,0.885,2.859,1.738,4.27,2.635c0.47,0.299,0.937,0.603,1.399,0.914c12.821,8.647,26.03,16.669,39.518,24.218
		c6.112,3.421,12.501,6.345,18.749,9.526c2.27,1.156,4.494,2.401,6.739,3.605c8.672,1.047,17.335,2.166,26.018,3.11
		c4.098,0.445,8.233,0.554,12.351,0.816c0.604,0.023,1.208,0.046,1.811,0.069c5.773,0.296,11.547,0.591,17.32,0.887
		c1.903-0.894,3.79-0.873,5.66,0.1c7.999,0.001,15.998,0.002,23.997,0.003c2.181-1.067,4.381-1.086,6.6-0.123
		c4.808-0.267,9.615-0.534,14.423-0.802l0,0C634.277,1147.285,635.621,1145.886,636.954,1144.478z"/>
	<path fill="#E6691B" d="M389.923,111.823c5.316,3.801,10.548,7.739,16.033,11.283c10.579,6.834,21.361,13.352,31.963,20.15
		c10.348,6.634,20.986,12.728,32.011,18.169c16.158,7.975,32.317,15.95,48.378,24.119c16.363,8.322,33.132,15.719,50.185,22.479
		c20.459,8.11,41.167,15.564,62.012,22.611c28.55,9.652,57.242,18.874,86.316,26.851c1.535,0.421,3.076,0.824,4.62,1.215
		c4.632,1.173,9.292,2.242,13.932,3.386c0,0,0-0.001,0-0.001c0,0,0,0,0,0c-0.013-6.669-0.02-13.338-0.042-20.007
		c-0.016-4.92,0.083-9.839-0.721-14.731c-0.281-1.709-0.126-3.486-0.224-5.229c-0.215-3.799-0.51-7.594-0.686-11.394
		c-0.154-3.328-0.189-6.662-0.277-9.994c-1.763-0.487-3.515-1.032-5.273-1.543c-1.758-0.511-3.524-0.988-5.314-1.339
		c-20.692-4.054-40.934-9.795-60.913-16.43c-15.427-5.124-30.698-10.718-46.03-16.128c-21.817-7.698-43.189-16.514-64.145-26.284
		c-23.403-10.911-46.624-22.215-69.927-33.342c-3.596-1.717-7.24-3.335-10.8-5.123c-10.111-5.08-20.217-10.171-30.267-15.371
		c-4.243-2.195-8.338-4.674-12.501-7.024c-0.923,0.202-1.874,0.321-2.765,0.618c-16.825,5.617-33.332,12.057-49.534,19.274
		c-0.857,0.382-1.634,0.942-2.447,1.418c1.868,1.489,3.698,3.027,5.61,4.456C382.693,106.586,386.292,109.227,389.923,111.823z"/>
	<path fill="#E6691B" d="M141.098,883.813c5.418-0.07,10.837-0.123,16.256-0.107c2.706,0.008,5.458-0.094,8.109,0.34
		c7.071,1.157,14.172,2.273,21.128,3.957c13.813,3.345,27.137,8.154,40.122,13.974c16.151,7.239,31.971,15.146,47.715,23.204
		c7.655,3.918,15.228,8.036,22.592,12.473c16.813,10.131,32.582,21.78,48.011,33.882c9.526,7.472,18.865,15.182,28.34,22.72
		c9.476,7.539,19.015,14.999,28.53,22.488c10.645,8.378,21.337,16.695,32.752,24.021c5.9,3.787,11.797,7.585,17.794,11.214
		c8.177,4.949,16.441,9.756,24.691,14.585c1.09,0.638,2.315,1.045,3.478,1.559c0.906-1.838,1.651-3.777,2.743-5.496
		c7.997-12.581,16.094-25.099,24.076-37.688c1.262-1.989,2.105-4.243,3.143-6.375c-4.872-2.701-9.746-5.4-14.619-8.102
		c-10.726-5.947-21.666-11.543-32.131-17.918c-20.812-12.677-41.352-25.8-62.023-38.709c-18.105-11.306-36.143-22.722-54.38-33.812
		c-20.959-12.746-41.866-25.596-63.435-37.303c-13.444-7.296-27.124-14.135-41.223-20.099c-9.11-3.854-18.499-6.896-27.977-9.711
		c-21.03-6.246-42.433-10.085-64.416-10.402c-2.226-0.032-4.448-0.28-6.672-0.421c-1.27-0.081-2.545-0.245-3.812-0.204
		c-6.842,0.221-13.694,0.335-20.52,0.813c-0.986,0.069-1.969,0.177-2.951,0.309c-2.945,0.397-5.874,1.015-8.815,1.477
		c0.392,1.025,0.676,2.109,1.194,3.065c5.572,10.283,11.17,20.551,16.795,30.805c0.68,1.239,1.562,2.366,2.35,3.544
		c1.253,0.205,2.587,0.204,3.744,0.656C134.745,883.747,137.895,883.855,141.098,883.813z"/>
	<path fill="#DB3B18" d="M1092.441,505.911c-5.89-0.079-11.782-0.066-17.672,0.004c-2.221,0.027-4.44,0.303-6.658,0.488
		c-1.268,0.106-2.529,0.302-3.798,0.38c-6.19,0.381-12.413,0.459-18.565,1.16c-10.905,1.242-21.787,2.731-32.643,4.349
		c-12.304,1.835-24.222,5.432-36.295,8.319c-2.32,0.555-4.666,1-7,1.497l0,0c-0.326,0.318-0.653,0.637-0.98,0.956
		c-0.186,1.74-0.242,3.505-0.581,5.215c-1.668,8.435-3.283,16.884-5.157,25.275c-2.465,11.036-4.958,22.074-7.797,33.018
		c-3.84,14.8-8.036,29.509-12.038,44.267c-0.269,0.994-0.479,2.005-0.673,3.02c-0.193,1.015-0.371,2.034-0.576,3.046
		c1.424-0.152,2.854-0.272,4.282-0.398c2.381-0.21,4.759-0.438,7.1-0.864c10.499-1.912,21.025-3.751,31.419-6.145
		c12.726-2.931,25.428-6.055,37.957-9.721c14.368-4.204,28.564-9.006,42.777-13.719c8.314-2.757,16.548-5.766,24.761-8.817
		c6.12-2.273,12.218-4.632,18.2-7.241c12.117-5.284,24.152-10.758,36.214-16.172c1.452-0.652,2.854-1.415,4.279-2.128
		c0.029-0.945,0.148-1.895,0.073-2.831c-0.805-10.084-1.49-20.181-2.52-30.242c-0.691-6.75-1.884-13.449-2.852-20.172
		c-2.858-0.98-5.738-1.902-8.572-2.95c-11.536-4.265-23.353-7.421-35.561-9.02C1097.206,506.176,1094.819,505.943,1092.441,505.911z
		"/>
	<path fill="#DB3B18" d="M1115.101,661.478c-16.858,6.265-33.791,12.25-51.219,16.838c-17.718,4.664-35.552,8.714-53.635,11.602
		c-8.95,1.429-17.97,2.429-26.969,3.528c-7.419,0.906-14.845,1.776-22.285,2.469c-6.171,0.576-12.367,0.878-18.553,1.286
		c-1.27,0.084-2.569-0.039-3.811,0.181c-0.731,0.129-1.462,0.238-2.194,0.329c-0.777,0.097-1.556,0.171-2.335,0.231
		c-4.355,0.338-8.728,0.178-13.095,0.193c-0.347,0.024-0.694,0.048-1.041,0.072c-0.411,1.688-0.626,3.454-1.263,5.051
		c-6.098,15.3-12.256,30.576-18.427,45.847c-1.483,3.671-3.135,7.273-4.603,10.95c-0.641,1.607-1.012,3.32-1.507,4.985
		c0.004,0.077,0.007,0.155,0.011,0.232c0.011,0.247,0.023,0.493,0.034,0.741v0c3.508,0.026,7.016,0.02,10.523,0.088
		c1.91,0.037,3.818,0.189,5.727,0.307c3.177,0.197,6.353,0.568,9.531,0.585c12.597,0.069,25.196,0.162,37.791-0.017
		c8.278-0.118,16.549-0.685,24.822-1.062c0.635-0.029,1.264-0.171,1.899-0.229c5.552-0.503,11.105-0.981,16.655-1.502
		c8.247-0.774,16.526-1.318,24.728-2.428c11.528-1.559,23.027-3.386,34.487-5.391c12.589-2.203,24.938-5.429,36.791-10.274
		c11.069-4.524,21.993-9.386,32.508-15.119c1.535-0.837,3.172-1.487,4.762-2.223c0.314-0.895,0.71-1.771,0.929-2.688
		c5.25-21.995,9.059-44.238,11.464-66.721c0.32-2.996,0.479-6.01,0.712-9.015c-1.859,0.398-3.793,0.59-5.565,1.23
		C1132.991,654.8,1124.05,658.153,1115.101,661.478z"/>
	<path fill="#DB3B18" d="M1053.589,860.424c-9.709,5.154-19.617,9.939-29.475,14.81c-12.026,5.943-24.508,10.795-37.263,14.891
		c-11.53,3.702-23.146,7.151-34.781,10.51c-12.717,3.672-25.618,6.592-38.664,8.868c-13.214,2.305-26.591,2.948-39.933,3.769
		c-15.131,0.932-30.244-0.794-45.374-0.975c-0.634-0.008-1.265-0.157-1.9-0.206c-2.856-0.218-5.713-0.423-8.569-0.632c0,0,0,0,0,0
		c-0.115,0.002-0.229,0.004-0.344,0.006c-0.534,0.009-1.069,0.018-1.603,0.027c-2.165,3.881-4.145,7.881-6.53,11.622
		c-7.606,11.933-15.35,23.779-23.073,35.636c-1.561,2.397-3.326,4.661-4.888,7.057c-1.034,1.588-1.874,3.302-2.801,4.959l0,0l0,0
		c2.776,0.429,5.561,0.751,8.352,1.007c1.861,0.171,3.724,0.312,5.588,0.437c1.864,0.125,3.73,0.234,5.597,0.338
		c0.933,0.052,1.866,0.103,2.8,0.155c2.699,0.149,5.394,0.38,8.089,0.586c1.111,0.085,2.222,0.316,3.329,0.288
		c13.859-0.346,27.66,1.546,41.526,1.047c4.295-0.155,8.603,0.049,12.901-0.056c3.177-0.078,6.346-0.431,9.522-0.587
		c3.179-0.156,6.364-0.182,9.544-0.335c3.97-0.191,7.937-0.451,11.905-0.688c1.112-0.066,2.223-0.197,3.335-0.226
		c9.565-0.242,19.029-1.548,28.5-2.746c12.656-1.601,25.126-4.224,37.567-6.981c18.542-4.109,36.589-9.842,54.326-16.6
		c2.359-0.899,4.863-1.415,7.301-2.109c0.001-0.001-0.114-0.309-0.114-0.309l-0.309,0.115c0.496-0.342,0.993-0.684,1.489-1.027
		c-0.496,0.343-0.993,0.685-1.489,1.027c0.496-0.342,0.993-0.684,1.49-1.027c0.243-0.201,0.537-0.363,0.721-0.608
		c6.46-8.589,12.913-17.184,19.351-25.79c0.276-0.368,0.397-0.851,0.589-1.281c-1.961-0.759-3.753,0.03-5.569,0.608
		c-7.283,2.318-14.542,4.713-21.856,6.927c-6.559,1.986-13.204,3.675-20.044,4.375c-2.527,0.258-5.09,0.453-7.619,0.332
		c-5.198-0.248-9.455-4.01-10.021-8.578c-0.782-6.317,1.573-10.396,7.242-12.358c1.498-0.518,3.068-0.869,4.631-1.147
		c7.721-1.375,15.1-3.86,22.401-6.659c11.304-4.333,22.681-8.461,34.32-11.836c3.975-1.153,7.86-2.616,11.825-3.808
		c1.062-0.319,2.144-0.57,3.232-0.802c1.088-0.232,2.182-0.445,3.266-0.69l0,0l0,0c0.796-1.176,1.659-2.312,2.376-3.534
		c6.735-11.481,13.104-23.161,18.925-35.133c0.829-1.704,1.515-3.478,2.266-5.219c-0.729,0.312-1.473,0.594-2.209,0.893
		c-0.735,0.299-1.461,0.615-2.153,0.993C1078.734,846.64,1066.252,853.702,1053.589,860.424z"/>
	<path fill="#CF200D" d="M991.326,290.475c-2.995,0.267-6.022,0.17-9.034,0.24c0,0,0,0,0,0.001
		c-0.017,1.075-0.082,2.153-0.083,3.227c0,0.358,0.007,0.716,0.025,1.073c0.374,7.308,0.785,14.614,1.203,21.92
		c0.209,3.651,0.571,7.297,0.662,10.95c0.119,4.776-0.006,9.559,0.064,14.337c0.033,2.224,0.209,4.452,0.439,6.665
		c0.839,8.108,0.533,16.225,0.228,24.339c-0.149,3.972-0.78,7.949-0.633,11.903c0.368,9.898-1.107,19.707-1.131,29.579
		c-0.003,1.107-0.299,2.209-0.383,3.319c-0.484,6.344-0.945,12.69-1.414,19.035c2.799-0.587,5.652-0.995,8.39-1.795
		c10.255-2.993,20.597-5.613,31.168-7.172c5.345-0.788,10.78-0.957,16.132-1.704c9.841-1.375,19.721-0.841,29.582-0.802
		c8.756,0.034,17.464,1.048,26.144,2.226c9.014,1.223,17.863,3.198,26.639,5.555c1.53,0.411,3.125,0.582,4.691,0.865
		c-0.514-1.989-0.92-4.015-1.56-5.965c-4.568-13.899-9.693-27.59-15.363-41.08c-14.712-35.005-32.869-68.123-54.437-99.373
		c-0.985-1.427-2.156-2.725-3.241-4.084c-10.449,2-21.018,3.089-31.591,4.144C1008.991,288.759,1000.165,289.687,991.326,290.475z"
		/>
	<path fill="#CF200D" d="M1149.501,574.972c-0.04-1.096-0.329-2.182-0.502-3.273c-1.425,0.713-2.827,1.476-4.279,2.128
		c-12.061,5.414-24.096,10.888-36.214,16.172c-5.982,2.609-12.08,4.968-18.2,7.241c-8.213,3.051-16.446,6.06-24.761,8.817
		c-14.214,4.714-28.409,9.515-42.777,13.719c-12.529,3.666-25.232,6.79-37.957,9.721c-10.394,2.394-20.92,4.233-31.419,6.145
		c-2.341,0.426-4.719,0.654-7.1,0.864c-1.428,0.126-2.858,0.245-4.282,0.398l0,0c-0.615,0.343-1.229,0.685-1.844,1.028
		c-0.298,1.551-0.496,3.135-0.792,4.686c-0.178,0.931-0.391,1.85-0.683,2.744c-4.432,13.568-8.989,27.096-13.521,40.631
		c-1.359,4.058-2.776,8.097-4.166,12.144c4.368-0.016,8.74,0.145,13.095-0.193c0.779-0.06,1.557-0.135,2.335-0.231
		c0.732-0.091,1.464-0.199,2.194-0.329c1.242-0.22,2.541-0.097,3.811-0.181c6.186-0.409,12.382-0.711,18.553-1.286
		c7.44-0.694,14.867-1.563,22.285-2.469c9-1.099,18.02-2.099,26.969-3.528c18.084-2.888,35.917-6.938,53.635-11.602
		c17.427-4.588,34.36-10.573,51.219-16.838c8.95-3.326,17.89-6.679,26.87-9.921c1.772-0.64,3.706-0.832,5.565-1.23
		c0.147-0.941,0.345-1.876,0.434-2.823C1150.241,623.365,1150.374,599.178,1149.501,574.972z"/>
	<path fill="#E6691B" d="M451.421,1108.699c1.065-1.532,1.79-3.3,2.671-4.96c-2.021-1.484-4.017-3.007-6.049-4.476
		c-0.678-0.49-1.359-0.974-2.047-1.448c-17.193-11.852-33.693-24.634-50.199-37.403c-10.078-7.796-19.994-15.802-29.974-23.724
		c-9.731-7.725-19.572-15.318-29.147-23.232c-12.297-10.164-25.105-19.616-38.404-28.404c-11.562-7.64-23.184-15.193-34.876-22.633
		c-8.734-5.558-17.459-11.182-26.839-15.61c-7.487-3.534-15.157-6.683-22.743-10.01c-16.352-7.172-32.926-13.768-49.965-19.145
		c-4.857-1.533-9.712-3.143-14.887-3.254c0.471,0.822,0.879,1.688,1.422,2.459c14.206,20.195,29.753,39.306,46.539,57.412
		c0.748,0.807,1.642,1.48,2.468,2.215c0.656,0.413,1.313,0.827,1.971,1.235c-0.185,0.058-0.345,0.075-0.495,0.076l-0.052,0.107
		c1.506,0.438,3.072,0.734,4.507,1.34c5.126,2.163,10.097,4.748,15.331,6.593c9.775,3.445,19.184,7.719,28.656,11.867
		c9.473,4.149,18.989,8.202,28.412,12.461c14.931,6.748,30.133,12.914,44.617,20.625c4.072,2.168,8.146,4.339,12.141,6.643
		c1.494,0.862,2.943,1.945,4.109,3.207c4.785,5.177,4.52,12.685-0.56,17.573c-2.454,2.362-5.304,3.931-8.764,4.5
		c-6.651,1.094-13.326,0.768-20.005,0.695c-1.581-0.017-3.163,0.085-4.746,0.131c1.272,0.932,2.492,1.952,3.827,2.786
		c39.722,24.821,81.937,44.246,126.608,58.333c1.503,0.474,3.072,0.742,4.61,1.105c1.084-1.731,2.088-3.519,3.269-5.181
		C445.658,1116.596,448.63,1112.711,451.421,1108.699z"/>
	<path fill="#DB310C" d="M152.866,347.154c7.648,9.999,15.2,20.073,23.007,29.947c8.204,10.375,16.78,20.442,26.266,29.698
		c4.106,4.007,8.054,8.18,12.241,12.098c5.465,5.114,11.014,10.145,16.679,15.035c5.425,4.683,10.978,9.225,16.59,13.682
		c13.35,10.603,26.609,21.331,40.203,31.614c14.871,11.248,30.307,21.716,46.012,31.783c10.343,6.63,20.927,12.791,31.926,18.282
		c14.837,7.407,29.959,14.186,45.103,20.921c5.241,2.331,10.555,4.5,15.83,6.753c2.376,1.015,4.835,1.47,7.43,1.563
		c7.55,0.269,12.626-6.757,10.753-13.978c-0.869-3.352-2.617-6.21-5.519-8.129c-2.381-1.575-4.882-3.03-7.481-4.206
		c-9.873-4.466-19.8-8.813-29.72-13.175c-22.075-9.708-43.346-20.877-63.363-34.391c-14.401-9.723-28.7-19.586-42.45-30.211
		c-11.348-8.769-22.567-17.705-33.827-26.588c-10.138-7.997-19.982-16.343-29.246-25.342c-6.515-6.329-12.97-12.727-19.257-19.281
		c-4.517-4.709-8.931-9.552-13.007-14.644c-8.762-10.945-17.299-22.072-25.885-33.156c-6.641-8.572-12.787-17.492-18.502-26.707
		c-2.519-4.063-5.005-8.145-7.54-12.197c-1.101-1.76-2.281-3.475-4.231-4.441c-0.618,0.712-1.331,1.363-1.839,2.147
		c-3.886,5.983-7.742,11.986-11.576,18.003c-0.416,0.652-0.631,1.433-0.94,2.155c1.45,2.095,2.994,4.131,4.336,6.292
		C140.496,329.755,146.372,338.664,152.866,347.154z"/>
	<path fill="#DB3B18" d="M942.721,993.037c-9.429,1.511-18.943,2.515-28.438,3.58c-6.483,0.727-12.992,1.259-19.502,1.697
		c-3.81,0.256-7.648,0.092-11.468,0.234c-3.497,0.129-6.988,0.428-10.483,0.628c-2.067,0.118-4.136,0.263-6.204,0.271
		c-7.81,0.033-15.622,0.092-23.431-0.014c-3.974-0.054-7.94-0.503-11.914-0.652c-4.298-0.161-8.604-0.118-12.901-0.281
		c-3.974-0.151-7.942-0.455-11.912-0.697c-0.636-0.039-1.269-0.129-1.905-0.163c-6.835-0.368-13.677-0.646-20.505-1.12
		c-4.922-0.342-9.823-0.969-14.739-1.412c-0.594-0.054-1.189-0.099-1.785-0.139c-1.786-0.121-3.577-0.194-5.365-0.301
		c-0.237-0.103-0.474-0.206-0.711-0.309c-0.435-0.189-0.87-0.378-1.306-0.567c-0.101,1.342-0.564,2.516-1.19,3.614
		c-0.188,0.331-0.386,0.657-0.6,0.976c-0.308,0.459-0.637,0.908-0.972,1.354c-7.218,9.627-14.448,19.244-21.658,28.877
		c-0.708,0.946-1.467,1.87-2.081,2.871c-0.613,1.001-1.081,2.081-1.205,3.34c0.007,0.326,0.014,0.653,0.02,0.98
		c5.354,0.8,10.698,1.677,16.065,2.381c9.311,1.221,18.625,2.421,27.957,3.469c8.696,0.977,17.413,1.766,26.125,2.587
		c1.898,0.178,3.817,0.173,5.728,0.189c4.776,0.041,9.551-0.06,14.298,0.736c1.712,0.287,3.495,0.193,5.245,0.199
		c6.213,0.02,12.426,0.074,18.637-0.021c3.176-0.049,6.347-0.394,9.522-0.589c1.906-0.117,3.814-0.268,5.722-0.29
		c5.253-0.06,10.491-0.045,15.73-0.774c4.561-0.634,9.194-0.738,13.791-1.126c10.002-0.843,19.984-1.797,29.644-4.791
		c4.163-1.29,8.419-1.701,12.746-0.916c1.185-0.78,2.428-1.486,3.547-2.352c19.482-15.07,37.818-31.431,55.099-48.976
		c0.996-1.012,1.881-2.134,2.818-3.205c-2.356,0.362-4.763,0.528-7.06,1.118C973.098,987.297,957.99,990.59,942.721,993.037z"/>
	<path fill="#CF200D" d="M920.931,1037.773c-9.66,2.994-19.642,3.948-29.644,4.791c-4.597,0.388-9.23,0.491-13.791,1.126
		c-5.239,0.728-10.476,0.714-15.73,0.774c-1.908,0.022-3.815,0.173-5.722,0.29c-3.174,0.195-6.346,0.54-9.522,0.589
		c-6.211,0.095-12.424,0.041-18.637,0.021c-1.751-0.005-3.533,0.089-5.245-0.199c-4.747-0.796-9.522-0.694-14.298-0.736
		c-1.91-0.016-3.829-0.011-5.728-0.189c-8.713-0.821-17.43-1.61-26.125-2.587c-9.331-1.048-18.646-2.248-27.957-3.469
		c-5.367-0.704-10.711-1.581-16.065-2.381c-2.416,0.741-3.958,2.54-5.477,4.416c-9.303,11.496-18.689,22.926-27.911,34.486
		c-2.063,2.586-4.75,4.754-5.913,8.016c2.791,0.615,5.557,1.403,8.377,1.818c19.374,2.85,38.735,5.811,58.151,8.346
		c11.193,1.461,22.448,2.687,33.79,2.272c0.477-0.017,0.955,0.001,1.433,0.001c13.529-0.007,27.063,0.25,40.559-1.079
		c1.401-0.138,2.838,0.094,4.258,0.154c1.869,0.153,3.338-0.9,4.885-1.665c30.554-15.101,59.409-32.956,86.609-53.483
		c0.877-0.661,1.633-1.48,2.446-2.226C929.35,1036.073,925.094,1036.483,920.931,1037.773z"/>
	<path fill="#DB3B18" d="M1092.683,427.817c-8.68-1.178-17.388-2.192-26.144-2.226c-9.861-0.039-19.741-0.573-29.582,0.802
		c-5.352,0.748-10.787,0.916-16.132,1.704c-10.571,1.559-20.913,4.179-31.168,7.172c-2.738,0.799-5.59,1.207-8.39,1.795
		c-0.011,0.332-0.022,0.665-0.033,0.997c0,0,0,0,0,0c-1.526,12.898-2.802,25.827-4.484,38.706c-0.561,4.293-1.167,8.581-1.842,12.86
		c-0.296,1.874-0.252,3.801-0.366,5.703c3.402-0.809,6.799-1.641,10.207-2.423c10.549-2.419,21.099-4.87,31.822-6.391
		c10.864-1.541,21.736-3.042,32.711-3.671c6.662-0.382,13.307-1.079,19.962-1.601c1.743-0.137,3.496-0.196,5.245-0.208
		c5.094-0.033,10.188,0.002,15.281-0.036c9.286-0.071,18.405,1.233,27.406,3.395c4.951,1.189,9.842,2.624,14.782,3.857
		c2.153,0.538,4.363,0.849,6.547,1.262c-0.195-1.415-0.293-2.851-0.598-4.241c-3.487-15.853-7.5-31.57-12.308-47.077
		c-0.419-1.353-1.052-2.639-1.586-3.958c-1.566-0.283-3.16-0.454-4.691-0.865C1110.546,431.015,1101.697,429.04,1092.683,427.817z"
		/>
	<path fill="#E34B1D" d="M722.525,115.214c0.177,1.095,0.24,2.209,0.356,3.314c1.13,0.377,2.242,0.844,3.379,1.187
		c0.379,0.114,0.761,0.215,1.147,0.293c8.742,1.777,17.475,3.617,26.26,5.16c19.305,3.391,38.754,5.761,58.237,7.848
		c11.553,1.238,23.083,2.772,34.738,2.748c1.584-0.003,3.167,0.398,4.753,0.432c5.408,0.114,10.819,0.259,16.225,0.177
		c4.291-0.065,8.576-0.577,12.867-0.643c1.922-0.03,3.832-0.106,5.727-0.293c1.896-0.187,3.777-0.483,5.645-0.951l0,0
		c-1.303-0.907-2.565-1.881-3.915-2.711c-53.768-33.03-111.539-56.071-173.231-69.314c-1.081-0.232-2.203-0.272-3.305-0.402
		c0.777,3.405,1.496,6.825,2.342,10.213C717.293,86.463,720.188,100.781,722.525,115.214z"/>
	<path fill="#E6691B" d="M601.875,81.441c22.24,7.313,44.545,14.435,66.889,21.423c15.958,4.991,32.022,9.643,48.054,14.395
		c0.493,0.146,0.992,0.273,1.495,0.387c1.508,0.342,3.05,0.572,4.567,0.883c-0.116-1.105-0.179-2.219-0.356-3.314
		c-2.337-14.433-5.233-28.752-8.774-42.94c-0.846-3.388-1.565-6.808-2.342-10.213c-3.25-0.724-6.481-1.541-9.751-2.156
		c-27.263-5.126-54.713-8.578-82.479-9.268c-19.59-0.487-39.168-0.375-58.716,1.106c-6.818,0.517-13.61,1.373-20.412,2.074
		c1.198,0.783,2.338,1.672,3.598,2.333C562.435,66.012,581.703,74.807,601.875,81.441z"/>
	<path fill="#CF200D" d="M966.945,963.007c-12.441,2.757-24.911,5.38-37.567,6.981c-9.472,1.198-18.935,2.504-28.5,2.746
		c-1.113,0.029-2.223,0.159-3.335,0.226c-3.968,0.236-7.935,0.496-11.905,0.688c-3.18,0.153-6.364,0.179-9.544,0.335
		c-3.176,0.156-6.345,0.509-9.522,0.587c-4.298,0.105-8.606-0.098-12.901,0.056c-13.866,0.499-27.666-1.392-41.526-1.047
		c-1.106,0.028-2.218-0.204-3.329-0.288c-2.696-0.206-5.39-0.437-8.089-0.586c-0.933-0.052-1.867-0.103-2.8-0.155
		c-1.866-0.104-3.733-0.213-5.597-0.338c-1.864-0.125-3.727-0.267-5.588-0.437c-2.791-0.256-5.576-0.578-8.352-1.007l0,0
		c-0.301,0.033-0.601,0.062-0.903,0.088c-2.506,3.825-4.971,7.679-7.534,11.466c-1.769,2.615-3.755,5.086-5.486,7.725
		c-0.938,1.429-1.544,3.075-2.299,4.622c1.788,0.107,3.579,0.18,5.365,0.301c0.596,0.04,1.19,0.085,1.785,0.139
		c4.916,0.443,9.817,1.071,14.739,1.412c6.828,0.473,13.669,0.752,20.505,1.12c0.636,0.034,1.269,0.124,1.905,0.163
		c3.97,0.242,7.938,0.547,11.912,0.697c4.298,0.163,8.603,0.12,12.901,0.281c3.974,0.149,7.941,0.598,11.914,0.652
		c7.809,0.106,15.62,0.047,23.431,0.014c2.068-0.009,4.138-0.153,6.204-0.271c3.495-0.2,6.986-0.499,10.483-0.628
		c3.821-0.142,7.658,0.022,11.468-0.234c6.51-0.438,13.019-0.97,19.502-1.697c9.495-1.065,19.009-2.068,28.438-3.58
		c15.269-2.447,30.377-5.74,45.36-9.594c2.297-0.591,4.704-0.756,7.06-1.118c0.815-0.737,1.699-1.411,2.432-2.221
		c7.421-8.206,14.884-16.375,22.187-24.684c3.118-3.548,5.886-7.405,8.812-11.121c-2.438,0.694-4.942,1.21-7.301,2.109
		C1003.535,953.165,985.487,958.898,966.945,963.007z"/>
	<path fill="#DB310C" d="M116.049,743.214c19.123,0.025,38.25-0.839,57.367,0.692c12.413,0.995,24.725,2.585,36.972,4.764
		c16.484,2.933,32.936,6.018,49.129,10.346c4.927,1.317,9.885,2.536,14.865,3.636c5.723,1.264,11.149-1.705,13.133-6.998
		c1.928-5.14-0.136-10.516-5.321-13.38c-1.798-0.993-3.782-1.694-5.745-2.334c-7.882-2.569-15.762-5.152-23.698-7.548
		c-4.725-1.427-9.507-2.74-14.341-3.717c-15.314-3.095-30.653-6.089-46.181-7.946c-10.919-1.306-21.852-2.494-32.872-2.503
		c-12.757-0.01-25.514,0.046-38.271-0.038c-6.723-0.044-13.38,0.572-19.994,1.639c-12.118,1.956-24.218,4.02-36.325,6.039
		c1.495,8.024,3.594,15.892,6.1,23.655c0.046,0.143,0.175,0.259,0.265,0.386c11.327-1.862,22.646-3.773,33.985-5.558
		C108.735,743.78,112.404,743.209,116.049,743.214z"/>
	<path fill="#DB310C" d="M142.826,504.018c1.74,0.077,3.496-0.132,5.241-0.255c3.326-0.234,6.648-0.536,9.976-0.743
		c1.905-0.118,3.826-0.018,5.727-0.174c2.61-0.214,4.904-1.222,6.874-3.002c6.57-5.936,6.128-16.399-1.002-21.715
		c-3.087-2.302-6.598-3.821-10.193-5.166c-8.673-3.242-17.603-5.573-26.608-7.656c-11.022-2.55-22.124-4.652-33.345-6.135
		c-9.941-1.314-19.87-2.724-29.805-4.091c-0.471,1.511-0.99,3.009-1.406,4.534c-3.473,12.724-6.257,25.607-8.71,38.56
		c-0.973,5.137-1.669,10.326-2.491,15.492c11.315-1.845,22.64-3.629,33.942-5.547C108.174,505.21,125.387,503.247,142.826,504.018z"
		/>
	<path fill="#CF200D" d="M1117.177,484.394c-9.001-2.162-18.12-3.466-27.406-3.395c-5.094,0.039-10.188,0.004-15.281,0.036
		c-1.749,0.012-3.502,0.071-5.245,0.208c-6.655,0.522-13.299,1.22-19.962,1.601c-10.975,0.629-21.847,2.13-32.711,3.671
		c-10.723,1.521-21.272,3.971-31.822,6.391c-3.408,0.782-6.805,1.614-10.207,2.423c-0.329,0.307-0.657,0.614-0.985,0.921
		c-0.761,5.328-1.516,10.658-2.285,15.986c-0.475,3.292-0.974,6.581-1.462,9.871c2.334-0.496,4.68-0.942,7-1.497
		c12.073-2.887,23.991-6.485,36.295-8.319c10.856-1.619,21.738-3.107,32.643-4.349c6.152-0.701,12.375-0.779,18.565-1.16
		c1.269-0.078,2.53-0.274,3.798-0.38c2.218-0.185,4.437-0.461,6.658-0.488c5.89-0.07,11.782-0.083,17.672-0.004
		c2.378,0.032,4.765,0.265,7.126,0.574c12.208,1.598,24.025,4.755,35.561,9.02c2.833,1.047,5.713,1.97,8.571,2.948
		c0.004-0.475,0.082-0.962,0.002-1.421c-1.348-7.809-2.697-15.617-4.096-23.417c-0.249-1.388-0.728-2.735-1.101-4.101
		c-2.184-0.413-4.394-0.725-6.547-1.262C1127.018,487.018,1122.127,485.583,1117.177,484.394z"/>
	<path fill="#DB310C" d="M329.264,1062.711c3.46-0.569,6.31-2.138,8.764-4.5c5.08-4.888,5.345-12.396,0.56-17.573
		c-1.166-1.262-2.615-2.345-4.109-3.207c-3.995-2.304-8.068-4.475-12.141-6.643c-14.484-7.711-29.686-13.877-44.617-20.625
		c-9.423-4.259-18.939-8.312-28.412-12.461c-9.471-4.148-18.88-8.423-28.656-11.867c-5.234-1.844-10.205-4.429-15.331-6.593
		c-1.435-0.606-3.001-0.902-4.507-1.34c0.892,1.103,1.706,2.281,2.687,3.3c29.352,30.479,61.757,57.265,97.274,80.279
		c1.189,0.77,2.487,1.373,3.736,2.055c1.584-0.046,3.166-0.148,4.746-0.131C315.938,1063.479,322.613,1063.805,329.264,1062.711z"/>
	<path fill="#DB3B18" d="M974.725,234.671c1.983,12.913,3.732,25.866,5.339,38.832c0.704,5.677,0.811,11.428,1.189,17.145
		c0.081,0.005,0.162,0.011,0.243,0.016c0.265,0.017,0.531,0.034,0.795,0.051c3.012-0.07,6.04,0.027,9.034-0.24
		c8.839-0.788,17.666-1.716,26.496-2.596c10.573-1.055,21.142-2.143,31.591-4.144c-0.746-1.216-1.421-2.483-2.247-3.641
		c-20.168-28.242-42.895-54.262-68.022-78.193c-0.794-0.756-1.743-1.349-2.62-2.018c-2.573,0.619-5.146,1.239-7.718,1.859
		c0.385,2.358,0.73,4.723,1.163,7.072C971.555,217.433,973.395,226.013,974.725,234.671z"/>
	<path fill="#DB3B18" d="M835.479,1094.077c-13.496,1.33-27.031,1.072-40.559,1.079c-0.478,0-0.956-0.018-1.433-0.001
		c-11.341,0.415-22.597-0.81-33.79-2.272c-19.416-2.535-38.777-5.496-58.151-8.346c-2.821-0.415-5.586-1.203-8.377-1.818
		c-0.635,0.004-1.269,0.009-1.904,0.013c-1.574,3.254-3.893,5.928-6.31,8.519c-0.805,0.864-1.622,1.719-2.425,2.583
		c-1.948,2.097-3.988,4.083-4.613,7.026c1.775,0.681,3.519,1.479,5.307,2.115c0.596,0.212,1.197,0.406,1.805,0.571
		c10.141,2.754,20.39,5.076,30.813,6.464c5.352,0.713,10.792,0.775,16.138,1.521c8.725,1.219,17.473,0.706,26.214,0.778
		c2.376,0.02,4.755-0.307,7.132-0.492c0.634-0.049,1.26-0.203,1.894-0.236c7.46-0.389,14.921-0.757,22.381-1.144
		c4.125-0.214,8.249-0.465,12.375-0.674c1.269-0.065,2.542-0.045,3.814-0.064c0.467-0.079,0.974-0.066,1.395-0.251
		c10.15-4.462,20.299-8.929,30.421-13.456c0.812-0.363,1.427-1.166,2.133-1.764C838.316,1094.171,836.879,1093.939,835.479,1094.077
		z"/>
	<path fill="#CF200D" d="M789.6,1110.439c-7.46,0.387-14.921,0.755-22.381,1.144c-0.633,0.033-1.26,0.187-1.894,0.236
		c-2.377,0.185-4.756,0.511-7.132,0.492c-8.741-0.073-17.489,0.441-26.214-0.778c-5.346-0.747-10.786-0.809-16.138-1.521
		c-10.423-1.388-20.671-3.709-30.813-6.464c-0.609-0.165-1.21-0.359-1.805-0.571c-1.788-0.636-3.531-1.435-5.307-2.115l0,0
		c-0.139,0.004-0.279,0.008-0.419,0.012c-0.802,0.022-1.604,0.045-2.406,0.068c-0.652,2.543-2.286,4.431-4.018,6.314
		c-2.082,2.264-4.14,4.55-6.19,6.842c-2.051,2.293-4.094,4.592-6.147,6.883c1.584,0.706,3.113,1.595,4.761,2.087
		c11.117,3.319,22.237,6.656,33.643,8.858c6.393,1.234,12.846,2.161,19.265,3.264c0.779,0.134,1.551,0.304,2.322,0.485
		c0.771,0.18,1.54,0.371,2.313,0.544c1.092-0.162,2.201-0.25,3.272-0.496c26.653-6.117,52.66-14.31,78.096-24.33
		c1.167-0.46,2.255-1.122,3.379-1.691c-1.271,0.019-2.545-0.001-3.814,0.064C797.849,1109.974,793.725,1110.225,789.6,1110.439z"/>
	<path fill="#CF200D" d="M1068.844,882.452c-1.088,0.232-2.17,0.483-3.232,0.802c-3.965,1.192-7.85,2.655-11.825,3.808
		c-11.64,3.375-23.016,7.503-34.32,11.836c-7.301,2.799-14.68,5.284-22.401,6.659c-1.563,0.279-3.133,0.629-4.631,1.147
		c-5.669,1.962-8.025,6.041-7.242,12.358c0.566,4.568,4.823,8.33,10.021,8.578c2.53,0.121,5.093-0.074,7.619-0.332
		c6.841-0.7,13.486-2.389,20.044-4.375c7.314-2.214,14.573-4.61,21.856-6.927c1.816-0.578,3.608-1.367,5.569-0.608
		c0.523-0.579,1.135-1.1,1.555-1.745c6.449-9.906,12.878-19.825,19.289-29.756c0.419-0.649,0.648-1.421,0.965-2.136l0,0
		C1071.025,882.006,1069.932,882.219,1068.844,882.452z"/>
	<path fill="#E34B1D" d="M499.28,1131.506c-13.488-7.548-26.697-15.571-39.518-24.218c-0.462-0.312-0.929-0.615-1.399-0.914
		c-1.411-0.897-2.851-1.75-4.271-2.635c-0.881,1.66-1.606,3.428-2.671,4.96c-2.791,4.012-5.763,7.897-8.594,11.882
		c-1.181,1.662-2.185,3.451-3.269,5.181c1.943,0.685,3.86,1.463,5.835,2.04c16.984,4.966,34.131,9.284,51.556,12.398
		c9.243,1.651,18.545,2.968,27.82,4.436c-2.245-1.204-4.469-2.45-6.739-3.605C511.781,1137.851,505.392,1134.927,499.28,1131.506z"
		/>
	<path fill="#DB3B18" d="M697.141,1131.924c-11.406-2.202-22.526-5.539-33.643-8.858c-1.648-0.492-3.177-1.381-4.761-2.087
		c-0.635,0.003-1.269,0.006-1.904,0.01c-1.02,3.28-3.31,5.661-5.633,8.036c-0.93,0.95-1.94,1.841-2.822,2.832
		c-0.881,0.992-1.633,2.085-2.044,3.44c2.722,0.474,5.438,0.993,8.157,1.484c2.72,0.491,5.443,0.954,8.179,1.316
		c8.772,1.159,17.58,2.035,26.368,3.071c0.543,0.064,1.079,0.19,1.612,0.334c0.534,0.143,1.066,0.303,1.6,0.434c0,0,0,0,0,0
		c0,0,0,0,0,0c4.053-0.646,8.134-1.155,12.152-1.97c5.57-1.129,11.094-2.488,16.637-3.749c-0.773-0.174-1.542-0.364-2.313-0.544
		c-0.771-0.181-1.543-0.351-2.322-0.485C709.987,1134.085,703.535,1133.159,697.141,1131.924z"/>
	<path fill="#CF200D" d="M690.652,1141.502c-0.534-0.143-1.069-0.27-1.612-0.334c-8.788-1.036-17.597-1.912-26.368-3.071
		c-2.737-0.362-5.46-0.825-8.179-1.316c-2.719-0.491-5.435-1.011-8.157-1.484c-0.614,0.034-1.229,0.067-1.843,0.102c0,0,0,0,0,0.001
		c-0.891,1.207-1.721,2.469-2.638,3.653c-0.306,0.395-0.622,0.78-0.953,1.152c-1.289,1.448-2.612,2.865-3.946,4.273
		c-1.333,1.408-2.677,2.807-4.007,4.219l0,0c2.066-0.023,4.149,0.113,6.196-0.095c12.371-1.258,24.747-2.49,37.095-3.951
		c5.37-0.635,10.678-1.794,16.013-2.715c0,0,0,0,0,0C691.717,1141.805,691.185,1141.645,690.652,1141.502z"/>
	<path fill="#CF200D" d="M611.925,1149.622c2.2-0.041,4.4-0.082,6.6-0.123C616.306,1148.536,614.106,1148.554,611.925,1149.622z"/>
	<path fill="#CF200D" d="M582.268,1149.518c1.886,0.033,3.773,0.067,5.66,0.1C586.059,1148.645,584.172,1148.624,582.268,1149.518z"
		/>
	<path fill="none" stroke="#CF200D" stroke-width="0" stroke-linecap="round" stroke-linejoin="round" d="M564.948,1148.631
		c-0.603-0.023-1.207-0.046-1.811-0.069"/>
	<path fill="#DB310C" d="M201.362,977.72c-0.658-0.408-1.314-0.822-1.971-1.235c0.352,0.661,0.706,1.319,1.476,1.311
		C201.017,977.795,201.177,977.778,201.362,977.72z"/>
	<path fill="none" stroke="#CF200D" stroke-width="0" stroke-linecap="round" stroke-linejoin="round" d="M1028.15,944.104
		c0.496-0.342,0.993-0.684,1.489-1.027"/>
	<path fill="#E34B1D" d="M925.335,207.95c-11.502,1.583-23.027,3.09-34.664,3.379c-1.111,0.028-2.218,0.212-3.329,0.29
		c-3.013,0.212-6.026,0.569-9.041,0.582c-14.491,0.062-28.984,0.153-43.473-0.022c-7.309-0.088-14.624-0.566-21.914-1.147
		c-8.719-0.695-17.418-1.654-26.119-2.56c-12.509-1.302-24.989-2.811-37.361-5.141c-2.656-0.501-5.325-0.936-7.997-1.354
		c-2.672-0.418-5.347-0.818-8.017-1.247c0.088,3.331,0.123,6.665,0.277,9.994c0.176,3.801,0.471,7.595,0.686,11.394
		c0.099,1.743-0.056,3.52,0.224,5.229c0.804,4.891,0.706,9.811,0.721,14.731c0.022,6.67,0.029,13.339,0.042,20.007c0,0,0,0,0,0
		c1.507,0.501,2.989,1.107,4.526,1.488c21.321,5.29,42.596,10.727,64.209,14.819c22.7,4.297,45.538,7.491,68.462,10.185
		c3.948,0.464,7.913,0.834,11.881,1.073c7.302,0.439,14.611,0.743,21.916,1.116c0.793,0.041,1.581,0.191,2.374,0.246
		c3.013,0.208,6.027,0.556,9.041,0.568c15.285,0.061,30.571,0.017,45.856,0.043c1.473,0.002,2.946,0.008,4.418-0.001
		c4.416-0.027,8.823-0.187,13.197-0.974c-0.378-5.717-0.485-11.468-1.189-17.145c-1.607-12.966-3.356-25.918-5.339-38.832
		c-1.33-8.658-3.17-17.237-4.758-25.857c-0.433-2.349-0.777-4.714-1.163-7.072c-0.95,0.074-1.906,0.119-2.858,0.181
		c-0.952,0.062-1.903,0.14-2.843,0.282C950.512,204.106,937.949,206.214,925.335,207.95z"/>
	<path fill="#E34B1D" d="M712.502,568.247c1.502-0.179,3.003-0.36,4.505-0.513c14.583-1.494,29.073-3.708,43.434-6.612
		c10.453-2.114,20.844-4.592,31.167-7.274c8.626-2.242,17.18-4.813,25.643-7.61c9.069-2.998,18.013-6.379,26.977-9.687
		c18.227-6.726,36.368-13.693,54.665-20.222c15.306-5.462,30.942-9.897,46.739-13.744c6.81-1.659,13.588-3.444,20.407-5.064
		c2.468-0.586,5.011-0.855,7.519-1.269c0.328-0.308,0.656-0.615,0.985-0.921c0.114-1.902,0.07-3.83,0.366-5.703
		c0.676-4.279,1.281-8.567,1.842-12.86c1.682-12.879,2.958-25.807,4.484-38.706c0,0,0,0,0,0c-1.401,0.29-2.84,0.462-4.197,0.891
		c-14.895,4.715-29.763,9.514-44.666,14.203c-22.05,6.937-44.055,14.029-66.202,20.645c-30.251,9.038-60.763,17.132-91.536,24.23
		c-18.182,4.194-36.421,8.065-54.837,11.088c-2.829,0.464-5.635,1.072-8.452,1.612c-1.695,8.412-3.29,16.845-5.112,25.23
		c-2.092,9.628-4.394,19.21-6.579,28.817c-0.079,0.347-0.149,0.697-0.214,1.048c-0.194,1.053-0.337,2.117-0.518,3.172h0
		C703.486,569.299,707.997,568.784,712.502,568.247z"/>
	<path fill="#E34B1D" d="M734.096,336.02c-0.489,7.266-1.078,14.525-1.608,21.788c-0.414,5.686-0.749,11.379-1.212,17.061
		c-0.591,7.261-1.275,14.514-1.918,21.77c4.942-0.865,9.886-1.718,14.83-2.578c4.943-0.86,9.885-1.727,14.822-2.62
		c14.759-2.668,29.292-6.267,43.492-11.107c10.856-3.7,21.616-7.683,32.47-11.389c17.336-5.92,34.408-12.611,52.006-17.765
		c0.842-0.247,1.938-0.279,2.191-1.472c-0.242-0.183-0.463-0.49-0.715-0.519c-3.479-0.391-6.959-0.793-10.447-1.094
		c-5.232-0.452-10.489-0.674-15.705-1.263c-12.184-1.375-24.372-2.743-36.516-4.424c-14.672-2.031-29.339-4.15-43.934-6.662
		c-14.284-2.458-28.472-5.47-42.709-8.204c-0.779-0.15-1.568-0.242-2.361-0.32c-0.792-0.078-1.588-0.14-2.378-0.229
		C734.306,330.003,734.298,333.018,734.096,336.02z"/>
	<path fill="#E34B1D" d="M943.258,630.839c4.002-14.759,8.197-29.467,12.038-44.267c2.839-10.944,5.332-21.982,7.797-33.018
		c1.874-8.39,3.489-16.839,5.157-25.275c0.338-1.71,0.394-3.475,0.581-5.215c-1.89,0.255-3.815,0.355-5.663,0.788
		c-17.84,4.174-35.514,8.963-52.876,14.824c-7.389,2.495-14.665,5.327-21.983,8.033c-10.304,3.811-20.591,7.667-30.899,11.467
		c-9.71,3.58-19.383,7.268-29.168,10.631c-19.147,6.579-38.656,11.926-58.501,15.917c-15.296,3.076-30.689,5.696-46.217,7.34
		c-2.61,0.276-5.221,0.536-7.834,0.784c-7.838,0.745-15.687,1.393-23.529,2.11c-2.339,8.757-4.584,17.538-7.032,26.263
		c-7.305,26.028-15.451,51.795-24.092,77.409c-0.304,0.902-0.593,1.81-0.871,2.72c-0.836,2.733-1.581,5.495-2.391,8.237
		c1.102,0.627,2.142,1.42,3.314,1.856c12.384,4.608,24.733,9.315,37.201,13.683c14.577,5.107,29.403,9.431,44.263,13.656
		c20.995,5.97,42.18,11.109,63.59,15.347c15.155,3,30.383,5.529,45.731,7.325c7.111,0.832,14.204,1.903,21.337,2.448
		c0.871,0.067,1.742,0.144,2.613,0.226c0.475,0.045,0.951,0.092,1.426,0.14c5.619,0.564,11.238,1.251,16.914,0.775l0,0
		c0.494-1.664,0.866-3.378,1.507-4.985c1.467-3.677,3.119-7.279,4.603-10.95c6.171-15.271,12.328-30.547,18.427-45.847
		c0.637-1.597,0.852-3.363,1.263-5.051c-17.854-0.015-35.708,0.008-53.562-0.074c-3.654-0.017-7.306-0.43-10.958-0.654
		c-1.59-0.098-3.182-0.158-4.771-0.271c-2.699-0.192-5.394-0.425-8.093-0.616c-1.906-0.135-3.818-0.193-5.722-0.348
		c-7.781-0.63-15.604-0.624-23.37-1.201c-14.613-1.085-29.178-2.81-43.587-5.612c-5.014-0.975-9.957-2.187-14.698-4.153
		c-3.09-1.282-6.253-2.387-9.372-3.602c-7.73-3.013-12.053-10.698-10.235-18.781c0.97-4.311,3.83-7.649,6.971-10.649
		c2.467-2.357,5.625-2.846,8.882-2.856c7.971-0.025,15.942,0.023,23.911-0.062c2.86-0.031,5.716-0.377,8.575-0.552
		c2.225-0.136,4.452-0.315,6.679-0.329c7.492-0.047,14.985-0.023,22.477-0.036c4.78-0.008,9.538-0.09,14.309-0.707
		c5.202-0.672,10.476-0.774,15.712-1.199c6.347-0.514,12.685-1.142,19.032-1.654c5.713-0.46,11.436-0.804,17.15-1.248
		c4.922-0.382,9.84-0.811,14.756-1.257c5.867-0.532,11.735-1.061,17.595-1.668c6.813-0.705,13.613-1.529,20.426-2.228
		c2.687-0.276,5.395-0.354,8.094-0.522c0.615-0.342,1.23-0.685,1.845-1.027c0.205-1.012,0.382-2.031,0.576-3.046
		C942.779,632.844,942.988,631.834,943.258,630.839z"/>
	<path fill="#E34B1D" d="M808.096,910.592c-9.196-0.756-18.415-1.282-27.592-2.217c-9.499-0.968-18.964-2.29-28.439-3.493
		c-19.932-2.531-39.632-6.336-59.108-11.224c-17.152-4.306-34.065-9.432-50.687-15.513c-13.318-4.873-26.515-10.016-39.358-16.048
		c-0.502-0.236-1.013-0.451-1.531-0.654c-1.552-0.607-3.16-1.099-4.728-1.674c-2.058,4.307-4.082,8.63-6.18,12.917
		c-4.198,8.576-8.431,17.136-12.664,25.694c-1.057,2.136-2.172,4.244-3.261,6.365c0.478,0.316,0.951,0.64,1.427,0.961
		c2.293,1.548,4.567,3.129,6.892,4.624c0.935,0.602,1.879,1.188,2.837,1.752c11.383,6.701,22.851,13.264,34.787,18.95
		c10.351,4.931,20.918,9.359,31.739,13.166c14.421,5.075,28.976,9.72,43.823,13.39c18.868,4.664,37.921,8.349,57.256,10.493
		c4.031,0.447,8.061,0.909,12.091,1.375c4.029,0.466,8.059,0.936,12.088,1.399c0.302-0.025,0.603-0.054,0.903-0.087
		c0.927-1.657,1.767-3.372,2.801-4.959c1.562-2.396,3.327-4.66,4.888-7.057c7.724-11.858,15.467-23.703,23.073-35.636
		c2.385-3.741,4.364-7.741,6.53-11.622l0,0C813.154,911.187,810.633,910.8,808.096,910.592z"/>
	<path fill="#DB310C" d="M715.69,592.848c2.612-0.248,5.224-0.508,7.834-0.784c15.528-1.645,30.921-4.264,46.217-7.34
		c19.845-3.991,39.354-9.338,58.501-15.917c9.785-3.362,19.458-7.051,29.168-10.631c10.308-3.8,20.595-7.656,30.899-11.467
		c7.317-2.706,14.593-5.539,21.983-8.033c17.362-5.861,35.036-10.651,52.876-14.824c1.848-0.432,3.773-0.533,5.663-0.788
		c0.327-0.319,0.654-0.638,0.98-0.956l0,0c0.488-3.29,0.987-6.579,1.462-9.871c0.77-5.328,1.524-10.658,2.285-15.986
		c-2.508,0.414-5.052,0.683-7.519,1.269c-6.819,1.62-13.598,3.405-20.407,5.064c-15.797,3.848-31.433,8.282-46.739,13.744
		c-18.297,6.53-36.437,13.497-54.665,20.222c-8.964,3.308-17.908,6.689-26.977,9.687c-8.463,2.798-17.017,5.369-25.643,7.61
		c-10.323,2.683-20.714,5.161-31.167,7.274c-14.361,2.904-28.851,5.118-43.434,6.612c-1.502,0.154-3.003,0.335-4.505,0.513
		c-4.505,0.536-9.016,1.052-13.579,0.751c-3.323,0.328-6.64,0.756-9.971,0.959c-5.402,0.331-10.812,0.576-16.223,0.734
		c-2.859,0.084-5.728-0.056-8.59-0.166c-1.59-0.061-3.172-0.357-4.761-0.393c-10.985-0.254-21.966-0.272-32.955-0.896
		c-10.658-0.605-21.291-1.462-31.911-2.413c-11.1-0.994-22.152-2.527-33.222-3.851c-8.856-1.059-17.7-2.236-26.568-3.181
		c-2.169-0.232-4.491-0.079-6.607,0.445c-4.9,1.214-7.855,5.153-7.971,10.062c-0.12,5.061,2.907,9.313,7.75,10.831
		c0.909,0.285,1.856,0.459,2.794,0.644c8.597,1.696,17.168,3.54,25.801,5.025c7.845,1.35,15.745,2.409,23.645,3.403
		c6.791,0.855,13.611,1.513,20.431,2.117c6.977,0.617,13.982,0.926,20.95,1.615c11.126,1.1,22.282,0.796,33.427,1.041
		c1.43,0.031,2.854,0.351,4.282,0.371c6.048,0.083,12.098,0.186,18.146,0.121c1.233-0.013,2.465-0.041,3.698-0.077
		c3.697-0.109,7.394-0.3,11.092-0.434C700.003,594.241,707.852,593.593,715.69,592.848z"/>
	<path fill="#DB310C" d="M765.399,969.455c-4.029-0.466-8.059-0.928-12.091-1.375c-19.334-2.143-38.388-5.828-57.256-10.493
		c-14.846-3.67-29.402-8.315-43.823-13.39c-10.821-3.808-21.388-8.236-31.739-13.166c-11.936-5.686-23.404-12.249-34.787-18.95
		c-0.958-0.564-1.902-1.151-2.837-1.752c-2.324-1.495-4.598-3.077-6.892-4.624c-0.475-0.32-0.949-0.644-1.427-0.961
		c-1.665-1.09-3.365-2.132-5.045-3.203c-1.679-1.07-3.339-2.167-4.921-3.365c-17.408-13.176-34.708-26.494-52.113-39.674
		c-9.147-6.927-18.381-13.75-28.232-19.665c-8.06-4.839-16.099-9.729-24.346-14.233c-7.826-4.274-15.81-8.29-23.904-12.03
		c-10.593-4.894-21.614-8.625-33.185-10.498c-3.615-0.585-7.245-1.223-10.891-1.423c-4.557-0.251-8.728,2.698-10.478,6.955
		c-1.807,4.394-0.474,8.148,2.624,11.362c1.073,1.113,2.488,2.026,3.915,2.637c1.889,0.808,3.91,1.415,5.933,1.783
		c8.541,1.553,16.6,4.531,24.419,8.179c9.674,4.515,19.351,9.027,28.691,14.227c9.749,5.429,19.445,10.938,28.777,17.069
		c13.87,9.113,26.844,19.435,40.003,29.509c14.425,11.043,28.607,22.412,43.711,32.541c1.492,1,2.732,2.178,3.642,3.713
		c1.751,0.734,3.593,1.307,5.237,2.23c7.224,4.057,14.363,8.267,21.586,12.325c11.264,6.327,22.846,12.009,34.744,17.056
		c20.148,8.546,40.941,15.122,62.084,20.7c12.806,3.378,25.742,6.126,38.775,8.382c9.73,1.684,19.543,2.898,29.328,4.255
		c1.727,0.24,3.5,0.151,5.251,0.215c0.435,0.19,0.87,0.379,1.306,0.568c0.237,0.103,0.474,0.206,0.711,0.309
		c0.755-1.547,1.361-3.193,2.299-4.622c1.731-2.639,3.717-5.11,5.486-7.725c2.562-3.787,5.028-7.64,7.533-11.466
		C773.458,970.391,769.429,969.921,765.399,969.455z"/>
	<path fill="#E34B1D" d="M754.901,993.575c-9.785-1.357-19.598-2.571-29.328-4.255c-13.033-2.255-25.969-5.003-38.775-8.382
		c-21.143-5.578-41.936-12.154-62.084-20.7c-11.898-5.047-23.48-10.729-34.744-17.056c-7.224-4.058-14.362-8.268-21.586-12.325
		c-1.644-0.924-3.486-1.496-5.237-2.23c-1.092,1.557-2.338,3.029-3.249,4.685c-4.44,8.074-8.813,16.185-13.161,24.309
		c-0.412,0.77-0.815,1.544-1.214,2.321c-1.195,2.331-2.342,4.688-3.523,7.026c1.782,1.046,3.516,2.182,5.351,3.123
		c9.784,5.013,19.742,9.651,29.819,14.057c18.244,7.977,36.417,16.112,55.076,23.1c13.727,5.141,27.442,10.3,41.563,14.301
		c17.021,4.821,34.144,9.219,51.529,12.528c2.332,0.444,4.736,0.506,7.107,0.746c0,0,0,0,0,0l0,0
		c0.124-1.259,0.591-2.338,1.205-3.34c0.613-1.001,1.372-1.925,2.081-2.871c7.21-9.633,14.44-19.251,21.658-28.877
		c0.334-0.446,0.663-0.895,0.972-1.354c0.214-0.319,0.412-0.645,0.6-0.976c0.626-1.098,1.089-2.272,1.19-3.614c0,0,0-0.001,0-0.001
		C758.402,993.726,756.629,993.815,754.901,993.575z"/>
	<path fill="#E34B1D" d="M681.971,1080.814c-5.165-1.056-10.326-2.131-15.437-3.406c-10.96-2.734-21.873-5.686-32.712-8.865
		c-16.497-4.838-32.791-10.314-48.835-16.503c-20.802-8.025-41.162-17.048-61.055-27.127c-4.394-2.226-8.898-4.238-13.353-6.349
		c-1.038,2.132-1.882,4.386-3.143,6.375c-7.983,12.59-16.08,25.107-24.076,37.688c-1.093,1.719-1.837,3.659-2.742,5.498
		c1.202,0.785,2.366,1.631,3.608,2.34c12.308,7.03,24.63,14.033,36.946,21.05c12.197,6.949,24.836,12.988,37.777,18.414
		c12.361,5.183,25.094,9.268,37.88,13.252c1.961,0.611,3.924,1.211,5.89,1.8c13.762,4.124,27.656,7.694,41.772,10.417
		c0.614-0.035,1.228-0.068,1.843-0.102l0,0c0.411-1.355,1.163-2.448,2.044-3.44c0.882-0.992,1.892-1.882,2.822-2.832
		c2.323-2.375,4.612-4.756,5.633-8.036c-9.822-3.3-19.646-6.594-29.465-9.9c-7.404-2.493-14.784-5.058-22.208-7.49
		c-21.543-7.058-42.526-15.515-63.048-25.131c-3.175-1.487-6.45-2.774-9.554-4.392c-1.808-0.942-3.461-2.25-5.018-3.586
		c-3.551-3.046-4.06-11.579,0.657-15.513c2.612-2.179,5.544-3.124,8.878-2.549c1.56,0.269,3.092,0.78,4.591,1.31
		c4.208,1.489,8.406,3.006,12.582,4.581c15.362,5.794,30.714,11.617,46.071,17.426c0.745,0.282,1.501,0.537,2.256,0.793
		c15.999,5.444,31.99,10.911,48.002,16.313c4.984,1.682,10.038,3.151,15.039,4.784c3.179,1.038,6.319,2.198,9.477,3.304
		c0.802-0.022,1.604-0.044,2.406-0.067c0.14-0.004,0.279-0.008,0.419-0.012l0,0c0.625-2.943,2.664-4.929,4.613-7.026
		c0.803-0.864,1.619-1.719,2.425-2.583c2.416-2.591,4.736-5.265,6.31-8.519c0,0,0,0,0,0
		C688.171,1082.075,685.07,1081.448,681.971,1080.814z"/>
	<path fill="#DB310C" d="M932.071,638.454c-6.813,0.699-13.614,1.523-20.426,2.228c-5.86,0.607-11.728,1.136-17.595,1.668
		c-4.916,0.445-9.834,0.875-14.756,1.257c-5.714,0.443-11.437,0.787-17.15,1.248c-6.347,0.512-12.685,1.14-19.032,1.654
		c-5.237,0.425-10.51,0.526-15.712,1.199c-4.771,0.616-9.529,0.698-14.309,0.707c-7.492,0.013-14.984-0.011-22.477,0.036
		c-2.227,0.014-4.454,0.192-6.679,0.329c-2.86,0.175-5.715,0.521-8.575,0.552c-7.97,0.086-15.941,0.037-23.911,0.062
		c-3.256,0.01-6.414,0.499-8.882,2.856c-3.14,2.999-6.001,6.337-6.971,10.649c-1.818,8.083,2.505,15.768,10.235,18.781
		c3.119,1.215,6.282,2.32,9.372,3.602c4.742,1.966,9.685,3.178,14.698,4.153c14.408,2.802,28.974,4.527,43.587,5.612
		c7.766,0.577,15.59,0.571,23.37,1.201c1.904,0.154,3.816,0.213,5.722,0.348c2.699,0.191,5.394,0.424,8.093,0.616
		c1.589,0.113,3.181,0.173,4.771,0.271c3.653,0.224,7.305,0.637,10.958,0.654c17.854,0.082,35.708,0.059,53.562,0.074
		c0.347-0.024,0.694-0.048,1.041-0.072c1.39-4.047,2.807-8.086,4.166-12.144c4.532-13.535,9.089-27.063,13.521-40.631
		c0.292-0.894,0.505-1.813,0.683-2.744c0.296-1.552,0.493-3.135,0.791-4.686C937.466,638.1,934.758,638.178,932.071,638.454z"/>
	<path fill="#DB310C" d="M665.615,1097.635c-5-1.633-10.055-3.103-15.039-4.784c-16.013-5.402-32.003-10.869-48.002-16.313
		c-0.755-0.257-1.511-0.511-2.256-0.793c-15.357-5.808-30.709-11.631-46.071-17.426c-4.176-1.575-8.375-3.093-12.582-4.581
		c-1.499-0.531-3.031-1.041-4.591-1.31c-3.333-0.575-6.265,0.37-8.878,2.549c-4.717,3.934-4.208,12.467-0.657,15.513
		c1.557,1.336,3.211,2.644,5.018,3.586c3.104,1.618,6.38,2.904,9.554,4.392c20.522,9.616,41.504,18.073,63.048,25.131
		c7.424,2.432,14.804,4.997,22.208,7.49c9.82,3.306,19.644,6.6,29.465,9.9c0.635-0.003,1.269-0.006,1.904-0.01
		c2.053-2.29,4.096-4.59,6.147-6.883c2.05-2.292,4.108-4.578,6.19-6.842c1.732-1.883,3.366-3.771,4.018-6.315
		C671.934,1099.833,668.794,1098.673,665.615,1097.635z"/>
</g>
</svg>
