<?xml version="1.0" encoding="utf-8"?>
<!-- Designed by Vexels.com - 2020 All Rights Reserved - https://vexels.com/terms-and-conditions/  -->
<svg version="1.1" id="Capa_1" xmlns="http://www.w3.org/2000/svg" xmlns:xlink="http://www.w3.org/1999/xlink" x="0px" y="0px"
	 viewBox="0 0 1200 1200" enable-background="new 0 0 1200 1200" xml:space="preserve">
<g>
	<path fill="#7D4B2B" d="M251.261,1024.591c-1.177-0.765-2.46-1.408-3.516-2.314c-16.191-13.895-31.868-28.337-46.546-43.839
		c-30.991-32.731-57.691-68.638-79.802-107.927c-4.027-7.155-7.824-14.44-11.661-21.7c-0.803-1.518-1.315-3.19-1.962-4.79
		c1.45,0.578,3,0.986,4.335,1.762c5.05,2.939,10.045,5.975,15.034,9.017c14.065,8.573,28.755,15.924,44.067,21.958
		c17.196,6.777,34.559,13.11,52.151,18.822c12.95,4.205,26.044,7.824,39.425,10.244c15.227,2.754,30.52,5.162,45.814,7.529
		c7.33,1.135,14.733,1.795,22.171,1.714c12.313-0.134,24.619,0.324,36.94-0.734c8.323-0.714,16.685-1.057,25.005-1.961
		c14.882-1.617,29.139-5.684,43.036-11.042c6.181-2.383,12.372-4.924,18.151-8.128c13.671-7.581,27.177-15.471,40.591-23.501
		c6.918-4.141,13.49-8.928,18.684-15.18c3.65-4.394,7.671-8.39,11.696-12.397c6.248-6.221,10.918-13.485,14.428-21.511
		c2.052-4.692,3.051-9.741,2.708-14.784c-0.289-4.255-0.632-8.498-0.568-12.759c0.074-4.959-0.861-9.726-2.335-14.431
		c-3.874-12.366-10.484-23.303-17.828-33.818c-6.692-9.583-13.922-18.754-21.56-27.621c-7.863-9.127-16.391-17.568-25.744-25.097
		c-8.36-6.729-17.133-12.95-25.817-19.268c-11.844-8.617-22.426-18.405-30.437-30.83c-7.66-11.881-11.485-24.859-11.917-38.9
		c-0.122-3.946-0.093-7.901,0.023-11.847c0.069-2.357,0.298-4.73,0.703-7.053c2.168-12.425,6.887-23.888,12.851-34.961
		c7.335-13.617,16.867-25.533,27.441-36.677c2.925-3.082,6.189-5.864,9.451-8.601c6.17-5.177,12.469-10.183,19.359-14.418
		c9.039-5.556,18.464-10.322,28.189-14.552c18.504-8.049,37.718-13.638,57.621-16.86c13.563-2.196,27.196-3.819,40.904-4.868
		c8.966-0.686,17.9-1.795,26.862-2.542c9.12-0.76,18.253-1.4,27.389-1.92c6.459-0.368,12.927-0.473,19.394-0.871
		c9.479-0.584,18.888-1.555,28.221-3.173c11.81-2.047,22.818-6.237,32.818-12.971c6.886-4.637,12.824-10.255,17.801-16.867
		c5.617-7.46,10.694-15.252,14.304-23.929c5.905-14.193,8.155-29.167,9.214-44.329c0.806-11.533-0.206-23.028-2.044-34.45
		c-2.547-15.824-6.877-31.159-12.86-45.997c-3.778-9.369-7.934-18.593-12.164-27.769c-2.443-5.3-4.931-10.676-8.191-15.481
		c-4.334-6.387-9.229-12.454-15.146-17.522c-5.871-5.028-11.611-10.199-18.005-14.623c-11.966-8.279-23.934-16.527-37.449-22.145
		c-5.976-2.484-12.007-4.888-18.155-6.892c-7.81-2.546-15.811-4.412-23.92-5.851c-8.242-1.463-16.398-3.405-24.634-4.906
		c-10.1-1.841-20.256-3.339-30.514-4.029c-8.029-0.54-16.05-1.439-24.085-1.586c-14.218-0.259-28.444-0.073-42.667-0.055
		c-1.737,0.002-3.479,0.044-5.209,0.192c-5.66,0.487-11.313,1.048-16.972,1.549c-7.545,0.668-15.104,1.197-22.636,1.985
		c-10.063,1.053-20.016,2.833-29.876,5.102c-7.391,1.701-14.77,3.454-22.142,5.233c-9.98,2.409-19.955,4.839-29.918,7.316
		c-5.059,1.258-10.073,2.698-15.134,3.952c-9.659,2.395-19.36,4.626-28.998,7.101c-5.506,1.414-10.974,3.019-16.365,4.819
		c-6.441,2.151-12.805,4.542-19.163,6.934c-14.941,5.622-29.649,11.795-44.022,18.755c-10.389,5.032-20.46,10.639-30.348,16.586
		c-10.564,6.353-20.864,13.114-30.881,20.287c-10.536,7.545-20.571,15.72-29.956,24.68c-2.509,2.396-5.199,4.604-7.839,6.86
		c-1.118,0.955-1.4,0.861-3.099-0.609c0.231-0.405,0.462-0.81,0.692-1.21c0.868-0.163,1.221-0.745,1.264-1.574
		c10.231-14.069,21.219-27.53,32.858-40.45c25.788-28.626,54.212-54.349,85.381-77.013c49.911-36.293,104.358-63.504,163.402-81.529
		c36.716-11.209,74.196-18.438,112.419-21.854c6.452-0.577,12.923-0.964,19.391-1.315c7.886-0.428,15.779-1.039,23.669-1.029
		c62.782,0.082,124.046,9.573,183.495,30.036c47.656,16.404,92.256,38.877,133.756,67.485c2.081,1.435,4.226,2.782,6.268,4.27
		c1.127,0.822,2.103,1.852,3.147,2.789c-1.091,0.542-1.854,1.31-1.381,2.618c0.427,1.183,0.966,2.33,1.516,3.464
		c1.93,3.976,4.083,7.856,5.797,11.923c4.963,11.776,9.787,23.611,14.6,35.45c4.699,11.557,8.7,23.352,12.391,35.274
		c5.376,17.364,9.694,34.976,13.246,52.784c2.5,12.533,4.774,25.109,6.103,37.833c0.655,6.269,1.228,12.546,1.91,18.812
		c0.955,8.779,1.705,17.565,1.814,26.405c0.027,2.171,0.641,4.335,0.986,6.503c-0.616,0.108-1.233,0.217-1.849,0.324
		c-9.576,1.658-13.799,12.648-7.749,20.243c2.932,3.681,6.662,5.587,11.49,4.793c-1.605,2.465-2.008,5.175-1.999,8.086
		c0.043,14.158,0.011,28.316-0.08,42.474c-0.019,2.976-0.431,5.947-0.598,8.924c-0.123,2.195-0.169,4.395-0.197,6.593
		c-0.015,1.204,0.588,2.09,1.655,2.652c-0.946,3.445-1.016,6.955-0.777,10.488c-0.633,0.663-1.516,1.223-1.842,2.012
		c-0.535,1.296-0.778,2.729-1.022,4.125c-1.143,6.529-2.128,13.088-3.383,19.596c-3.289,17.058-7.06,34.013-11.263,50.87
		c-1.338,5.363-2.628,10.739-4.011,16.091c-1.58,6.113-3.214,12.212-4.893,18.298c-0.229,0.831-0.857,1.551-1.27,2.269
		c-2.2-0.394-2.43-2.193-3.267-3.451c-5.038-7.564-11.715-12.284-21.168-12.149c-5.902,0.085-11.649,1.101-17.076,3.428
		c-6.107,2.619-11.93,5.777-17.328,9.706c-5.105,3.716-10.354,7.236-15.47,10.938c-3.194,2.311-6.425,4.616-9.35,7.245
		c-7.436,6.682-13.756,14.344-19.215,22.723c-4.353,6.681-6.662,13.865-6.087,21.942c0.333,4.687,1.581,9.01,4.106,12.935
		c4.227,6.57,10.229,10.658,17.862,12.257c2.763,0.579,5.508,1.282,8.428,0.943c7.822-0.908,15.021-3.553,21.846-7.378
		c8.453-4.738,16.067-10.659,23.174-17.156c5.583-5.104,10.63-10.794,15.936-16.204c0.394-0.402,0.952-0.642,1.741-1.158
		c0.509,2.254-0.422,3.787-1.1,5.307c-5.468,12.252-10.856,24.543-16.528,36.701c-3.669,7.866-7.7,15.568-11.711,23.269
		c-2.332,4.477-4.918,8.824-7.459,13.189c-0.424,0.728-1.202,1.251-2.155,2.209c-0.885-1.964-1.562-3.508-2.272-5.037
		c-3.798-8.168-17.347-11.303-24.325-2.453c-2.506,3.178-3.07,6.815-2.861,10.717c0.381,7.146,5.914,12.817,13.017,13.221
		c1.418,0.081,2.852-0.021,4.258,0.141c0.694,0.08,1.341,0.569,2.294,1.003c-0.681,1.367-1.135,2.525-1.791,3.556
		c-5.002,7.859-9.896,15.793-15.111,23.509c-6.719,9.941-13.755,19.667-20.564,29.547c-7,10.156-14.806,19.672-22.891,28.957
		c-4.349,4.995-8.987,9.742-13.565,14.533c-11.458,11.993-23.657,23.227-35.645,34.676c-0.228,0.218-0.474,0.418-0.713,0.624
		c-4.059,3.504-8.125,7-12.176,10.514c-5.482,4.755-10.864,9.63-16.448,14.262c-9.715,8.059-19.537,15.991-29.342,23.941
		c-12.878,10.442-25.943,20.638-39.441,30.279c-19.961,14.258-40.917,26.856-62.822,37.877c-4.935,2.483-9.95,4.819-15.007,7.043
		c-7.515,3.305-14.994,6.735-22.682,9.592c-9.319,3.465-18.776,6.597-28.288,9.498c-14.363,4.382-28.97,7.712-43.862,9.885
		c-16.868,2.461-33.755,4.693-50.721,6.34c0.389-2.654,0.618-5.345,1.199-7.957c1.56-7.012-0.072-13.451-3.132-19.714
		c-4.97-10.172-11.556-19.204-19.455-27.259c-3.863-3.939-7.991-7.631-12.148-11.265c-3.204-2.801-6.549-5.462-9.99-7.967
		c-8.487-6.179-17.826-10.748-27.636-14.445c-14.041-5.291-28.486-8.357-43.534-8.019c-4.882,0.11-9.772,0.559-14.624,1.142
		c-3.934,0.473-7.725,1.672-11.215,3.63c-4.65,2.607-8.381,6.218-10.942,10.873c-4.52,8.214-4.249,16.704-0.656,25.109
		c2.867,6.706,7.022,12.722,11.12,18.712c2.936,4.291,6.152,8.434,9.617,12.309c5.681,6.353,11.687,12.414,17.502,18.649
		c1.167,1.252,2.09,2.732,3.125,4.107c-1.889-0.018-3.791,0.099-5.665-0.079c-4.864-0.464-9.721-1.019-14.572-1.608
		c-8.773-1.066-17.556-2.088-26.114-4.42c-8.377-2.283-16.733-4.642-25.13-6.845c-6.106-1.602-12.259-3.025-18.403-4.477
		c-1.193-0.282-2.504-0.651-3.581,0.812C250.993,1023.068,251.127,1023.829,251.261,1024.591z M713.09,661.102
		c-0.416-9.272-1.876-18.932-5.596-28.108c-2.906-7.167-5.969-14.279-9.233-21.291c-1.926-4.138-4.112-8.208-6.645-11.999
		c-5.982-8.952-13.245-16.887-20.648-24.664c-6.435-6.759-13.531-12.807-21.084-18.291c-11.256-8.172-22.629-16.147-35.626-21.456
		c-9.951-4.065-19.895-8.161-30.402-10.573c-7.08-1.625-14.318-2.348-21.52-3.302c-9.852-1.305-19.556-0.511-29.208,1.264
		c-9.357,1.72-18.355,4.763-27.028,8.652c-13.451,6.032-24.282,15.229-32.427,27.536c-2.812,4.249-5.015,8.781-5.904,13.851
		c-0.3,1.709-0.37,3.459-0.694,5.162c-1.259,6.616-0.153,13.043,2.568,18.967c3.155,6.869,6.961,13.459,10.769,20.004
		c3.759,6.462,9.021,11.731,14.232,17.045c9.798,9.993,21.476,17.048,34.238,22.464c9.05,3.841,18.509,6.368,28.096,8.463
		c6.032,1.318,11.863,3.181,17.436,5.956c8.665,4.314,16.655,9.669,24.57,15.173c8.43,5.861,16.786,11.847,26.24,16.037
		c16.493,7.308,33.586,10.86,51.669,8.323c5.888-0.826,11.437-2.533,16.115-6.335c4.442-3.61,8.3-7.903,11.319-12.675
		C710.004,682.332,712.906,672.369,713.09,661.102z M816.385,392.685c-0.536,6.726,1.55,12.518,6.335,17.204
		c5.646,5.529,12.759,7.448,20.392,7.221c3.741-0.111,7.581-0.779,11.058-2.393c4.286-1.99,8.651-3.908,12.66-6.378
		c8.071-4.972,15.498-10.861,22.801-16.908c6.102-5.053,11.602-10.711,16.901-16.548c4.341-4.783,8.396-9.842,12.349-14.956
		c3.565-4.613,7.02-9.337,10.162-14.244c4.863-7.597,8.628-15.8,11.965-24.156c4.394-11.003,6.567-22.3,4.424-34.27
		c-1.825-10.194-5.467-19.468-12.264-27.282c-6.342-7.292-14.217-11.393-24.25-10.188c-13.531,1.626-26.117,6.068-37.854,12.878
		c-3.391,1.968-6.604,4.35-9.57,6.921c-6.091,5.277-9.186,12.325-10.908,20.033c-2.178,9.749-2.682,19.693-2.817,29.616
		c-0.098,7.243-2.306,13.224-7.672,18.121c-2.088,1.906-4.001,4.045-5.758,6.264c-6.36,8.031-10.538,17.19-13.509,26.927
		c-1.151,3.773-2.096,7.608-3.165,11.407C816.674,385.475,816.133,389.046,816.385,392.685z M839.152,176.286
		c0.671-7.11-0.874-13.828-3.888-20.217c-1.545-3.276-3.223-6.508-5.087-9.612c-4.958-8.255-10.059-16.374-17.123-23.132
		c-7.906-7.563-16.875-13.177-27.288-16.518c-5.893-1.891-11.82-1.843-17.744-0.318c-6.106,1.571-10.818,5.292-14.113,10.498
		c-4.192,6.623-5.642,13.935-4.357,21.786c1.303,7.96,4.682,15.074,8.826,21.814c8.304,13.505,18.065,25.87,29.76,36.649
		c6.915,6.373,14.976,10.591,24.222,12.144c8.339,1.401,15.277-1.459,20.27-8.378c1.46-2.024,2.623-4.329,3.558-6.651
		C838.511,188.575,839.73,182.564,839.152,176.286z M780.441,798.743c0-0.498,0.037-1.761-0.006-3.022
		c-0.396-11.7-4.235-21.86-13.176-29.814c-6.669-5.932-14.39-8.299-23.182-7.062c-3.327,0.468-6.384,1.808-8.995,3.968
		c-4.584,3.794-8.184,8.31-9.949,14.1c-2.575,8.449-5.367,16.842-6.927,25.563c-1.908,10.662-2.2,21.284,0.443,31.916
		c1.881,7.567,6.251,13.372,12.176,18.113c2.468,1.975,5.374,3.226,8.563,3.815c6.42,1.187,12.151-0.297,17.493-3.937
		c7.963-5.425,13.517-12.84,17.078-21.589C778.019,820.819,780.806,810.456,780.441,798.743z M635.254,764.408
		c0.331-7.664-1.182-14.729-3.844-21.558c-2.906-7.456-7.15-14.082-13.081-19.491c-4.943-4.507-10.67-7.867-16.848-10.401
		c-4.958-2.033-10.167-2.179-15.382-1.384c-1.681,0.257-3.392,0.895-4.882,1.729c-10.316,5.775-14.24,15.434-13.88,25.658
		c0.255,7.252,1.97,14.432,4.866,21.135c4.329,10.016,9.621,19.547,16.056,28.383c2.23,3.063,4.956,5.742,8.196,7.795
		c4.17,2.642,8.643,3.657,13.565,2.587c9.558-2.078,16.5-7.603,21.218-16.014C634.492,777.047,635.697,770.747,635.254,764.408z
		 M595.489,956.71c0.148-5.561-1.362-10.777-4.197-15.369c-5.325-8.626-16.461-12.608-24.606-10.522
		c-13.674,3.501-24.209,11.276-31.174,23.595c-3.104,5.489-5.73,11.226-9.114,16.59c-3.111,4.93-5.741,10.228-6.301,16.205
		c-0.428,4.571,0.698,8.681,3.745,12.289c4.571,5.412,10.842,6.422,17.19,6.164c5.153-0.209,10.29-1.539,15.367-2.671
		c5.006-1.116,9.362-3.688,13.405-6.824c5.764-4.47,10.94-9.588,15.793-14.974C591.809,974.298,595.225,966.088,595.489,956.71z
		 M240.846,973.834c3.848,0.258,7.218-1.221,10.108-3.93c0.804-0.754,1.593-1.528,2.351-2.328c3.849-4.068,5.304-8.953,4.263-14.373
		c-1.117-5.815-3.457-11.185-7.814-15.357c-3.406-3.261-7.007-6.332-10.658-9.32c-2.575-2.108-5.623-3.4-8.781-4.513
		c-5.651-1.992-10.818-0.934-15.886,1.847c-3.478,1.909-5.263,4.857-5.781,8.673c-0.19,1.402-0.106,2.852-0.393,4.229
		c-0.775,3.72,0.001,7.245,1.423,10.599c1.783,4.207,3.846,8.308,6.92,11.766c1.249,1.405,2.56,2.802,4.042,3.942
		c3.76,2.894,7.893,5.194,12.237,7.103C235.357,973.261,237.926,973.969,240.846,973.834z M722.612,474.57
		c0.14-8.163-3.11-13.704-9.258-17.341c-6.979-4.128-14.347-4.406-21.807-1.093c-3.127,1.389-5.599,3.576-7.504,6.346
		c-2.322,3.376-4.557,6.818-6.673,10.326c-2.444,4.052-3.252,8.416-2.498,13.174c0.766,4.834,3.528,8.255,6.819,11.589
		c5.981,6.058,16.82,6.302,22.534,3.447c6.931-3.463,11.802-8.86,15.472-15.5C721.722,481.855,722.914,477.966,722.612,474.57z
		 M891.573,552.059c4.737,0.341,9.09-1.364,12.85-4.475c6.881-5.695,11.56-12.951,13.698-21.581
		c2.881-11.625-6.226-22.603-18.181-22.049c-6.569,0.305-12.25,2.873-16.376,8.209c-2.607,3.371-4.943,6.938-6.597,10.888
		c-1.654,3.951-2.809,8.03-2.643,12.379C874.652,543.983,881.774,552.864,891.573,552.059z M658.662,913.16
		c-5.046-0.227-9.304,1.684-12.775,5.164c-2.552,2.559-5.017,5.284-7.068,8.248c-4.529,6.544-2.963,15.992,4.81,19.846
		c3.02,1.497,6.226,2.064,9.652,1.375c3.79-0.762,7.075-2.628,10.483-4.27c3.516-1.694,6.224-4.361,8.506-7.378
		c2.157-2.851,2.905-6.224,2.32-9.853C673.051,916.747,665.303,912.749,658.662,913.16z M658.074,497.518
		c0.317-9.902-7.689-16.496-16.353-16.568c-8.783-0.072-16.623,7.396-16.796,15.942c-0.205,10.132,8.156,17.333,16.899,17.255
		C649.482,514.079,658.596,507.998,658.074,497.518z M788.872,279.203c-0.499,5.285,1.932,9.56,6.141,12.822
		c5.325,4.126,11.364,4.839,17.331,1.881c5.402-2.678,8.498-7.32,8.778-13.574c0.183-4.092-0.936-7.839-3.186-11.164
		c-3.201-4.729-7.592-7.439-13.531-7.118C796.22,262.494,787.818,270.145,788.872,279.203z M476.192,945.867
		c-0.595-2.1-0.929-4.328-1.834-6.293c-3.664-7.955-13.839-9.942-20.29-4.091c-2.851,2.586-5.209,5.471-6.216,9.302
		c-0.359,1.366-1.062,2.642-1.428,4.008c-0.488,1.82-1.043,3.673-1.144,5.535c-0.278,5.117,1.653,9.36,6.068,12.044
		c4.072,2.476,8.559,2.623,12.605,0.065C471.402,961.729,474.76,954.446,476.192,945.867z M662.793,817.176
		c-0.531-4.786-2.278-9.107-6.568-11.867c-5.297-3.408-12.591-2.473-16.956,2.09c-1.622,1.696-3.041,3.632-4.299,5.619
		c-1.395,2.204-1.708,4.668-1.075,7.276c0.82,3.379,2.741,5.987,5.347,8.154c4.657,3.873,9.857,4.164,15.048,1.564
		C659.38,827.462,662.534,823.292,662.793,817.176z M823.35,711.292c-7.482,0.063-13.359,6.024-13.517,13.555
		c-0.132,6.276,5.38,13.713,14.15,13.499c7.584-0.185,13.099-5.631,13.142-13.35C837.176,715.698,829.205,710.817,823.35,711.292z
		 M727.244,886.665c-0.708,6.555,5.808,12.294,11.725,12.22c6.532-0.081,11.908-5.41,11.95-12.103
		c0.042-6.746-5.287-12.343-11.837-12.212C733.342,874.686,726.669,879.286,727.244,886.665z M919.053,424.237
		c-0.08-0.01-0.16-0.02-0.24-0.03c0-0.629,0.04-1.26-0.006-1.886c-0.349-4.751-3.134-7.458-7.834-7.752
		c-3.375-0.211-6.005,1.081-8.463,3.362c-3.603,3.342-4.454,9.347-2.318,13.453c2.649,5.093,6.866,7.537,12.257,6.83
		c2.768-0.363,4.723-1.94,5.249-4.661C918.292,430.476,918.613,427.345,919.053,424.237z M813.57,669.593
		c5.763-0.033,10.34-4.433,10.372-9.969c0.036-6.268-4.672-10.666-11.183-10.943c-5.531-0.235-10.656,5.194-10.676,10.397
		C802.063,664.059,806.829,670.266,813.57,669.593z M715.927,547.733c0.007-5.764-4.374-10.506-9.843-10.665
		c-4.894-0.143-10.588,4.402-10.506,10.105c0.092,6.431,4.452,10.694,10.279,10.57C712.122,557.609,715.92,553.978,715.927,547.733z
		 M804.548,792.791c-5.933-0.02-9.659,3.729-9.915,9.647c-0.217,5.01,4.339,9.987,9.846,10.017
		c5.104,0.027,9.851-4.905,9.852-10.164C814.332,797.32,809.687,792.809,804.548,792.791z M268.411,1004.213
		c5.787,0.637,9.595-5.114,9.434-9.52c-0.213-5.842-3.949-9.55-10.03-9.496c-5.619,0.05-8.827,3.852-9.118,9.795
		C258.474,999.554,263.056,1004.945,268.411,1004.213z M472.189,1005.9c-0.356,6.007,4.722,9.488,8.35,9.54
		c5.377,0.076,9.424-3.669,9.621-8.826c0.188-4.929-4.54-9.734-9.063-9.591C474.612,997.229,472.075,1001.732,472.189,1005.9z
		 M816.392,577.505c-0.049,5.156,3.013,8.495,7.886,8.598c5.07,0.107,8.855-3.725,9.169-8.734c0.232-3.714-4.349-8.579-8.481-8.369
		C819.705,569.266,816.442,572.24,816.392,577.505z M890.372,196.528c4.495,0.366,8.176-4.218,8.195-8.536
		c0.02-4.603-3.851-8.467-8.36-8.402c-4.534,0.065-8.211,3.994-8.26,8.55C881.909,191.63,885.657,196.992,890.372,196.528z
		 M585.049,817.034c0.025-4.876-3.031-7.852-7.833-8.134c-4.393-0.258-8.251,4.901-8.166,8.208c0.078,3.049,3.758,8.067,8.001,7.901
		C581.847,824.82,585.024,821.832,585.049,817.034z M825.68,492.252c2.764,0.049,4.596-1.525,5.864-3.894
		c1.261-2.356,0.885-4.657-0.792-6.582c-1.432-1.644-3.005-3.285-4.822-4.449c-3.732-2.391-8.624,0.043-9.365,4.446
		C815.739,486.68,820.623,492.361,825.68,492.252z M577.297,859.158c0.342-3.46-4.474-7.293-7.331-7.371
		c-2.876-0.079-7.86,3.744-7.609,7.606c0.259,3.989,3.237,7.112,7.237,7.206C573.295,866.684,577.292,862.823,577.297,859.158z"/>
	<path fill="#A9653C" d="M155.959,276.107c1.7,1.47,1.981,1.564,3.099,0.609c2.64-2.256,5.33-4.464,7.839-6.86
		c9.385-8.96,19.42-17.135,29.956-24.68c10.017-7.173,20.317-13.934,30.881-20.287c9.889-5.947,19.959-11.555,30.348-16.586
		c14.373-6.961,29.081-13.133,44.022-18.755c6.358-2.392,12.721-4.784,19.163-6.934c5.391-1.8,10.86-3.405,16.365-4.819
		c9.638-2.475,19.339-4.707,28.998-7.101c5.06-1.254,10.074-2.694,15.134-3.952c9.963-2.477,19.938-4.906,29.918-7.316
		c7.372-1.78,14.751-3.532,22.142-5.233c9.86-2.27,19.813-4.049,29.876-5.102c7.532-0.788,15.091-1.317,22.636-1.985
		c5.659-0.501,11.312-1.063,16.972-1.549c1.729-0.149,3.472-0.19,5.209-0.192c14.223-0.018,28.449-0.204,42.667,0.055
		c8.035,0.146,16.056,1.046,24.085,1.586c10.258,0.689,20.414,2.188,30.514,4.029c8.236,1.501,16.392,3.443,24.634,4.906
		c8.109,1.439,16.111,3.305,23.92,5.851c6.148,2.005,12.179,4.408,18.155,6.892c13.515,5.618,25.484,13.866,37.449,22.145
		c6.394,4.424,12.134,9.595,18.005,14.623c5.917,5.068,10.812,11.134,15.146,17.522c3.26,4.804,5.747,10.18,8.191,15.481
		c4.23,9.176,8.386,18.4,12.164,27.769c5.983,14.838,10.314,30.172,12.86,45.997c1.838,11.422,2.85,22.917,2.044,34.45
		c-1.059,15.162-3.309,30.136-9.214,44.329c-3.61,8.677-8.687,16.469-14.304,23.929c-4.978,6.611-10.915,12.229-17.801,16.867
		c-9.999,6.734-21.008,10.924-32.818,12.971c-9.334,1.618-18.742,2.589-28.221,3.173c-6.467,0.399-12.935,0.503-19.394,0.871
		c-9.137,0.52-18.269,1.16-27.389,1.92c-8.963,0.747-17.896,1.856-26.862,2.542c-13.707,1.049-27.34,2.673-40.904,4.868
		c-19.903,3.222-39.117,8.811-57.621,16.86c-9.725,4.23-19.15,8.997-28.189,14.552c-6.89,4.235-13.189,9.241-19.359,14.418
		c-3.262,2.737-6.526,5.519-9.451,8.601c-10.575,11.144-20.107,23.06-27.441,36.677c-5.964,11.073-10.683,22.536-12.851,34.961
		c-0.405,2.322-0.634,4.696-0.703,7.053c-0.116,3.946-0.145,7.901-0.023,11.847c0.433,14.04,4.257,27.019,11.917,38.9
		c8.012,12.425,18.594,22.213,30.437,30.83c8.684,6.318,17.457,12.539,25.817,19.268c9.354,7.529,17.881,15.97,25.744,25.097
		c7.639,8.867,14.868,18.038,21.56,27.621c7.343,10.515,13.953,21.452,17.828,33.818c1.474,4.705,2.409,9.472,2.335,14.431
		c-0.064,4.261,0.279,8.504,0.568,12.759c0.342,5.044-0.656,10.093-2.708,14.784c-3.51,8.025-8.18,15.29-14.428,21.511
		c-4.025,4.008-8.046,8.003-11.696,12.397c-5.194,6.252-11.766,11.039-18.684,15.18c-13.414,8.03-26.92,15.92-40.591,23.501
		c-5.779,3.204-11.97,5.745-18.151,8.128c-13.897,5.358-28.154,9.425-43.036,11.042c-8.32,0.904-16.682,1.247-25.005,1.961
		c-12.322,1.057-24.627,0.6-36.94,0.734c-7.437,0.081-14.841-0.58-22.171-1.714c-15.294-2.368-30.586-4.775-45.814-7.529
		c-13.381-2.42-26.476-6.039-39.425-10.244c-17.592-5.712-34.954-12.045-52.151-18.822c-15.311-6.034-30.002-13.385-44.067-21.958
		c-4.99-3.042-9.984-6.078-15.034-9.017c-1.335-0.777-2.885-1.184-4.335-1.762c-0.377-0.501-0.847-0.956-1.119-1.508
		c-5.168-10.477-10.254-20.994-14.63-31.833c-0.584-1.448-0.911-3-1.359-4.506c2.233,1.172,4.382,2.565,6.718,3.478
		c6.176,2.414,12.361,4.85,18.676,6.854c8.279,2.627,16.682,4.865,25.04,7.241c6.395,1.817,12.901,3.092,19.508,3.847
		c3.016,0.344,5.983,0.154,8.929-0.625c2.45-0.648,4.171-2.205,5.488-4.242c1.415-2.189,1.429-4.482,0.051-6.707
		c-1.188-1.918-2.808-3.431-4.827-4.438c-2.544-1.268-5.157-2.397-7.706-3.653c-9.07-4.469-18.265-8.709-27.155-13.513
		c-13.666-7.385-25.916-16.902-38.133-26.415c-3.357-2.614-6.458-5.561-9.612-8.426c-0.637-0.579-0.987-1.475-1.62-2.459
		c1.008-0.442,1.682-0.936,2.405-1.023c3.916-0.469,7.837-1.054,11.77-1.189c5.84-0.201,11.692-0.089,17.538-0.046
		c1.891,0.014,3.793,0.13,5.67,0.363c11.622,1.444,23.093,3.708,34.348,6.921c5.15,1.47,10.219,3.31,15.179,5.339
		c6.283,2.571,12.415,5.507,18.615,8.281c12.581,5.63,25.618,9.959,38.934,13.452c13.621,3.573,27.467,5.899,41.45,7.579
		c9.312,1.119,18.613,0.842,27.923,0.639c4.449-0.097,8.806-1.093,12.651-3.518c4.174-2.632,7.261-6.15,7.861-11.251
		c0.544-4.625-0.087-9.068-2.092-13.388c-3.346-7.208-8.49-12.897-14.499-17.879c-7.183-5.955-14.873-11.204-22.73-16.241
		c-10.52-6.743-21.312-12.984-32.467-18.605c-5.645-2.844-11.346-5.577-16.952-8.496c-3.077-1.602-6.146-3.288-8.976-5.281
		c-8.909-6.277-17.702-12.72-26.543-19.095c-8.723-6.29-16.934-13.198-24.765-20.559c-9-8.46-17.106-17.725-24.523-27.583
		c-3.131-4.162-5.993-8.527-8.926-12.835c-0.495-0.727-1.212-1.555-0.439-2.579c1.256-0.579,2.091,0.309,2.946,0.922
		c2.695,1.933,5.313,3.976,8.028,5.88c10.261,7.192,21.353,12.89,32.762,17.991c12.724,5.689,25.801,10.419,39.44,13.357
		c8.486,1.829,17.097,3.07,25.634,4.67c5.637,1.057,11.31,1.086,17.001,0.933c1.261-0.034,2.548-0.041,3.772-0.302
		c6.303-1.342,8.656-8.507,4.268-13.21c-1.26-1.35-2.908-2.432-4.552-3.313c-3.898-2.088-7.912-3.961-11.859-5.959
		c-20.576-10.414-41.372-20.389-61.138-32.364c-11.244-6.812-22.202-13.933-32.044-22.674c-1.483-1.317-3.316-2.436-3.732-4.504
		c0.914-1.781,2.546-2.122,3.956-2.746c6.787-3.007,13.634-5.884,20.381-8.979c13.229-6.068,26.794-11.256,40.609-15.813
		c5.252-1.732,10.525-3.411,15.732-5.272c3.415-1.221,6.872-2.459,10.059-4.16c6.54-3.493,8.254-10.806,4.27-16.994
		c-1.297-2.014-2.798-3.85-4.859-5.112c-3.364-2.06-6.692-4.2-10.179-6.033c-9.928-5.218-19.953-10.25-29.89-15.451
		c-5.606-2.934-11.124-6.108-15.769-10.435c-5.199-4.843-10.099-10.007-15.094-15.067c-0.768-0.778-1.426-1.697-1.991-2.637
		c-0.999-1.664-0.94-3.37,0.409-4.808c1.072-1.144,2.213-2.295,3.521-3.135c8.115-5.209,16.378-10.171,25.254-14.003
		c4.931-2.129,9.909-4.15,14.892-6.152c12.907-5.185,25.986-9.851,39.318-13.867c11.035-3.325,22.036-6.88,32.77-11.057
		c18.112-7.048,36.138-14.294,54.627-20.331c5.7-1.861,11.286-4.083,16.606-6.924c8.051-4.299,13.998-10.582,18.467-18.504
		c3.836-6.799,3.502-13.252-0.644-19.658c-0.851-1.315-1.889-2.526-2.947-3.689c-4.746-5.22-10.549-9.063-16.765-12.222
		c-18.626-9.464-38.638-13.67-59.325-14.886c-7.243-0.426-14.534-0.058-21.802-0.033c-1.263,0.004-2.533,0.035-3.786,0.176
		c-11.137,1.255-22.309,2.281-33.398,3.876c-15.178,2.182-30.446,3.247-45.716,4.299c-8.027,0.553-16.088,0.306-24.137,0.913
		c-11.204,0.845-22.396-0.734-33.604-0.959c-4.096-0.082-8.191-0.49-12.275-0.875c-1.873-0.177-3.717-0.659-5.574-1.002
		c1.337-2.496,2.547-5.071,4.031-7.476c9.194-14.894,18.455-29.748,28.645-43.995C154.407,277.658,155.227,276.914,155.959,276.107z
		 M679.347,308.342c-5.764-0.29-11.421,0.163-17.043,1.08c-7.182,1.172-14.258,2.774-21.041,5.478
		c-11.095,4.423-21.2,10.35-29.972,18.613c-6.189,5.831-11.265,12.339-14.697,20.083c-2.713,6.123-4.677,12.529-3.743,19.293
		c2.088,15.127,10.607,25.429,24.748,30.79c9.468,3.59,19.421,5.355,29.523,6.443c11.075,1.193,22.084,0.752,33.032-0.763
		c10.713-1.482,20.798-5.122,30.406-10.143c9.661-5.049,17.832-11.907,24.929-20.074c3.633-4.181,6.627-8.829,8.867-13.934
		c2.249-5.125,3.893-10.512,3.459-16.054c-0.858-10.957-5.873-19.806-14.893-26.298c-6.657-4.791-14.171-7.535-22.029-9.512
		c-1.683-0.423-3.417-0.687-5.052-1.246C697.224,309.149,688.384,307.828,679.347,308.342z M380.794,278.285
		c3.939-0.189,7.917-0.094,11.811-0.621c10.819-1.464,21.348-4.313,31.825-7.304c3.788-1.082,7.499-2.466,11.182-3.876
		c8.567-3.282,16.641-7.607,24.733-11.887c6.709-3.549,13.22-7.376,19.062-12.289c7.254-6.1,12.205-13.584,14.02-22.94
		c0.444-2.288,0.539-4.725,0.316-7.047c-0.653-6.825-3.611-12.737-8.084-17.821c-5.768-6.555-13.057-10.906-21.299-13.615
		c-8.875-2.917-18.049-3.027-27.197-2.035c-10.409,1.129-20.434,3.962-30.142,7.901c-2.632,1.068-5.317,2.007-7.977,3.005
		c-10.344,3.883-20.749,7.615-31.016,11.694c-9.449,3.755-18.174,8.832-25.613,15.868c-4.62,4.369-8.612,9.26-10.964,15.256
		c-3.38,8.617-3.981,17.215,0.885,25.536c2.919,4.99,6.942,8.988,11.928,11.912c5.073,2.974,10.526,4.955,16.313,6.174
		C367.261,277.602,373.954,278.492,380.794,278.285z M355.201,779.531c0.474,2.464,0.584,5.075,1.509,7.356
		c1.353,3.34,3.046,6.603,5.028,9.614c3.696,5.613,8.782,9.884,14.256,13.719c5.059,3.545,10.352,6.686,15.91,9.37
		c5.115,2.47,10.186,5.055,15.42,7.245c8.242,3.447,16.988,4.863,25.839,5.582c2.182,0.177,4.465,0.122,6.599-0.318
		c6.334-1.306,12.625-2.828,18.916-4.337c1.373-0.329,2.759-0.801,3.993-1.476c4.72-2.582,7.888-6.141,7.753-11.989
		c-0.078-3.385-0.422-6.621-2.189-9.564c-1.623-2.703-3.209-5.436-4.977-8.043c-3.395-5.007-8.02-8.906-12.174-13.231
		c-3.868-4.028-8.382-7.232-13.112-10.08c-14.782-8.899-30.616-14.911-47.843-17.031c-7.923-0.975-15.537,0.159-22.563,3.742
		C359.822,764.039,355.359,770.415,355.201,779.531z M321.74,556.147c3.925-0.464,7.701-0.778,11.431-1.381
		c6.398-1.035,12.714-2.421,18.808-4.732c7.446-2.823,14.27-6.745,20.708-11.377c5.947-4.278,11.123-9.298,15.119-15.508
		c4.24-6.588,6.443-13.644,5.752-21.545c-0.287-3.286-1.464-6.1-3.582-8.578c-3.249-3.802-7.439-5.893-12.344-6.29
		c-4.56-0.369-9.136-0.336-13.708,0.331c-6.449,0.941-12.579,2.957-18.762,4.907c-13.456,4.243-25.518,10.92-36.188,20.108
		c-6.156,5.301-10.561,11.699-11.926,19.899c-2.153,12.939,6.448,21.218,14.963,22.882
		C315.244,555.495,318.554,555.738,321.74,556.147z M613.992,234.477c5.354,0.22,10.314-1.181,15.229-3.067
		c4.739-1.818,8.484-4.897,11.536-8.771c3.67-4.658,5.092-10.061,4.211-15.99c-1.049-7.064-5.147-12.157-10.93-15.84
		c-5.744-3.658-12.238-4.937-19.031-4.555c-3.931,0.221-7.861,0.485-11.786,0.791c-7.5,0.583-14.056,3.027-19.153,8.96
		c-6.399,7.447-6.402,18.699,0.324,25.92C592.395,230.516,602.508,234.143,613.992,234.477z M559.883,311.274
		c6.062-0.024,9.321-0.756,13.818-2.899c1.28-0.61,2.532-1.28,3.817-1.881c6.204-2.903,10.718-7.676,14.403-13.271
		c1.196-1.816,2.028-3.916,2.765-5.979c1.029-2.883,0.966-5.884,0.329-8.864c-1.909-8.928-11.89-13.51-18.284-12.373
		c-2.972,0.528-5.862,1.333-8.444,2.918c-4.967,3.049-9.988,6.029-14.779,9.337c-5.113,3.53-8.4,8.428-9.651,14.618
		c-1.736,8.587,3.727,16.68,12.356,18.118C557.756,311.256,559.347,311.237,559.883,311.274z M322.354,848.54
		c-2.043,0.113-4.11,0.069-6.126,0.37c-5.374,0.801-8.805,3.924-10.319,9.129c-0.708,2.435,0.058,10.719,1.179,13.008
		c0.275,0.563,0.591,1.125,0.99,1.604c1.619,1.947,3.399,3.701,5.652,4.953c6.719,3.735,13.913,4.974,21.473,3.986
		c3.44-0.45,6.804-1.37,9.905-3.025c2.595-1.385,4.732-3.272,5.39-6.243c0.919-4.149,0.673-8.286-2.071-11.71
		c-1.847-2.305-3.97-4.601-6.439-6.154C336.047,850.724,329.614,848.166,322.354,848.54z M262.435,483.175
		c0.019-0.137,0.038-0.274,0.056-0.411c1.103,0,2.214,0.083,3.309-0.015c4.118-0.369,8.116-1.296,11.794-3.211
		c6.53-3.4,7.505-10.104,2.218-15.137c-1.361-1.296-3.02-2.272-4.451-3.501c-4.056-3.483-8.69-4.36-13.715-2.897
		c-2.553,0.743-4.987,1.906-7.448,2.945c-1.936,0.818-3.388,2.229-4.652,3.901c-4.679,6.188-2.328,14.441,5.043,16.924
		C257.079,482.611,259.812,482.728,262.435,483.175z M478.43,313.352c3.909-0.082,7.568-0.816,10.979-2.685
		c2.848-1.56,4.489-3.909,4.614-7.19c0.066-1.729-0.07-3.466,0.003-5.195c0.133-3.155-1.372-5.419-3.784-7.198
		c-6.477-4.78-17.822-5.264-24.151,1.88c-6.166,6.961-3.975,16.368,4.931,19.166C473.388,312.873,475.956,312.963,478.43,313.352z
		 M518.242,358.565c-6.38-0.016-11.44,3.99-12.546,9.705c-0.967,4.995,2.458,10.326,8.024,12.486
		c0.294,0.114,0.591,0.223,0.892,0.317c5.596,1.742,11.037,0.85,16.061-1.699c6.297-3.194,6.591-11.622,0.782-15.64
		c-0.901-0.623-1.93-1.064-2.916-1.557c-1.407-0.704-2.882-1.29-4.233-2.086C522.323,358.923,520.209,358.499,518.242,358.565z
		 M378.837,698.041c-5.253-0.206-8.373,2.499-8.624,6.597c-0.12,1.962,0.501,3.746,1.715,5.259c2.496,3.111,5.46,5.658,9.285,6.998
		c1.169,0.409,2.424,0.757,3.649,0.789c5.973,0.155,9.69-5.534,6.71-10.689C388.579,701.819,383.342,699.562,378.837,698.041z"/>
	<path fill="#5B331A" d="M979.356,479.866c-1.067-0.563-1.671-1.449-1.655-2.652c0.028-2.198,0.074-4.398,0.197-6.593
		c0.167-2.977,0.579-5.948,0.598-8.924c0.091-14.158,0.123-28.316,0.08-42.474c-0.009-2.912,0.394-5.622,1.999-8.088
		c3.432-0.396,6.256-1.825,8.452-4.582c3.023-3.796,3.611-8.037,2.031-12.424c-1.583-4.394-4.643-7.423-9.565-8.034
		c-0.935-0.116-1.873-0.212-2.81-0.318c-0.344-2.167-0.959-4.331-0.986-6.503c-0.109-8.84-0.859-17.627-1.814-26.405
		c-0.681-6.266-1.255-12.544-1.91-18.812c-1.329-12.724-3.603-25.299-6.103-37.833c-3.552-17.809-7.87-35.42-13.246-52.784
		c-3.691-11.922-7.693-23.718-12.391-35.274c-4.813-11.838-9.638-23.673-14.6-35.45c-1.713-4.066-3.866-7.947-5.797-11.923
		c-0.55-1.134-1.089-2.281-1.516-3.464c-0.472-1.308,0.29-2.076,1.381-2.618c0.291,0.203,0.582,0.406,0.872,0.609
		c0.498,1.393,1.499,2.108,2.966,2.194c0.28,0.195,0.559,0.39,0.838,0.584c1.552,2.624,3.848,4.264,6.753,5.098
		c0.278,0.196,0.556,0.392,0.834,0.588c0.456,1.415,1.444,2.157,2.91,2.292c0.288,0.214,0.575,0.428,0.862,0.641
		c2.121,3.264,5.102,5.454,8.664,6.917c0.275,0.211,0.55,0.422,0.825,0.632c0.668,1.801,1.911,2.916,3.844,3.203
		c0.293,0.239,0.586,0.479,0.878,0.717c1.32,2.374,3.018,4.303,5.819,4.933c0.279,0.216,0.559,0.433,0.837,0.648
		c1.574,2.76,3.521,5.102,6.762,5.983c0.272,0.234,0.543,0.467,0.814,0.7c2.09,3.462,5.113,6.017,8.276,8.424
		c0.336,0.256,0.868,0.256,1.309,0.375c1.233,1.155,2.467,2.311,3.699,3.465c0.605,0.897,1.09,1.913,1.836,2.673
		c4.616,4.694,9.271,9.349,13.964,13.966c0.76,0.747,1.772,1.238,2.668,1.847c0.851,0.911,1.702,1.821,2.552,2.731
		c1.76,4.301,5.172,7.075,8.87,9.584c0.518,0.601,1.036,1.203,1.553,1.804c0.19,0.584,0.228,1.297,0.595,1.734
		c2.694,3.199,5.429,6.366,8.218,9.483c0.488,0.546,1.292,0.809,1.951,1.203c0.211,0.276,0.422,0.551,0.632,0.826
		c1.104,3.588,3.956,5.927,6.251,8.657c0.376,0.448,1.056,0.64,1.596,0.951c0.22,0.29,0.441,0.581,0.661,0.87
		c0.115,0.443,0.112,0.973,0.364,1.319c2.167,2.984,4.347,5.961,6.608,8.874c0.44,0.567,1.249,0.848,1.887,1.261
		c0.207,0.288,0.414,0.576,0.621,0.864c0.112,1.444,0.824,2.436,2.207,2.922c0.208,0.301,0.416,0.601,0.624,0.901
		c0.647,2.448,1.778,4.544,4.169,5.724c0.198,0.293,0.396,0.587,0.593,0.879c0.305,2.316,2.017,3.878,3.097,5.781
		c0.533,0.939,1.301,1.858,0.411,3.201c-6.112,2.26-10.41,6.713-12.983,12.756c-2.99,7.022-4.702,14.34-4.901,22.041
		c-0.167,6.43,1.24,12.552,3.008,18.606c2.749,9.412,6.506,18.435,10.947,27.189c4.689,9.242,10.589,17.564,18.252,24.558
		c4.926,4.496,10.269,8.372,16.857,10.197c4.362,1.209,8.76,1.263,13.125,0.388c3.785-0.759,7.053-2.633,9.759-5.485
		c1.135-1.197,2.114-2.81,4.319-2.839c0.483,0.804,1.082,1.542,1.409,2.384c5.087,13.099,9.821,26.331,13.849,39.79
		c5.886,19.663,10.89,39.554,14.526,59.773c2.486,13.822,4.677,27.684,5.982,41.675c0.366,3.924,0.795,7.842,1.102,11.77
		c0.577,7.384,1.441,14.768,1.55,22.161c0.237,16.097,0.1,32.199,0.049,48.299c-0.008,2.514-0.483,5.024-0.54,7.54
		c-0.103,4.562-0.054,9.128-0.068,13.691c-0.076,0.85-0.151,1.701-0.226,2.55c-1.347,2.021-1.237,4.168-0.548,6.365
		c-0.144,1.357-0.288,2.713-0.432,4.069c-1.129,1.394-1.178,2.9-0.461,4.485c-0.172,1.353-0.344,2.705-0.516,4.057
		c-0.366,1.157-0.733,2.315-1.099,3.473c-0.784-0.047-1.585-0.005-2.348-0.156c-4.039-0.801-7.826,0.054-11.5,1.673
		c-5.016,2.211-9.109,5.604-12.389,9.954c-3.525,4.674-5.31,9.898-5.154,15.847c0.114,4.358,1.247,8.39,2.943,12.315
		c1.312,3.035,2.743,6.018,4.111,9.029c2.945,6.48,6.438,12.621,11.117,18.032c-0.326,1.538-0.554,3.104-0.993,4.609
		c-2.562,8.776-5.149,17.546-7.774,26.303c-4.123,13.757-9.297,27.143-14.656,40.448c-6.661,16.538-14.41,32.587-22.696,48.367
		c-3.736,7.115-7.712,14.108-11.731,21.069c-6.784,11.75-14.272,23.057-21.87,34.292c-1.048,1.549-2.376,2.982-2.573,4.982
		c-0.196,0.29-0.392,0.58-0.587,0.87c-1.051,0.923-2.097,1.852-3.155,2.768c-0.961,0.832-1.985,0.936-3.032,0.229
		c-0.65-0.439-1.275-0.942-1.818-1.507c-1.806-1.879-4.066-2.905-6.472-3.791c-5.995-2.208-12.198-1.947-18.27-1.083
		c-13.283,1.889-25.637,6.617-37.229,13.356c-3.139,1.825-6.393,3.461-9.473,5.378c-7.371,4.587-14.812,9.084-21.955,14.008
		c-6.36,4.385-12.45,9.18-18.489,14.006c-5.79,4.627-11.696,9.148-16.774,14.597c-3.333,3.577-6.654,7.167-9.889,10.832
		c-4.407,4.991-8.126,10.488-11.195,16.382c-3.563,6.844-5.481,14.125-4.848,21.915c0.756,9.307,4.411,17.034,12.45,22.281
		c1.585,1.034,3.164,2.13,4.879,2.899c2.575,1.154,2.963,2.913,0.133,4.839c-0.391,0.266-0.811,0.49-1.214,0.738
		c-13.311,8.195-26.589,16.444-39.947,24.562c-6.475,3.935-12.991,7.827-19.676,11.387c-15.913,8.473-32.407,15.659-49.292,21.998
		c-18.211,6.837-36.708,12.742-55.553,17.518c-10.56,2.676-21.244,4.865-31.861,7.321c-1.349,0.312-2.629,0.917-3.942,1.387
		c-0.681,0.142-1.361,0.283-2.041,0.425c-1.035-0.661-1.932-0.481-2.708,0.444c-0.69,0.14-1.381,0.28-2.07,0.42
		c-0.917-0.119-1.865-0.449-2.747-0.321c-3.868,0.562-7.721,1.231-11.567,1.93c-0.576,0.105-1.085,0.575-1.625,0.876
		c-0.692,0.118-1.384,0.236-2.075,0.354c-1.632-0.687-3.179-0.696-4.563,0.578c-0.999,0.146-1.999,0.291-2.997,0.437
		c-1.955-0.761-3.842-0.925-5.534,0.63c-0.687,0.099-1.375,0.197-2.061,0.296c-2.245-0.705-4.45-0.996-6.471,0.625
		c-1,0.117-2.001,0.234-3,0.351c-2.553-0.767-5.073-1.11-7.429,0.596c-1.011,0.093-2.021,0.187-3.031,0.28
		c-2.276-0.15-4.556-0.44-6.828-0.391c-1.146,0.025-2.279,0.665-3.418,1.027c-1.331,0.09-2.661,0.18-3.991,0.27
		c-1.549-0.165-3.098-0.469-4.648-0.473c-15.094-0.035-30.188-0.035-45.282,0.003c-1.549,0.004-3.098,0.317-4.647,0.486
		c-1.639-0.113-3.278-0.225-4.917-0.338c-0.849-0.331-1.695-0.928-2.551-0.943c-2.779-0.05-5.562,0.112-8.344,0.193
		c-0.812-0.059-1.624-0.118-2.434-0.178c-2.338-1.495-4.82-1.356-7.351-0.638c-1.007-0.098-2.015-0.195-3.021-0.293
		c-1.011-0.364-1.997-0.922-3.039-1.062c-6.857-0.924-13.722-1.79-20.595-2.591c-1.211-0.141-2.468,0.11-3.704,0.18
		c-0.684-0.119-1.369-0.237-2.052-0.356c-1.079-1.137-2.311-1.228-3.656-0.528c-0.679-0.129-1.358-0.257-2.037-0.385
		c-1.06-1.161-2.291-1.262-3.646-0.581c-0.684-0.137-1.367-0.274-2.05-0.411c-1.225-1.216-2.893-1.142-4.409-1.468
		c-8.477-1.824-16.988-3.494-25.437-5.438c-12.295-2.829-24.52-5.985-36.506-9.921c-11.98-3.934-23.822-8.287-35.725-12.453
		c-1.68-0.588-3.291-1.345-3.953-3.114c-1.045-2.793-3.122-3.632-5.904-3.772c-6.379-0.321-12.404-2.089-18.15-4.851
		c-7.672-3.688-15.341-7.382-23.036-11.022c-1.694-0.801-3.49-1.384-5.24-2.068c-0.323-0.156-0.646-0.313-0.968-0.469
		c-3.086-3.328-7.224-4.73-11.337-6.178c-0.327-0.17-0.654-0.339-0.98-0.509c-1.331-2.071-3.424-2.818-5.688-3.266
		c-0.319-0.173-0.638-0.346-0.956-0.518c-0.808-1.569-2.202-2.151-3.862-2.282c-0.296-0.161-0.592-0.323-0.887-0.484
		c-0.775-1.626-2.181-2.217-3.865-2.348c-0.294-0.163-0.588-0.326-0.881-0.488c-0.762-1.629-2.165-2.223-3.842-2.372
		c-0.297-0.171-0.593-0.343-0.889-0.513c-0.752-1.588-2.129-2.189-3.766-2.378c-0.319-0.192-0.638-0.384-0.957-0.575
		c-0.654-0.427-1.31-0.854-1.965-1.281c-0.298-0.179-0.595-0.357-0.892-0.535c-0.387-0.86-1.064-1.288-1.998-1.331
		c-0.288-0.172-0.576-0.345-0.863-0.516c-1.926-2.684-4.581-4.275-7.719-5.143c-0.271-0.174-0.542-0.348-0.813-0.521
		c-0.367-0.892-1.048-1.338-1.999-1.396c-0.282-0.179-0.564-0.358-0.844-0.536c-0.358-0.875-1.027-1.315-1.956-1.389
		c-0.29-0.192-0.581-0.384-0.871-0.575c-0.635-0.451-1.272-0.903-1.908-1.354c-0.304-0.21-0.608-0.421-0.911-0.63
		c-0.526-1.372-1.535-2.075-2.994-2.151c-0.279-0.186-0.557-0.373-0.835-0.558c-0.345-0.858-0.991-1.308-1.902-1.401
		c-0.304-0.214-0.608-0.427-0.911-0.64c-0.51-1.359-1.502-2.069-2.942-2.171c-0.287-0.206-0.574-0.412-0.86-0.617
		c-0.488-1.391-1.49-2.104-2.942-2.224c-0.285-0.2-0.571-0.4-0.855-0.599c-0.476-1.396-1.463-2.131-2.923-2.253
		c-0.288-0.205-0.576-0.411-0.863-0.615c-0.468-1.373-1.445-2.104-2.871-2.266c-0.632-0.473-1.263-0.945-1.894-1.417
		c-0.429-1.443-1.417-2.196-2.895-2.347c-0.615-0.481-1.231-0.961-1.845-1.441c-0.442-1.419-1.395-2.212-2.883-2.352
		c-0.617-0.496-1.234-0.993-1.851-1.49c-0.135-0.762-0.269-1.523-0.382-2.165c1.078-1.463,2.388-1.094,3.581-0.812
		c6.144,1.453,12.297,2.875,18.403,4.477c8.397,2.203,16.754,4.563,25.13,6.845c8.559,2.332,17.342,3.354,26.114,4.42
		c4.851,0.589,9.708,1.145,14.572,1.608c1.874,0.179,3.776,0.062,5.664,0.08c1.157,0.805,2.372,1.538,3.461,2.425
		c2.807,2.289,5.557,4.648,8.334,6.975c6.218,5.21,13.403,8.808,20.593,12.418c9.666,4.853,19.735,8.172,30.583,9.217
		c7.699,0.741,15.111-0.126,22.326-2.686c7.453-2.644,13.571-7.099,18.358-13.528c2.955-3.969,5.188-8.238,7.114-12.728
		c16.965-1.647,33.853-3.879,50.721-6.34c14.893-2.173,29.499-5.502,43.862-9.885c9.511-2.902,18.968-6.034,28.288-9.498
		c7.688-2.858,15.167-6.287,22.682-9.592c5.057-2.224,10.072-4.56,15.007-7.043c21.906-11.021,42.861-23.62,62.822-37.877
		c13.498-9.641,26.563-19.837,39.441-30.279c9.805-7.95,19.627-15.882,29.342-23.941c5.584-4.632,10.966-9.507,16.448-14.262
		c4.051-3.514,8.117-7.01,12.176-10.514c0.239-0.206,0.485-0.406,0.713-0.624c11.989-11.449,24.187-22.683,35.645-34.676
		c4.578-4.791,9.216-9.539,13.565-14.533c8.085-9.285,15.891-18.802,22.891-28.957c6.81-9.88,13.845-19.606,20.564-29.547
		c5.216-7.716,10.109-15.651,15.111-23.509c0.656-1.03,1.11-2.189,1.791-3.556c-0.953-0.434-1.6-0.923-2.294-1.003
		c-1.406-0.162-2.84-0.06-4.258-0.141c-7.103-0.404-12.636-6.076-13.017-13.221c-0.208-3.902,0.356-7.539,2.861-10.717
		c6.978-8.85,20.527-5.716,24.325,2.453c0.71,1.528,1.387,3.072,2.272,5.037c0.953-0.958,1.731-1.481,2.155-2.209
		c2.541-4.365,5.127-8.712,7.459-13.189c4.011-7.701,8.042-15.403,11.711-23.269c5.672-12.158,11.06-24.449,16.528-36.701
		c0.678-1.52,1.609-3.053,1.1-5.307c-0.789,0.516-1.347,0.756-1.741,1.158c-5.306,5.41-10.353,11.099-15.936,16.204
		c-7.107,6.498-14.721,12.419-23.174,17.156c-6.824,3.825-14.024,6.469-21.846,7.378c-2.92,0.339-5.665-0.364-8.428-0.943
		c-7.633-1.599-13.635-5.687-17.862-12.257c-2.525-3.925-3.772-8.248-4.106-12.935c-0.575-8.077,1.734-15.261,6.087-21.942
		c5.459-8.379,11.779-16.041,19.215-22.723c2.925-2.629,6.156-4.934,9.35-7.245c5.116-3.702,10.364-7.222,15.47-10.938
		c5.398-3.929,11.221-7.087,17.328-9.706c5.426-2.327,11.174-3.344,17.076-3.428c9.453-0.136,16.13,4.585,21.168,12.149
		c0.838,1.258,1.067,3.056,3.267,3.451c0.413-0.718,1.041-1.438,1.27-2.269c1.68-6.086,3.314-12.185,4.893-18.298
		c1.383-5.352,2.674-10.727,4.011-16.091c4.204-16.857,7.975-33.812,11.263-50.87c1.255-6.507,2.24-13.066,3.383-19.596
		c0.245-1.396,0.487-2.829,1.022-4.125c0.326-0.79,1.209-1.349,1.841-2.012c0.786,1.156,1.399,2.492,2.388,3.436
		c4.888,4.666,12.583,4.04,16.594-1.353c5.408-7.273,0.634-15.237-4.524-16.843c-4.661-1.452-9.02-1.251-12.452,2.843
		C980.181,478.919,979.766,479.39,979.356,479.866z M1041.106,729.887c-4.51,0.186-8.839,1.103-13.17,1.972
		c-11.152,2.24-21.16,7.126-30.757,13.081c-11.467,7.117-21.47,16.035-31.349,25.096c-8.17,7.493-15.191,15.987-21.287,25.277
		c-3.276,4.992-5.371,10.385-6.384,16.172c-1.344,7.68,0.382,14.857,5.049,21.044c6.76,8.963,16.021,13.59,27.188,14.275
		c3.659,0.224,7.179,0.745,10.623,2.066c2.648,1.016,5.468,1.798,8.328,1.311c3.88-0.661,7.792-1.346,11.546-2.493
		c7.606-2.324,14.452-6.271,21.047-10.651c7.529-5,14.275-10.92,20.466-17.489c2.596-2.755,5.304-5.411,7.808-8.247
		c4.824-5.465,8.727-11.591,12.291-17.921c4.357-7.737,7.788-15.814,9.362-24.657c1.511-8.49-0.138-16.394-4.078-23.796
		c-3.808-7.154-9.812-11.883-17.838-13.681C1047.048,730.597,1044.057,730.329,1041.106,729.887z M604.741,1040.191
		c-6.35-0.596-13.276,1.031-20.118,2.997c-4.407,1.266-8.692,2.969-12.338,5.863c-5.629,4.468-9.009,10.315-8.88,17.528
		c0.155,8.665,4.208,15.761,10.583,21.452c3.176,2.835,6.806,5.092,10.655,7.009c1.943,0.968,3.769,2.314,5.374,3.787
		c2.586,2.373,5.368,4.406,8.502,5.951c12.414,6.121,25.364,9.194,39.341,7.664c6.029-0.66,11.866-1.842,17.479-3.964
		c3.218-1.217,6.313-2.903,9.223-4.754c3.207-2.039,5.882-4.77,7.91-8.037c3.597-5.795,3.305-12.069,1.853-18.325
		c-1.592-6.86-5.849-12.204-10.873-16.87c-4.054-3.765-8.75-6.689-13.656-9.297c-5.621-2.988-11.62-4.939-17.645-6.82
		C623.522,1041.68,614.718,1039.942,604.741,1040.191z M899.913,871.962c-0.356-5.187-0.518-10.397-1.118-15.555
		c-0.723-6.216-2.67-12.002-7.346-16.523c-3.802-3.675-8.354-4.981-13.489-4.081c-3.475,0.609-6.591,2.114-9.205,4.558
		c-2.779,2.598-5.311,5.405-7.231,8.706c-2.458,4.225-4.997,8.411-7.254,12.742c-4.597,8.824-7.044,18.186-6.651,28.222
		c0.274,6.997,2.462,13.323,6.595,18.909c1.378,1.862,3.176,3.546,5.094,4.854c7.924,5.401,19.125,4.263,26.712-2.475
		c4.587-4.074,7.746-9.079,9.983-14.743C899.131,888.654,900.189,880.435,899.913,871.962z M1060.053,454.442
		c-0.521-8.467-2.862-16.867-8.493-24.129c-7.352-9.481-16.839-16.091-27.894-20.554c-2.37-0.957-4.85-1.47-7.415-1.236
		c-6.986,0.637-11.035,4.984-13.466,11.08c-1.365,3.424-1.51,7.079-0.969,10.742c1.047,7.087,3.146,13.857,6.234,20.307
		c3.618,7.558,8.94,13.751,15.626,18.743c3.713,2.772,7.899,4.674,12.499,5.432c7.271,1.198,13.889-0.032,19.044-5.78
		C1058.783,465.072,1059.859,460.187,1060.053,454.442z M787.885,962.251c-2.986,0.203-6.042,0.074-8.945,0.676
		c-6.811,1.411-13.388,3.589-19.661,6.698c-3.646,1.807-6.549,4.413-9.053,7.469c-4.151,5.065-3.903,11.975,0.302,16.951
		c3.243,3.836,7.403,5.72,12.311,6.289c2.812,0.326,5.624,0.748,8.392,1.333c2.833,0.599,5.598,0.579,8.448,0.104
		c8.808-1.468,16.496-5.18,23.119-11.146c2.862-2.578,5.13-5.664,6.611-9.146c2.471-5.809,1.615-10.477-3.131-14.49
		c-1.974-1.669-4.206-2.734-6.646-3.496C795.79,962.292,791.84,962.418,787.885,962.251z M1010.743,546.731
		c-0.221,3.862,0.318,7.582,1.869,11.115c2.508,5.716,9.156,9.786,16.508,5.59c1.794-1.024,3.377-2.298,4.558-4.044
		c1.236-1.827,2.563-3.592,3.831-5.398c3.857-5.489,6.584-11.484,7.837-18.087c1.229-6.474,0.052-12.593-3.441-18.145
		c-4.656-7.401-14.036-8.524-20.343-2.486c-1.458,1.396-2.764,3.048-3.778,4.793
		C1013.002,528.303,1011.132,537.336,1010.743,546.731z M1093.926,545.477c0.322,6.057,1.479,13.365,3.026,17.7
		c0.86,2.411,2.035,4.596,3.97,6.33c3.738,3.349,9.103,3.414,12.938,0.162c2.793-2.369,4.258-5.483,4.726-9.001
		c1.385-10.408-1.911-19.61-7.808-27.963c-2.091-2.962-5.224-4.719-9.036-3.873c-3.808,0.846-5.783,3.723-6.531,7.328
		C1094.574,539.222,1094.339,542.368,1093.926,545.477z M475.823,1073.603c-3.494-0.083-5.833,0.032-8.04,1.082
		c-4.223,2.008-5.469,5.827-2.906,9.699c1.059,1.6,1.92,3.218,2.503,5.027c0.238,0.74,0.605,1.458,1.026,2.115
		c3.758,5.857,13.178,9.088,19.681,6.775c4.251-1.512,7.038-5.502,6.451-9.874c-0.703-5.234-3.04-9.55-7.982-12.085
		C482.828,1074.429,478.821,1073.782,475.823,1073.603z M973.766,672.209c-0.029,4.474,0.885,7.124,3.306,9.546
		c4.201,4.204,10.518,5.188,15.723,2.449c5.226-2.749,8.353-9.068,7.22-14.726c-0.637-3.177-1.916-6.029-4.698-7.945
		c-4.57-3.148-9.491-3.341-14.394-1.137C975.944,662.634,973.837,666.873,973.766,672.209z M1069.625,641.71
		c0.638-7.575-5.926-11.984-12.07-12.109c-7.484-0.153-12.409,5.59-12.269,12.595c0.13,6.534,5.521,11.728,11.88,11.819
		C1064.229,654.117,1070.234,649.143,1069.625,641.71z M519.593,1076.921c0.064,6.813,4.975,11.469,11.617,11.682
		c5.106,0.164,11.403-6.178,11.153-11.349c-0.282-5.833-5.904-11.715-12.005-11.603
		C524.87,1065.753,518.995,1070.704,519.593,1076.921z M795.674,1080.039c6.121,0.098,10.025-3.808,10.267-9.844
		c0.193-4.802-4.952-10.201-10.387-10.129c-6.541,0.087-9.912,5.448-10.021,9.872
		C785.377,1076.257,790.684,1080.387,795.674,1080.039z M576.322,1113.546c-0.137-3.15-1.409-5.956-4.4-7.682
		c-3.555-2.052-7.376-2.677-11.424-1.665c-2.586,0.647-4.559,2.144-6.072,4.261c-2.593,3.628-1.064,8.864,3.237,9.98
		c3.055,0.793,6.035,1.793,9.07,2.608C571.358,1122.29,576.193,1118.501,576.322,1113.546z M1004.447,277.111
		c6.049,0.062,10.12-3.989,10.075-10.024c-0.039-5.097-4.542-9.598-9.716-9.71c-5.326-0.116-10.085,4.525-10.073,9.824
		C994.746,273.05,998.668,277.052,1004.447,277.111z M897.006,802.288c0.009-5.349-3.942-9.378-9.165-9.348
		c-5.06,0.029-9.453,4.335-9.47,9.282c-0.017,4.917,4.377,9.278,9.417,9.346C893.031,811.64,896.997,807.647,897.006,802.288z
		 M958.24,720.792c-4.665-0.034-8.803,3.653-8.904,7.933c-0.118,5.016,3.796,9.027,8.83,9.048c4.875,0.02,8.888-3.784,8.91-8.446
		C967.097,724.685,963.104,720.828,958.24,720.792z M1011.673,323.161c0.033-3.858-3.048-7.125-6.668-7.072
		c-3.442,0.051-6.402,3.147-6.48,6.777c-0.08,3.739,3.124,7.139,6.666,7.073C1008.615,329.876,1011.643,326.709,1011.673,323.161z
		 M934.498,885.119c2.741-0.05,5.635-2.185,6.469-4.771c0.681-2.111,0.123-4.139-1.532-5.574c-3.331-2.887-9.195-1.274-10.58,2.91
		C927.66,881.293,930.618,885.19,934.498,885.119z M749.569,1055.385c4.235-0.017,6.311-1.987,6.052-5.292
		c-0.246-3.136-2.933-5.327-6.139-5.053c-1.666,0.143-2.911,1.007-4.03,2.146c-2.601,2.644-1.703,6.589,1.833,7.813
		C748.151,1055.298,749.116,1055.313,749.569,1055.385z M739.504,1094.14c0.311-0.019,0.625-0.022,0.934-0.059
		c2.065-0.248,3.024-1.716,2.289-3.662c-0.72-1.906-1.588-3.755-3.292-5.025c-1.339-0.999-2.793-1.423-4.371-0.592
		c-1.561,0.823-2.106,2.218-2.042,3.908C733.138,1091.781,735.878,1094.074,739.504,1094.14z"/>
	<path fill="#7D4B2B" d="M121.101,330.01c1.857,0.344,3.701,0.825,5.574,1.002c4.084,0.386,8.178,0.793,12.275,0.875
		c11.208,0.224,22.401,1.804,33.604,0.959c8.049-0.607,16.11-0.36,24.137-0.913c15.27-1.052,30.539-2.117,45.716-4.299
		c11.089-1.595,22.26-2.621,33.398-3.876c1.253-0.141,2.524-0.172,3.786-0.176c7.269-0.025,14.559-0.393,21.802,0.033
		c20.687,1.216,40.699,5.422,59.325,14.886c6.216,3.158,12.019,7.002,16.765,12.222c1.057,1.163,2.095,2.373,2.947,3.689
		c4.146,6.405,4.479,12.858,0.644,19.658c-4.469,7.922-10.416,14.205-18.467,18.504c-5.32,2.841-10.906,5.062-16.606,6.924
		c-18.489,6.037-36.515,13.283-54.627,20.331c-10.734,4.177-21.735,7.732-32.77,11.057c-13.332,4.017-26.411,8.683-39.318,13.867
		c-4.984,2.002-9.962,4.024-14.892,6.152c-8.876,3.832-17.139,8.794-25.254,14.003c-1.308,0.84-2.449,1.991-3.521,3.135
		c-1.348,1.438-1.408,3.144-0.409,4.808c0.565,0.94,1.223,1.859,1.991,2.637c4.994,5.06,9.895,10.224,15.094,15.067
		c4.645,4.327,10.164,7.501,15.769,10.435c9.936,5.201,19.962,10.233,29.89,15.451c3.487,1.833,6.815,3.973,10.179,6.033
		c2.061,1.262,3.562,3.098,4.859,5.112c3.984,6.189,2.271,13.502-4.27,16.994c-3.186,1.702-6.643,2.939-10.059,4.16
		c-5.207,1.862-10.479,3.54-15.732,5.272c-13.815,4.556-27.38,9.744-40.609,15.813c-6.747,3.095-13.594,5.971-20.381,8.979
		c-1.409,0.624-3.041,0.965-3.956,2.746c0.416,2.068,2.249,3.187,3.732,4.504c9.842,8.741,20.799,15.862,32.044,22.674
		c19.766,11.975,40.562,21.949,61.138,32.364c3.948,1.998,7.961,3.871,11.859,5.959c1.644,0.881,3.292,1.963,4.552,3.313
		c4.389,4.703,2.035,11.868-4.268,13.21c-1.224,0.26-2.512,0.268-3.772,0.302c-5.691,0.153-11.365,0.124-17.001-0.933
		c-8.537-1.601-17.148-2.842-25.634-4.67c-13.639-2.939-26.716-7.668-39.44-13.357c-11.409-5.101-22.5-10.799-32.762-17.991
		c-2.716-1.903-5.333-3.947-8.028-5.88c-0.856-0.614-1.691-1.502-2.946-0.922c-0.773,1.024-0.056,1.852,0.439,2.579
		c2.932,4.308,5.794,8.674,8.926,12.835c7.417,9.858,15.523,19.123,24.523,27.583c7.832,7.362,16.042,14.27,24.765,20.559
		c8.841,6.374,17.633,12.817,26.543,19.095c2.829,1.993,5.899,3.679,8.976,5.281c5.605,2.919,11.307,5.652,16.952,8.496
		c11.155,5.621,21.947,11.862,32.467,18.605c7.857,5.036,15.547,10.285,22.73,16.241c6.009,4.982,11.153,10.671,14.499,17.879
		c2.005,4.32,2.635,8.763,2.092,13.388c-0.6,5.101-3.687,8.618-7.861,11.251c-3.845,2.425-8.201,3.421-12.651,3.518
		c-9.31,0.203-18.611,0.48-27.923-0.639c-13.983-1.68-27.829-4.006-41.45-7.579c-13.316-3.493-26.352-7.822-38.934-13.452
		c-6.199-2.774-12.332-5.711-18.615-8.281c-4.96-2.029-10.029-3.869-15.179-5.339c-11.255-3.213-22.726-5.477-34.348-6.921
		c-1.877-0.233-3.778-0.349-5.67-0.363c-5.846-0.042-11.698-0.155-17.538,0.046c-3.933,0.135-7.854,0.72-11.77,1.189
		c-0.723,0.087-1.397,0.58-2.405,1.023c0.633,0.985,0.983,1.881,1.62,2.459c3.154,2.865,6.255,5.812,9.612,8.426
		c12.217,9.513,24.467,19.03,38.133,26.415c8.89,4.804,18.085,9.044,27.155,13.513c2.55,1.256,5.163,2.385,7.706,3.653
		c2.019,1.006,3.639,2.519,4.827,4.438c1.378,2.225,1.364,4.517-0.051,6.707c-1.317,2.037-3.038,3.594-5.488,4.242
		c-2.946,0.779-5.913,0.97-8.929,0.625c-6.607-0.755-13.113-2.03-19.508-3.847c-8.358-2.375-16.761-4.613-25.04-7.241
		c-6.316-2.004-12.5-4.44-18.676-6.854c-2.337-0.913-4.486-2.306-6.718-3.478c-0.657-1.609-1.315-3.221-1.971-4.829
		c-0.225-0.591-0.452-1.186-0.679-1.781c-0.393-1.004-0.786-2.007-1.177-3.007c-0.214-0.575-0.43-1.154-0.646-1.733
		c-0.731-1.956-1.461-3.912-2.19-5.863c-0.021-1.703-0.44-3.268-1.633-4.555c-2.335-6.976-4.671-13.952-7.004-20.925
		c-0.055-2.658-0.865-5.087-2.265-7.334c-0.202-0.709-0.405-1.419-0.604-2.125c0.168-1.734-0.289-3.294-1.34-4.684
		c-0.23-0.812-0.459-1.625-0.688-2.433c0.343-1.538-0.214-2.829-1.124-4.021c-0.19-0.738-0.379-1.476-0.567-2.21
		c-0.147-0.53-0.296-1.064-0.444-1.598c-0.182-0.718-0.363-1.436-0.543-2.15c-0.144-0.547-0.29-1.097-0.436-1.647
		c-0.171-0.71-0.341-1.419-0.51-2.126c-0.139-0.552-0.28-1.107-0.421-1.662c-0.172-0.722-0.344-1.445-0.514-2.164
		c-0.142-0.599-0.287-1.201-0.432-1.804c-0.258-1.113-0.516-2.225-0.773-3.334c-0.102-0.475-0.205-0.954-0.308-1.433
		c-0.194-0.788-0.388-1.577-0.582-2.361c-0.096-0.42-0.193-0.844-0.29-1.268c-0.154-0.71-0.308-1.42-0.46-2.125
		c0.34-1.02,0.177-1.942-0.559-2.747c-0.18-0.809-0.36-1.617-0.539-2.422c-0.087-0.461-0.174-0.925-0.262-1.39
		c-0.231-1.117-0.462-2.234-0.692-3.347c0.229-0.528,0.457-1.06,0.685-1.592c1.088,0.17,2.234,0.175,3.255,0.535
		c8.791,3.094,17.546,6.281,25.938,10.378c3.121,1.524,6.218,3.137,9.449,4.391c9.864,3.827,19.813,7.434,29.681,11.251
		c9.975,3.859,20.418,5.45,30.954,6.549c4.574,0.477,9.14,0.116,13.59-1.313c5.684-1.826,9.446-5.466,11.235-11.197
		c1.015-3.252,1.071-6.494,0.548-9.827c-1.433-9.138-5.36-17.181-11.036-24.331c-7.981-10.054-17.145-18.974-27.346-26.768
		c-5.641-4.31-11.469-8.381-17.305-12.426c-5.192-3.599-10.531-6.986-15.772-10.516c-7.464-5.027-14.971-9.994-22.326-15.177
		c-10.207-7.193-19.484-15.551-28.98-23.627c-0.638-0.543-0.947-1.471-1.424-2.245c1.571-1.733,3.503-2.001,5.291-2.507
		c4.894-1.386,9.508-3.424,13.924-5.912c4.782-2.694,8.629-6.394,11.323-11.185c4.246-7.552,5.561-15.439,1.978-23.618
		c-1.515-3.458-3.097-6.978-5.254-10.045c-5.083-7.227-10.469-14.246-15.86-21.251c-2.112-2.745-4.502-5.287-6.885-7.809
		c-1.402-1.484-3.018-2.768-4.577-4.097c-0.473-0.403-1.056-0.695-1.622-0.968c-0.922-0.444-2.049,0.005-2.309,0.945
		c-0.209,0.755-0.321,1.541-0.429,2.32c-0.754,5.471-1.534,10.94-2.231,16.418c-1.115,8.763-2.315,17.52-2.512,26.372
		c-0.021,0.946-0.108,1.891-0.171,2.836c-0.25,3.775-0.526,7.549-0.741,11.327c-0.09,1.575,0.103,3.177-0.094,4.734
		c-1.352,10.704-0.594,21.451-0.748,32.179c-0.02,1.42,0.018,2.844,0.109,4.262c0.533,8.34,1.021,16.683,1.657,25.016
		c0.635,8.334,1.191,16.685,2.21,24.977c1.173,9.552,2.844,19.041,4.237,28.567c0.478,3.27,0.771,6.567,1.149,9.852
		c-0.134,0.088-0.248,0.197-0.341,0.327c-0.489-1.987-1.087-3.953-1.45-5.963c-4.251-23.495-6.952-47.166-8.139-71.015
		c-1.86-37.354,0.137-74.502,5.93-111.442c7.678-48.953,21.618-96.051,41.91-141.277c6.146-13.698,12.823-27.12,19.992-40.303
		C119.25,332.549,120.23,331.309,121.101,330.01z M143.911,523.54c1.579,0,3.171,0.131,4.736-0.021
		c12.07-1.173,21.166-9.847,19.953-22.921c-0.244-2.626-1.04-5.278-2.026-7.741c-1.888-4.715-4.696-8.94-7.867-12.9
		c-4.736-5.913-9.579-11.728-14.986-17.065c-2.237-2.208-4.153-4.746-6.151-7.187c-0.813-0.993-0.51-2.177,0.609-2.795
		c0.688-0.38,1.437-0.648,2.152-0.982c5.719-2.677,11.437-5.356,17.153-8.037c4.43-2.078,8.769-4.383,13.306-6.194
		c8.944-3.571,17.966-6.954,27.016-10.248c5.186-1.888,10.445-3.607,15.752-5.121c8.205-2.341,16.446-4.563,24.299-7.945
		c8.901-3.833,17.29-8.47,24.031-15.663c1.873-1.999,3.321-4.209,4.394-6.687c2.426-5.603,1.188-11.698-2.927-16.221
		c-3.509-3.857-7.757-6.379-12.626-8.047c-10.951-3.751-22.139-6.367-33.696-7.336c-3.772-0.316-7.527-0.826-11.299-1.14
		c-7.069-0.588-14.145-1.1-21.219-1.638c-2.672-0.203-5.342-0.492-8.018-0.561c-3.621-0.093-7.276-0.31-10.863,0.057
		c-7.575,0.776-15.163,0.749-22.704,0.197c-4.573-0.335-9.133-0.472-13.704-0.619c-4.885-0.157-9.768,0.143-14.656-0.601
		c-6.599-1.005-6.645,0.559-8.478,4.513c-2.789,6.014-5.457,12.084-8.145,18.144c-5.508,12.417-10.57,25.017-15.061,37.834
		c-7.369,21.028-13.764,42.343-18.441,64.15c-1.143,5.332-1.234,5.367,3.469,8.457c10.701,7.031,21.78,13.4,33.258,19.087
		c5.657,2.803,11.133,5.971,16.795,8.764C126.127,521.1,134.703,523.653,143.911,523.54z M222.401,769.141
		c0.946-0.043,1.906,0.002,2.837-0.143c5.379-0.838,9.988-3.021,12.865-7.889c3.407-5.765,3.569-11.648,0.358-17.583
		c-5.311-9.817-18.199-11.327-25.494-2.944c-1.655,1.902-3.19,3.913-4.729,5.913c-3.947,5.13-3.978,14.863,3.4,19.617
		C214.944,768.243,218.492,769.265,222.401,769.141z M329.032,360.328c-0.047-6.406-4.631-11.06-10.882-11.114
		c-5.642-0.049-11.067,4.851-11.055,11.105c0.012,6.412,6.289,11.699,10.886,11.475C324.735,371.465,329.082,367.08,329.032,360.328
		z M141.933,561.692c0.18-5.616-4.244-10.408-9.837-10.657c-6.379-0.284-11.075,3.828-11.425,10.005
		c-0.291,5.143,4.974,10.327,10.578,10.783C135.916,572.203,141.872,566.614,141.933,561.692z M255.026,771.541
		c-0.626,5.085,5.378,9.889,10.166,9.681c4.98-0.216,9.684-5.017,9.681-9.913c-0.003-5.04-3.921-10.012-9.895-9.864
		C258.725,761.601,254.965,765.261,255.026,771.541z M296.811,342.933c-0.016-5.781-3.332-8.772-9.132-9.069
		c-4.529-0.231-9.295,4.628-8.994,8.958c0.373,5.375,3.954,8.892,9.373,9.218C292.134,352.285,297.48,347.723,296.811,342.933z
		 M176.276,541.28c0.08-4.795-3.966-8.993-8.578-8.901c-4.487,0.089-8.336,4.056-8.378,8.634c-0.045,4.934,3.804,8.89,8.581,8.819
		C172.52,549.763,176.197,546.009,176.276,541.28z"/>
	<path fill="#7D4B2B" d="M701.632,1139.914c1.312-0.469,2.593-1.075,3.942-1.387c10.617-2.457,21.3-4.645,31.861-7.321
		c18.845-4.776,37.342-10.682,55.553-17.518c16.885-6.339,33.379-13.525,49.292-21.998c6.685-3.559,13.201-7.452,19.676-11.387
		c13.358-8.119,26.636-16.368,39.947-24.562c0.403-0.248,0.823-0.472,1.214-0.738c2.831-1.927,2.442-3.686-0.133-4.839
		c-1.715-0.769-3.294-1.864-4.879-2.899c-8.039-5.247-11.694-12.974-12.45-22.281c-0.633-7.79,1.285-15.071,4.848-21.915
		c3.069-5.894,6.788-11.391,11.195-16.382c3.235-3.665,6.556-7.255,9.889-10.832c5.078-5.45,10.984-9.97,16.774-14.597
		c6.039-4.826,12.129-9.622,18.489-14.006c7.143-4.924,14.584-9.421,21.955-14.008c3.08-1.917,6.334-3.553,9.473-5.378
		c11.592-6.739,23.946-11.467,37.229-13.356c6.072-0.864,12.275-1.125,18.27,1.083c2.406,0.886,4.666,1.912,6.472,3.791
		c0.543,0.565,1.169,1.067,1.818,1.507c1.047,0.708,2.07,0.604,3.032-0.229c1.058-0.916,2.104-1.845,3.155-2.768
		c-0.773,1.356-1.408,2.815-2.339,4.051c-10.648,14.135-21.491,28.108-33.224,41.379c-15.826,17.901-32.678,34.758-50.674,50.473
		c-27.702,24.19-57.512,45.42-89.465,63.639c-26.964,15.374-54.955,28.546-84.124,39.186c-26.774,9.766-54.144,17.405-82.113,22.883
		C704.784,1139.804,703.194,1139.785,701.632,1139.914z"/>
	<path fill="#7D4B2B" d="M1147.635,645.261c0.014-4.564-0.035-9.13,0.068-13.691c0.057-2.516,0.532-5.027,0.54-7.54
		c0.051-16.1,0.188-32.203-0.049-48.299c-0.109-7.393-0.973-14.777-1.55-22.161c-0.307-3.928-0.736-7.847-1.102-11.77
		c-1.305-13.991-3.495-27.853-5.982-41.675c-3.636-20.218-8.64-40.11-14.526-59.773c-4.028-13.458-8.762-26.691-13.849-39.79
		c-0.327-0.843-0.926-1.58-1.409-2.384c-2.205,0.029-3.184,1.642-4.319,2.839c-2.706,2.853-5.974,4.727-9.759,5.485
		c-4.366,0.875-8.763,0.821-13.125-0.388c-6.588-1.826-11.931-5.702-16.857-10.197c-7.663-6.993-13.563-15.315-18.252-24.558
		c-4.441-8.754-8.198-17.777-10.947-27.189c-1.768-6.054-3.175-12.176-3.008-18.606c0.2-7.701,1.912-15.019,4.901-22.041
		c2.573-6.044,6.871-10.496,12.983-12.756c0.89-1.343,0.121-2.262-0.411-3.201c-1.08-1.902-2.792-3.464-3.097-5.781
		c1.033,1.168,2.206,2.24,3.078,3.517c18.115,26.532,34.321,54.155,47.824,83.341c11.828,25.566,21.902,51.778,29.671,78.865
		c8.687,30.285,14.808,61.072,18.285,92.392c3.267,29.428,3.96,58.924,2.603,88.483c-0.203,4.417-0.519,8.831-0.879,13.238
		C1148.364,642.848,1147.921,644.048,1147.635,645.261z"/>
	<path fill="#A9653C" d="M1131.132,736.953c-4.679-5.411-8.172-11.552-11.117-18.032c-1.368-3.011-2.8-5.994-4.111-9.029
		c-1.696-3.925-2.829-7.957-2.943-12.315c-0.156-5.949,1.629-11.173,5.154-15.847c3.28-4.35,7.373-7.743,12.389-9.954
		c3.674-1.619,7.462-2.474,11.5-1.673c0.763,0.151,1.564,0.109,2.349,0.157c0.243,0.133,0.484,0.269,0.722,0.409
		c-2.334,21.054-6.507,41.766-11.618,62.301c-0.341,1.368-0.911,2.679-1.374,4.016
		C1131.766,736.975,1131.449,736.964,1131.132,736.953z"/>
	<path fill="#7D4B2B" d="M1131.132,736.953c0.317,0.011,0.634,0.022,0.951,0.033c-0.284,1.855-0.395,3.755-0.877,5.557
		c-7.058,26.427-16.036,52.191-26.998,77.254c-14.273,32.633-31.469,63.647-51.769,92.926c-1.061,1.531-2.395,2.873-3.601,4.303
		c0.198-2.001,1.526-3.434,2.574-4.983c7.598-11.235,15.086-22.542,21.87-34.292c4.019-6.961,7.995-13.954,11.731-21.069
		c8.286-15.78,16.035-31.83,22.696-48.367c5.359-13.305,10.532-26.691,14.656-40.448c2.625-8.758,5.212-17.527,7.774-26.303
		C1130.578,740.058,1130.806,738.491,1131.132,736.953z"/>
	<path fill="#7D4B2B" d="M345.143,1086.72c1.749,0.684,3.546,1.267,5.24,2.068c7.695,3.64,15.365,7.334,23.036,11.022
		c5.746,2.763,11.771,4.53,18.15,4.851c2.783,0.14,4.86,0.979,5.904,3.772c0.662,1.769,2.272,2.526,3.953,3.114
		c11.904,4.165,23.746,8.518,35.725,12.453c11.986,3.937,24.211,7.092,36.506,9.921c8.449,1.944,16.96,3.614,25.437,5.438
		c1.515,0.326,3.184,0.252,4.409,1.468c-1.713-0.14-3.455-0.125-5.134-0.441c-32.616-6.122-64.468-15.005-95.383-27.063
		c-18.058-7.044-35.913-14.613-53.118-23.604C348.22,1088.859,346.715,1087.726,345.143,1086.72z"/>
	<path fill="#7D4B2B" d="M572.899,1148.758c1.549-0.17,3.097-0.482,4.647-0.486c15.094-0.038,30.188-0.038,45.282-0.003
		c1.55,0.004,3.099,0.308,4.648,0.473c-1.383,0.226-2.758,0.598-4.147,0.654c-15.426,0.628-30.855,0.625-46.282,0.012
		C575.657,1149.353,574.281,1148.982,572.899,1148.758z"/>
	<path fill="#7D4B2B" d="M997.931,221.2c-0.896-0.609-1.909-1.1-2.668-1.847c-4.693-4.617-9.349-9.272-13.964-13.966
		c-0.747-0.759-1.231-1.776-1.836-2.673c0.778,0.502,1.669,0.887,2.314,1.523c4.914,4.849,9.794,9.731,14.64,14.647
		C997.052,219.528,997.433,220.422,997.931,221.2z"/>
	<path fill="#7D4B2B" d="M516.943,1143.088c1.236-0.07,2.493-0.321,3.704-0.18c6.872,0.801,13.738,1.667,20.595,2.591
		c1.042,0.14,2.028,0.698,3.039,1.062c-0.931,0.055-1.878,0.252-2.788,0.141c-7.304-0.885-14.604-1.81-21.898-2.776
		C518.69,1143.807,517.826,1143.375,516.943,1143.088z"/>
	<path fill="#7D4B2B" d="M1021.671,247.738c-0.658-0.394-1.462-0.657-1.951-1.203c-2.789-3.117-5.524-6.283-8.218-9.483
		c-0.367-0.436-0.405-1.149-0.595-1.734c0.394,0.233,0.876,0.385,1.165,0.709C1015.43,239.801,1019.162,243.27,1021.671,247.738z"/>
	<path fill="#7D4B2B" d="M678.874,1143.689c0.54-0.301,1.049-0.772,1.625-0.876c3.846-0.699,7.699-1.369,11.567-1.93
		c0.882-0.128,1.83,0.202,2.747,0.321C689.626,1142.84,684.32,1143.716,678.874,1143.689z"/>
	<path fill="#7D4B2B" d="M1039.669,270.495c-0.638-0.413-1.447-0.694-1.887-1.261c-2.261-2.913-4.441-5.89-6.608-8.874
		c-0.251-0.346-0.249-0.875-0.364-1.319C1034.485,262.302,1037.372,266.171,1039.669,270.495z"/>
	<path fill="#7D4B2B" d="M975.763,199.249c-0.441-0.119-0.973-0.119-1.309-0.375c-3.163-2.407-6.186-4.962-8.276-8.424
		C969.422,192.391,973.249,195.904,975.763,199.249z"/>
	<path fill="#7D4B2B" d="M1009.354,233.515c-3.698-2.51-7.11-5.284-8.87-9.584C1004.046,226.567,1007.056,229.712,1009.354,233.515z
		"/>
	<path fill="#7D4B2B" d="M1030.15,258.172c-0.54-0.311-1.22-0.503-1.596-0.951c-2.295-2.73-5.147-5.068-6.251-8.657
		C1025.602,251.21,1028.178,254.444,1030.15,258.172z"/>
	<path fill="#7D4B2B" d="M332.839,1080.072c4.113,1.448,8.251,2.85,11.337,6.178C340.042,1084.84,336.176,1082.941,332.839,1080.072
		z"/>
	<path fill="#7D4B2B" d="M946.401,173.635c-3.562-1.462-6.543-3.652-8.664-6.917C941.149,168.369,944.053,170.653,946.401,173.635z"
		/>
	<path fill="#7D4B2B" d="M557.088,1147.669c2.781-0.081,5.564-0.243,8.344-0.193c0.856,0.016,1.701,0.613,2.551,0.943
		C564.299,1148.906,560.649,1148.934,557.088,1147.669z"/>
	<path fill="#7D4B2B" d="M631.466,1148.472c1.139-0.362,2.272-1.002,3.418-1.027c2.272-0.05,4.552,0.241,6.828,0.391
		C638.345,1148.832,634.927,1148.995,631.466,1148.472z"/>
	<path fill="#7D4B2B" d="M965.364,189.75c-3.241-0.88-5.187-3.222-6.762-5.983C961.428,185.118,963.608,187.194,965.364,189.75z"/>
	<path fill="#7D4B2B" d="M292.829,1055.533c3.138,0.868,5.793,2.459,7.719,5.143
		C297.544,1059.606,294.948,1057.928,292.829,1055.533z"/>
	<path fill="#7D4B2B" d="M933.13,163.198c-2.905-0.835-5.201-2.474-6.753-5.098C929.086,159.194,931.373,160.845,933.13,163.198z"/>
	<path fill="#7D4B2B" d="M957.765,183.119c-2.8-0.63-4.499-2.559-5.819-4.933C954.476,179.137,956.308,180.907,957.765,183.119z"/>
	<path fill="#7D4B2B" d="M547.302,1146.854c2.532-0.717,5.013-0.857,7.351,0.638
		C552.133,1148.072,549.686,1147.831,547.302,1146.854z"/>
	<path fill="#7D4B2B" d="M644.743,1147.556c2.356-1.706,4.876-1.362,7.429-0.596
		C649.753,1147.872,647.275,1148.049,644.743,1147.556z"/>
	<path fill="#7D4B2B" d="M1146.86,654.176c-0.689-2.197-0.8-4.344,0.548-6.365C1148.008,650,1147.862,652.125,1146.86,654.176z"/>
	<path fill="#7D4B2B" d="M1047.289,280.906c-2.39-1.18-3.522-3.276-4.169-5.724C1045.161,276.617,1046.49,278.568,1047.289,280.906z
		"/>
	<path fill="#A9653C" d="M73.101,756.145c1.399,2.247,2.21,4.676,2.265,7.334C73.919,761.245,72.937,758.872,73.101,756.145z"/>
	<path fill="#7D4B2B" d="M655.173,1146.609c2.021-1.622,4.226-1.33,6.471-0.625C659.555,1146.902,657.392,1147.048,655.173,1146.609
		z"/>
	<path fill="#7D4B2B" d="M326.17,1076.298c2.264,0.448,4.357,1.195,5.688,3.266C329.625,1079.062,327.679,1078.061,326.17,1076.298z
		"/>
	<path fill="#7D4B2B" d="M663.705,1145.688c1.692-1.555,3.579-1.392,5.534-0.63C667.467,1145.911,665.625,1146.139,663.705,1145.688
		z"/>
	<path fill="#7D4B2B" d="M1145.967,662.729c-0.717-1.585-0.667-3.091,0.461-4.485
		C1146.989,659.814,1146.798,661.304,1145.967,662.729z"/>
	<path fill="#7D4B2B" d="M951.069,177.47c-1.933-0.287-3.175-1.401-3.844-3.203C948.974,174.775,950.241,175.86,951.069,177.47z"/>
	<path fill="#7D4B2B" d="M672.236,1144.621c1.384-1.273,2.931-1.265,4.563-0.578C675.36,1144.884,673.833,1145.029,672.236,1144.621
		z"/>
	<path fill="#A9653C" d="M82.369,784.404c1.193,1.287,1.612,2.852,1.633,4.555C82.744,787.693,82.178,786.184,82.369,784.404z"/>
	<path fill="#A9653C" d="M71.157,749.337c1.051,1.39,1.508,2.949,1.34,4.684C71.437,752.631,70.798,751.126,71.157,749.337z"/>
	<path fill="#A9653C" d="M69.345,742.882c0.909,1.193,1.467,2.483,1.124,4.021C69.471,745.735,68.853,744.464,69.345,742.882z"/>
	<path fill="#7D4B2B" d="M316.6,1070.665c1.685,0.132,3.09,0.723,3.865,2.348C318.85,1072.766,317.535,1072.028,316.6,1070.665z"/>
	<path fill="#7D4B2B" d="M307.222,1064.915c1.637,0.189,3.014,0.789,3.766,2.378C309.401,1067.024,308.1,1066.304,307.222,1064.915z
		"/>
	<path fill="#7D4B2B" d="M1145.074,670.669c-0.238-0.14-0.479-0.277-0.722-0.409c0.366-1.159,0.732-2.317,1.099-3.474
		C1145.982,668.145,1145.665,669.42,1145.074,670.669z"/>
	<path fill="#7D4B2B" d="M321.353,1073.497c1.66,0.131,3.053,0.714,3.862,2.282C323.593,1075.582,322.288,1074.851,321.353,1073.497
		z"/>
	<path fill="#7D4B2B" d="M505.553,1141.238c1.355-0.681,2.585-0.58,3.646,0.581C507.893,1142.183,506.676,1142.004,505.553,1141.238
		z"/>
	<path fill="#7D4B2B" d="M311.877,1067.806c1.677,0.149,3.08,0.743,3.842,2.372C314.104,1069.927,312.803,1069.17,311.877,1067.806z
		"/>
	<path fill="#7D4B2B" d="M511.235,1142.204c1.346-0.7,2.577-0.609,3.656,0.528C513.588,1143.132,512.371,1142.945,511.235,1142.204z
		"/>
	<path fill="#7D4B2B" d="M1042.497,274.28c-1.383-0.486-2.095-1.478-2.207-2.922C1041.502,271.974,1042.28,272.915,1042.497,274.28z
		"/>
	<path fill="#7D4B2B" d="M273.945,1042.211c1.44,0.102,2.432,0.812,2.942,2.171C275.522,1044.177,274.547,1043.446,273.945,1042.211
		z"/>
	<path fill="#7D4B2B" d="M280.534,1046.981c1.459,0.076,2.468,0.779,2.994,2.151
		C282.148,1048.945,281.169,1048.203,280.534,1046.981z"/>
	<path fill="#7D4B2B" d="M253.113,1026.082c1.488,0.139,2.441,0.933,2.883,2.352
		C254.623,1028.153,253.704,1027.318,253.113,1026.082z"/>
	<path fill="#7D4B2B" d="M257.841,1029.874c1.478,0.151,2.467,0.904,2.895,2.347
		C259.392,1031.905,258.409,1031.146,257.841,1029.874z"/>
	<path fill="#7D4B2B" d="M262.63,1033.638c1.426,0.161,2.403,0.893,2.871,2.266C264.141,1035.658,263.199,1034.884,262.63,1033.638z
		"/>
	<path fill="#7D4B2B" d="M936.874,166.078c-1.466-0.135-2.455-0.877-2.91-2.292C935.326,164.053,936.29,164.824,936.874,166.078z"/>
	<path fill="#7D4B2B" d="M925.539,157.515c-1.467-0.086-2.468-0.801-2.966-2.194C923.948,155.532,924.909,156.299,925.539,157.515z"
		/>
	<path fill="#7D4B2B" d="M270.143,1039.37c1.452,0.119,2.454,0.832,2.942,2.224C271.725,1041.353,270.745,1040.611,270.143,1039.37z
		"/>
	<path fill="#7D4B2B" d="M266.364,1036.519c1.46,0.122,2.447,0.857,2.923,2.253C267.924,1038.525,266.964,1037.755,266.364,1036.519
		z"/>
	<path fill="#7D4B2B" d="M696.883,1140.782c0.776-0.925,1.673-1.105,2.708-0.444
		C698.688,1140.487,697.786,1140.635,696.883,1140.782z"/>
	<path fill="#A9653C" d="M61.699,705.503c-0.228,0.532-0.457,1.064-0.685,1.592c-0.811-0.933-0.976-2.014-0.752-3.183
		c0.095-0.125,0.209-0.235,0.343-0.322C60.97,704.229,61.335,704.866,61.699,705.503z"/>
	<path fill="#A9653C" d="M62.507,714.254c0.736,0.805,0.899,1.727,0.559,2.747C62.321,716.196,62.092,715.29,62.507,714.254z"/>
	<path fill="#A9653C" d="M67.355,735.278c0.146,0.55,0.293,1.1,0.436,1.647C67.219,736.485,66.944,735.972,67.355,735.278z"/>
	<path fill="#A9653C" d="M66.424,731.49c0.141,0.555,0.283,1.11,0.421,1.662C66.277,732.703,66,732.185,66.424,731.49z"/>
	<path fill="#A9653C" d="M63.525,719.126c0.097,0.424,0.194,0.847,0.29,1.268C63.718,719.969,63.622,719.548,63.525,719.126z"/>
	<path fill="#A9653C" d="M65.478,727.522c0.145,0.602,0.289,1.205,0.432,1.804C65.764,728.722,65.621,728.122,65.478,727.522z"/>
	<path fill="#7D4B2B" d="M277.797,1045.022c0.91,0.092,1.557,0.543,1.902,1.401C279.064,1045.956,278.431,1045.489,277.797,1045.022
		z"/>
	<path fill="#A9653C" d="M157.915,273.322c-0.043,0.829-0.396,1.411-1.264,1.574C157.073,274.369,157.494,273.846,157.915,273.322z"
		/>
	<path fill="#7D4B2B" d="M284.438,1049.762c0.636,0.452,1.273,0.903,1.908,1.354C285.71,1050.665,285.074,1050.214,284.438,1049.762
		z"/>
	<path fill="#7D4B2B" d="M287.217,1051.691c0.929,0.074,1.598,0.514,1.956,1.389C288.52,1052.617,287.869,1052.154,287.217,1051.691
		z"/>
	<path fill="#7D4B2B" d="M290.017,1053.617c0.951,0.058,1.632,0.504,1.999,1.396
		C291.349,1054.547,290.683,1054.082,290.017,1053.617z"/>
	<path fill="#A9653C" d="M64.397,722.755c0.103,0.479,0.206,0.958,0.308,1.433C64.602,723.708,64.5,723.232,64.397,722.755z"/>
	<path fill="#A9653C" d="M88.015,799.562c0.227,0.595,0.454,1.19,0.679,1.781C88.466,800.747,88.241,800.155,88.015,799.562z"/>
	<path fill="#7D4B2B" d="M301.411,1061.192c0.934,0.043,1.61,0.471,1.998,1.331C302.742,1062.079,302.077,1061.635,301.411,1061.192
		z"/>
	<path fill="#7D4B2B" d="M304.301,1063.058c0.655,0.427,1.311,0.855,1.965,1.282C305.61,1063.912,304.955,1063.485,304.301,1063.058
		z"/>
	<path fill="#A9653C" d="M86.192,794.822c0.216,0.579,0.432,1.158,0.646,1.733C86.621,795.975,86.407,795.399,86.192,794.822z"/>
	<path fill="#A9653C" d="M68.334,739.075c0.149,0.534,0.298,1.068,0.444,1.598C68.189,740.259,67.915,739.763,68.334,739.075z"/>
	<path fill="#A9653C" d="M61.706,710.442c0.088,0.464,0.175,0.929,0.262,1.39C61.88,711.366,61.793,710.904,61.706,710.442z"/>
	<path fill="#A9653C" d="M713.09,661.102c-0.184,11.268-3.086,21.231-8.76,30.201c-3.019,4.773-6.877,9.066-11.319,12.675
		c-4.679,3.802-10.227,5.509-16.115,6.335c-18.084,2.537-35.176-1.015-51.669-8.323c-9.454-4.19-17.81-10.176-26.24-16.037
		c-7.915-5.503-15.905-10.859-24.57-15.173c-5.573-2.774-11.403-4.638-17.436-5.956c-9.587-2.095-19.046-4.622-28.096-8.463
		c-12.761-5.416-24.44-12.471-34.238-22.464c-5.211-5.315-10.474-10.584-14.232-17.045c-3.808-6.546-7.614-13.135-10.769-20.004
		c-2.721-5.924-3.827-12.351-2.568-18.967c0.324-1.703,0.394-3.453,0.694-5.162c0.889-5.07,3.092-9.601,5.904-13.851
		c8.145-12.307,18.975-21.504,32.427-27.536c8.673-3.889,17.67-6.931,27.028-8.652c9.652-1.774,19.356-2.569,29.208-1.264
		c7.201,0.954,14.44,1.677,21.52,3.302c10.507,2.412,20.451,6.508,30.402,10.573c12.997,5.309,24.37,13.284,35.626,21.456
		c7.553,5.484,14.649,11.532,21.084,18.291c7.403,7.776,14.666,15.712,20.648,24.664c2.533,3.791,4.719,7.861,6.645,11.999
		c3.263,7.011,6.327,14.123,9.233,21.291C711.214,642.169,712.674,651.829,713.09,661.102z"/>
	<path fill="#5B331A" d="M816.385,392.685c-0.252-3.638,0.29-7.21,1.28-10.733c1.068-3.799,2.014-7.634,3.165-11.407
		c2.971-9.736,7.149-18.896,13.509-26.927c1.757-2.219,3.67-4.358,5.758-6.264c5.366-4.897,7.574-10.879,7.672-18.121
		c0.135-9.923,0.639-19.867,2.817-29.616c1.722-7.708,4.817-14.755,10.908-20.033c2.967-2.57,6.179-4.953,9.57-6.921
		c11.737-6.81,24.323-11.252,37.854-12.878c10.033-1.206,17.908,2.896,24.25,10.188c6.796,7.814,10.439,17.088,12.264,27.282
		c2.143,11.971-0.029,23.268-4.424,34.27c-3.337,8.356-7.102,16.559-11.965,24.156c-3.141,4.907-6.597,9.631-10.162,14.244
		c-3.952,5.114-8.007,10.173-12.349,14.956c-5.299,5.838-10.798,11.496-16.901,16.548c-7.304,6.047-14.73,11.936-22.801,16.908
		c-4.01,2.47-8.374,4.388-12.66,6.378c-3.477,1.614-7.317,2.282-11.058,2.393c-7.632,0.227-14.746-1.692-20.392-7.221
		C817.934,405.202,815.849,399.411,816.385,392.685z"/>
	<path fill="#A9653C" d="M455.113,1041.14c-1.926,4.491-4.159,8.76-7.114,12.728c-4.787,6.43-10.905,10.884-18.358,13.528
		c-7.216,2.56-14.627,3.427-22.326,2.686c-10.848-1.045-20.917-4.364-30.583-9.217c-7.19-3.61-14.374-7.208-20.593-12.418
		c-2.777-2.326-5.526-4.686-8.334-6.975c-1.089-0.888-2.304-1.621-3.461-2.425c-1.035-1.376-1.957-2.856-3.124-4.108
		c-5.814-6.235-11.821-12.296-17.502-18.649c-3.465-3.875-6.681-8.018-9.617-12.309c-4.099-5.99-8.254-12.006-11.12-18.712
		c-3.593-8.405-3.864-16.895,0.656-25.109c2.561-4.655,6.291-8.266,10.942-10.873c3.491-1.957,7.281-3.157,11.215-3.63
		c4.852-0.583,9.741-1.033,14.624-1.142c15.048-0.338,29.492,2.728,43.534,8.019c9.81,3.696,19.149,8.266,27.636,14.445
		c3.441,2.505,6.786,5.166,9.99,7.967c4.157,3.634,8.285,7.326,12.148,11.265c7.898,8.055,14.484,17.087,19.455,27.259
		c3.06,6.263,4.692,12.702,3.132,19.714C455.732,1035.795,455.503,1038.485,455.113,1041.14z"/>
	<path fill="#A9653C" d="M839.152,176.286c0.578,6.279-0.641,12.289-2.965,18.065c-0.935,2.323-2.097,4.628-3.558,6.651
		c-4.992,6.919-11.931,9.779-20.27,8.378c-9.246-1.553-17.307-5.771-24.222-12.144c-11.694-10.779-21.456-23.143-29.76-36.649
		c-4.144-6.74-7.523-13.854-8.826-21.814c-1.285-7.851,0.165-15.163,4.357-21.786c3.295-5.207,8.007-8.927,14.113-10.498
		c5.924-1.524,11.852-1.572,17.744,0.318c10.414,3.341,19.382,8.955,27.288,16.518c7.064,6.758,12.165,14.877,17.123,23.132
		c1.864,3.104,3.542,6.336,5.087,9.612C838.278,162.457,839.823,169.176,839.152,176.286z"/>
	<path fill="#A9653C" d="M780.441,798.743c0.366,11.713-2.421,22.076-6.482,32.051c-3.561,8.749-9.116,16.163-17.078,21.589
		c-5.342,3.64-11.073,5.124-17.493,3.937c-3.189-0.59-6.096-1.841-8.563-3.815c-5.925-4.741-10.295-10.546-12.176-18.113
		c-2.643-10.631-2.351-21.253-0.443-31.916c1.561-8.721,4.352-17.114,6.927-25.563c1.765-5.79,5.365-10.306,9.949-14.1
		c2.611-2.161,5.668-3.5,8.995-3.968c8.792-1.237,16.513,1.13,23.182,7.062c8.942,7.954,12.78,18.114,13.176,29.814
		C780.477,796.982,780.441,798.245,780.441,798.743z"/>
	<path fill="#5B331A" d="M635.254,764.408c0.443,6.338-0.762,12.639-4.016,18.439c-4.718,8.411-11.661,13.937-21.218,16.014
		c-4.922,1.07-9.396,0.055-13.565-2.587c-3.24-2.053-5.966-4.733-8.196-7.795c-6.435-8.837-11.727-18.367-16.056-28.383
		c-2.896-6.702-4.611-13.883-4.866-21.135c-0.359-10.223,3.564-19.883,13.88-25.658c1.49-0.834,3.201-1.472,4.882-1.729
		c5.215-0.796,10.424-0.649,15.382,1.384c6.179,2.533,11.906,5.893,16.848,10.401c5.931,5.409,10.175,12.034,13.081,19.491
		C634.072,749.679,635.585,756.744,635.254,764.408z"/>
	<path fill="#5B331A" d="M595.489,956.71c-0.264,9.379-3.68,17.588-9.892,24.483c-4.853,5.386-10.029,10.504-15.793,14.974
		c-4.044,3.136-8.399,5.707-13.405,6.824c-5.077,1.132-10.214,2.462-15.367,2.671c-6.349,0.258-12.62-0.752-17.19-6.164
		c-3.047-3.608-4.173-7.718-3.745-12.289c0.56-5.977,3.19-11.275,6.301-16.205c3.385-5.364,6.011-11.101,9.114-16.59
		c6.965-12.319,17.5-20.093,31.174-23.595c8.145-2.086,19.28,1.897,24.606,10.522C594.127,945.933,595.637,951.149,595.489,956.71z"
		/>
	<path fill="#5B331A" d="M240.846,973.834c-2.92,0.135-5.49-0.573-7.967-1.661c-4.344-1.909-8.477-4.209-12.237-7.103
		c-1.483-1.141-2.793-2.538-4.042-3.942c-3.074-3.459-5.137-7.559-6.92-11.766c-1.422-3.355-2.198-6.879-1.423-10.599
		c0.287-1.377,0.203-2.827,0.393-4.229c0.517-3.816,2.303-6.764,5.781-8.673c5.068-2.781,10.235-3.839,15.886-1.847
		c3.158,1.113,6.206,2.406,8.781,4.513c3.651,2.988,7.251,6.059,10.658,9.32c4.357,4.172,6.697,9.542,7.814,15.357
		c1.041,5.42-0.414,10.305-4.263,14.373c-0.758,0.801-1.546,1.574-2.351,2.328C248.064,972.612,244.694,974.092,240.846,973.834z"/>
	<path fill="#A9653C" d="M722.612,474.57c0.302,3.396-0.89,7.285-2.915,10.948c-3.67,6.641-8.541,12.037-15.472,15.5
		c-5.715,2.855-16.554,2.611-22.534-3.447c-3.291-3.334-6.053-6.755-6.819-11.589c-0.754-4.758,0.054-9.122,2.498-13.174
		c2.116-3.508,4.351-6.95,6.673-10.326c1.905-2.77,4.377-4.957,7.504-6.346c7.46-3.313,14.828-3.035,21.807,1.093
		C719.502,460.866,722.752,466.407,722.612,474.57z"/>
	<path fill="#A9653C" d="M891.573,552.059c-9.799,0.806-16.921-8.075-17.249-16.629c-0.166-4.349,0.989-8.428,2.643-12.379
		c1.654-3.95,3.99-7.517,6.597-10.888c4.126-5.336,9.807-7.904,16.376-8.209c11.955-0.554,21.062,10.424,18.181,22.049
		c-2.139,8.63-6.817,15.887-13.698,21.581C900.663,550.695,896.31,552.4,891.573,552.059z"/>
	<path fill="#5B331A" d="M658.662,913.16c6.641-0.41,14.389,3.588,15.927,13.134c0.585,3.628-0.163,7.002-2.32,9.853
		c-2.282,3.017-4.99,5.684-8.506,7.378c-3.408,1.641-6.693,3.508-10.483,4.27c-3.426,0.689-6.632,0.122-9.652-1.375
		c-7.773-3.854-9.339-13.302-4.81-19.846c2.051-2.964,4.516-5.688,7.068-8.248C649.358,914.843,653.616,912.932,658.662,913.16z"/>
	<path fill="#A9653C" d="M658.074,497.518c0.522,10.48-8.592,16.561-16.25,16.63c-8.743,0.078-17.104-7.123-16.899-17.255
		c0.173-8.546,8.013-16.014,16.796-15.942C650.385,481.022,658.392,487.616,658.074,497.518z"/>
	<path fill="#A9653C" d="M788.872,279.203c-1.054-9.058,7.347-16.709,15.533-17.152c5.939-0.321,10.33,2.389,13.531,7.118
		c2.25,3.324,3.37,7.071,3.186,11.164c-0.28,6.255-3.376,10.897-8.778,13.574c-5.967,2.958-12.006,2.244-17.331-1.881
		C790.804,288.763,788.373,284.488,788.872,279.203z"/>
	<path fill="#A9653C" d="M476.192,945.867c-1.432,8.579-4.789,15.862-12.238,20.571c-4.046,2.557-8.532,2.41-12.605-0.065
		c-4.415-2.684-6.346-6.928-6.068-12.044c0.101-1.862,0.655-3.715,1.144-5.535c0.366-1.365,1.069-2.641,1.428-4.008
		c1.007-3.831,3.365-6.716,6.216-9.302c6.45-5.851,16.626-3.864,20.29,4.091C475.263,941.539,475.597,943.767,476.192,945.867z"/>
	<path fill="#5B331A" d="M662.793,817.176c-0.259,6.116-3.413,10.286-8.502,12.835c-5.191,2.6-10.391,2.31-15.048-1.564
		c-2.606-2.167-4.527-4.775-5.347-8.154c-0.633-2.608-0.32-5.073,1.075-7.276c1.258-1.987,2.676-3.923,4.299-5.619
		c4.366-4.563,11.66-5.498,16.956-2.09C660.515,808.068,662.262,812.39,662.793,817.176z"/>
	<path fill="#5B331A" d="M823.35,711.292c5.855-0.475,13.826,4.406,13.774,13.704c-0.043,7.718-5.558,13.164-13.142,13.35
		c-8.77,0.214-14.282-7.223-14.15-13.499C809.991,717.316,815.868,711.355,823.35,711.292z"/>
	<path fill="#A9653C" d="M978.683,385.778c0.937,0.105,1.875,0.202,2.81,0.318c4.923,0.611,7.982,3.64,9.565,8.034
		c1.581,4.386,0.993,8.628-2.031,12.424c-2.196,2.757-5.021,4.186-8.452,4.582c-4.828,0.796-8.558-1.11-11.49-4.791
		c-6.05-7.595-1.827-18.585,7.749-20.243C977.451,385.995,978.067,385.886,978.683,385.778z"/>
	<path fill="#A9653C" d="M727.244,886.665c-0.575-7.38,6.098-11.98,11.838-12.095c6.55-0.131,11.88,5.466,11.837,12.212
		c-0.042,6.693-5.418,12.022-11.95,12.103C733.052,898.959,726.536,893.221,727.244,886.665z"/>
	<path fill="#A9653C" d="M979.356,479.866c0.41-0.476,0.825-0.948,1.228-1.429c3.432-4.094,7.791-4.295,12.452-2.843
		c5.157,1.607,9.932,9.571,4.524,16.843c-4.01,5.393-11.706,6.019-16.594,1.353c-0.989-0.944-1.602-2.28-2.388-3.436
		C978.34,486.822,978.41,483.312,979.356,479.866z"/>
	<path fill="#5B331A" d="M919.053,424.237c-0.44,3.108-0.761,6.238-1.356,9.316c-0.526,2.721-2.481,4.298-5.249,4.661
		c-5.391,0.707-9.607-1.736-12.257-6.83c-2.136-4.107-1.286-10.111,2.318-13.453c2.459-2.28,5.088-3.573,8.463-3.362
		c4.701,0.294,7.485,3.002,7.834,7.752c0.046,0.625,0.006,1.257,0.006,1.886C918.893,424.217,918.973,424.227,919.053,424.237z"/>
	<path fill="#5B331A" d="M813.57,669.593c-6.741,0.673-11.507-5.534-11.487-10.514c0.02-5.203,5.146-10.632,10.676-10.397
		c6.511,0.276,11.218,4.674,11.183,10.943C823.91,665.16,819.333,669.56,813.57,669.593z"/>
	<path fill="#A9653C" d="M715.927,547.733c-0.008,6.245-3.805,9.877-10.069,10.01c-5.828,0.124-10.187-4.14-10.279-10.57
		c-0.082-5.702,5.612-10.247,10.506-10.105C711.553,537.227,715.934,541.968,715.927,547.733z"/>
	<path fill="#A9653C" d="M804.548,792.791c5.138,0.018,9.784,4.529,9.783,9.5c-0.001,5.259-4.748,10.191-9.852,10.164
		c-5.507-0.029-10.063-5.007-9.846-10.017C794.889,796.52,798.615,792.771,804.548,792.791z"/>
	<path fill="#5B331A" d="M268.411,1004.213c-5.355,0.732-9.937-4.659-9.714-9.221c0.291-5.944,3.499-9.746,9.118-9.795
		c6.081-0.054,9.817,3.655,10.03,9.496C278.006,999.099,274.199,1004.85,268.411,1004.213z"/>
	<path fill="#A9653C" d="M472.189,1005.9c-0.114-4.167,2.422-8.671,8.908-8.877c4.522-0.144,9.251,4.662,9.063,9.591
		c-0.197,5.157-4.244,8.902-9.621,8.826C476.911,1015.388,471.833,1011.907,472.189,1005.9z"/>
	<path fill="#A9653C" d="M816.392,577.505c0.05-5.264,3.313-8.238,8.573-8.505c4.132-0.21,8.714,4.655,8.481,8.369
		c-0.314,5.009-4.099,8.841-9.169,8.734C819.405,585.999,816.343,582.661,816.392,577.505z"/>
	<path fill="#A9653C" d="M890.372,196.528c-4.715,0.464-8.463-4.898-8.426-8.388c0.049-4.556,3.726-8.484,8.26-8.55
		c4.509-0.065,8.38,3.799,8.36,8.402C898.548,192.309,894.867,196.894,890.372,196.528z"/>
	<path fill="#5B331A" d="M585.049,817.034c-0.025,4.798-3.201,7.786-7.997,7.974c-4.244,0.166-7.923-4.851-8.001-7.901
		c-0.085-3.307,3.773-8.465,8.166-8.208C582.018,809.181,585.074,812.158,585.049,817.034z"/>
	<path fill="#5B331A" d="M825.68,492.252c-5.058,0.109-9.942-5.572-9.115-10.479c0.741-4.403,5.633-6.837,9.365-4.446
		c1.817,1.164,3.39,2.805,4.822,4.449c1.677,1.925,2.054,4.226,0.792,6.582C830.276,490.727,828.444,492.301,825.68,492.252z"/>
	<path fill="#5B331A" d="M577.297,859.158c-0.005,3.666-4.002,7.526-7.702,7.44c-4.001-0.093-6.978-3.217-7.237-7.206
		c-0.251-3.862,4.733-7.685,7.609-7.606C572.823,851.865,577.639,855.698,577.297,859.158z"/>
	<path fill="#7D4B2B" d="M679.347,308.342c9.037-0.513,17.877,0.807,26.494,3.757c1.635,0.56,3.369,0.823,5.052,1.246
		c7.858,1.977,15.372,4.721,22.029,9.512c9.021,6.492,14.035,15.341,14.893,26.298c0.434,5.542-1.211,10.929-3.459,16.054
		c-2.24,5.105-5.234,9.753-8.867,13.934c-7.097,8.168-15.268,15.025-24.929,20.074c-9.607,5.021-19.692,8.661-30.406,10.143
		c-10.948,1.514-21.957,1.956-33.032,0.763c-10.102-1.089-20.055-2.854-29.523-6.443c-14.141-5.361-22.66-15.663-24.748-30.79
		c-0.933-6.764,1.03-13.17,3.743-19.293c3.431-7.744,8.507-14.252,14.697-20.083c8.772-8.263,18.877-14.19,29.972-18.613
		c6.783-2.704,13.858-4.306,21.041-5.478C667.926,308.505,673.583,308.052,679.347,308.342z"/>
	<path fill="#7D4B2B" d="M380.794,278.285c-6.839,0.207-13.532-0.683-20.214-2.09c-5.788-1.219-11.24-3.2-16.313-6.174
		c-4.987-2.923-9.01-6.921-11.928-11.912c-4.867-8.321-4.266-16.919-0.885-25.536c2.352-5.996,6.344-10.887,10.964-15.256
		c7.439-7.036,16.164-12.113,25.613-15.868c10.266-4.079,20.671-7.811,31.016-11.694c2.66-0.999,5.345-1.937,7.977-3.005
		c9.708-3.94,19.733-6.772,30.142-7.901c9.147-0.992,18.322-0.883,27.197,2.035c8.241,2.709,15.531,7.061,21.299,13.615
		c4.473,5.084,7.431,10.995,8.084,17.821c0.222,2.323,0.128,4.759-0.316,7.047c-1.815,9.356-6.766,16.84-14.02,22.94
		c-5.842,4.913-12.353,8.74-19.062,12.289c-8.093,4.281-16.166,8.605-24.733,11.887c-3.683,1.411-7.394,2.795-11.182,3.876
		c-10.477,2.991-21.005,5.841-31.825,7.304C388.711,278.191,384.733,278.096,380.794,278.285z"/>
	<path fill="#7D4B2B" d="M355.201,779.531c0.158-9.116,4.622-15.491,12.365-19.44c7.026-3.583,14.64-4.717,22.563-3.742
		c17.227,2.121,33.061,8.132,47.843,17.031c4.73,2.847,9.244,6.052,13.112,10.08c4.154,4.325,8.778,8.224,12.174,13.231
		c1.768,2.607,3.354,5.34,4.977,8.043c1.767,2.943,2.111,6.179,2.189,9.564c0.135,5.848-3.034,9.408-7.753,11.989
		c-1.233,0.675-2.62,1.146-3.993,1.476c-6.291,1.509-12.581,3.031-18.916,4.337c-2.135,0.44-4.418,0.495-6.599,0.318
		c-8.851-0.719-17.598-2.135-25.839-5.582c-5.235-2.19-10.306-4.775-15.42-7.245c-5.559-2.684-10.851-5.825-15.91-9.37
		c-5.474-3.835-10.56-8.106-14.256-13.719c-1.982-3.01-3.676-6.274-5.028-9.614C355.785,784.605,355.675,781.994,355.201,779.531z"
		/>
	<path fill="#7D4B2B" d="M321.74,556.147c-3.186-0.409-6.496-0.652-9.73-1.284c-8.515-1.665-17.115-9.943-14.963-22.882
		c1.364-8.201,5.77-14.599,11.926-19.899c10.671-9.188,22.732-15.865,36.188-20.108c6.183-1.949,12.314-3.966,18.762-4.907
		c4.572-0.667,9.148-0.7,13.708-0.331c4.905,0.397,9.095,2.488,12.344,6.29c2.118,2.478,3.294,5.292,3.582,8.578
		c0.691,7.902-1.512,14.957-5.752,21.545c-3.996,6.21-9.172,11.23-15.119,15.508c-6.437,4.631-13.261,8.553-20.708,11.377
		c-6.095,2.311-12.41,3.697-18.808,4.732C329.441,555.368,325.665,555.682,321.74,556.147z"/>
	<path fill="#7D4B2B" d="M613.992,234.477c-11.483-0.333-21.596-3.961-29.599-12.552c-6.726-7.221-6.723-18.472-0.324-25.92
		c5.097-5.933,11.653-8.377,19.153-8.96c3.926-0.305,7.855-0.569,11.786-0.791c6.793-0.382,13.287,0.896,19.031,4.555
		c5.782,3.683,9.88,8.776,10.93,15.84c0.881,5.929-0.542,11.331-4.211,15.99c-3.052,3.875-6.797,6.953-11.536,8.771
		C624.305,233.296,619.346,234.697,613.992,234.477z"/>
	<path fill="#7D4B2B" d="M559.883,311.274c-0.535-0.037-2.127-0.019-3.672-0.276c-8.629-1.438-14.092-9.531-12.356-18.118
		c1.251-6.189,4.538-11.087,9.651-14.618c4.791-3.309,9.812-6.289,14.779-9.337c2.582-1.585,5.472-2.39,8.444-2.918
		c6.395-1.137,16.375,3.445,18.284,12.373c0.637,2.98,0.701,5.982-0.329,8.864c-0.737,2.063-1.569,4.163-2.765,5.979
		c-3.684,5.596-8.198,10.368-14.403,13.271c-1.284,0.601-2.536,1.271-3.817,1.881C569.204,310.519,565.945,311.251,559.883,311.274z
		"/>
	<path fill="#7D4B2B" d="M322.354,848.54c7.26-0.374,13.693,2.183,19.633,5.919c2.469,1.553,4.592,3.849,6.439,6.154
		c2.744,3.424,2.99,7.561,2.071,11.71c-0.658,2.971-2.794,4.858-5.39,6.243c-3.101,1.655-6.465,2.575-9.905,3.025
		c-7.56,0.988-14.754-0.251-21.473-3.986c-2.253-1.252-4.032-3.006-5.652-4.953c-0.398-0.479-0.714-1.042-0.99-1.604
		c-1.121-2.288-1.887-10.573-1.179-13.008c1.514-5.206,4.946-8.328,10.319-9.129C318.244,848.61,320.31,848.653,322.354,848.54z"/>
	<path fill="#7D4B2B" d="M262.435,483.175c-2.622-0.447-5.356-0.563-7.846-1.402c-7.371-2.483-9.722-10.735-5.043-16.924
		c1.264-1.672,2.716-3.084,4.652-3.901c2.46-1.039,4.895-2.202,7.448-2.945c5.025-1.463,9.659-0.585,13.715,2.897
		c1.431,1.229,3.09,2.206,4.451,3.501c5.287,5.033,4.312,11.737-2.218,15.137c-3.677,1.915-7.676,2.842-11.794,3.211
		c-1.095,0.098-2.206,0.015-3.309,0.015C262.472,482.9,262.453,483.037,262.435,483.175z"/>
	<path fill="#7D4B2B" d="M478.43,313.352c-2.474-0.39-5.043-0.479-7.406-1.222c-8.906-2.798-11.098-12.205-4.931-19.166
		c6.329-7.145,17.673-6.66,24.151-1.88c2.411,1.779,3.916,4.043,3.784,7.198c-0.073,1.729,0.063,3.466-0.003,5.195
		c-0.125,3.281-1.767,5.63-4.614,7.19C485.998,312.537,482.339,313.271,478.43,313.352z"/>
	<path fill="#7D4B2B" d="M518.242,358.565c1.967-0.065,4.081,0.359,6.063,1.526c1.352,0.796,2.826,1.382,4.233,2.086
		c0.986,0.493,2.016,0.934,2.916,1.557c5.809,4.018,5.515,12.446-0.782,15.64c-5.024,2.548-10.465,3.44-16.061,1.699
		c-0.301-0.094-0.598-0.203-0.892-0.317c-5.566-2.16-8.991-7.491-8.024-12.486C506.802,362.554,511.861,358.549,518.242,358.565z"/>
	<path fill="#7D4B2B" d="M378.837,698.041c4.504,1.521,9.741,3.778,12.734,8.954c2.98,5.155-0.737,10.844-6.71,10.689
		c-1.225-0.032-2.48-0.38-3.649-0.789c-3.825-1.34-6.789-3.888-9.285-6.998c-1.214-1.513-1.835-3.296-1.715-5.259
		C370.464,700.54,373.584,697.835,378.837,698.041z"/>
	<path fill="#7D4B2B" d="M1041.106,729.887c2.951,0.443,5.942,0.711,8.847,1.361c8.025,1.798,14.03,6.526,17.838,13.681
		c3.939,7.401,5.588,15.305,4.078,23.796c-1.574,8.844-5.005,16.92-9.362,24.657c-3.564,6.329-7.467,12.456-12.291,17.921
		c-2.504,2.836-5.212,5.491-7.808,8.247c-6.19,6.569-12.937,12.489-20.466,17.489c-6.594,4.38-13.441,8.326-21.047,10.651
		c-3.754,1.147-7.666,1.832-11.546,2.493c-2.86,0.487-5.681-0.295-8.328-1.311c-3.444-1.322-6.964-1.842-10.623-2.066
		c-11.168-0.684-20.428-5.312-27.188-14.275c-4.667-6.188-6.393-13.364-5.049-21.044c1.013-5.788,3.108-11.181,6.384-16.172
		c6.096-9.289,13.117-17.784,21.287-25.277c9.879-9.061,19.882-17.979,31.349-25.096c9.596-5.956,19.604-10.841,30.757-13.081
		C1032.267,730.989,1036.596,730.073,1041.106,729.887z"/>
	<path fill="#7D4B2B" d="M604.741,1040.191c9.977-0.249,18.782,1.49,27.412,4.183c6.025,1.88,12.024,3.832,17.645,6.82
		c4.906,2.608,9.602,5.533,13.656,9.297c5.024,4.666,9.281,10.009,10.873,16.87c1.452,6.256,1.744,12.53-1.853,18.325
		c-2.028,3.267-4.703,5.998-7.91,8.037c-2.911,1.851-6.005,3.537-9.223,4.754c-5.614,2.123-11.45,3.304-17.479,3.964
		c-13.977,1.53-26.927-1.543-39.341-7.664c-3.134-1.545-5.917-3.577-8.502-5.951c-1.605-1.473-3.431-2.819-5.374-3.787
		c-3.849-1.917-7.48-4.174-10.655-7.009c-6.375-5.692-10.428-12.788-10.583-21.452c-0.129-7.213,3.25-13.06,8.88-17.528
		c3.645-2.893,7.93-4.596,12.338-5.863C591.465,1041.221,598.39,1039.595,604.741,1040.191z"/>
	<path fill="#A9653C" d="M899.913,871.962c0.276,8.473-0.782,16.692-3.91,24.613c-2.237,5.663-5.396,10.669-9.983,14.743
		c-7.587,6.739-18.788,7.877-26.712,2.475c-1.918-1.307-3.716-2.992-5.094-4.854c-4.133-5.585-6.321-11.912-6.595-18.909
		c-0.393-10.037,2.054-19.398,6.651-28.222c2.256-4.332,4.796-8.518,7.254-12.742c1.92-3.3,4.452-6.108,7.231-8.706
		c2.614-2.443,5.73-3.949,9.205-4.558c5.134-0.9,9.687,0.405,13.489,4.081c4.676,4.521,6.623,10.308,7.346,16.523
		C899.395,861.566,899.557,866.775,899.913,871.962z"/>
	<path fill="#A9653C" d="M1060.053,454.442c-0.194,5.745-1.27,10.631-4.834,14.604c-5.155,5.748-11.773,6.978-19.044,5.78
		c-4.6-0.758-8.786-2.66-12.499-5.432c-6.686-4.992-12.008-11.186-15.626-18.743c-3.088-6.451-5.187-13.22-6.234-20.307
		c-0.541-3.664-0.396-7.318,0.969-10.742c2.43-6.096,6.479-10.443,13.466-11.08c2.565-0.234,5.045,0.279,7.415,1.236
		c11.055,4.463,20.542,11.073,27.894,20.554C1057.192,437.574,1059.533,445.975,1060.053,454.442z"/>
	<path fill="#7D4B2B" d="M787.885,962.251c3.955,0.167,7.905,0.041,11.748,1.241c2.439,0.762,4.671,1.827,6.646,3.496
		c4.746,4.013,5.602,8.681,3.131,14.49c-1.481,3.482-3.749,6.568-6.611,9.146c-6.624,5.966-14.311,9.678-23.119,11.146
		c-2.85,0.475-5.615,0.495-8.448-0.104c-2.768-0.585-5.58-1.008-8.392-1.333c-4.909-0.568-9.069-2.452-12.311-6.289
		c-4.205-4.975-4.453-11.886-0.302-16.951c2.505-3.056,5.407-5.662,9.053-7.469c6.273-3.109,12.85-5.287,19.661-6.698
		C781.844,962.325,784.899,962.454,787.885,962.251z"/>
	<path fill="#7D4B2B" d="M1010.743,546.731c0.389-9.395,2.259-18.429,7.042-26.662c1.013-1.745,2.32-3.397,3.778-4.793
		c6.306-6.038,15.686-4.914,20.343,2.486c3.493,5.551,4.669,11.67,3.441,18.145c-1.253,6.602-3.98,12.598-7.837,18.087
		c-1.269,1.805-2.595,3.571-3.831,5.398c-1.181,1.746-2.764,3.021-4.558,4.044c-7.352,4.196-14,0.126-16.508-5.59
		C1011.061,554.313,1010.522,550.593,1010.743,546.731z"/>
	<path fill="#A9653C" d="M1093.926,545.477c0.412-3.109,0.648-6.255,1.283-9.317c0.748-3.605,2.723-6.483,6.531-7.328
		c3.812-0.847,6.945,0.911,9.036,3.873c5.897,8.353,9.194,17.555,7.808,27.963c-0.468,3.519-1.933,6.633-4.726,9.001
		c-3.835,3.252-9.2,3.186-12.938-0.162c-1.935-1.733-3.11-3.918-3.97-6.33C1095.405,558.842,1094.248,551.534,1093.926,545.477z"/>
	<path fill="#A9653C" d="M475.823,1073.603c2.998,0.179,7.005,0.826,10.732,2.739c4.943,2.536,7.28,6.852,7.982,12.085
		c0.587,4.372-2.199,8.362-6.451,9.874c-6.503,2.313-15.923-0.918-19.681-6.775c-0.421-0.656-0.788-1.375-1.026-2.115
		c-0.583-1.809-1.444-3.426-2.503-5.027c-2.563-3.872-1.317-7.691,2.906-9.699C469.99,1073.635,472.329,1073.52,475.823,1073.603z"
		/>
	<path fill="#7D4B2B" d="M973.766,672.209c0.071-5.336,2.178-9.576,7.157-11.813c4.903-2.204,9.824-2.011,14.394,1.137
		c2.783,1.916,4.062,4.768,4.698,7.945c1.134,5.659-1.994,11.977-7.22,14.726c-5.205,2.738-11.523,1.755-15.723-2.449
		C974.651,679.333,973.737,676.683,973.766,672.209z"/>
	<path fill="#7D4B2B" d="M1069.625,641.71c0.609,7.433-5.397,12.407-12.459,12.305c-6.358-0.091-11.749-5.285-11.88-11.819
		c-0.14-7.005,4.785-12.748,12.269-12.595C1063.699,629.727,1070.263,634.135,1069.625,641.71z"/>
	<path fill="#7D4B2B" d="M519.593,1076.921c-0.598-6.217,5.277-11.169,10.765-11.269c6.1-0.112,11.723,5.77,12.005,11.603
		c0.25,5.17-6.047,11.512-11.153,11.349C524.568,1088.391,519.657,1083.735,519.593,1076.921z"/>
	<path fill="#7D4B2B" d="M795.674,1080.039c-4.99,0.348-10.297-3.782-10.141-10.102c0.109-4.424,3.48-9.785,10.021-9.872
		c5.435-0.072,10.579,5.327,10.387,10.129C805.699,1076.231,801.795,1080.137,795.674,1080.039z"/>
	<path fill="#7D4B2B" d="M576.322,1113.546c-0.129,4.955-4.964,8.744-9.589,7.502c-3.035-0.815-6.015-1.815-9.07-2.608
		c-4.301-1.116-5.83-6.352-3.237-9.98c1.513-2.117,3.486-3.614,6.072-4.261c4.048-1.012,7.868-0.387,11.424,1.665
		C574.913,1107.59,576.185,1110.396,576.322,1113.546z"/>
	<path fill="#7D4B2B" d="M1004.447,277.111c-5.779-0.06-9.701-4.061-9.714-9.91c-0.012-5.299,4.747-9.94,10.073-9.824
		c5.174,0.113,9.677,4.613,9.716,9.71C1014.567,273.123,1010.496,277.174,1004.447,277.111z"/>
	<path fill="#A9653C" d="M897.006,802.288c-0.009,5.358-3.975,9.351-9.218,9.28c-5.04-0.068-9.434-4.429-9.417-9.346
		c0.017-4.947,4.41-9.253,9.47-9.282C893.064,792.91,897.014,796.939,897.006,802.288z"/>
	<path fill="#7D4B2B" d="M958.24,720.792c4.865,0.036,8.857,3.892,8.836,8.535c-0.021,4.662-4.035,8.466-8.91,8.446
		c-5.034-0.021-8.948-4.031-8.83-9.048C949.437,724.446,953.575,720.758,958.24,720.792z"/>
	<path fill="#7D4B2B" d="M1011.673,323.161c-0.03,3.548-3.058,6.715-6.481,6.779c-3.542,0.066-6.747-3.334-6.666-7.073
		c0.078-3.63,3.038-6.726,6.48-6.777C1008.625,316.036,1011.706,319.304,1011.673,323.161z"/>
	<path fill="#A9653C" d="M934.498,885.119c-3.88,0.071-6.838-3.826-5.643-7.435c1.386-4.184,7.249-5.797,10.58-2.91
		c1.655,1.435,2.213,3.462,1.532,5.574C940.134,882.934,937.24,885.069,934.498,885.119z"/>
	<path fill="#7D4B2B" d="M749.569,1055.385c-0.453-0.072-1.418-0.087-2.284-0.386c-3.535-1.224-4.434-5.169-1.833-7.813
		c1.12-1.138,2.364-2.003,4.03-2.146c3.206-0.274,5.893,1.917,6.139,5.053C755.881,1053.398,753.804,1055.368,749.569,1055.385z"/>
	<path fill="#7D4B2B" d="M739.504,1094.139c-3.625-0.064-6.366-2.358-6.482-5.429c-0.064-1.69,0.481-3.085,2.042-3.908
		c1.578-0.832,3.032-0.407,4.371,0.592c1.703,1.271,2.571,3.119,3.292,5.025c0.735,1.946-0.224,3.414-2.289,3.662
		C740.129,1094.118,739.815,1094.121,739.504,1094.139z"/>
	<path fill="#5B331A" d="M143.911,523.54c-9.207,0.113-17.784-2.44-25.944-6.465c-5.662-2.793-11.138-5.961-16.795-8.764
		c-11.479-5.687-22.557-12.057-33.258-19.087c-4.703-3.09-4.612-3.125-3.469-8.457c4.677-21.807,11.072-43.122,18.441-64.15
		c4.492-12.817,9.553-25.417,15.061-37.834c2.688-6.06,5.356-12.13,8.145-18.144c1.833-3.953,1.879-5.517,8.478-4.513
		c4.888,0.744,9.771,0.445,14.656,0.601c4.571,0.147,9.131,0.284,13.704,0.619c7.541,0.552,15.128,0.578,22.704-0.197
		c3.586-0.367,7.242-0.15,10.863-0.057c2.676,0.069,5.346,0.357,8.018,0.561c7.074,0.538,14.149,1.05,21.219,1.638
		c3.772,0.314,7.527,0.823,11.299,1.14c11.557,0.969,22.746,3.585,33.696,7.336c4.87,1.668,9.117,4.19,12.626,8.047
		c4.115,4.523,5.353,10.618,2.927,16.221c-1.073,2.478-2.521,4.688-4.394,6.687c-6.741,7.193-15.131,11.829-24.031,15.663
		c-7.853,3.382-16.094,5.604-24.299,7.945c-5.306,1.514-10.566,3.233-15.752,5.121c-9.05,3.295-18.072,6.677-27.016,10.248
		c-4.537,1.811-8.876,4.116-13.306,6.194c-5.717,2.681-11.435,5.36-17.153,8.037c-0.714,0.334-1.463,0.602-2.152,0.982
		c-1.12,0.618-1.422,1.803-0.609,2.795c1.998,2.441,3.914,4.979,6.151,7.187c5.407,5.337,10.25,11.152,14.986,17.065
		c3.171,3.959,5.978,8.185,7.867,12.9c0.986,2.462,1.782,5.115,2.026,7.741c1.213,13.074-7.883,21.748-19.953,22.921
		C147.082,523.671,145.49,523.54,143.911,523.54z M114.909,422.35c11.368-1.577,20.455-6.675,26.239-16.991
		c1.754-3.128,2.356-6.483,2.131-10.027c-0.406-6.385-4.796-10.791-11.2-11.284c-4.751-0.366-9.109,0.829-12.989,3.492
		c-2.486,1.706-5.1,3.044-7.84,4.287c-6.324,2.869-10.18,7.819-11.231,14.753c-0.995,6.564,2.864,12.75,9.185,14.695
		C110.987,421.826,112.892,421.983,114.909,422.35z M94.965,438.25c-6.836-0.688-13.317,6.447-13.277,12.648
		c0.047,7.333,5.74,13.495,12.962,13.599c6.906,0.1,13.452-5.547,13.402-13.061C108,443.873,102.589,438.293,94.965,438.25z
		 M196.326,391.034c0.096,5.254,4.104,9.119,9.434,9.095c5.327-0.024,9.262-3.95,9.272-9.251c0.01-5.343-4.25-9.439-9.727-9.356
		C200.093,381.602,196.228,385.697,196.326,391.034z M127.723,485.943c-3.727,0.015-6.843,3.268-6.756,7.053
		c0.092,4.008,3.637,7.386,7.738,7.373c3.716-0.012,6.745-3.22,6.697-7.094C135.35,489.158,131.966,485.927,127.723,485.943z"/>
	<path fill="#5B331A" d="M61.699,705.503c-0.365-0.637-0.729-1.274-1.094-1.913c-0.378-3.286-0.671-6.583-1.149-9.853
		c-1.393-9.526-3.064-19.015-4.237-28.567c-1.018-8.291-1.574-16.642-2.21-24.977c-0.635-8.332-1.124-16.676-1.657-25.016
		c-0.091-1.417-0.129-2.842-0.109-4.262c0.154-10.728-0.604-21.475,0.748-32.179c0.197-1.557,0.004-3.159,0.094-4.734
		c0.215-3.777,0.491-7.551,0.741-11.327c0.062-0.945,0.15-1.89,0.171-2.836c0.197-8.852,1.398-17.609,2.512-26.372
		c0.697-5.479,1.477-10.947,2.231-16.418c0.107-0.779,0.22-1.565,0.429-2.32c0.26-0.94,1.386-1.39,2.309-0.945
		c0.566,0.273,1.149,0.565,1.622,0.968c1.559,1.329,3.175,2.614,4.577,4.097c2.382,2.522,4.772,5.064,6.885,7.809
		c5.391,7.005,10.777,14.024,15.86,21.251c2.157,3.067,3.739,6.587,5.254,10.045c3.582,8.179,2.267,16.066-1.978,23.618
		c-2.694,4.792-6.541,8.492-11.323,11.185c-4.416,2.488-9.03,4.527-13.924,5.912c-1.788,0.506-3.72,0.775-5.291,2.507
		c0.477,0.774,0.787,1.703,1.424,2.245c9.496,8.077,18.773,16.434,28.98,23.627c7.355,5.183,14.862,10.15,22.326,15.177
		c5.241,3.53,10.58,6.917,15.772,10.516c5.836,4.045,11.665,8.117,17.305,12.426c10.202,7.795,19.365,16.715,27.346,26.768
		c5.676,7.15,9.603,15.193,11.036,24.331c0.523,3.333,0.467,6.575-0.548,9.827c-1.789,5.731-5.551,9.371-11.235,11.197
		c-4.449,1.429-9.016,1.79-13.59,1.313c-10.536-1.099-20.979-2.69-30.954-6.549c-9.868-3.817-19.817-7.424-29.681-11.251
		c-3.231-1.254-6.328-2.867-9.449-4.391c-8.392-4.097-17.147-7.284-25.938-10.378C63.933,705.679,62.787,705.673,61.699,705.503z
		 M112.195,673.295c-3.39-0.104-6.638,0.408-9.645,1.997c-5.427,2.868-7.39,8.476-4.924,14.074c0.442,1.004,0.991,1.98,1.615,2.883
		c6.701,9.684,16.447,13.811,27.728,15.081c0.771,0.087,1.587,0.008,2.353-0.14c2.911-0.565,5.439-1.913,6.902-4.531
		c1.697-3.036,2.864-6.326,3.131-9.841c0.334-4.389-1.09-8.145-4.595-10.857C128.12,676.824,120.685,673.642,112.195,673.295z
		 M67.616,657.739c1.964,0.062,3.634-1.515,3.717-3.509c0.072-1.738-1.362-3.267-3.226-3.438c-2.04-0.187-3.875,1.292-3.956,3.189
		C64.068,655.94,65.67,657.678,67.616,657.739z"/>
	<path fill="#5B331A" d="M222.401,769.141c-3.91,0.124-7.457-0.898-10.764-3.029c-7.379-4.755-7.348-14.487-3.4-19.617
		c1.539-2,3.074-4.01,4.729-5.913c7.295-8.383,20.183-6.874,25.494,2.944c3.211,5.935,3.049,11.818-0.358,17.583
		c-2.877,4.868-7.486,7.051-12.865,7.889C224.308,769.143,223.348,769.098,222.401,769.141z"/>
	<path fill="#5B331A" d="M329.032,360.328c0.05,6.751-4.297,11.137-11.051,11.466c-4.597,0.224-10.874-5.063-10.886-11.475
		c-0.012-6.254,5.413-11.154,11.055-11.105C324.402,349.269,328.985,353.923,329.032,360.328z"/>
	<path fill="#5B331A" d="M141.933,561.692c-0.06,4.923-6.016,10.511-10.684,10.131c-5.604-0.457-10.869-5.64-10.578-10.783
		c0.35-6.177,5.046-10.289,11.425-10.005C137.689,551.283,142.112,556.076,141.933,561.692z"/>
	<path fill="#5B331A" d="M255.026,771.541c-0.061-6.28,3.699-9.941,9.952-10.096c5.974-0.148,9.892,4.824,9.895,9.864
		c0.003,4.895-4.701,9.696-9.681,9.913C260.404,781.43,254.4,776.626,255.026,771.541z"/>
	<path fill="#5B331A" d="M296.811,342.933c0.669,4.79-4.677,9.352-8.753,9.107c-5.419-0.326-9-3.843-9.373-9.218
		c-0.301-4.33,4.465-9.189,8.994-8.958C293.479,334.161,296.795,337.152,296.811,342.933z"/>
	<path fill="#5B331A" d="M176.276,541.28c-0.079,4.729-3.756,8.483-8.375,8.552c-4.776,0.071-8.625-3.885-8.581-8.819
		c0.041-4.577,3.891-8.544,8.378-8.634C172.31,532.287,176.356,536.485,176.276,541.28z"/>
	<path fill="#A9653C" d="M114.909,422.35c-2.017-0.367-3.921-0.524-5.706-1.073c-6.321-1.946-10.18-8.131-9.185-14.695
		c1.051-6.934,4.906-11.884,11.231-14.753c2.74-1.243,5.355-2.581,7.84-4.287c3.88-2.664,8.238-3.858,12.989-3.492
		c6.404,0.493,10.795,4.899,11.2,11.284c0.225,3.543-0.377,6.898-2.131,10.027C135.364,415.675,126.276,420.773,114.909,422.35z"/>
	<path fill="#A9653C" d="M94.965,438.25c7.624,0.043,13.035,5.623,13.086,13.187c0.05,7.514-6.495,13.161-13.402,13.061
		c-7.222-0.105-12.914-6.266-12.962-13.599C81.648,444.698,88.129,437.562,94.965,438.25z"/>
	<path fill="#A9653C" d="M196.326,391.034c-0.097-5.338,3.768-9.432,8.979-9.512c5.477-0.084,9.737,4.013,9.727,9.356
		c-0.01,5.301-3.945,9.228-9.272,9.251C200.43,400.153,196.422,396.289,196.326,391.034z"/>
	<path fill="#A9653C" d="M127.723,485.943c4.243-0.017,7.627,3.215,7.679,7.332c0.049,3.873-2.981,7.082-6.697,7.094
		c-4.101,0.013-7.646-3.365-7.738-7.373C120.88,489.211,123.996,485.958,127.723,485.943z"/>
	<path fill="#A9653C" d="M112.195,673.295c8.489,0.347,15.925,3.529,22.565,8.666c3.506,2.712,4.929,6.469,4.595,10.857
		c-0.268,3.515-1.435,6.805-3.131,9.841c-1.463,2.618-3.991,3.965-6.902,4.531c-0.766,0.149-1.582,0.227-2.353,0.14
		c-11.282-1.271-21.027-5.398-27.728-15.081c-0.625-0.903-1.173-1.879-1.615-2.883c-2.465-5.597-0.503-11.206,4.924-14.074
		C105.558,673.703,108.806,673.192,112.195,673.295z"/>
	<path fill="#A9653C" d="M67.616,657.739c-1.946-0.062-3.548-1.8-3.465-3.758c0.081-1.897,1.916-3.376,3.956-3.189
		c1.863,0.171,3.298,1.7,3.226,3.438C71.251,656.225,69.581,657.801,67.616,657.739z"/>
</g>
</svg>
