<?xml version="1.0" encoding="UTF-8"?>
<svg id="neptune" xmlns="http://www.w3.org/2000/svg" version="1.1" viewBox="0 0 800 800">
  <!-- Generator: Adobe Illustrator 29.1.0, SVG Export Plug-In . SVG Version: 2.1.0 Build 142)  -->
  <defs>
    <style>
      .st0 {
        fill: #5d9cec;
      }

      .st1 {
        fill: #4a89dc;
      }
    </style>
  </defs>
  <g id="neptune-group">
    <path id="neptune-background" class="st0" d="M800,400c0,220.9-179.1,400-400,400S0,620.9,0,400,179.1,0,400,0s400,179.1,400,400Z"/>
   <g id="neptune-lines">
    <path class="st1" d="M450,200H53.5c-6.2,10.8-12,21.9-17.2,33.3h413.7c9.2,0,16.7-7.5,16.7-16.7s-7.5-16.7-16.7-16.7Z"/>
    <path class="st1" d="M724.9,633.3h-308.3c-9.2,0-16.7,7.5-16.7,16.7s7.5,16.7,16.7,16.7h281.5c9.5-10.6,18.5-21.7,26.8-33.3Z"/>
    <path class="st1" d="M233.3,533.3H22.8c4,11.4,8.5,22.5,13.5,33.3h197c9.2,0,16.7-7.4,16.7-16.7s-7.5-16.7-16.7-16.7Z"/>
    <path class="st1" d="M566.7,416.7c0,9.2,7.4,16.7,16.7,16.7h215.3c.9-11,1.4-22.1,1.4-33.3h-216.7c-9.2,0-16.7,7.4-16.7,16.7Z"/>
    <path class="st1" d="M116.7,383.3c0-9.2-7.5-16.7-16.7-16.7H1.4C.5,377.7,0,388.8,0,400h100c9.2,0,16.7-7.5,16.7-16.7Z"/>
    <path class="st1" d="M283.3,100c9.2,0,16.7-7.5,16.7-16.7s-7.5-16.7-16.7-16.7h-104.5c-15.2,10.1-29.7,21.3-43.4,33.4h147.9Z"/>
    <path class="st1" d="M533.3,416.7c0,27.6-44.8,50-100,50s-100-22.4-100-50,44.8-50,100-50,100,22.4,100,50Z"/>
   </g>
  </g>
</svg>