<?xml version="1.0" encoding="UTF-8"?>
<svg id="saturn" xmlns="http://www.w3.org/2000/svg" version="1.1" viewBox="0 0 502.7 502.7">
  <!-- Generator: Adobe Illustrator 29.1.0, SVG Export Plug-In . SVG Version: 2.1.0 Build 142)  -->
  <defs>
    <style>
      .st0 {
        fill: none;
      }

      .st1 {
        fill: #ffd042;
      }

      .st2 {
        fill: #d49e6c;
      }

      .st3 {
        fill: #b68057;
      }

      .st4 {
        fill: #dbb246;
      }

      #saturn-group:hover {
        animation: UpDown 1s;
      }

      #saturn-group:hover #saturn-inner-ring path {
        animation: colour 1s;
      }

      @keyframes UpDown {
    0% { transform: translateY(0); } 
    50% { transform: translateY(-10px); }
    100% { transform: translateY(0); }
  }
      @keyframes colour {
    0% { fill: #b68057; } 
    50% { fill: azure; }
    100% { fill: #b68057; }
  }
    </style>

    <script>
    const satObj = document.querySelector('#saturn');

    function logId() {
      console.log(this.id);
    }

    satObj.addEventListener('click',logId);
    </script>
  </defs>

  <g id="saturn-group">
   <g id="saturn-inner-ring">
    <path class="st0" d="M395.4,251.4c0,1,0,1.9,0,2.9,0-1,0-1.9,0-2.9Z"/>
    <path class="st3" d="M434.6,175.6c-.7-1.7-6-4.6-20.3-4.6s-21.3,1.1-38.2,4.3c-38.6,7.3-87.6,22.8-138,43.7s-96,44.6-128.4,66.7c-37.2,25.4-42.4,38.9-41.2,41.6,1.7,4.2,19.5,7.8,60.6-.1-1.2-1.9-2.3-3.9-3.4-5.9,0,0,0-.1-.1-.2-.5-.8-.9-1.7-1.4-2.5,0-.1-.2-.3-.2-.4-.4-.8-.8-1.6-1.2-2.4,0-.2-.2-.4-.3-.6-.4-.8-.8-1.5-1.1-2.3-.1-.2-.2-.5-.3-.7-.4-.8-.7-1.5-1-2.3-.1-.3-.2-.5-.3-.8-.3-.8-.7-1.5-1-2.3,0,0,0,0,0,0,5.5-10.3,33.9-28.7,74-48.4,15.8-7.8,33.4-15.7,52.1-23.5,66.3-27.5,124.4-43.1,140-38.4,2.9,7,5.3,14.3,7,21.8,34.7-23.4,44.7-38.6,43-42.8Z"/>
    <path class="st1" d="M279.7,110.1c.9.2,1.8.4,2.8.6-.9-.2-1.8-.4-2.8-.6Z"/>
    <path class="st1" d="M286.3,111.6c1,.3,2.1.5,3.1.8-1-.3-2.1-.6-3.1-.8Z"/>
    <path class="st1" d="M283,110.9c1,.2,2,.4,2.9.7-1-.2-1.9-.5-2.9-.7Z"/>
    <path class="st1" d="M336.4,135.1c-13.9-10.2-29.7-17.9-46.8-22.6,17.1,4.7,32.8,12.4,46.7,22.6,0,0,0,0,0,0Z"/>
    <path class="st1" d="M272.8,109c.8.1,1.6.3,2.4.4-.8-.1-1.6-.3-2.4-.4Z"/>
    <path class="st1" d="M269.4,108.5c.8,0,1.5.2,2.3.3-.8-.1-1.5-.2-2.3-.3Z"/>
    <path class="st1" d="M265.8,108.1c.7,0,1.4.2,2.1.2-.7,0-1.4-.2-2.1-.2Z"/>
    <path class="st1" d="M262.3,107.8c.6,0,1.3.1,1.9.2-.6,0-1.3-.1-1.9-.2Z"/>
    <path class="st1" d="M255.1,107.4c.4,0,.9,0,1.3,0-.4,0-.9,0-1.3,0Z"/>
    <path class="st1" d="M258.7,107.6c.6,0,1.1,0,1.7.1-.6,0-1.1,0-1.7-.1Z"/>
    <path class="st1" d="M276.3,109.5c.9.2,1.7.3,2.6.5-.9-.2-1.7-.3-2.6-.5Z"/>
    <path class="st1" d="M129,327.1c-1.2-1.9-2.3-3.9-3.5-5.9,1.1,2,2.3,3.9,3.4,5.9,0,0,0,0,0,0Z"/>
    <path class="st1" d="M119.8,309.8c.3.8.7,1.5,1,2.3-.4-.8-.7-1.5-1-2.3Z"/>
    <path class="st1" d="M122.6,315.7c.4.8.8,1.6,1.2,2.4-.4-.8-.8-1.6-1.2-2.4Z"/>
    <path class="st1" d="M124,318.5c.4.8.9,1.7,1.4,2.5-.5-.8-.9-1.7-1.4-2.5Z"/>
    <path class="st1" d="M121.2,312.8c.4.8.7,1.6,1.1,2.3-.4-.8-.8-1.5-1.1-2.3Z"/>
    <path class="st1" d="M118.5,306.8c.3.8.6,1.5,1,2.3-.3-.8-.7-1.5-1-2.3Z"/>
    <path class="st3" d="M141.9,344.4c0,0-.1,0-.2,0-24.3,5.1-46.1,7.9-64,7.9s-36.1-4.3-39.2-11.7c-8.6-20.9,60.5-83.6,192.7-138.2,75.4-31.1,148.2-49.7,194.9-49.7v-8s0,0,0,0c-45.8,0-119.3,17.8-198,50.3C106.3,245.4,18,311.9,31.1,343.7c4.6,11.3,21.4,16.6,46.5,16.6s43.1-3.1,70.2-9.1c0,0,0,0,.1,0-2.1-2.2-4.1-4.5-6.1-6.8Z"/>
    <line class="st0" x1="426.2" y1="144.8" x2="426.2" y2="144.8"/>
    <path class="st3" d="M465.3,164.4c5.4,13-19.3,42.1-70.4,75.3,0,0,0,0,0,0,.3,3,.4,6.1.5,9.2,0,0,0,0,0,0,54.3-34.5,85.5-67.8,77.3-87.6-4.6-11.3-21.4-16.6-46.5-16.6v8c21.8,0,36.1,4.3,39.1,11.7Z"/>
    </g>
    <g id="saturn-outer-ring">
    <path class="st2" d="M500.4,148.2h0c-9.4-22.6-43.8-31.2-99.5-25-19.9,2.2-41.6,6.2-64.6,11.9,0,0,0,0,0,0-36.8,9.1-76.7,22.3-116.9,39-38.6,16-76.8,35.1-110.3,55.3C37.9,272.3-11.7,320.3,2.4,354.5c7.4,17.8,31.4,26.9,68.1,26.9s58.5-4.6,95.9-13.8c0,0,0,0,0,0,0,0,0,0,.1,0-6.7-4.9-13-10.4-18.8-16.4-27.1,6-51.1,9.1-70.2,9.1s-41.9-5.4-46.5-16.6c-13.1-31.7,75.1-98.3,197.1-148.6,78.7-32.5,152.2-50.3,198-50.3h0c25.1,0,41.9,5.4,46.5,16.6,8.2,19.8-23.1,53.1-77.3,87.6,0,.8,0,1.6,0,2.3s0,1.9,0,2.9c-.2,6.6-.9,13-1.9,19.4,0,0,.1,0,.2-.1,79.4-48.1,119.3-94.8,106.7-125.3Z"/>
    <path class="st2" d="M231.3,202.4c-132.2,54.6-201.4,117.3-192.7,138.2,3.1,7.4,17.3,11.7,39.2,11.7s39.7-2.8,64-7.9c-4.6-5.4-8.8-11.2-12.6-17.3,0,0-.1,0-.2,0,0,0,0,0,0,0-41.1,8-58.9,4.3-60.6.1-1.1-2.7,4-16.2,41.2-41.6,32.4-22.1,78-45.8,128.4-66.7,50.4-20.9,99.4-36.4,138-43.7,17-3.2,29.3-4.3,38.2-4.3,14.4,0,19.6,2.9,20.3,4.6,1.7,4.2-8.3,19.4-42.9,42.8,0,0,0,0,0,0,1.7,7,2.8,14.1,3.4,21.4,51.1-33.3,75.8-62.4,70.4-75.3-3.1-7.4-17.3-11.7-39.1-11.7v-8,8c-46.7,0-119.6,18.6-194.9,49.7Z"/>
   </g>
   <g id="saturn-circle">
    <path class="st1" d="M395.4,254.2c0-1,0-1.9,0-2.9s0-1.6,0-2.3c0,0,0,0,0,0,0-3.1-.2-6.2-.5-9.2,0,0,0,0,0,0-.6-7.3-1.8-14.5-3.4-21.4,0,0,0,0,0,0-1.8-7.5-4.1-14.8-7-21.8-15.6-4.7-73.7,10.9-140,38.4-18.7,7.8-36.3,15.7-52.1,23.5-2.2,10.1-3.4,20.6-3.4,31.4,0,41.2,17.3,78.3,45,104.5-25.1-3-48.1-12.5-67.5-26.7,0,0,0,0,0,0,23.8,17.4,53.2,27.7,85,27.7,72,0,131.7-52.9,142.3-121.9,0,0-.1,0-.2.1,1-6.3,1.7-12.8,1.9-19.4Z"/>
    <path class="st4" d="M189,289.8c0-10.8,1.2-21.3,3.4-31.4-40.1,19.7-68.5,38.1-74,48.4,0,0,0,0,0,0,.3.8.6,1.5,1,2.3.1.3.2.5.3.8.3.8.7,1.5,1,2.3.1.2.2.5.3.7.4.8.7,1.6,1.1,2.3,0,.2.2.4.3.6.4.8.8,1.6,1.2,2.4,0,.1.2.3.2.4.4.8.9,1.7,1.4,2.5,0,0,0,.1.1.2,1.1,2,2.3,3.9,3.5,5.9,0,0,.1,0,.2,0,3.8,6.1,8,11.9,12.6,17.3,0,0,.1,0,.2,0,2,2.3,4,4.6,6.1,6.8,0,0,0,0-.1,0,5.8,6,12,11.5,18.8,16.4,0,0,0,0-.1,0,19.4,14.2,42.5,23.6,67.5,26.7-27.7-26.2-45-63.3-45-104.5Z"/>
    <path class="st4" d="M336.3,135.1c-13.9-10.2-29.7-17.9-46.7-22.6,0,0,0,0-.1,0-1-.3-2.1-.6-3.1-.8-.1,0-.2,0-.4,0-1-.2-1.9-.5-2.9-.7-.2,0-.4,0-.6-.1-.9-.2-1.8-.4-2.8-.6-.3,0-.5-.1-.8-.2-.9-.2-1.7-.3-2.6-.5-.3,0-.7-.1-1-.2-.8-.1-1.6-.3-2.4-.4-.4,0-.8-.1-1.2-.2-.8-.1-1.5-.2-2.3-.3-.5,0-.9-.1-1.4-.2-.7,0-1.4-.2-2.1-.2-.5,0-1.1,0-1.6-.1-.6,0-1.3-.1-1.9-.2-.6,0-1.2,0-1.9-.1-.6,0-1.1,0-1.7-.1-.8,0-1.5,0-2.3,0-.4,0-.9,0-1.3,0-1.2,0-2.4,0-3.6,0-72,0-131.7,52.9-142.3,121.9,33.5-20.2,71.7-39.3,110.3-55.3,40.2-16.6,80.1-29.9,116.9-39Z"/>
    </g>
  </g>
</svg>