<?xml version="1.0" encoding="UTF-8" standalone="no"?>
<!-- Created with Inkscape (http://www.inkscape.org/) -->
<svg xmlns:dc="http://purl.org/dc/elements/1.1/" xmlns:cc="http://creativecommons.org/ns#" xmlns:rdf="http://www.w3.org/1999/02/22-rdf-syntax-ns#" xmlns:svg="http://www.w3.org/2000/svg" xmlns="http://www.w3.org/2000/svg" xmlns:xlink="http://www.w3.org/1999/xlink" xmlns:sodipodi="http://sodipodi.sourceforge.net/DTD/sodipodi-0.dtd" xmlns:inkscape="http://www.inkscape.org/namespaces/inkscape" width="210mm" height="297mm" id="svg2" version="1.1" inkscape:version="0.48.1 " sodipodi:docname="Saturno.svg" viewBox="0 0 210mm 297mm">
<defs id="defs4">
<linearGradient id="linearGradient3784">
<stop style="stop-color:#e2a037;stop-opacity:1;" offset="0" id="stop3786"/>
<stop id="stop3772" offset="0.05158735" style="stop-color:#d6a862;stop-opacity:1;"/>
<stop id="stop3768" offset="0.13879162" style="stop-color:#cd9240;stop-opacity:1;"/>
<stop id="stop3766" offset="0.24675408" style="stop-color:#88612b;stop-opacity:1;"/>
<stop id="stop3764" offset="0.36733571" style="stop-color:#ec8303;stop-opacity:1;"/>
<stop id="stop3762" offset="0.52516937" style="stop-color:#e1cfbb;stop-opacity:1;"/>
<stop id="stop3760" offset="0.68056738" style="stop-color:#e4903f;stop-opacity:1;"/>
<stop style="stop-color:#885d34;stop-opacity:1;" offset="0.86639303" id="stop3770"/>
<stop style="stop-color:#be610d;stop-opacity:1;" offset="1" id="stop3788"/>
</linearGradient>
<inkscape:path-effect effect="spiro" id="path-effect3774" is_visible="true"/>
<linearGradient inkscape:collect="always" xlink:href="#linearGradient3784" id="linearGradient3758" x1="361.51013" y1="403.56677" x2="364.47015" y2="693.16656" gradientUnits="userSpaceOnUse"/>
</defs>
<sodipodi:namedview id="base" pagecolor="#ffffff" bordercolor="#666666" borderopacity="1.0" inkscape:pageopacity="0.0" inkscape:pageshadow="2" inkscape:zoom="0.80762735" inkscape:cx="189.74898" inkscape:cy="507.58815" inkscape:document-units="px" inkscape:current-layer="layer1" showgrid="false" inkscape:window-width="1366" inkscape:window-height="706" inkscape:window-x="-8" inkscape:window-y="-8" inkscape:window-maximized="1"/>
<metadata id="metadata7">
<rdf:RDF>
<cc:Work rdf:about="">
<dc:format>image/svg+xml</dc:format>
<dc:type rdf:resource="http://purl.org/dc/dcmitype/StillImage"/>
<dc:title/>
</cc:Work>
</rdf:RDF>
</metadata>
<g inkscape:label="Capa 1" inkscape:groupmode="layer" id="layer1">
<path id="path3782" d="m 106.25038,462.2736 c 20.64891,-31.24464 142.41178,-27.48386 282.04035,9.9295 139.62857,37.41336 246.93131,95.03053 249.18867,132.41288 L 555.31534,582.60019 C 550.31685,556.66081 477.22443,518.03243 382.79083,492.72903 288.35722,467.42562 205.71682,464.32552 188.41445,484.28939 L 106.25038,462.2736 z" style="fill:#93826a;fill-opacity:1;fill-rule:nonzero;stroke:none" inkscape:connector-curvature="0"/>
<path id="path3008" d="M 69.719119,457.76162 C 86.016913,407.97285 232.16955,401.57366 397.97893,443.66015 563.7883,485.74662 686.95053,560.50455 674.78466,611.34209 L 641.28364,602.8387 C 650.43347,561.86183 540.08936,498.9649 392.90294,461.60536 245.71652,424.24585 116.92535,426.44439 103.22015,466.265 l -33.501031,-8.50338 z" style="fill:#c8c4b7;fill-opacity:1;fill-rule:nonzero;stroke:none" inkscape:connector-curvature="0"/>
<path sodipodi:type="arc" style="fill:url(#linearGradient3758);fill-opacity:1;fill-rule:nonzero;stroke:none" id="path3764" sodipodi:cx="362.99014" sodipodi:cy="547.71735" sodipodi:rx="157.31844" sodipodi:ry="157.31844" d="m 520.30858,547.71735 a 157.31844,157.31844 0 1 1 -314.63687,0 157.31844,157.31844 0 1 1 314.63687,0 z" transform="translate(9.0570984,-29.965416)"/>
<path style="fill:#93826a;fill-opacity:1;fill-rule:nonzero;stroke:none" d="m 106.61435,460.91527 c 2.26016,37.3831 109.59029,95.0076 249.21885,132.42097 139.62857,37.41336 261.36406,41.1668 282.01017,9.92141 L 555.6793,581.24186 c -17.2985,19.96491 -99.91259,16.87186 -194.34619,-8.43155 -94.4336,-25.3034 -167.55234,-63.93884 -172.5547,-89.87925 l -82.16406,-22.01579 z" id="path3757" inkscape:connector-curvature="0"/>
<path style="fill:#c8c4b7;fill-opacity:1;fill-rule:nonzero;stroke:none" d="M 70.547879,453.54464 C 58.382494,504.3823 181.57674,579.14836 347.38613,621.23482 513.19549,663.32131 659.31614,656.914 675.61343,607.12511 L 642.1124,598.62172 C 628.40783,638.4425 499.64853,640.64913 352.46211,603.28961 205.27568,565.93008 94.899697,503.02503 104.04891,462.04803 l -33.501031,-8.50339 z" id="path2997" inkscape:connector-curvature="0"/>
</g>
</svg>
