<?xml version="1.0" encoding="UTF-8"?>
<svg id="telescope" xmlns="http://www.w3.org/2000/svg" version="1.1" viewBox="0 0 1200 1200">
  <!-- Generator: Adobe Illustrator 29.1.0, SVG Export Plug-In . SVG Version: 2.1.0 Build 142)  -->
  <defs>
    <style>
      .st0 {
        fill: none;
      }

      .st1 {
        fill: #253e91;
      }

      .st2 {
        fill: #c5d0cf;
      }

      .st3 {
        fill: #98a8a7;
      }

      .st4 {
        fill: #e5f2f3;
      }

      .st5 {
        fill: #2465aa;
      }

      .st6 {
        fill: #1d1d4b;
      }

      #telescope-group:hover {
        transform: scale(1.1);
        transition: transform 1s ease;
        transform-origin: center;
      }

      #telescope-group:hover #telescope-lens{
        fill: orange;
      }

    </style>

    <script>
    const telescopeObj = document.querySelector('#telescope');

    function logId() {
      console.log(this.id);
    }

    telescopeObj.addEventListener('click',logId);

    </script>

  </defs>
  <g id="telescope-group">
    <path class="st0" d="M751.6,188.3c.4.9.7,1.8,1.1,2.7h0c-.4-.9-.7-1.8-1.1-2.7Z"/>
    <path class="st0" d="M754.7,195.6c.6,1.3,1.2,2.6,1.7,3.9h0c-.6-1.3-1.2-2.6-1.7-3.9Z"/>
    <path class="st0" d="M668.5,753.8c0-.2.1-.4.2-.7,0,.2-.1.4-.2.7Z"/>
    <path class="st0" d="M692.3,352.8c.2,0,.5,0,.8,0h0c-.3,0-.5,0-.8,0Z"/>
    <path class="st0" d="M810.5,279.5h0c-1-1.2-1.9-2.4-2.9-3.6,1,1.2,1.9,2.4,2.9,3.6Z"/>
    <path class="st0" d="M794.2,303.2c0,0-.1-.2-.1-.3,0,.1,0,.2.1.3Z"/>
    <path class="st0" d="M754.3,193.1c.2.6.4,1.2.4,1.9,0-.7-.1-1.3-.4-1.9Z"/>
    <path class="st0" d="M339.6,482.2c-.9.2-1.7.6-2.6,1.4h0c.8-.8,1.7-1.2,2.6-1.4Z"/>
    <path class="st0" d="M668.4,754.5c0-.2,0-.5.1-.7,0,.2,0,.5-.1.7Z"/>
    <path class="st0" d="M644.4,818.5c-.1.3-.2.6,0,.9,0-.3,0-.7,0-.9Z"/>
    <path class="st0" d="M757.7,200.8c.4.6.6,1.3.6,2.1,0-.8-.2-1.5-.6-2.1Z"/>
    <path class="st0" d="M761,207.2c.6.9,1,2,1.1,3.2-.1-1.2-.4-2.3-1.1-3.2Z"/>
    <path class="st0" d="M759.1,205.3c-.3-.6-.5-1.2-.8-1.8.3.6.5,1.2.8,1.8.2.8.4,1.6.7,2.4-.3-.8-.6-1.6-.7-2.4t0,0Z"/>
    <path class="st0" d="M331,483.8c-4.2.7-7.7,2.7-10.4,6.2,2.7-3.4,6.2-5.4,10.4-6.2Z"/>
    <path class="st0" d="M870.1,257.6c0,0,.2.2.2.3,0-.1-.1-.2-.2-.3Z"/>
    <path class="st0" d="M794.1,302.8c0-.1-.2-.2-.3-.3.1,0,.2.2.3.3Z"/>
    <path class="st0" d="M714.6,365.6c-.2,0-.3-.2-.5-.2.2,0,.3.1.5.2.4.3.9.6,1.3.9-.4-.3-.9-.6-1.3-.9.2-1.4,1.2-2.2,2.4-2.7-1.2.6-2.2,1.3-2.4,2.7Z"/>
    <path class="st0" d="M821.1,165.1c0,.1,0,.2.2.4,0-.1-.1-.2-.2-.4Z"/>
    <path class="st0" d="M768.6,683.1c0,0-.2,0-.2,0,0,0,.2,0,.2,0Z"/>
    <path class="st0" d="M764,685.6c-.3-1.6-.3-3.3-.6-4.9-.1,0-.3-.2-.4-.2.2,0,.3.1.4.2.2,1.6.3,3.3.6,4.9Z"/>
    <path class="st0" d="M744.9,169.4c.4,1.2.7,2.3,1.1,3.5h0c-.4-1.2-.7-2.3-1.1-3.5Z"/>
    <path class="st0" d="M768.3,683.1c-.1,0-.3-.1-.4-.3.2.1.3.2.4.3Z"/>
    <path class="st0" d="M666.4,361.2s0,0,0,0c-.3-.1-.6-.3-.7-.5.2.2.4.3.7.5Z"/>
    <path class="st0" d="M863.6,992.1c-.1-.2-.2-.5-.3-.7,0,.2.2.5.3.7Z"/>
    <path class="st0" d="M666.8,361.5c-.1,0-.2,0-.3-.1,0,0,.2,0,.3.1Z"/>
    <path class="st0" d="M690.8,351.2s0,0,0,0c.7,0,1.2.3,1.6.7-.4-.4-1-.6-1.6-.7Z"/>
    <path class="st0" d="M800.7,267.2c.3.3.5.8.6,1.3-.1-.5-.3-.9-.6-1.3Z"/>
    <path class="st0" d="M377.8,417.2c0-.8-.2-1.6-.2-2.4,0,.8.2,1.6.2,2.4.3,1,.7,2,1,3.1-.2-1.1-.7-2.1-1-3.1Z"/>
    <path class="st0" d="M687,348.4h0c.5,0,1,.2,1.4.4-.4-.3-.8-.4-1.4-.4Z"/>
    <path class="st0" d="M686.4,348.1h0c-.5-.7-.9-1.4-1.4-2.1.5.7.9,1.4,1.4,2.1Z"/>
    <path class="st0" d="M688.4,348.9c0,0,.1,0,.2.1,0,0-.1,0-.2-.1Z"/>
    <path class="st0" d="M907.2,257.9c2.2.7,4.3,1.4,6.5,2-2.2-.6-4.4-1.3-6.5-2Z"/>
    <path class="st0" d="M907.2,257.9c-12.9-4.4-24.9-10.9-35.8-19.6-1-1.2-2-2.4-3-3.6,1.1,1.1,2,2.4,3,3.6,10.9,8.6,22.8,15.2,35.8,19.6Z"/>
    <path class="st0" d="M319.8,491.1c.3-.4.6-.8.9-1.2-.3.4-.6.8-.9,1.2Z"/>
    <path class="st0" d="M589.2,227.9c0,.6,0,1.3,0,1.9,0-.6,0-1.3,0-1.9Z"/>
    <path class="st0" d="M796.2,261.9c.2.3.3.6.3.9,0-.4-.2-.7-.3-.9Z"/>
    <path class="st0" d="M601.1,934.1c-.5,1-.8,2-1.1,3,.2-1,.6-2,1.1-3Z"/>
    <path class="st0" d="M777.5,237.7h0c.2.3.4.6.6,1h0c-.2-.3-.4-.6-.6-1Z"/>
    <path class="st0" d="M524.4,1139.3c0-.2,0-.5.1-.7,0,.2,0,.5-.1.7Z"/>
    <path class="st0" d="M524.7,1138c0-.2.2-.4.2-.6,0,.2-.2.4-.2.6Z"/>
    <path class="st0" d="M772.8,229.7c0,.1,0,.2,0,.3,0-.1,0-.2,0-.3Z"/>
    <path class="st0" d="M779.3,239.5c0,.2.1.4.1.6,0-.2,0-.4-.1-.6Z"/>
    <path class="st0" d="M800.6,424.7c.4-.2.8-.4,1.2-.5-.4.2-.8.3-1.2.5Z"/>
    <path class="st0" d="M777.5,237.7c0-.2,0-.5,0-.6,0,.2,0,.4,0,.6Z"/>
    <path class="st0" d="M777.3,236.5c0,.2.2.3.2.5,0-.2-.1-.4-.2-.5Z"/>
    <path class="st0" d="M798.3,425.8c-2.1,1.2-4,2.6-5.9,4.2h0c1.8-1.6,3.8-3.1,5.9-4.2Z"/>
    <path class="st0" d="M792.4,430s0,0,0,0h0c-.6.2-1.2.5-1.8.7.6-.2,1.2-.4,1.8-.7h0Z"/>
    <path class="st0" d="M707.8,634.1c-2.2-.2-4.4-.1-6.6.6-2.7,0-5.5,0-8.2,0,2.7,0,5.5,0,8.2,0,2.2-.7,4.4-.8,6.6-.6Z"/>
    <path class="st0" d="M507.2,1148c0,0,0-.2,0-.2h0v.2Z"/>
    <path class="st0" d="M716.1,631.7c-1.1.7-2.1,1.7-3.2,2.6h0c1.1-.8,2.1-1.8,3.2-2.6Z"/>
    <path class="st0" d="M779.2,239.3c0,0,0,.1.1.2,0,0,0-.1-.1-.2Z"/>
    <path class="st0" d="M722.9,533.7c1.3-.4,2.5-1.2,3.5-2.2,1.4-.7,2.8-1.5,4.2-2.1-1.4.6-2.8,1.4-4.2,2.1-1,1-2.2,1.8-3.5,2.2Z"/>
    <path class="st0" d="M524.3,1140.4c0-.2,0-.5,0-.7,0,.2,0,.5,0,.7Z"/>
    <path class="st0" d="M508.2,1148h0Z"/>
    <path class="st0" d="M737.5,525.1c-1.1.7-2.4,1.3-2.9,2.7-1.3.5-2.7.9-3.9,1.5,1.3-.6,2.6-1,3.9-1.5h0c.5-1.4,1.7-2,2.9-2.7Z"/>
    <path class="st0" d="M579.6,992.5c0-.4.1-.7.2-1.1,0,.4-.1.7-.2,1.1Z"/>
    <path class="st0" d="M785.8,248.8c.2.2.2.5.3.8,0-.3-.1-.6-.3-.8Z"/>
    <path class="st0" d="M779.5,240.5c1.8,2.6,3.6,5.1,5.3,7.7h0c-1.8-2.6-3.6-5.1-5.3-7.7Z"/>
    <path class="st0" d="M378.2,413c0,0,0,.2,0,.2,0,0,0-.2,0-.2Z"/>
    <path class="st0" d="M765.6,216.6c.1.4.2.8.3,1.2,0-.4-.2-.8-.3-1.2Z"/>
    <path class="st0" d="M799,306.9c0,0-.1-.2-.1-.3,0,.2,0,.3.1.3Z"/>
    <path class="st0" d="M762.1,211.3c.3.5.6,1.1.9,1.6h0c-.3-.5-.6-1.1-.9-1.6Z"/>
    <path class="st0" d="M765.2,215.4c.2.4.3.7.4,1.1-.1-.4-.3-.8-.4-1.1Z"/>
    <path class="st0" d="M796,261.5c0,0,.1.2.2.3,0-.1-.1-.2-.2-.3Z"/>
    <path class="st0" d="M798.8,306.6c0-.1-.1-.2-.2-.3,0,0,.2.2.2.3Z"/>
    <path class="st0" d="M768.9,223.5c.9,1.6,1.8,3.1,2.7,4.6h0c-.9-1.6-1.8-3.1-2.7-4.6Z"/>
    <path class="st0" d="M808.3,314.1c0-.1-.1-.2-.2-.3,0,0,.2.2.2.3Z"/>
    <path class="st0" d="M580.8,987.9c.1-.3.3-.6.5-1-.2.3-.3.6-.5,1Z"/>
    <path class="st0" d="M772.4,228.7c.2.3.4.6.4,1,0-.4-.1-.8-.4-1Z"/>
    <path class="st0" d="M768.9,223.1c0,.1,0,.2,0,.4-.2-.3-.4-.7-.6-1,.2.3.4.7.6,1,0-.1,0-.2,0-.4Z"/>
    <path class="st0" d="M710.9,634.5h0c-3.2,0-6.5.2-9.7.2,3.2,0,6.5-.2,9.7-.2Z"/>
    <path class="st0" d="M795.3,304.1c.4.6.8,1.2,1.4,1.5-.6-.4-1-.9-1.4-1.5Z"/>
    <path class="st0" d="M766.1,218.6c.5,1,1.1,1.9,1.6,2.9h0c-.5-1-1-1.9-1.6-2.9Z"/>
    <path class="st0" d="M768.7,222.2c0,.1.1.3.2.5,0-.2,0-.3-.2-.5Z"/>
    <path class="st0" d="M946,235.3c-.2.1-.4.2-.6.3.2,0,.4-.1.6-.3Z"/>
    <path class="st0" d="M860.5,63.4c.3,0,.6,0,1,.3-.4-.2-.7-.3-1-.3Z"/>
    <path class="st0" d="M820.6,162h0c-.2-.3-.5-.6-.7-.9.2.3.5.6.7.9Z"/>
    <path class="st0" d="M805.2,312.5c-.4-.3-.6-.7-.7-1.3,0,.6.3,1.1.7,1.3Z"/>
    <path class="st0" d="M939.5,235c-.2,0-.5,0-.7.1.2,0,.5,0,.7-.1Z"/>
    <path class="st0" d="M860.1,63.5c.1,0,.2,0,.4,0-.1,0-.2,0-.4,0Z"/>
    <path class="st0" d="M856.2,66.3c.1,0,.2-.1.3-.2-.1,0-.2.1-.3.2Z"/>
    <path class="st0" d="M945.1,235.6c0,0-.1,0-.2,0,0,0,.1,0,.2,0Z"/>
    <path class="st0" d="M862.5,251.9c-.2-.2-.4-.4-.6-.7.2.3.4.5.6.7Z"/>
    <path class="st0" d="M816.7,76h0c0,.2,0,.4-.2.5h0c.2-.1.2-.3.2-.5Z"/>
    <path class="st0" d="M869.5,257.4c0,0-.1-.2-.1-.3,0,.1,0,.2.1.3Z"/>
    <path class="st0" d="M726.4,459.7c-1.3.9-2.5,1.9-3.9,2.7,1.3-.8,2.6-1.8,3.9-2.7.4-.2.8-.3,1.1-.4-.4.2-.8.3-1.1.4h0Z"/>
    <path class="st0" d="M864.5,253c1,.9,2,1.9,3,2.8-1-.9-2-1.9-3-2.8-.8-.2-1.4-.5-2-1,.5.5,1.2.8,2,1Z"/>
    <path class="st0" d="M869.4,257.2c0-.1-.2-.2-.3-.3.1,0,.2.2.3.3Z"/>
    <path class="st0" d="M794.8,303.4c0,0,.1.1.2.3,0-.1-.1-.2-.2-.3Z"/>
    <path class="st0" d="M868.7,256.7s0,0,0,0c-.4-.3-.7-.5-1.1-.8.4.3.7.5,1.1.8Z"/>
    <path class="st0" d="M799.6,307.1c0,0,.1.1.2.3,0-.1,0-.2-.2-.3Z"/>
    <path class="st0" d="M868.7,256.7h0c-.4-.3-.8-.6-1.2-.9,0,0,0,0,0,0,.4.3.7.5,1.1.8Z"/>
    <path class="st0" d="M816.5,76.1h0s0,0,0,0Z"/>
    <path class="st0" d="M760.6,209.2c-.3-.5-.5-1-.7-1.5.2.5.5,1,.7,1.5Z"/>
    <path class="st0" d="M876.8,262.4s0,0,.1.1c0,0,0,0-.1-.1Z"/>
    <path class="st0" d="M876.9,262.5s0,0,0,.1c0,0,0-.1,0-.1Z"/>
    <path class="st0" d="M879.6,264.4s0,0,.1.1c0,0,0,0-.1-.1Z"/>
    <path class="st0" d="M945.1,232.8c-.8.6-1.7,1.3-2.5,1.9h0c.8-.6,1.7-1.3,2.5-1.9h0Z"/>
    <path class="st0" d="M378.2,412.7c0-.1,0-.3,0-.4,0,.1,0,.3,0,.4Z"/>
    <path class="st0" d="M873.1,259.8s0,.1.1.2c0,0,0-.1-.1-.2Z"/>
    <path class="st0" d="M945.2,232.6c0,0,0,0,0,0,.5-.6,1-1.2,1.6-1.8-.5.6-1,1.2-1.6,1.8h0Z"/>
    <path class="st0" d="M854.7,68h0c-2.5,1.8-4.6,3.8-6.3,6.1,1.8-2.3,3.9-4.4,6.3-6.1Z"/>
    <path class="st0" d="M740.7,153.6h0c0-.2,0-.4,0-.6,0,.2,0,.4,0,.6Z"/>
    <path class="st0" d="M947.4,229.6c.2-.5.5-1,.7-1.5,1.1-2.7,2-5.4,2.7-8.1-.7,2.8-1.6,5.5-2.7,8.1-.2.5-.5,1-.7,1.5Z"/>
    <path class="st0" d="M951.4,217.1c-.2.9-.4,1.9-.6,2.8.2-.9.4-1.8.6-2.8Z"/>
    <path class="st0" d="M952.4,210.1c0,.9-.2,1.9-.3,2.8.1-.9.2-1.9.3-2.8Z"/>
    <path class="st0" d="M879.7,264.5s0,0,.1.2c0,0,0-.1-.1-.2Z"/>
    <path class="st0" d="M856.2,66.3c-.4.3-.8.6-1.2,1.1.3-.4.7-.8,1.2-1.1Z"/>
    <path class="st0" d="M882.4,266.3s0,0,0,0c0,0,0,0,0,0Z"/>
    <path class="st0" d="M872.7,259.5c.1,0,.2.1.3.2,0,0-.2-.2-.3-.2Z"/>
    <path class="st0" d="M793.4,302.4c-.4-.3-.8-.6-1.2-.9.4.3.8.6,1.2.9t0,0Z"/>
    <path class="st0" d="M880.6,265.9c0,0-.1-.1-.2-.2,0,0,.1.1.2.2Z"/>
    <path class="st0" d="M883.6,267.8c-.3-.4-.6-.8-.9-1.2.3.4.6.8.9,1.2h0Z"/>
    <path class="st0" d="M840.5,299.1s0,0,0,0c.6-1.6,1.9-2.4,3.2-3.2-1.3.8-2.6,1.6-3.2,3.2Z"/>
    <path class="st0" d="M740.7,154c.1.6.3,1.2.4,1.8h0c-.1-.6-.3-1.2-.4-1.8Z"/>
    <path class="st0" d="M803.3,310.1c0,0,.1,0,.1.1,0,0,0-.1-.1-.1Z"/>
    <path class="st0" d="M799,266.3c-.8-1-1.6-1.9-2.4-2.9.8,1,1.6,1.9,2.4,2.9,0,.3.2.6.3.9-.1-.3-.2-.6-.3-.9h0Z"/>
    <path class="st0" d="M880.4,265.7c-.2-.2-.3-.4-.4-.6.1.3.2.5.4.6Z"/>
    <path class="st0" d="M708.4,386.3c-.6.3-1.1.5-1.7.8h0c.6-.3,1.1-.5,1.7-.8Z"/>
    <path class="st0" d="M740.8,152.5c0-.2,0-.4,0-.6,0,.2,0,.4,0,.6Z"/>
    <path class="st0" d="M705.4,388.1c-.5.4-1,.7-1.6,1.1.5-.3,1-.7,1.6-1.1Z"/>
    <path class="st0" d="M687.3,375.7c-3.9-2.7-7.7-5.4-11.6-8,3.9,2.7,7.7,5.4,11.6,8h0Z"/>
    <path class="st0" d="M686.7,348.2s0,0,0,0c0,0,0,0,0,0Z"/>
    <path class="st0" d="M715.9,366.5c.3.2.6.4.9.6-.3-.2-.6-.4-.9-.6Z"/>
    <path class="st0" d="M711.7,364.3c-.4-.2-.9-.4-1.3-.6.4.2.9.4,1.3.6Z"/>
    <path class="st0" d="M810.4,99.4c0-.6.1-1.2.2-1.7,0,.6-.2,1.2-.2,1.7Z"/>
    <path class="st0" d="M752,361.8c.2,0,.4-.2.6-.3-.2,0-.4.2-.6.3Z"/>
    <path class="st0" d="M877.8,264c0,0-.2-.1-.3-.2,0,0,.2.1.3.2Z"/>
    <path class="st0" d="M804.4,311c0,0,.1.1.2.3,0-.1,0-.2-.2-.3Z"/>
    <path class="st0" d="M807.4,313.5c-.3-.2-.5-.4-.8-.6h0c.3.2.5.4.8.6Z"/>
    <path class="st0" d="M803.7,310.8c0,0-.1-.2-.1-.3,0,.1,0,.3.1.3Z"/>
    <path class="st0" d="M872.3,259.4c-.3-.2-.6-.5-1-.7-.3-.2-.6-.5-.9-.7.3.2.6.5.9.7-.3-.2-.6-.5-.9-.7.3.2.6.5.9.7.3.2.6.5,1,.7Z"/>
    <polygon class="st0" points="872.5 259.5 872.3 259.4 872.5 259.5 872.5 259.5"/>
    <path class="st0" d="M873.4,260.3c0,0-.2-.2-.2-.3,0,.1.1.3.2.3Z"/>
    <path class="st0" d="M874.2,260.6c0,0,0-.2-.2-.2,0,0,.1.1.2.2Z"/>
    <path class="st0" d="M800.9,309.2s0,0,0,0c0,0,0,0,0,0Z"/>
    <path class="st0" d="M803.5,310.3c0,0,0,.1.1.2,0,0,0-.1-.1-.2Z"/>
    <path class="st0" d="M800,308.1c.2.4.4.7.7,1-.3-.2-.5-.6-.7-1Z"/>
    <path class="st0" d="M740.7,153.1c0-.2,0-.4,0-.6,0,.2,0,.4,0,.6Z"/>
    <path class="st0" d="M874.3,261c.2.4.4.6.7.9-.3-.2-.5-.5-.7-.9Z"/>
    <path class="st0" d="M877.5,263.8c-.2-.2-.3-.4-.4-.6,0,.3.2.5.4.6Z"/>
    <path class="st0" d="M808,313.8s0,0,0,0c0,0,0,0,0,0Z"/>
    <path class="st4" d="M407.9,399c8.4,2.3,17,3.7,25.7,4.6,14.3,1.5,28.5.6,42.8.7,5.5,0,11-1.2,16.5-1.6,5.4-.4,10.7-1.1,16-2.1,9.5-1.8,19-3.4,28.5-5.4,6.5-1.4,12.9-3.2,19.4-4.8,5.4-1.4,10.8-2.6,16.1-4.1,15.5-4.5,31-9.3,46.1-15,2.2-.8,4.5-1.5,6.8-2.3,5-1.9,10.1-3.8,15.1-5.8.3-.1.4-.4.9-.9-.3-.6-.6-1.3-1.1-1.8-2.1-2.2-4.2-4.3-6.4-6.4-5.7-5.5-10.9-11.5-15.9-17.6-5-6-9.5-12.3-13.8-18.7-6.6-9.9-12.3-20.3-17.1-31.3-3.9-8.9-7.3-17.9-9.4-27.4-1.2-5.4-2.1-10.9-2.7-16.4-.5-4.1-.7-8.2-.6-12.3-4.4,2.7-8.9,5.4-13.3,8.3-19.9,12.8-39.7,25.7-59.5,38.6-27,17.5-54.1,35-81.2,52.5-1.4.9-2.8,2.2-4.7,2.1-.2,0-.3.1-.4.3-.5,1.7-2.2,2.2-3.5,3.1-7,4.6-14,9.2-21.1,13.6-4.1,2.5-7.1,5.7-8.6,10.3-.3,1-1.2,1.8-1.8,2.7-2,4.6-3.2,9.5-3.9,14.5.5.9.3,1.7-.4,2.4,0,2.5-.1,5.1-.2,7.6.7.2,1.6.4,2.2.7,9.2,5.5,19.2,9.2,29.4,12Z"/>
    <path class="st4" d="M638.1,296.1c10.4,15.7,22.7,29.7,36.7,42.2,3.2,2.8,6.1,6,10.2,7.7.6-1.2,1.7-1.8,2.9-2.4,6.4-2.9,12.7-5.7,19-8.7,11.3-5.4,22.6-10.9,33.8-16.5,8.1-4,16.1-8.3,24.1-12.5,1.1-.6,2-1.4,3.3-2.2-.7-1-1-1.9-1.7-2.6-2.4-2.5-4.9-5-7.4-7.4-5.4-5.2-9.9-11.1-14.6-16.9-5.9-7.3-11-15.2-15.6-23.3-4.2-7.3-8.5-14.5-11.6-22.4-2.7-6.8-5.9-13.4-8.4-20.2-3.8-9.9-6.9-20.1-9.1-30.5-1.3-6.2-2.4-12.4-3.6-18.7-.3-1.4-.3-2.8-.4-4.3-.3-2-.9-3.7-2.8-4.8-.4.2-.8.5-1.2.7-.4.3-.9.6-1.3.9-.3,0-.4,0-.4.3-.4.3-.8.5-1.3.8-.3,0-.5,0-.6.4-.3.2-.7.5-1,.7,0,0,0,0,0,0-.3.8-.8,1.1-1.6,1,0,0-.2.2-.2.2-.3.2-.7.5-1,.7.3-.2.7-.5,1-.7-.3.2-.7.5-1,.7-.3.2-.6.4-.9.6-.2.2-.5.3-.7.5-1.6,1-3.3,1.9-4.9,2.9-21,13.6-42,27.1-63,40.7-1.3.9-2.5,1.9-3.8,2.8,0,5.7,0,11.4,0,17.1,0,5.7,1.1,11.3,2.4,16.9,4.7,20.3,13.3,38.9,24.8,56.2ZM691.7,153.6c-.4.3-.9.6-1.3.9.4-.3.9-.6,1.3-.9Z"/>
    <path class="st2" d="M378.1,412.3c0,.1,0,.3,0,.4,0,0,0,.2,0,.3,0,0,0,.2,0,.2,0,.5-.3,1-.6,1.6,0,.8.2,1.6.2,2.4.3,1,.7,2,1,3.1,1.9,7.9,4.3,15.7,7.3,23.3.4,1,.6,2.1.9,3.1,1.1,1.9,2.1,3.7,3.2,5.6,2.4,0,4.7,0,7.1.2,4.9.4,9.8.9,14.7,1.4,1.9.2,3.8.4,5.7.5,1.7.1,3.5.3,5.2.3,7.1,0,14.3,0,21.4,0,4.4,0,8.9,0,13.3-.7,3.9-.6,7.9-.4,11.8-1,7.7-1.2,15.4-2,23.1-2.9,14.9-1.7,29.4-4.8,43.9-8.5,3.5-.9,7.1-1.9,10.5-2.9,13.4-4.1,26.6-8.6,39.4-14.1,10.5-4.5,21.1-8.9,31.4-13.8,18.5-8.8,36.8-18,55.2-27,2.6-1.3,5.2-2.4,7.8-3.6.8-.4,1.5-.7,2.3-1.1,1.6-.9,3.1-1.9,4.3-3.5-3.9-2.7-7.7-5.4-11.6-8-2.5-1.7-5-3.5-7.5-5.2-.4-.3-.9-.6-1.3-.9-.1,0-.2,0-.3-.1s-.1-.1-.1-.2c-.3-.1-.6-.3-.7-.5-.3-.3-.4-.6-.4-1,0-.1,0-.2,0-.3l-.2-.4c-10.9-8.5-20.6-18.3-29.8-28.5-12-13.4-22.4-28-30.6-44-6-11.8-10.8-24-13.4-37-1.3-6.5-2.2-13.1-2.1-19.8,0-.6,0-1.3,0-1.9,0-1.9,0-3.8-.1-5.7-1.1,0-2.3,0-3.4,0-.2,0-.4,0-.5.3-.7,2-2.3,2.6-4.2,2.7-.3,0-.4.1-.6.3-.4,1.1-1.2,1.6-2.3,1.5-.2,0-.4,0-.5.3-.3,1.7-2,1.9-2.9,3,0,4.1.2,8.2.6,12.3.7,5.5,1.5,11,2.7,16.4,2.1,9.5,5.6,18.5,9.4,27.4,4.8,10.9,10.5,21.4,17.1,31.3,4.3,6.5,8.9,12.7,13.8,18.7,5.1,6.1,10.2,12.1,15.9,17.6,2.2,2.1,4.3,4.2,6.4,6.4.5.5.8,1.3,1.1,1.8-.4.5-.6.8-.9.9-5,2-10.1,3.9-15.1,5.8-2.2.8-4.5,1.5-6.8,2.3-15.1,5.8-30.6,10.5-46.1,15-5.3,1.6-10.7,2.8-16.1,4.1-6.5,1.6-12.9,3.4-19.4,4.8-9.5,2-19,3.6-28.5,5.4-5.3,1-10.6,1.7-16,2.1-5.5.4-11,1.6-16.5,1.6-14.3,0-28.5.8-42.8-.7-8.7-.9-17.3-2.3-25.7-4.6-10.3-2.8-20.3-6.4-29.4-12-.7-.4-1.5-.5-2.2-.7h-.3s0,.4,0,.4c.7,3.7,1.1,7.3,0,10.9.2,2.3.3,4.5.5,6.8,1.2,1.4,1.4,3,.5,4.7.1.6.3,1.3.4,1.9.5.5.8.9,1,1.4Z"/>
    <path class="st3" d="M702.8,389.8c.3-.2.7-.4,1-.6.5-.3,1-.7,1.6-1.1.4-.3.9-.6,1.3-1h0c-6.5-3.8-12.9-7.6-19.4-11.5h0c-1.1,1.6-2.6,2.6-4.3,3.5-.7.4-1.5.8-2.3,1.1-2.6,1.2-5.2,2.3-7.8,3.6-18.4,9-36.7,18.2-55.2,27-10.3,4.9-20.9,9.3-31.4,13.8-12.9,5.5-26.1,10-39.4,14.1-3.5,1.1-7,2-10.5,2.9-14.5,3.7-29,6.8-43.9,8.5-7.7.9-15.4,1.7-23.1,2.9-4,.6-8,.4-11.8,1-4.4.7-8.9.7-13.3.7-7.1,0-14.3,0-21.4,0-1.7,0-3.5-.2-5.2-.3-1.9-.2-3.8-.4-5.7-.5-4.9-.5-9.8-1-14.7-1.4-2.4-.2-4.7-.1-7.1-.2,1.1,2.4,1.9,5,3.3,7.3,3,5.2,6.2,10.2,9.3,15.4.9,1.5,1.7,3,2.5,4.5.7.6,1.5,1.2,2.1,1.9,2.2,2.5,4.3,5.1,6.5,7.6,7,8.1,15.2,14.8,24.6,20.1,8,4.5,16.4,7.7,25.6,8.1,8.7.4,17.1-.8,24.7-5.5,4-2.5,8.2-4.9,12.3-7.2,17.8-10.1,35.6-20.2,53.4-30.3,26.4-15,52.7-29.9,79.1-44.9,3.9-2.2,7.8-4.3,11.7-6.4,1.6-1,3.2-2,4.8-3,17.6-10,35.3-20,52.9-30Z"/>
    <path class="st3" d="M656.6,672.5c-1.1.1-2.2.3-3.2.4h0c-3.5,9-6.9,18.1-10.4,27.1-8.6,22.7-17.3,45.4-25.9,68-9.9,25.9-19.8,51.9-29.7,77.8-9.8,25.6-19.5,51.3-29.3,76.9-13,34.1-26,68.2-39.1,102.2-9,23.7-18.1,47.4-27.1,71.1-4.4,11.4-8.7,22.8-13.1,34.2-.5,1.3-1,2.7-1.4,4-.5,1.8,0,3.4,1.2,4.8,1.5,1.8,3.5,2.7,5.7,3.2,7.5,1.9,15.1,3.8,22.6,5.6h0c.4,0,.7,0,1.1,0,0,0,0,0,0-.1,0,0,0-.1,0-.2h0s0,0,0-.1c0,0,0,0-.1-.1h-.4c0,0-.4,0-.4,0,0,0,0,0,0,.2v-.2c-1-.5-2.2-1-3.3-1.4-.2,0-.3-.1-.5-.2-4.9-1.3-9.8-2.5-14.8-3.8-1.1-.3-2.1-.6-3.2-1-1-.4-1.5-1.3-1.3-2.3.2-1.2.6-2.5,1.1-3.6,5.5-13.9,11-27.7,16.5-41.5,6.3-15.9,12.5-31.9,18.8-47.8,2.5-6.3,5.2-12.6,7.8-18.9,3-7.5,5.9-15,8.9-22.6,4.4-11.2,8.8-22.4,13.2-33.6,5.3-13.4,10.6-26.8,15.9-40.2,3.2-8.1,6.5-16.2,9.7-24.3,3.3-8.4,6.6-16.8,10-25.2,3.5-8.8,7.1-17.7,10.6-26.5,7.4-18.7,14.7-37.5,22.1-56.2,3.7-9.4,7.7-18.8,11.4-28.2,3.1-7.7,6-15.3,9.1-23,4.4-11.2,8.8-22.4,13.2-33.6,4-10,8-20,12.1-30,1.7-4.2,2.3-4.4,6.8-3.9,3.3.4,6.6.4,9.9.6,1.1,0,2.2,0,3.3,0,4.2.1,4.3.2,4.5,4.7h0c0,3.5,0,7,0,10.4,0,1.1.2,2.2.3,3.3.4-.8.9-1.6,1.2-2.5.9-2.2,1.6-4.5,2.5-6.7.2-.5.8-.8,1.2-1.2,1.1,1.5.8,3,.8,4.4,0,5.9,0,11.7,0,17.6-.1,96.4-.2,192.9-.3,289.3,0,20.8,0,41.6,0,62.3,0,26.7,0,53.3,0,79.9,0,1.9-.3,3.8.6,5.8,3.9.8,7.8.1,11.7,0-1.2-9.7-1.1-19.5-.9-29.2,0-3.2,0-6.5,0-9.7-.1-61.6-.1-123.1-.2-184.7,0-2.5-.4-5-.6-7.6-.1-1.6-.2-3.2-.2-4.8,0-74.9-.1-149.8-.2-224.7,0-1.4,0-2.9.1-4.3.1-1.6.8-2.3,2.4-2.4.9,0,1.8,0,2.7,0,2.7,0,5.5,0,8.2,0,.9,0,1.9,0,2.8,0,2.8,0,5.6,0,8.4-.3,2.6-.2,4.1,1,5.1,3.1.1-.7.4-1.5.4-2.2-.2-2.6-.5-5.3-.7-7.9-1.1,0-2.2-.3-3.3-.3-24.2-.2-48.5-.5-72.7-.7-.6,0-1.3,0-1.9.1Z"/>
    <path class="st6" d="M739.3,410.1c-1.7,1.1-3.3,2.2-4.9,3.3-1.5,1.1-3.3,1.9-5,2.8-1,.5-2,0-2.2-1.1-.3-2-.6-4.1-.7-6.1-.3-7.9-.5-15.8-.8-23.7,0-2.3.8-4.7-.1-7.4-.9.2-1.8,0-2.6.5-3.2,1.7-6.3,3.6-9.5,5.3-1.7.9-3.4,1.7-5.1,2.5-.6.3-1.1.5-1.7.8h0c-.4.3-.9.6-1.3,1-.5.4-1,.7-1.6,1.1-.3.2-.7.4-1,.6-17.6,10-35.3,20-52.9,30-1.6.9-3.2,2-4.8,3,1.7,3.4,4.6,5.6,7.4,7.9,3.6,3.1,7.2,6.2,10.8,9.3,1.6,1.3,3.3,2.5,4.7,4,2.6,2.6,5.7,2.6,8.8,1.9,1.6-.4,3.1-1.4,4.7-2.1,1.3-.6,2.5-1.3,3.8-1.9,1.3-.6,2.5-.2,3.4.9,2.1,2.5,4.3,5.1,6.3,7.8,1.8,2.6,3.7,5.1,6.1,7.3,1.1,1,2.1,2,3,3.1,1.9,2.4,4.3,4.6,5.7,7.5-1.7,2-3.8,3-5.8,4.2-6,3.5-12,7-18.1,10.5-2.1,1.2-3,2.7-2.4,5.6.3,1.2.8,2.4,1.4,3.5,1.7,3,3.4,6.1,5.3,9,1.1,1.8,1.8,3.7,1.7,5.8,0,1.4,0,2.9,0,4.3,0,38.7,0,77.4,0,116.1,0,2.2,0,4.4,0,6.7h0c.3.2.7.5,1,.7,2.7,0,5.5,0,8.2,0,2.2-.7,4.4-.8,6.6-.6,1,0,2.1.2,3.1.4h0c.7,0,1.3-.1,2-.2,1.1-.8,2.1-1.8,3.2-2.6.2-.1.3-.2.5-.3,4.9-2.6,7.7-6.9,9.9-11.8,2.6-6,3.7-12.4,4.6-18.8,1.4-10.1,2-20.1,1.8-30.3-.1-7.6,0-15.2.8-22.8.4-4.1.6-8.3.7-12.4,0-2.5.1-5,.3-7.5-1.3.5-2.7.9-3.9,1.5-1.4.6-2.8,1.4-4.2,2.1-1,1-2.2,1.8-3.5,2.2-.4.1-.9.2-1.4.3-2.1-1.4-2.8-3.5-3.9-5.4-3.5-6-5.5-12.5-5.7-19.4-.3-9.9,3.1-18.6,9.4-26.2,5.9-7.1,12.6-13.4,19.7-19.2,8.7-7.1,17.8-13.8,26.8-20.4,3-2.2,6.4-4,9.7-5.9,3.7-2.1,7.5-4,11.3-6,.6-.3,1.1-.5,1.7-.8s1.2-.4,1.8-.7h0s0,0,0,0c1.8-1.6,3.8-3.1,5.9-4.2.7-.4,1.5-.8,2.2-1.1.4-.2.8-.4,1.2-.5,1.1-.4,2.3-.8,3.6-1.1-.3-1.5-1.2-2.7-2.7-3-2.4-.6-5-.8-7.3.5-3.8,2.2-7.6,4.4-11.4,6.6-3.3,1.9-6.4,4-10.1,4.8h0c0,.2-.2.3-.3.5-.7,1.1-1.7,1.7-2.8,2.4-14.2,8-28.3,16.1-42.5,24.2-.2.1-.4.2-.6.3-.4.2-.8.3-1.1.4-1.3.9-2.5,1.9-3.9,2.7-1.1.6-2.3,1.1-3.4,1.6-4-2.9-5.6-6.9-6.3-11.4-.7-5,.3-9.7,3-14.1,4-6.4,8.9-11.9,15.4-15.9,5.2-3.1,10.4-6.1,15.6-9,2.7-1.5,5.4-3,8.1-4.5.9-.5,1.8-1,2.7-1.5-1-2.2-2.1-4.3-3.1-6.5h0c-5.1,3-10.4,5.7-15.4,8.9Z"/>
    <path class="st4" d="M729.8,680.4c-2.8.2-5.6.2-8.4.3-.9,0-1.9,0-2.8,0,0,3.8,0,7.6,0,11.4,0,21.7,0,43.5,0,65.2,0,3.5-.1,7,.7,10.4.3,1.5.2,3.2.2,4.7,0,34.1,0,68.2.1,102.4,0,2.5.4,5,.6,7.6.1,1.7.2,3.5.2,5.2,0,28.9,0,57.8.1,86.7,0,3.2,0,6.3.6,9.5.3,1.5.2,3.2.2,4.7,0,28.4,0,56.8.2,85.2,0,3,.4,6,.6,9,.1,1.7.2,3.5.2,5.2,0,17.5,0,34.9,0,52.4,0,2.4,0,4.8.1,7.1,4.7.6,14.4.2,17.8-.9v-3.1c-1.1-1.9-1.2-3.8-.1-5.7-.2-7-.4-14-.5-21-.3-1-.8-2.1-.8-3.1-.1-9.2-.2-18.3-.3-27.5,0-.9.4-1.8.7-2.7-.2-9.8-.3-19.7-.5-29.5-1-1-.9-2.3-.9-3.6,0-10.8-.2-21.5-.2-32.3,0-1.1.4-2.1.7-3.2-.2-17.1-.3-34.3-.5-51.4-1.2-1.3-.9-3-.9-4.5,0-7.8,0-15.5,0-23.3,0-23.6-.2-47.3-.2-70.9,0-1.7-.5-3.5.7-5.1,0-1.9,0-3.8,0-5.7-.1-29.9-.2-59.8-.4-89.6,0-6,0-12-.1-18-.3-.9-.8-1.8-.8-2.6-.2-7.6-.3-15.2-.3-22.8,0-.7.4-1.5.6-2.2-.1-3.2-.3-6.4-.4-9.5-.3-.9-.8-1.7-.8-2.6-.2-4.9-.2-9.8-.3-14.7,0-.6.4-1.2.6-1.8-.1-2.2-.3-4.4-.4-6.7-1-2.1-2.5-3.3-5.1-3.1Z"/>
    <path class="st2" d="M870.9,1063.1c-3.1-11-6.2-22-9.3-32.9-2.9-10.2-5.9-20.4-8.7-30.6-2.5-8.8-5-17.7-7.5-26.5-3.2-11.4-6.5-22.9-9.7-34.3-3.5-12.2-6.9-24.4-10.4-36.6-2.8-9.8-5.6-19.5-8.4-29.2-2.7-9.6-5.3-19.2-8.1-28.8-3.3-11.7-6.7-23.5-10.1-35.2-.6-2.1-1.2-4.3-1.8-6.4-2.9-10.4-5.8-20.8-8.7-31.1-2.8-10.1-5.7-20.1-8.6-30.2-1.5-5.3-3.1-10.7-4.6-16-3.6-12.6-7.2-25.3-10.8-38-.1-.5-.3-1.1-.3-1.6-.3-1.6-.3-3.3-.6-4.9-.1,0-.3-.2-.4-.2-4.8-1.2-6-.2-4.9,4.5,1.4,6.2,2.9,12.3,4.4,18.5,4.5,19.3,9,38.6,13.6,57.9,2.6,11,5.3,21.9,7.9,32.8,3.7,15.9,7.4,31.8,11.1,47.7,1.4,5.9,2.9,11.7,4.3,17.5,4.4,18.5,8.8,37,13.1,55.5,2.8,12,5.7,24.1,8.5,36.1,2.5,10.8,4.9,21.6,7.5,32.4,3,12.6,6.2,25.3,9.2,37.9,4.3,18,8.6,36.1,12.8,54.2,4.1,17.4,8.1,34.9,12.2,52.3.9,4,1.9,8,3,12,.3,1.1.8,2,1.3,3.3,1.3.1,2.5.3,3.7.4,1.4.1,2.9-.3,4.1.7,6.4-.2,12.8-.5,19.2-.7-4.6-14.5-8.5-29.2-12.6-43.8-3.4-12.2-7-24.4-10.5-36.6Z"/>
    <path class="st4" d="M689.1,685.2h0s0,0,0,0c-1.6.4-2.2,1.6-2.8,2.9,0,.2-.2.4-.2.5-2.1,4.5-4.1,8.9-6.1,13.4-3.4,7.7-6.8,15.3-10.2,23.1-3,7-6,14-9,21-3.5,8.3-7.1,16.6-10.6,24.9-3.5,8.3-6.8,16.7-10.3,25.1-4.2,10.1-8.5,20.2-12.7,30.3-5.2,12.6-10.4,25.2-15.7,37.8-4.1,10-8.3,19.9-12.5,29.8-4.9,11.4-9.5,22.8-14,34.4-3.3,8.4-6.8,16.8-10,25.2-3.9,10-7.8,20.1-11.6,30.2-4.9,13.1-9.7,26.2-14.5,39.3-.8,2.1-1.2,4.3-2,6.4-1.7,4.9-3.6,9.8-5.2,14.8-3.5,10.9-6.9,21.8-10.3,32.6-1.6,5.1-3.4,10.2-5.1,15.4-2.2,6.9-4.3,13.9-6.7,20.8-3,8.7-6.2,17.3-9.2,26-1,2.8-2.5,5.5-2.3,8.7,0,0,0,0,.1.1,0,0,0,0,0,.1h0s0,0,0,.2c0,0,0,0,0,.1,1,.3,2,.6,3,.8h0c3-.2,6-.4,9-.6,0,0,.1,0,.2,0,.7-1,1.4-1.9,2.1-2.9-.2-.6-.1-1.2.2-1.6.2-.3.4-.5.8-.7.3-.8.6-1.7.9-2.5,0-.1,0-.2,0-.4,0-.2,0-.5,0-.7,0-.1,0-.2,0-.3,0-.2,0-.5.1-.7s.1-.4.2-.7.2-.4.2-.6c.3-.6.7-1.2,1.2-1.7,1.6-4.3,3.2-8.6,4.8-13-.2-.6-.1-1.1.2-1.6.2-.3.4-.5.7-.7,2.2-5.9,4.5-11.9,6.7-17.8.4-2.9,1.1-5.6,3-7.9,1.3-3.4,2.5-6.7,3.8-10.1-.4-1,0-1.7.8-2.3,1-2.7,2-5.4,3-8.1-.4-1,0-1.8.9-2.4.3-.8.6-1.7.9-2.5-.2-.6-.1-1.1.2-1.5.2-.3.4-.5.7-.7h0c1-2.7,2.1-5.4,3.1-8.1h0c-.2-.5-.2-1,0-1.4.1-.4.5-.7.9-1,.9-2.4,1.8-4.9,2.8-7.3.4-2.9,1.1-5.6,2.9-7.9.7-1.8,1.3-3.5,2-5.3-.3-1,0-1.7.8-2.3.3-.9.6-1.7.9-2.6,0-.4,0-.7.1-1.1.2-1.2.5-2.2,1.1-3.2.2-.3.4-.6.7-.8h0c.7-1.8,1.3-3.5,2-5.3-.4-1,0-1.8.8-2.4.3-.8.6-1.7.9-2.5,0-1.9.4-3.7,1.9-5.1.7-1.8,1.4-3.5,2-5.3,0-1.7.3-3.3,1.4-4.6.2-.2.3-.4.5-.5h0c.3-.8.7-1.6,1-2.4h0c0-.1,0-.2-.1-.4,0-.4,0-.7,0-1,0-.2.2-.4.3-.5s.3-.3.5-.5c.3-.8.6-1.7.9-2.5,0-.2,0-.4,0-.5,0-.4.1-.7.2-1.1.2-1.2.6-2.4,1.1-3.6.1-.3.3-.6.5-1,.3-.6.7-1.2,1.2-1.8,1.2-3.4,2.5-6.8,3.7-10.2,0-1.9.4-3.8,2-5.1.3-.8.6-1.6,1-2.4-.4-1,0-1.8.9-2.3.6-1.8,1.3-3.6,1.9-5.4-.3-1,0-1.7.8-2.3,1-2.7,2.1-5.4,3.1-8.1-.2-.6-.2-1.2,0-1.6.2-.3.4-.5.8-.7.3-.8.6-1.7.9-2.5-.3-1,.1-1.7.9-2.2.3-.8.6-1.7.9-2.5,0-.5.1-1.1.2-1.6,0-.4.1-.7.2-1,.2-1,.6-2,1.1-3,.4-.8.9-1.6,1.4-2.3,1.2-3.4,2.5-6.8,3.7-10.2,0-1.9.5-3.7,1.9-5.1.3-.8.6-1.7,1-2.5,0-.7,0-1.4.2-2.1.3-1.1.8-2.1,1.7-3h0c.3-.8.6-1.7.9-2.5h0c0-.2-.1-.5-.1-.7,0-.6.4-1.1,1-1.6,2-5.3,3.9-10.6,5.9-15.8-.1-.4-.1-.7,0-1,0-.2.1-.4.2-.6,0,0,.1-.2.2-.3.1-.2.3-.3.5-.5h0c.3-.8.7-1.7,1-2.5h0c0-1,0-1.9.4-2.8.3-.9.8-1.6,1.5-2.3.6-1.8,1.3-3.5,1.9-5.3h0c-.1-.4-.2-.7,0-1,0-.1,0-.2,0-.3,0-.2.2-.4.3-.5.1-.2.3-.3.5-.5.7-1.8,1.3-3.6,2-5.4,0-1.9.4-3.8,2-5.1.3-.8.6-1.6.9-2.5h0c-.2-.8,0-1.4.4-1.9.1-.2.3-.3.5-.4.3-.8.6-1.7.9-2.5,0-1.9.5-3.7,1.9-5.1,1.6-4.3,3.2-8.7,4.8-13-.3-1,.1-1.7.9-2.2.7-1.8,1.4-3.6,2.1-5.3-.3-1,0-1.8.9-2.3.7-1.8,1.3-3.6,2-5.3,0-.1,0-.2,0-.4,0-.3,0-.7,0-.9.2-.4.4-.7.8-1,.7-1.8,1.3-3.6,2-5.4,0-1.9.4-3.7,2-5.1,1.3-3.4,2.5-6.8,3.8-10.1,0-1.9.4-3.7,1.9-5.1,1.3-3.4,2.5-6.8,3.8-10.2,0-.6,0-1.2.2-1.7,0-.2,0-.4.1-.7,0-.3.2-.6.3-1,.3-.6.7-1.2,1.2-1.7h0c.7-1.8,1.4-3.5,2.1-5.3h0c-.2-.5-.2-1,0-1.3s.5-.7.9-1c.6-1.8,1.3-3.5,1.9-5.3-.2-.5-.2-.9,0-1.3s.5-.7.8-1c.7-1.8,1.3-3.6,2-5.3,0-.5,0-1,0-1.4,0-.2,0-.5.1-.7s.1-.4.2-.7c.3-.9.8-1.7,1.6-2.3.9-2.4,1.8-4.9,2.7-7.3,0-1.9.4-3.7,1.9-5.1,1.6-4.3,3.2-8.7,4.8-13,0-1.2.2-2.3.7-3.4.3-.6.7-1.2,1.2-1.7,1.3-3.4,2.6-6.7,3.9-10.1-.4-1,0-1.7.8-2.3.7-1.8,1.3-3.6,2-5.4-.3-.9,0-1.5.7-2,.2-.5.3-1.1.5-1.6,0-1.1-.2-2.2-.3-3.3,0-3.5,0-7,0-10.4Z"/>
    <path class="st2" d="M722.4,1088c0-1.7,0-3.5-.2-5.2-.2-3-.6-6-.6-9,0-28.4-.1-56.8-.2-85.2,0-1.6.1-3.2-.2-4.7-.7-3.1-.6-6.3-.6-9.5,0-28.9,0-57.8-.1-86.7,0-1.7,0-3.5-.2-5.2-.2-2.5-.6-5-.6-7.6,0-34.1-.1-68.2-.1-102.4,0-1.6.2-3.2-.2-4.7-.8-3.5-.7-6.9-.7-10.4,0-21.7,0-43.5,0-65.2,0-3.8,0-7.6,0-11.4-2.7,0-5.5,0-8.2,0-.9,0-1.8,0-2.7,0-1.6,0-2.3.8-2.4,2.4-.1,1.4-.1,2.9-.1,4.3,0,74.9.1,149.8.2,224.7,0,1.6,0,3.2.2,4.8.2,2.5.6,5,.6,7.6,0,61.6,0,123.1.2,184.7,0,3.2,0,6.5,0,9.7-.1,9.7-.2,19.5.9,29.2,5.1.2,10.3.4,15.4-.5,0-2.4-.1-4.8-.1-7.1,0-17.5,0-34.9,0-52.4Z"/>
    <path class="st2" d="M695.7,157.6c.2,1.4.2,2.9.4,4.3,1.1,6.2,2.2,12.5,3.6,18.7,2.2,10.4,5.3,20.6,9.1,30.5,2.6,6.8,5.8,13.4,8.4,20.2,3.1,7.9,7.4,15.1,11.6,22.4,4.7,8.1,9.8,16,15.6,23.3,4.7,5.8,9.2,11.7,14.6,16.9,2.5,2.4,5,4.9,7.4,7.4.6.6,1,1.5,1.7,2.6-1.2.8-2.2,1.6-3.3,2.2-8,4.2-16,8.5-24.1,12.5-11.2,5.6-22.5,11-33.8,16.5-6.3,3-12.7,5.8-19,8.7-1.2.5-2.3,1.1-2.9,2.4.5.7.9,1.4,1.4,2.1.1,0,.2,0,.3,0,0,0,0,0,0,0,0,0,.2.1.2.2.5,0,1,.2,1.4.4,0,0,0,0,0,0,0,0,.1,0,.2.1.2.2.3.4.4.6,0,.1.1.2.2.4.5.4,1.1.8,1.6,1.2.7,0,1.2.3,1.6.7.2.2.4.6.6.9h0c.6.4,1.1.8,1.7,1.2.3.3.7.5,1,.8h0c.6.4,1.1.7,1.7,1.1h.2c.3.3.7.6,1,.8.7.4,1.3.9,2,1.3.3.2.5.4.8.6,2,1.2,4,2.5,6.1,3.6,1,.5,2,1,3,1.5.4.2.9.4,1.3.6.8.4,1.6.7,2.4,1.1.2,0,.3.1.5.2.2-1.4,1.2-2.2,2.4-2.7,7.2-3.4,14.4-6.7,21.5-10.1,7.8-3.8,15.7-7.6,23.5-11.6,10.9-5.5,21.7-11.1,32.6-16.7,4.6-2.4,9.2-4.9,14-7.5,0-1-.1-1.9-.2-2.8,0-.1-.1-.2-.2-.3,0,0,0,0-.1,0,0,0,0,0,0,0,0,0-.1,0-.2,0,0,0-.3,0-.3,0v-.2c-.3-.2-.6-.4-.9-.6-.6,0-1.1,0-1.5-.3-.4-.3-.6-.7-.7-1.3,0-.1,0-.2-.2-.3s-.2,0-.3-.1c-.1,0-.3,0-.3,0s-.1-.2-.1-.3c0,0,0-.1-.1-.2,0,0,0,0,0,0,0,0,0-.1-.1-.1-.1,0-.2-.1-.4-.2-.8-.1-1.5-.3-2.1-.7,0,0,0,0,0,0,0,0,0,0-.1,0-.3-.2-.5-.6-.7-1,0-.1-.1-.3-.2-.4,0-.1,0-.2,0-.3,0-.1,0-.2-.2-.3,0,0-.2,0-.3-.1-.2,0-.3,0-.3,0,0,0-.1-.2-.1-.3,0-.1-.1-.2-.2-.3,0,0-.2-.1-.3-.2-.6,0-1.1-.3-1.5-.5-.6-.4-1-.9-1.4-1.5,0-.2-.2-.3-.3-.5,0-.1-.1-.2-.2-.3s-.2,0-.3-.1c-.1,0-.3,0-.3,0s-.1-.2-.1-.3c0-.1-.2-.2-.3-.3-.1,0-.2-.1-.4-.2,0,0,0,0,0,0h0c-.4-.3-.8-.6-1.2-.9-1.8-1.5-3.6-3-5.4-4.5-1.6-1.3-3.1-2.7-3.2-5-3.7-3.9-7.6-7.7-11-11.8-9.6-11.4-18.2-23.5-25.7-36.5-8.6-15-15.8-30.7-21.4-47.1-5-14.6-8.7-29.4-11.4-44.6-.3-1.9-.7-3.9-1-5.8s-.6-3.9-1-5.8c-.7.3-1.4.6-2.1,1.1-5.5,3.5-11.1,7-16.6,10.5-.2.2-.4.5-.5.7,1.8,1.1,2.5,2.8,2.7,4.8Z"/>
    <path class="st4" d="M828.6,864.3c0-.4-.2-.8-.3-1.1-6.3-22.9-12.6-45.9-18.9-68.8-2.6-9.6-5.2-19.3-7.8-28.9-3.6-13.3-7.4-26.6-11-39.9-2.8-10.1-5.4-20.2-8.2-30.3-1-3.8-2.2-7.6-3.2-11.4-.5-1.7-1.2-3.3-2.5-4.5-1.3,0-2.4.6-3.4,1.5-.1,0-.2.2-.4.3-.9.6-1.9,1-2.9,1.5-.7.4-1.1.6-1.4.7,0,0-.2,0-.2,0,0,0,0,0,0,0-.1,0-.3-.1-.4-.3-.2-.2-.5-.4-.8-.7-1.2-.5-2.5-1-3.7-1.5.2,1.6.3,3.3.6,4.9,0,.5.2,1.1.3,1.6,3.5,12.7,7.1,25.3,10.8,38,1.5,5.3,3.1,10.7,4.6,16,2.9,10.1,5.8,20.1,8.6,30.2,2.9,10.4,5.8,20.8,8.7,31.1.6,2.1,1.2,4.3,1.8,6.4,3.4,11.7,6.8,23.4,10.1,35.2,2.7,9.6,5.4,19.2,8.1,28.8,2.8,9.8,5.6,19.5,8.4,29.2,3.5,12.2,6.9,24.4,10.4,36.6,3.2,11.4,6.5,22.9,9.7,34.3,2.5,8.8,4.9,17.7,7.5,26.5,2.9,10.2,5.8,20.4,8.7,30.6,3.1,11,6.2,22,9.3,32.9,3.5,12.2,7.1,24.3,10.5,36.6,4.1,14.6,8,29.3,12.6,43.8v.2c4.1-.7,8.2-.7,12.2-.2,0,0,.1-.2.1-.2-.4-1.7-.7-3.4-1.2-5-6.2-17.6-11.3-35.6-16.1-53.6-4.1-15.4-8.5-30.8-12.7-46.2-3.5-12.8-7.1-25.6-10.5-38.4-.4-1.6-1.5-3.2-.6-5-.2-.6-.3-1.3-.5-1.9-.4-.3-.8-.6-1-1-.1-.2-.2-.5-.3-.7-.2-.7-.3-1.4-.5-2-2.5-9.2-4.9-18.3-7.4-27.5-3.5-13-7.2-25.9-10.7-38.9-3-10.8-5.9-21.7-8.9-32.5-1.3-4.9-2.7-9.8-4-14.7-.2-.9-.7-1.8,0-2.7-.2-.6-.3-1.2-.5-1.9-.9-.4-1.3-1-.5-1.9-.2-.6-.3-1.3-.5-1.9h0c-1.1-.8-1.4-1.9-1.6-3.1Z"/>
    <path class="st4" d="M970.5,176.3c-1.3-11.5-4-22.8-7.9-33.7-7.8-22.1-19.2-42-35.1-59.4-9.5-10.4-20.2-19.3-32.8-25.7-10.2-5.1-20.9-8-32.5-7.4-8.6.4-16.5,2.9-23.5,7.9-.2.2-.4.3-.6.5l-.4.3c-.2,1.3-1,1.9-2.3,1.7-.5.3-.9.7-1.4,1,0,1.3-.1,2.6.3,3.8,1,2.9.3,5.6-.7,8.3-1.6,4.5-3.3,8.9-4.8,13.4-2.3,6.8-3.7,13.8-3.3,21,.1,2.8,0,5.7,0,8.6,0,2.5.4,5,.7,7.6.4,3.6.7,7.2,1.2,10.8,2.5,17.6,7.9,34.2,16.6,49.8,2.2,4,4.7,7.9,7,11.9.2.4.5.8.8,1.2,6.3,7.7,11.8,16,19.1,23,8.6,8.2,18.3,14.8,29.1,19.5,11.4,4.9,23,9.2,35.2,11.7,2.6.5,5.3.9,7.9,1.4,1.5-.8,3.1-1.5,4.5-2.6,9.8-7.3,15.9-17.1,19.6-28.5,2.4-7.3,3.5-14.7,4.1-22.4.6-8,.2-15.9-.7-23.7ZM959.7,195.7c-.7,8.5-2,17-5,25.1-1.5,4-3.7,7.7-5.7,11.5-.5.9-1.3,1.8-2.2,2.5-.3.2-.5.4-.8.5-.2.1-.4.2-.6.3-.1,0-.2,0-.3,0,0,0-.1,0-.2,0-.8,0-1.6-.2-2.4-.9h0c-1,.1-2,.1-3,.3-.2,0-.5,0-.7.1-.2,0-.3,0-.5.1-4.1,1.3-8.2.7-12.2,0-8.7-1.6-16.7-5.1-24.3-9.5-8.4-4.9-15.9-11-22.7-18-17.6-18.1-29.9-39.4-36.8-63.7-2.6-9.1-4.1-18.3-4.5-27.7-.5-11.7,1-23.1,5.7-34,.5-1.1,1-2.1,1.5-3.1.4-.7.7-1.3,1.1-2,.2-.3.4-.6.6-1,.5-.8,1-1.5,1.6-2.2,1.8-2.3,3.9-4.4,6.3-6.1,0-.2.2-.4.3-.6.3-.4.7-.8,1.2-1.1,0,0,0,0,0,0,.1,0,.2-.1.3-.2.7-.4,1.5-.7,2.2-1.2.5-.8.9-1.3,1.4-1.5.1,0,.2,0,.4,0,0,0,0,0,0,0,.3,0,.6,0,1,.3.3.1.6.3,1,.5,1.6,0,3.2-.1,4.8-.2,2.1-2.6,4.9-4.1,8.3-3.3,3.3.7,6.6.8,9.9.7,2.8,0,5.3.8,7.8,1.9,5.5,2.5,10.5,5.9,15.4,9.4,4.5,3.3,8.9,6.6,12.8,10.6,2.3,2.3,5,4.3,7.4,6.6,6.4,6.1,11.2,13.3,15.3,21,4.9,9.2,7.7,19,10.2,29.1,1.5,6.3,2.4,12.8,3.5,19.1.5,2.6.5,5.3.9,8,1.2,9.5,1.8,19,1,28.4Z"/>
    <path class="st4" d="M740.8,151.4c0,.2,0,.4,0,.5,0,.2,0,.4,0,.6,0,.2,0,.4,0,.6,0,.2,0,.4,0,.6h0c0,.1,0,.2,0,.3.1.6.3,1.2.4,1.8.3.3.7.5.9.8,0,0,0,0,0,.1,1,3.7,2,7.5,2.9,11.3.1.4,0,.9,0,1.4.4,1.2.7,2.3,1.1,3.5.1,0,.3.1.4.3,2,5,4.4,9.8,5.3,15.2.4.9.7,1.8,1.1,2.7.8.6,1.3,1.3,1.6,2.1.2.6.4,1.2.4,1.9,0,.2,0,.5,0,.7.6,1.3,1.2,2.6,1.7,3.9.6.3,1,.7,1.3,1.2.4.6.6,1.3.6,2.1,0,.2,0,.4,0,.6.3.6.5,1.2.8,1.8.8.5,1.4,1.2,1.9,1.9.6.9,1,2,1.1,3.2,0,.3,0,.6,0,.9.3.5.6,1.1.9,1.6,1,.7,1.7,1.5,2.2,2.5.2.4.3.7.4,1.1,0,0,0,0,0,0,.1.4.2.8.3,1.2,0,.3.1.6.1.8.5,1,1,1.9,1.6,2.9.5.2.8.4,1,.7,0,.1.1.3.2.5,0,.1,0,.3,0,.4,0,.1,0,.2,0,.4.9,1.6,1.8,3.1,2.7,4.6.3.1.6.3.8.5.2.3.4.6.4,1,0,0,0,0,0,0,0,.1,0,.2,0,.3,1.2,1.9,2.3,3.8,3.5,5.7.5.1.8.4,1,.7,0,.2.2.3.2.5,0,.2,0,.4,0,.6h0c.2.3.4.6.6,1,.5.1.8.3,1,.6,0,0,0,.1.1.2,0,0,0,0,0,0,0,.2.1.4.1.6,0,.1,0,.2,0,.3,1.8,2.6,3.6,5.1,5.3,7.7.5.1.8.3,1,.6.2.2.2.5.3.8,0,.1,0,.3,0,.4,2.7,3.5,5.4,7,8.1,10.6.8.1,1.4.4,1.8.9,0,0,.1.2.2.3,0,0,0,0,0,0,.2.3.3.6.3.9,0,.2,0,.4,0,.6.8,1,1.6,1.9,2.4,2.9.7.1,1.3.4,1.7.9.3.3.5.8.6,1.3,0,.2,0,.3,0,.5,2.1,2.3,4.1,4.6,6.2,6.9,1,1.2,1.9,2.4,2.9,3.6.8.4,1.6.8,2.4,1.2h0c.3-1.8,1.7-2.6,3-3.3.3-.2.6-.3.9-.5,5.6-3.4,11.2-6.6,16.8-9.9.8-.5,1.7-.9,2.4-1.5,1.9-1.5,2.1-2.9.4-4.8-2.6-3-5.3-5.9-7.9-8.9-4.6-5.3-9-10.6-13.6-15.9-4.5-5.3-8.4-11.1-12-17.1-6.6-11-13-22.1-18-34-1.6-3.8-3.1-7.6-4.8-11.4-3.3-7.6-5.4-15.6-6.8-23.7-.7-4-1-8.2-1.4-12.2-.4-3.5-.8-6.9-.9-10.4-.3-7.6.1-15.2,1.5-22.9-.8-.3-1.5-.5-2.1-.7-.2,0-.4-.1-.6-.2-.3,0-.5.1-.7.4-.3.2-.7.4-1,.7.3-.2.7-.4,1-.7-.3.2-.7.4-1,.7-.3.2-.6.4-.9.6,0,.3-.2.4-.4.5,0,0-.2,0-.3,0h0s-.3.2-.3.2c-.3.2-.7.4-1,.7-.6.4-1.2.8-1.8,1.2-.3.2-.7.5-1,.7h0c-.3.8-.8,1.2-1.6,1.1,0,0-.2.1-.2.1-.3,1.6-1.4,1.9-2.7,1.7,0,0-.2,0-.2,0-.5.3-1,.6-1.5,1,0,0-.2,0-.2,0v.2c-.4.2-.7.4-1,.6,0,0-.1,0-.1,0-.3,1.6-1.4,1.9-2.8,1.8h-.1c-.5.4-1.1.7-1.6,1,0,0-.3.2-.3.2-.3.2-.6.4-1,.7-.3.2-.6.4-.9.6-.2.2-.5.3-.7.5,0,0-.2.2-.2.2-.3.2-.7.5-1,.7.3-.2.7-.5,1-.7-.3.2-.7.5-1,.7-.3.2-.6.3-.9.5-.3.2-.5.4-.8.5-.4.3-.8.5-1.2.8-.3.8-1.1,1-1.8.9h0c-.3.9-1,1.1-1.9,1-.3.3-.7.6-1,.9l-.9,1c-.3,0-.4.1-.4.4.4,2.9,1,5.7,1.2,8.6,0,.4,0,.8,0,1.2.3,5.7,1.1,11.3,2.3,16.9Z"/>
    <path class="st3" d="M743.4,673.4c.3,1.4.5,2.8.8,4.2,7.5,31.2,15,62.3,22.5,93.5,4.2,17.4,8.4,34.9,12.6,52.3,3.8,15.9,7.6,31.8,11.4,47.7,5.8,24.1,11.7,48.1,17.5,72.2,6.9,28.7,13.8,57.4,20.7,86.1,5.8,24.1,11.6,48.1,17.4,72.2,3.2,13.3,6.4,26.5,9.6,39.8.3,1,.8,2,1.1,2.9,3.3.5,14.5.7,17.3.3.1,0,.3-.1.4-.2-1.2-1-2.7-.6-4.1-.7-1.2,0-2.5-.3-3.7-.4-.5-1.2-1-2.2-1.3-3.3-1-4-2-8-3-12-4.1-17.4-8.1-34.9-12.2-52.3-4.2-18.1-8.5-36.1-12.8-54.2-3-12.6-6.2-25.3-9.2-37.9-2.6-10.8-5-21.6-7.5-32.4-2.8-12-5.7-24.1-8.5-36.1-4.4-18.5-8.7-37-13.1-55.5-1.4-5.9-3-11.7-4.3-17.5-3.7-15.9-7.3-31.8-11.1-47.7-2.6-11-5.3-21.9-7.9-32.8-4.6-19.3-9-38.6-13.6-57.9-1.4-6.2-3-12.3-4.4-18.5-1.1-4.7,0-5.7,4.9-4.5.2,0,.3.1.4.2,1.2.5,2.5,1,3.7,1.5,1-.4,2-.4,2.9.4,1-.5,2-.9,2.9-1.5.1,0,.2-.2.4-.3,1-.8,2.1-1.4,3.4-1.5.6-.1,1.3-.3,1.9-.4-.4-1.8-.8-3.6-1.2-5.5-3.8,0-7.6-.3-11.3-.3-7.6,0-15.1.2-22.7.4Z"/>
    <path class="st6" d="M393.4,459.6c-1.3-2.3-2.2-4.8-3.3-7.3-1.1-1.9-2.1-3.7-3.2-5.6-3.7,2.1-7.5,4.1-11.2,6.3-7.9,4.7-16,9.2-24.1,13.4-3.8,2-7.5,2.1-11.5,1-2-.6-3.8-1.5-5.2-3.1-1.6-1.8-3.1-3.6-4.7-5.4-8.8-9.8-17.6-19.6-26.3-29.5-2.6-3-5.3-5.9-7.9-8.9-.5-.6-.9-1.3-1.4-2.2,4.9-4.4,10.2-8.1,14.8-12,2.1,0,2.7,1.1,3.5,2.1,3.4,4.2,6.8,8.4,11.2,11.6,3.2,2.4,6,5.1,8.7,8.1,2.1,2.3,4.8,4.1,7.4,6,2.5,1.8,5.4,1.9,8.2.8,2.5-1,4.8-2.4,7.2-3.6,1.8-.9,3.6-1.9,5.5-2.7,1.9-.8,3.8-1.5,5.8-2.2,4.8-1.8,8.6-4.7,11.1-9.3,0-.8-.2-1.6-.2-2.4-.3,0-.5-.2-.7-.4-.4,1.7-1.8,2.5-3.2,3.2-9.5,4.7-19,9.5-28.5,14.2-3,1.5-3.9,1.2-6.1-1.5-.3-.4-.6-.8-.8-1.2-5.6-8.1-11.2-16.1-16.8-24.2-1.4-2.1-3-4.1-4.4-6.2-1-1.5-.8-2.6.5-3.8.6-.5,1.3-.9,1.9-1.4,2.4-2,4.9-3.9,7.3-6,3.5-3.1,3.9-6.1,1.4-10.1-.4-.7-.9-1.3-1.3-2-3.5-5-7.2-10-10.6-15.1-2-2.9-3.7-5.9-5.5-8.9-1-1.7-2.3-2.6-4.3-2.4-.9.1-1.8.5-2.7.8h0c2.5,3.8,5.2,7.4,8,10.9.9,1.2,1.9,2.4,2.8,3.6,3.8,4.8,6.9,10.2,9.2,16.1-.8.9-1.5,1.8-2.3,2.5-8.1,7.8-16.8,15-25.7,21.8-7.6,5.9-15.5,11.6-23.1,17.5-6.1,4.8-12.1,9.7-18.2,14.6-1.3,1-2.4,2-4.2,2,.6.7,1.2,1.5,1.9,2,2.9,2,4.9,2,7.8-.1,1.5-1.1,3-2.4,4.5-3.5,1.9-1.4,3.8-2.8,5.5-4.2,4.8,2.3,5.1,2.6,7.5,6,4.5,6.5,9.1,13,13.7,19.5,6.6,9.3,13.2,18.6,19.9,27.9,2,2.8,4.1,5.6,6.2,8.4.3-.4.6-.7.8-1.1.5-1,1-1.9,1.6-2.7.3-.4.6-.8.9-1.2,2.7-3.4,6.2-5.4,10.4-6.2,1.9-.3,3.9-.4,6-.2.8-.8,1.7-1.2,2.6-1.4,1.3-.3,2.6,0,3.9.9.1,0,.3.2.4.3,4.8,3.3,9.6,6.7,12.7,11.9,1.6,2.7,3.1,5.5,4.7,8.2.3-.1.6-.2.9-.3,5.2-3,10.3-6.1,15.6-9,4.6-2.4,9.4-4.5,13.5-7.7.6-.5,1.4-.7,2.1-1,3.9-2,7.9-4,11.8-6-.8-1.5-1.6-3-2.5-4.5-3.1-5.1-6.3-10.2-9.3-15.4Z"/>
    <path class="st2" d="M771.1,127c.2,3.5.6,6.9.9,10.4.4,4.1.7,8.2,1.4,12.2,1.4,8.1,3.6,16.1,6.8,23.7,1.6,3.8,3.2,7.6,4.8,11.4,5,11.9,11.4,23,18,34,3.6,6,7.5,11.8,12,17.1,4.5,5.3,9,10.6,13.6,15.9,2.6,3,5.3,5.9,7.9,8.9,1.7,1.9,1.5,3.3-.4,4.8-.7.6-1.6,1-2.4,1.5-5.6,3.3-11.2,6.5-16.8,9.9-.3.2-.6.3-.9.5-1.3.8-2.7,1.6-3,3.3h0c.5.6.9,1.3,1.5,1.9,0,0,.2.2.3.2,6.9,5.7,14.4,10.7,22.4,14.9.3.1.6.3.8.4.9.4,1.8.6,2.7,1,.6-1.6,1.9-2.4,3.2-3.2.4-.3.9-.5,1.3-.8,8.4-5.3,16.9-10.5,25.3-15.7,3.9-2.4,7.7-4.9,11.7-7.2,1.6-1,2.7-2.1,2.6-4.1-.3-.1-.7-.2-1-.3t0,0h0c-.3-.4-.6-.8-.9-1.2,0,0,0,0,0,0,0,0,0-.1-.1-.2,0,0,0,0,0,0,0,0-.2-.1-.3-.1-.6,0-1.1,0-1.5-.3,0,0-.1-.1-.2-.2,0,0,0,0,0,0-.2-.2-.3-.4-.4-.6,0-.1,0-.3-.1-.4,0,0,0-.1-.1-.2,0,0,0,0,0,0,0,0,0,0-.1-.1,0,0-.2-.1-.3-.1-.6,0-1.1,0-1.5-.3,0,0-.2-.1-.3-.2,0,0,0,0,0,0-.2-.2-.3-.4-.4-.6,0-.1,0-.3-.1-.4,0,0,0-.1,0-.1,0,0,0,0,0,0,0,0,0,0-.1-.1,0,0-.2,0-.3,0-.6,0-1-.2-1.4-.5-.3-.2-.5-.5-.7-.9,0-.1-.1-.2-.2-.4,0,0,0-.2-.2-.2,0,0-.2,0-.3,0-.2,0-.3,0-.4,0,0,0-.2-.2-.2-.3,0,0,0-.1-.1-.2,0,0,0,0,0,0,0,0-.2-.2-.3-.2,0,0-.1,0-.2,0h-.2c-.3-.4-.6-.6-1-.9-.3-.2-.6-.5-.9-.7,0-.1-.1-.2-.2-.3,0,0-.2-.1-.3-.1-.1,0-.2,0-.3,0,0,0-.1-.2-.1-.3,0-.1-.2-.2-.3-.3-.1,0-.2-.1-.4-.2,0,0,0,0,0,0h0c-.4-.3-.7-.5-1.1-.8,0,0,0,0,0,0,0,0,0,0,0,0,0,0,0,0,0,0-1-.9-2-1.9-3-2.8-.8-.2-1.4-.5-2-1,0,0,0,0,0,0-.2-.2-.4-.4-.6-.7,0-.1-.2-.3-.2-.4-.7-.6-1.3-1.2-2-1.8-1.2.7-2.5,1.4-3.7,2.1-1.4.8-2.2.8-3.5-.3-1-.8-1.9-1.7-2.7-2.7-3.3-4-6.6-8.1-10-12.1-5.3-6.4-9.5-13.5-13.7-20.5-2.7-4.5-5.7-8.7-8.6-13.1-.4-.7-.8-1.3-1.2-2-7.4-14.1-13.6-28.6-18-43.9-2.2-7.5-4-15-5.1-22.7-.7-5-1.6-10-1.3-15.1.2-3.3.1-6.7,0-10-.2-5,.9-9.8,1.4-14.6.2-2,.3-4.1.4-6.1-.6.2-1.2.3-1.7.7-7.1,4.5-14.3,9-21.4,13.6-.4.2-.6.7-.9,1,.2,0,.4.1.6.2.7.2,1.3.5,2.1.7-1.4,7.7-1.8,15.3-1.5,22.9Z"/>
    <polygon class="st2" points="868.7 256.7 868.7 256.7 868.7 256.7 868.7 256.7"/>
    <path class="st5" d="M725.5,196.8c5.6,16.4,12.8,32.1,21.4,47.1,7.4,12.9,16,25.1,25.7,36.5,3.5,4.1,7.3,7.9,11,11.8.8-2.4,2.4-3.7,4.8-4.7,3.8-1.5,7.5-3.3,10.9-5.5,3-1.9,6-2.7,9.3-2.4.6,0,1.3,0,1.9,0-1-1.2-1.9-2.4-2.9-3.6-2-2.3-4.1-4.6-6.2-6.9-1-.3-1.7-.9-2.1-1.8-.1-.3-.2-.6-.3-.9-.8-1-1.6-1.9-2.4-2.9-1.2-.6-2.1-1.5-2.4-2.8-2.7-3.5-5.4-7-8.1-10.6-.5-.6-.9-1.2-1.3-1.8-1.8-2.6-3.6-5.1-5.3-7.7-.4-.6-.9-1.2-1.3-1.8-.2-.3-.4-.6-.6-1-.4-.6-.8-1.3-1.2-1.9-1.2-1.9-2.3-3.8-3.5-5.7-.8-.4-1.2-1-1.1-1.9-.9-1.5-1.8-3.1-2.7-4.6-.2-.3-.4-.7-.6-1-.2-.3-.4-.7-.6-1h0c-.5-1-1-1.9-1.6-2.9-1.7-1.5-2.6-3.5-3.1-5.7-.3-.5-.6-1.1-.9-1.6-.6-.7-1-1.3-1.5-2.1-.3-.5-.5-1-.7-1.5-.3-.8-.6-1.6-.7-2.4-.3-.6-.5-1.2-.8-1.8-1.2-1.1-1.9-2.3-1.9-3.9-.6-1.3-1.2-2.6-1.7-3.9-1.3-1.3-2-2.8-2-4.6-.4-.9-.7-1.8-1.1-2.7-2.8-4.8-4.6-10-5.7-15.4-.4-1.2-.7-2.3-1.1-3.5-2.2-4.3-3.3-8.9-3.8-13.6-.1-.6-.3-1.2-.4-1.8,0-.1,0-.2,0-.3h0c-.3-.9-.6-1.8-.9-2.7,0-.3-.2-.6-.2-.9-1.8-8.4-2.5-16.9-2.8-25.5-.8.4-1.8.7-2.5,1.2-6.7,4.3-13.3,8.6-19.9,12.9-.8.5-1.4,1.2-2.2,1.8.3,1.9.7,3.9,1,5.8.3,1.9.7,3.9,1,5.8,2.7,15.1,6.4,30,11.4,44.6Z"/>
    <path class="st5" d="M792.5,430h0s0,0,0,0c0,0,0,0,0,0h0c-.4.4-.7.9-1.1,1.3-.4.4-.7.8-1.2,1.1-6.7,4.9-12.3,10.9-17.4,17.4-5.6,7.1-10.8,14.4-15.7,22-4.2,6.5-8.1,13.2-11.9,19.9-5.8,10.2-11.1,20.6-16.3,31.1-1.3,2.7-2.8,5.4-2.5,8.5,1.4-.7,2.8-1.5,4.2-2.1,1.3-.6,2.6-1,3.9-1.5.5-1.4,1.7-2,2.9-2.7.2-.1.3-.2.5-.3,1.3-.9,2.7-1.6,4-2.3,2.9-1.5,5.7-3,8.6-4.4,1.6-.8,3.4-1.5,5-2.2.7-.6,1.4-1.3,2.2-1.9.1,0,.2-.1.3-.2,9.2-5.3,18.4-10.5,27.7-15.7,1.5-.8,3.1-1.5,4.7-2.2,2-1.3,3.9-2.7,5.9-3.9,9.9-5.7,19.8-11.3,29.7-16.9,1-.5,2-1.1,2.8-1.7,2.4-1.7,3.1-3.4,2.2-6.1-.6-1.8-1.4-3.5-2.4-5.1-6.8-11.8-13.7-23.5-20.6-35.2-.6-1.1-1.5-2-2.2-3-2.9,1.5-5.9,2.8-8.8,4.4-1.5.8-2.9,1.8-4.7,1.8Z"/>
    <path class="st4" d="M797.1,516c-.1.7-.3,1.3-.4,1.9-1.5,4.8-.3,9.5.8,14.1,1.7,6.9,3.8,13.7,5.8,20.6.3,1.1.7,2.1,1.2,3.1,3,6.5,6.1,12.9,9.2,19.3,2.3,4.8,4.7,9.7,7.2,14.5,4,7.6,8.1,15,12.2,22.6,2.6,4.9,5.2,9.8,7.9,14.7,3.7,6.8,7.6,13.5,11.4,20.3,2.2,4,4.4,8.1,6.7,12,3.2,5.6,6.5,11.3,9.7,16.9.2.4.3.9.5,1.3,1.3-.4,2.6-.8,3.9-1.2,1-.3,2-.6,3-.9h0c.3-.2.6-.4.9-.6.3-1.2,1.2-1.7,2.4-1.7,1.8-1.8,3.6-3.7,5.4-5.5h0c0-.5,0-1,.3-1.3.2-.3.6-.6,1.1-.7.6-1.1,1.2-2.3,1.8-3.4.3-2.8.5-5.6.8-8.4,0-.5-.1-1-.2-1.4-.9-.7-1.4-1.6-1.3-2.8h0c-1.8-.8-2.5-2.4-2.6-4.2,0-.2-.1-.4-.3-.5-1.8-.8-2.5-2.3-2.6-4.2,0-.2-.1-.4-.3-.6-1.2-.4-1.6-1.2-1.6-2.4,0-.2-.1-.4-.3-.5-2.4-1.8-3.9-4.1-4.5-7,0-.2-.1-.4-.3-.6-1.3-.5-1.9-1.5-1.8-2.9h0c-1.8-.8-2.4-2.3-2.6-4.1-1.3-.5-1.9-1.5-1.9-2.9h0c-1.5-.7-2.2-1.9-2.2-3.5h0c-1.8-.8-2.5-2.2-2.6-4.1h0c-1.4-.5-1.9-1.6-1.9-3,0-.2-.1-.4-.3-.5-1.7-.9-2.5-2.4-2.6-4.2,0-.2-.2-.4-.3-.5-1.1-.3-1.7-1.1-1.5-2.2-1.4-.5-1.9-1.6-1.9-3,0-.2-.1-.4-.3-.5-1.9-1-2.7-2.7-2.9-4.7h0c-2.5-1.7-3.7-4.2-4.4-7-1.4-.5-2-1.5-1.9-3,0-.2-.1-.4-.3-.5-1.7-.8-2.5-2.2-2.6-4.1-1.3-.6-1.9-1.6-1.9-3,0-.2-.1-.4-.3-.5-2.4-1.7-3.8-4.1-4.5-6.9-1.3-.6-1.9-1.6-1.9-3,0-.2-.1-.4-.3-.5-2.4-1.7-3.8-4.1-4.4-7l-.2.2.2-.2c-2.2-1.6-3.6-3.7-4.1-6.4h0c-1.8-.8-2.4-2.3-2.6-4.1h-.2c0,.1.2,0,.2,0-1.9-1-2.7-2.7-3-4.8,0-.2-.1-.4-.3-.5-1.2-.4-1.7-1.2-1.5-2.4,0-.2-.1-.4-.3-.5-1.7-.8-2.5-2.2-2.7-4-1.3-.6-1.9-1.6-1.9-3,0-.2-.1-.4-.3-.6-1.3-.5-1.9-1.5-1.8-2.9h0c-1.7-.8-2.4-2.3-2.6-4.1-1.4-.5-2-1.6-1.9-3,0-.2-.1-.4-.3-.5-1.4-.5-1.9-1.5-1.9-2.9h0c-1.8-.8-2.4-2.4-2.6-4.2,0-.2-.1-.4-.3-.5-1.2-.4-1.6-1.2-1.6-2.4,0-.2-.1-.4-.3-.5-.6,0-1.2-.1-1.8-.2-.3,2-.3,4.1-.7,6Z"/>
    <path class="st5" d="M589.1,222.2c0,1.9.1,3.8.1,5.7,0,.6,0,1.3,0,1.9-.1,6.7.8,13.3,2.1,19.8,2.6,13,7.4,25.2,13.4,37,8.2,16,18.6,30.6,30.6,44,9.2,10.3,19,20,29.8,28.5.4-2.6,2.1-4.2,4.3-5.3,3.2-1.7,6.5-3.2,9.7-4.9,2.4-1.2,4.9-.6,7.4-.8-.5-.7-.9-1.4-1.4-2.1-4.1-1.7-7-4.8-10.2-7.7-14-12.5-26.3-26.5-36.7-42.2-11.5-17.3-20.2-35.9-24.8-56.2-1.3-5.6-2.3-11.2-2.4-16.9,0-5.7,0-11.4,0-17.1-7.2,4.6-14.5,9.2-21.7,13.8,0,.8,0,1.6,0,2.4Z"/>
    <path class="st3" d="M899.8,240.4c-10.8-4.6-20.5-11.2-29.1-19.5-7.3-7-12.8-15.3-19.1-23-.3-.4-.6-.8-.8-1.2-2.4-4-4.8-7.8-7-11.9-8.6-15.6-14-32.2-16.6-49.8-.5-3.6-.8-7.2-1.2-10.8-.3-2.5-.6-5-.7-7.6-.1-2.9,0-5.7,0-8.6-.3-7.2,1.1-14.2,3.3-21,1.5-4.5,3.1-9,4.8-13.4,1-2.7,1.7-5.4.7-8.3-.4-1.1-.2-2.5-.3-3.8-3,1.9-6.1,3.7-9.1,5.6-.2.1-.4.5-.5.7.4.2.8.5,1.3.8.2,0,.3.2.5.3-.4,1-.6,1.9-1.1,2.7-3.1,5-5.3,10.4-7.2,16-1.9,5.6-2.5,11.4-2.9,17.2-.1,1.9-.4,3.8-.6,5.7-.5,5.2-.6,10.4,0,15.6.2,1.4.5,2.8.5,4.2,0,4.5.8,8.8,1.8,13.1,1,4.5,2.2,8.9,3.2,13.4.4,1.7.5,3.4.7,5.1h0c0,1.1.2,2.2.6,3.2,0,.1,0,.2.2.4,0,.2.2.4.2.6.3.6.5,1.2.8,1.7,8.6,19.4,19.4,37.4,33.2,53.5,4,4.7,8.6,8.9,12.9,13.4,1.1,1.1,2,2.4,3,3.6,10.9,8.6,22.8,15.2,35.8,19.6,2.2.7,4.3,1.4,6.5,2s4.4,1.2,6.7,1.7c1.8.4,3.7.8,5.5,1.2,6-2.5,11.4-6,16.9-9.3-2.6-.5-5.3-.9-7.9-1.4-12.2-2.5-23.8-6.8-35.2-11.7Z"/>
    <path class="st1" d="M745.7,657.4c-2.5.1-5.1.5-7.6,0-3.3-.6-6.6-.6-10-.6-2.9,0-5.7,0-8.6,0-6,0-12-.8-18-1.6-3.3-.5-6.6-.7-9.9-1.2-4.1-.6-8.2-1.3-12.2-2.3-5.9-1.4-11.4-3.9-16.4-7.4-3.2-2.3-5.6-5.1-6.3-9.1-2-.1-4.1-.4-6.1-.3-3.4.1-5.3,1.8-5.8,5.1-.3,1.5-.2,3.1-.2,4.7.1,4.9.3,9.8.4,14.7,0,2.1,0,4.1,0,6.2.2,3.6,2.3,6,6,6.7.8.2,1.5.4,2.2.7h0c1.1-.1,2.2-.3,3.2-.4.6,0,1.3-.1,1.9-.1,24.2.2,48.5.4,72.7.7,1.1,0,2.2.2,3.3.3,2.9,0,5.9,0,8.8,0,7.6-.1,15.1-.3,22.7-.4,3.8,0,7.6.2,11.3.3,1.9-.1,3.7-.2,5.6-.4,3.7-.5,6-2.9,6.2-6.6.1-3.2.5-6.6-.7-9.7-11.9,0-23.8.1-35.7.3-2.4,0-4.7.4-7.1.5Z"/>
    <path class="st1" d="M752,361.8c-.4.2-.7.3-1,.5-5.6,3.1-11.3,6.3-16.8,9.5-2.2,1.3-4.2,1.6-6.6.4-3-1.6-6.3-2.9-9.4-4.4-.5-.2-.9-.5-1.4-.8-.3-.2-.6-.4-.9-.6-.4-.3-.9-.6-1.3-.9-.2,0-.3-.2-.5-.2-.8-.4-1.6-.7-2.4-1.1-.4-.2-.9-.4-1.3-.6-1-.5-2-.9-3-1.5-2.1-1.1-4-2.4-6.1-3.6-.3-.2-.5-.4-.8-.6-.7-.4-1.3-.9-2-1.3-.3-.2-.7-.5-1-.7h-.2c-.6-.5-1.1-.8-1.7-1.2h0c-.3-.3-.7-.5-1-.8-.6-.4-1.1-.8-1.7-1.2-.3,0-.5,0-.8,0-.7-.2-1.2-.7-1.4-1.5h0c-.5-.4-1.1-.8-1.6-1.2-1.1,0-1.9-.5-2.2-1.6h0c0-.1-.1-.2-.2-.2,0,0,0,0,0,0,0,0-.2,0-.3,0h0c-2.5.2-5-.4-7.4.8-3.2,1.6-6.5,3.2-9.7,4.9-2.2,1.1-3.8,2.7-4.3,5.3l.2.4c.4.6.8,1.2,1.2,1.8h0c0,.1,0,.2.1.2s.2,0,.3.1c.4.3.9.6,1.3.9,2.5,1.7,5,3.5,7.5,5.2,3.9,2.7,7.7,5.4,11.6,8,6.5,3.8,12.9,7.6,19.4,11.5h0c.6-.3,1.1-.5,1.7-.8,1.7-.8,3.4-1.6,5.1-2.5,3.2-1.7,6.3-3.6,9.5-5.3.7-.4,1.7-.3,2.6-.5.9,2.7,0,5,.1,7.4.3,7.9.5,15.8.8,23.7,0,2,.4,4.1.7,6.1.2,1,1.2,1.5,2.2,1.1,1.7-.9,3.4-1.7,5-2.8,1.6-1.2,3.3-2.3,4.9-3.3,5-3.2,10.3-6,15.4-8.9h0c3.2-2,6.4-4.2,10.1-5,.6-.1,1.2-.4,1.7-.8,4.1-2.6,5.8-6.3,3.4-11-.6-1.1-1.2-2.2-1.9-3.3-4.2-6.9-8.5-13.8-12.8-20.6-.9.4-1.8.7-2.7,1.1-.2,0-.4.2-.6.3Z"/>
    <path class="st5" d="M716.5,634.8c-1.2,0-2.4-.4-3.7-.6h0c-.7,0-1.3.1-2,.2-3.2,0-6.5.2-9.7.2-2.7,0-5.5,0-8.2,0-.5,0-.9,0-1.4,0-8.2,0-16.3,0-24.4,0-3.4,0-6.9.2-10.3.3.8,4,3.1,6.9,6.3,9.1,5,3.5,10.5,6,16.4,7.4,4,1,8.1,1.6,12.2,2.3,3.3.5,6.6.7,9.9,1.2,6,.8,11.9,1.6,18,1.6,2.9,0,5.7,0,8.6,0,3.3,0,6.6,0,10,.6,2.5.4,5.1,0,7.6,0,2.4-.1,4.7-.5,7.1-.5,11.9-.1,23.8-.2,35.7-.3.9-5.7,0-11.4-1.2-17-1-4.8-3-5.6-7-5.5-2.5,0-5.1,0-7.6,0-4.4,0-8.9,0-13.3,0-4.7,0-9.5,0-14.2,0-1.2.2-2.4.6-3.7.6-8.3,0-16.6,0-24.9,0Z"/>
    <path class="st5" d="M797.9,87.8c-2.3,9.5-2.4,19.2-1.9,28.9.5,8.9,2.1,17.6,4.2,26.3,5.8,23.5,15.9,45.1,28.8,65.5,8.4,13.3,18.1,25.7,29.2,36.9.4.4,1,.8,1.4,1.2,3-4.2,6.7-7.2,11.9-8.2-1-1.2-2-2.4-3-3.6-4.3-4.5-8.8-8.7-12.9-13.4-13.9-16.1-24.7-34.1-33.2-53.5-.3-.6-.5-1.2-.8-1.7,0-.2-.2-.4-.2-.6,0-.1-.1-.2-.2-.4-.4-1-.6-2-.6-3.2h0c-.2-.3-.5-.6-.7-.9-.1-.2-.3-.4-.4-.6-2.8-7.1-5.4-14.2-6.6-21.8-.2-1.4-.6-2.8-1-4.2-2.8-10.6-2.6-21.4-1.8-32.1,0-1,.2-2,.3-2.9,0-.6.1-1.2.2-1.7.9-6.3,2.7-12.4,4.9-18.4,0,0,0-.3,0-.3l.3-.2c.3-.8.5-1.6.8-2.3,0,0,0,0,0,0h0s0,0,0,0c0,0,0-.3,0-.3h0s0,0,0,0h.2c.3-1.3.6-2.4.9-3.5-1.1.5-2.4.8-3.4,1.4-3.1,1.9-6.1,3.9-9.1,5.9-2.5,1.6-4.9,3.4-7.3,5.1,0,.9.3,1.9,0,2.8Z"/>
    <path class="st3" d="M758.1,513.8c-.1,0-.2.1-.3.2-.8.5-1.4,1.3-2.2,1.9.5,1,1,2,1.6,2.9,15.8,26.4,31.7,52.8,47.5,79.2,12,20,24,40,36,60,3.5,5.9,7,11.7,10.3,17.7,1.6,3,3.9,4.5,7.3,4.4,2.7,0,5.5,0,8.1-.5,3.5-.8,7.1-1.6,9.7-4.5h0c-1,.3-2,.6-3,.9-1.3.4-2.6.8-3.9,1.2-3.3,1.4-3.4,1.5-5.3-.8-2.7-3.3-5.3-6.7-7.6-10.3-6.6-10.1-13-20.3-19.5-30.4-8.1-12.7-16.3-25.3-24.3-38-6.8-10.9-13.5-21.8-20.1-32.8-2.9-4.9-5.6-9.9-8.4-14.9-2.3-4.1-3.4-8.5-3.3-13.2,0-1.4.2-2.9-.2-4.3-1.2-4,0-7.9.7-11.7.9-4.5,3-8.7,5.3-12.7,1-1.8,2.5-3.2,4.5-4.1,1.5-.7,2.8-.6,3.9.7,1.3,1.5,2.8,3.1,3.1,5.3.6,0,1.2.1,1.8.2-.5-1.1-1-2.3-1.6-3.3-2.4-3.7-4.9-7.3-7.4-11-1.6.7-3.2,1.4-4.7,2.2-9.2,5.2-18.5,10.4-27.7,15.7Z"/>
    <path class="st5" d="M265.6,412.6c7.1-5.9,14.2-11.7,21.2-17.6,1.3-1.1,2.6-2.4,3.8-3.6,1.9-1.9,2.7-4.1,2.9-6.8.4-4.9,1.2-9.7,1.5-14.6.3-4.4.2-8.9.2-13.3-.9.6-1.9,1.2-2.8,1.8-8.2,6.3-16.3,12.6-24.5,18.9-11.4,8.8-22.8,17.7-34.2,26.5-2.1,1.6-3.6,3.5-4.6,5.9-.9,2.1-.9,4,.6,5.7,4.6,5.2,9.3,10.3,14,15.5,2.4-2,4.9-4.1,7.3-6.1s4.9-4.1,7.3-6.1c2.4-2,4.8-4.2,7.2-6.2Z"/>
    <path class="st1" d="M272.8,422.4c7.6-5.9,15.4-11.6,23.1-17.5,8.9-6.9,17.6-14.1,25.7-21.8.8-.7,1.5-1.6,2.3-2.5-2.3-5.9-5.4-11.3-9.2-16.1-.9-1.2-1.9-2.4-2.8-3.6-2.8-3.6-5.5-7.2-8-10.9h0c-.3,0-.7,0-.9.2-2.6,2.2-5.2,4.4-7.7,6.6,0,4.4,0,8.9-.2,13.3-.3,4.9-1.1,9.7-1.5,14.6-.2,2.7-1,4.9-2.9,6.8-1.3,1.2-2.5,2.5-3.8,3.6-7.1,5.9-14.1,11.7-21.2,17.6-2.4,2-4.8,4.2-7.2,6.2-2.4,2-4.8,4.1-7.3,6.1s-4.9,4.1-7.3,6.1c2.2,2.7,4.4,5.3,6.6,8,1.7,0,2.9-1,4.2-2,6-4.9,12-9.8,18.2-14.6Z"/>
    <path class="st1" d="M844.9,301.5c-1.5-.8-2.9-1.6-4.4-2.4h0c-.9-.3-1.8-.6-2.7-1-.3-.1-.6-.2-.8-.4-8-4.2-15.4-9.2-22.4-14.9,0,0-.2-.1-.3-.2-.6-.6-1-1.3-1.5-1.9h0c-.8-.4-1.6-.8-2.4-1.2,0,0,0,0,0,0-.6,0-1.3.1-1.9,0-3.4-.3-6.4.5-9.3,2.4-3.4,2.2-7.1,4-10.9,5.5-2.4,1-4,2.3-4.8,4.7,0,2.3,1.6,3.6,3.2,5,1.8,1.5,3.6,3,5.4,4.5.4.3.8.6,1.2.9,0,0,0,0,0,0,.1,0,.3,0,.4.2.1,0,.2.2.3.3h.4s.1.4.1.4c.1,0,.2,0,.3.1s.1.1.2.3c1.4.4,2.5,1.2,3.2,2.5.1,0,.3,0,.3.2s.2.2.2.3h.4s0,.4,0,.4c.1,0,.2,0,.3.1s.1.1.2.3c1.5.3,2.6,1.2,3.2,2.5.1,0,.3,0,.4.2,0,0,.1,0,.1.1,0,0,0,0,0,0,0,0,0,.1.1.2h.4s0,.4,0,.4c.1,0,.2,0,.3.1,0,0,.1.1.2.3,1.1,0,1.8.6,2.1,1.7.2.2.5.4.8.6h.3s0,.3,0,.3c0,0,.1,0,.2,0,0,0,0,0,0,0,0,0,0,0,.1,0,0,0,.2.2.2.3,1.9,1.3,3.8,2.6,5.7,3.9,2.2,1.5,4.4,3,6.5,4.5,1.4-.6,2.9-1.1,4.3-1.9,7.9-4.4,15.9-8.9,23.8-13.4.9-.5,1.7-1.3,2.6-2h0c-2.1-1.2-4.2-2.5-6.4-3.7Z"/>
    <path class="st1" d="M737.5,525.1c-1.1.7-2.4,1.3-2.9,2.7h0c-.1,2.5-.2,5-.3,7.5-.1,4.2-.3,8.3-.7,12.4-.8,7.6-.9,15.2-.8,22.8.2,10.2-.4,20.2-1.8,30.3-.9,6.4-2,12.8-4.6,18.8-2.1,4.9-5,9.1-9.9,11.8-.2,0-.3.2-.5.3-1.1.7-2.1,1.7-3.2,2.6,1.2.2,2.4.6,3.7.6,8.3,0,16.6,0,24.9,0,1.2,0,2.4-.4,3.7-.6,0-.5-.2-.9-.2-1.4-.2-7.9-.3-15.9-.5-23.8-.4-13.9-1-27.9-1.4-41.8-.3-10.1-.5-20.3-.7-30.4,0-.8,0-1.6,0-2.4,0-4-.2-7.9-.2-11.9-1.3.8-2.7,1.5-4,2.3-.2.1-.3.2-.5.3Z"/>
    <path class="st3" d="M808.3,314.1c0,.9.1,1.8.2,2.8-4.8,2.6-9.3,5.1-14,7.5-10.8,5.6-21.7,11.2-32.6,16.7-7.8,3.9-15.6,7.8-23.5,11.6-7.1,3.4-14.3,6.8-21.5,10.1-1.2.6-2.2,1.3-2.4,2.7.4.3.9.6,1.3.9.3.2.6.4.9.6.4.3.9.6,1.4.8,3.1,1.5,6.4,2.8,9.4,4.4,2.4,1.3,4.4.9,6.6-.4,5.6-3.3,11.2-6.4,16.8-9.5.3-.2.7-.4,1-.5.2,0,.4-.2.6-.3.9-.4,1.8-.7,2.7-1.1h0c2.8-1.7,5.6-3.5,8.5-5.2,17.4-9.9,34.8-19.7,52.1-29.6,1.6-.9,3.1-2.1,4.6-3.2-2.2-1.5-4.4-3-6.5-4.5-1.9-1.3-3.8-2.6-5.7-3.9Z"/>
    <path class="st5" d="M356.3,519.9c.5-6-.7-11.5-3.8-16.8-3.1-5.3-6.9-9.8-11.9-13.3-2.2-1.6-3.6-3.5-3.6-6.3h0c-2.1-.2-4.1-.1-6,.2-4.2.7-7.7,2.7-10.4,6.2-.3.4-.6.8-.9,1.2-.6.8-1.1,1.7-1.6,2.7-.2.4-.6.7-.8,1.1-.3,2.3-1,4.7-1,7,0,12.7,5.7,22.4,16.3,29.3,3.9,2.5,8.2,4.1,13,3.4,2-1.7,4-3.5,6.1-5.2,3.1-2.5,4.1-5.9,4.4-9.6ZM341,522.5c-1.2,2-3.6,2.3-5.2.7-.5-.6-1-1.2-1.3-2-1.6-4.8-2.5-9.8-2.9-14.8-.1-1.8.5-3.4,1.5-4.9,1.1-1.5,2.7-2.1,4.1-1.6,1.7.5,2.7,2.2,2.6,3.6-1.1,5.3.4,9.8,1.4,14.4.4,1.6.6,3.1-.3,4.6Z"/>
    <path class="st4" d="M792,108.6c.1,3.3.2,6.7,0,10-.3,5.1.7,10.1,1.3,15.1,1,7.7,2.9,15.2,5.1,22.7,4.4,15.3,10.6,29.9,18,43.9.4.7.8,1.4,1.2,2,2.9,4.4,5.9,8.6,8.6,13.1,4.3,7.1,8.4,14.2,13.7,20.5,3.3,4,6.6,8.1,10,12.1.8,1,1.8,1.8,2.7,2.7,1.2,1,2.1,1.1,3.5.3,1.2-.7,2.4-1.4,3.7-2.1,0-.9,0-1.7-.1-2.6-.5-.4-1-.8-1.4-1.2-11.1-11.2-20.7-23.6-29.2-36.9-12.9-20.4-22.9-42-28.8-65.5-2.1-8.6-3.7-17.4-4.2-26.3-.5-9.7-.5-19.3,1.9-28.9.2-.9,0-1.9,0-2.8-1.4,1-2.7,1.9-4.1,2.9-.1,2-.2,4.1-.4,6.1-.5,4.9-1.6,9.7-1.4,14.6Z"/>
    <path class="st1" d="M913.8,259.9c-2.2-.6-4.4-1.3-6.5-2-12.9-4.4-24.9-10.9-35.8-19.6-5.2,1-8.9,4-11.9,8.2,0,.9,0,1.7.1,2.6.7.6,1.3,1.2,2,1.8,1.4.1,2.3.8,2.8,2.1,1,.9,2,1.9,3,2.8.4.3.8.6,1.2.9,0,0,0,0,0,0,.1,0,.3,0,.4.2.1,0,.2.2.3.3h.4s0,.4,0,.4c.1,0,.2,0,.3.1,0,0,.2.2.2.3.3.2.6.5.9.7.3.2.6.5,1,.7h.2c0-.1,0,.1,0,.1,0,0,.1,0,.2,0,.1,0,.2.1.3.2,0,0,0,0,0,0,0,0,0,.1.1.2h.4s.2.4.2.4c0,0,.2,0,.3,0,0,0,.1.1.2.2.8.6,1.5,1.1,2.3,1.7.1,0,.2,0,.3,0,0,0,0,0,.1.1,0,0,0,0,0,0,0,0,0,0,0,.1,1.1,0,1.8.6,2.3,1.6.1,0,.2,0,.3.1,0,0,0,0,.1.1,0,0,0,0,0,0,0,0,0,0,.1.2,1.1,0,1.8.6,2.3,1.5.1,0,.2,0,.3.1,0,0,0,0,0,0,0,0,0,.1.1.2,0,0,0,0,0,0,.3.4.6.8.9,1.2t0,0c.3.1.7.2,1,.3.3,0,.7,0,.9,0,2.6,1.4,5.1,2.9,7.7,4.3,2.6,1.4,5.1,2.9,7.7,4.3h0c1.3-.5,2.7-.9,3.9-1.6,5.1-2.8,10.3-5.6,15.3-8.5,2-1.2,3.9-2.6,5.9-4-1.8-.4-3.7-.8-5.5-1.2-2.3-.5-4.5-1.1-6.7-1.7Z"/>
    <path class="st5" d="M729.7,448c-1.2,2.6-2.1,5.3-2.9,8,0,.3-.1.6-.2.9,0,.3,0,.6,0,.9,0,.2,0,.3,0,.5,0,.5,0,1,0,1.4.4-.2.8-.3,1.1-.4.2,0,.4-.2.6-.3,14.2-8,28.3-16.1,42.5-24.2,1.1-.6,2.1-1.3,2.8-2.4,0-.2.2-.3.3-.5h0c-.3-.5-.6-1.1-1-1.6-4.4-6.8-8.9-13.5-13.3-20.3-1.1.6-2.3,1.1-3.2,1.9-11,10.4-20.3,22.1-26.7,36Z"/>
    <path class="st1" d="M747,413.6c-5.2,3-10.5,5.9-15.6,9-6.5,3.9-11.4,9.4-15.4,15.9-2.7,4.4-3.8,9-3,14.1.7,4.5,2.3,8.5,6.3,11.4,1.2-.5,2.4-1,3.4-1.6,1.3-.8,2.6-1.8,3.9-2.7h0c0-.5,0-.9,0-1.4,0-.2,0-.3,0-.5,0-.3,0-.6,0-.9s0-.6.2-.9c.8-2.7,1.8-5.4,2.9-8,6.3-13.9,15.7-25.5,26.7-36,.9-.8,2.1-1.3,3.2-1.9,0-1.2-.8-1.8-1.8-2.4h0c-.9.5-1.8,1-2.7,1.5-2.7,1.5-5.4,2.9-8.1,4.5Z"/>
    <path class="st3" d="M893.2,272.5c-2.6-1.4-5.1-2.9-7.7-4.3-.2-.1-.6,0-.9,0,0,2-1,3.1-2.6,4.1-3.9,2.3-7.8,4.8-11.7,7.2-8.4,5.2-16.9,10.4-25.3,15.7-.4.3-.9.5-1.3.8-1.3.8-2.6,1.6-3.2,3.2,1.5.8,2.9,1.6,4.4,2.4,2.1,1.2,4.2,2.5,6.4,3.7h0c1.3-.6,2.7-1,3.9-1.7,14-7.9,28.1-15.9,42-23.9,1.3-.8,2.5-1.8,3.8-2.8h0c-2.6-1.4-5.1-2.9-7.7-4.3Z"/>
    <path class="st1" d="M343.9,483.3c-.1-.1-.3-.2-.4-.3-1.3-.8-2.6-1.1-3.9-.9-.9.2-1.7.6-2.6,1.4,0,2.8,1.4,4.7,3.6,6.3,4.9,3.5,8.8,8,11.9,13.3,3.1,5.3,4.3,10.8,3.8,16.8-.3,3.7-1.3,7.1-4.4,9.6-2.1,1.7-4.1,3.4-6.1,5.2,6.7.8,11.3-2.4,14.7-7.7,2.8-4.3,3.6-9.1,2.9-14.2-.4-3.1-1.3-6.2-2-9.3-1.6-2.7-3.1-5.5-4.7-8.2-3-5.2-7.8-8.6-12.7-11.9Z"/>
    <path class="st2" d="M816.5,76.5s0,0,0,0c-.3.8-.5,1.6-.8,2.3,0,.2,0,.4-.2.5-2.2,6-4,12.1-4.9,18.4,0,.6-.2,1.2-.2,1.7-.1,1-.2,2-.3,2.9-.8,10.7-1,21.5,1.8,32.1.4,1.4.8,2.8,1,4.2,1.1,7.6,3.8,14.7,6.6,21.8,0,.2.2.4.4.6.2.3.5.6.7.9-.2-1.7-.3-3.5-.7-5.1-1-4.5-2.2-8.9-3.2-13.4-1-4.3-1.9-8.6-1.8-13.1,0-1.4-.3-2.8-.5-4.2-.7-5.2-.6-10.4,0-15.6.2-1.9.4-3.8.6-5.7.4-5.8,1-11.7,2.9-17.2,1.9-5.5,4-11,7.2-16,.5-.8.7-1.7,1.1-2.7-.2-.1-.3-.2-.5-.3-.5-.3-.9-.5-1.3-.8h0c-.5,1.5-1.6,2.1-3.1,2-.2,0-.4.1-.5.3-.4.2-.8.5-1.2.7-.3.2-.6.5-.9.7-.3.4-.5.8-.8,1.2,0,0,0-.2,0-.2-.3,1.1-.6,2.3-.9,3.4,0,.2,0,.4-.2.5ZM818.5,71.6c-.3.4-.5.8-.8,1.2.3-.4.5-.8.8-1.2Z"/>
    <path class="st3" d="M501.9,277.2c19.8-12.8,39.7-25.7,59.5-38.6,4.4-2.8,8.9-5.5,13.3-8.3.9-1.1,2.6-1.4,2.9-3-2.8,1.5-5.6,2.9-8.3,4.6-24.4,15.7-48.7,31.5-73.1,47.3-25.6,16.5-51.1,33.1-76.6,49.6-1.3.8-2.4,2-3.6,2.9,1.9,0,3.2-1.2,4.7-2.1,27.1-17.5,54.1-35,81.2-52.5Z"/>
    <path class="st2" d="M779.2,683.7c1.1,3.8,2.2,7.6,3.2,11.4,2.7,10.1,5.4,20.2,8.2,30.3,3.6,13.3,7.4,26.6,11,39.9,2.6,9.6,5.2,19.3,7.8,28.9,6.3,22.9,12.5,45.9,18.9,68.8.1.4.2.8.3,1.1.2,1.2.5,2.3,1.6,3.1h0c-.7-3.4-1.3-6.8-2.2-10.1-10.1-37.1-20.3-74.2-30.4-111.3-5.8-21.1-11.6-42.2-17.4-63.2-.4-1.3-1-2.6-1.6-3.9-.6.1-1.3.3-1.9.4,1.3,1.2,2,2.8,2.5,4.5Z"/>
    <path class="st2" d="M865.7,1000c3.4,12.8,7,25.6,10.5,38.4,4.2,15.4,8.6,30.8,12.7,46.2,4.8,18,9.9,36,16.1,53.6.6,1.6.8,3.4,1.2,5,.8.2,1.3-.3,1.1-1-.3-1.4-.7-2.8-1.1-4.1-3.4-10-7-20-9.8-30.3-9.4-34.5-18.9-69.1-28.4-103.6-.9-3.2-1.2-6.5-3-9.4-.9,1.8.2,3.4.6,5Z"/>
    <path class="st2" d="M831.8,875.7c1.3,4.9,2.7,9.8,4,14.7,3,10.8,5.9,21.7,8.9,32.5,3.6,13,7.2,25.9,10.7,38.9,2.5,9.2,4.9,18.4,7.4,27.5.2.7.3,1.4.5,2,0,.2.2.5.3.7.2.4.5.7,1,1-.1-.9-.1-1.9-.4-2.8-1.3-4.9-2.6-9.8-3.9-14.7-8.9-32.4-17.7-64.8-26.6-97.3-.5-1.8-1.3-3.5-1.9-5.3-.7.9-.2,1.8,0,2.7Z"/>
    <path class="st3" d="M736.7,864.7c0,23.6.1,47.3.2,70.9,0,7.8,0,15.5,0,23.3,0,1.5-.3,3.2.9,4.5.2-1.2.5-2.5.5-3.7-.2-32.2-.3-64.3-.5-96.5,0-1.2-.4-2.5-.5-3.7-1.1,1.6-.7,3.4-.7,5.1Z"/>
    <path class="st3" d="M391.1,348.7c7.1-4.4,14.1-9,21.1-13.6,1.3-.8,2.9-1.3,3.5-3.1-1.4.7-2.9,1.3-4.2,2.1-7.4,4.7-14.6,9.5-22.1,14.1-5.1,3.2-7.7,7.8-8.6,13.5.6-.9,1.4-1.7,1.8-2.7,1.5-4.6,4.5-7.8,8.6-10.3Z"/>
    <path class="st3" d="M737.9,1050.4c0,1.3,0,2.6.9,3.6.2-1.2.5-2.4.5-3.7-.1-10.7-.3-21.5-.5-32.2,0-1.1-.3-2.1-.5-3.2-.2,1.1-.7,2.1-.7,3.2,0,10.8.1,21.5.2,32.3Z"/>
    <path class="st3" d="M738.9,1113.7c0,1,.5,2.1.8,3.1.2-1.1.5-2.1.5-3.2,0-9.1-.2-18.3-.4-27.4,0-.9-.3-1.8-.5-2.7-.2.9-.7,1.8-.7,2.7,0,9.2.1,18.3.3,27.5Z"/>
    <path class="st3" d="M736.1,743.7c0,.9.5,1.8.8,2.6.2-.7.5-1.5.5-2.2-.1-7.7-.3-15.4-.5-23.2,0-.7-.4-1.5-.6-2.2-.2.7-.6,1.5-.6,2.2,0,7.6.2,15.2.3,22.8Z"/>
    <path class="st2" d="M739.8,151c.3.9.6,1.8.9,2.7h0c0-.2,0-.4,0-.6,0-.2,0-.4,0-.6s0-.4,0-.6c0-.2,0-.4,0-.5-1.2-5.6-2-11.2-2.3-16.9,0-.4,0-.8,0-1.2-.2-2.9-.8-5.7-1.2-8.6-.1-.2-.3-.2-.5,0,.3,8.6,1,17.1,2.8,25.5,0,.3.1.6.2.9Z"/>
    <path class="st3" d="M735.1,706.5c0,.9.5,1.8.8,2.6.2-.6.5-1.2.5-1.8,0-5-.2-10-.4-15.1,0-.7-.4-1.5-.6-2.2-.2.6-.6,1.2-.6,1.8,0,4.9.1,9.8.3,14.7Z"/>
    <path class="st1" d="M800.6,424.7c-.8.3-1.5.7-2.2,1.1-2.1,1.2-4,2.6-5.9,4.2,1.8,0,3.2-1,4.7-1.8,2.9-1.5,5.8-2.9,8.8-4.4-.2-.2-.4-.5-.6-.7-1.2.3-2.4.6-3.6,1.1-.4.2-.8.3-1.2.5Z"/>
    <path class="st3" d="M375.9,386.6c-1,3.7-1.1,7.1,0,10.9,1.1-3.6.8-7.3,0-10.9Z"/>
    <path class="st3" d="M833.8,564.5c-.9-2.7-2.1-5.2-4.4-7,.6,2.9,2,5.3,4.4,7Z"/>
    <path class="st3" d="M888.7,653.5c-.3,2.8-.5,5.6-.8,8.4,1.4-2.7,2.5-5.4.8-8.4Z"/>
    <path class="st3" d="M580.8,987.9c-.5,1.1-.8,2.3-1.1,3.6,0,.4-.1.7-.2,1.1,0,.2,0,.4,0,.5,1.8-2.3,2.6-5,3-7.9-.5.6-.9,1.2-1.2,1.8-.2.3-.3.6-.5,1Z"/>
    <path class="st3" d="M561.5,1041.3c-1.8,2.3-2.6,5-2.9,7.9,1.9-2.3,2.6-5,2.9-7.9Z"/>
    <path class="st3" d="M541.5,1094.7c-1.9,2.3-2.6,5-3,7.9,1.8-2.3,2.6-5,3-7.9Z"/>
    <path class="st3" d="M599.8,938.1c0,.5-.2,1.1-.2,1.6,1.8-2.3,2.6-5,2.9-7.9-.6.7-1.1,1.5-1.4,2.3-.5,1-.8,2-1.1,3,0,.3-.2.7-.2,1Z"/>
    <path class="st3" d="M879.6,636.9c-.9-2.8-2.4-5.1-4.5-7,.6,2.9,2.1,5.3,4.5,7Z"/>
    <path class="st3" d="M829.4,557.5c-.7-2.6-2-4.8-4.1-6.4.5,2.7,1.8,4.8,4.1,6.4Z"/>
    <path class="st3" d="M894.1,1143.7c3.3.8,8.1.7,12.2-.2-4.1-.5-8.1-.5-12.2.2Z"/>
    <path class="st3" d="M511.2,1149.1c3,1.7,6,.7,9-.2.1,0,.2-.3.2-.4,0,0-.1,0-.2,0-3,.2-6,.4-9,.6t0,0Z"/>
    <path class="st3" d="M740.4,1143.5c.7-1.9.7-3.8-.1-5.7-1.1,1.9-1,3.8.1,5.7Z"/>
    <path class="st3" d="M376.3,404.3c-.6,1.6-.5,3.2.5,4.7.9-1.7.7-3.2-.5-4.7Z"/>
    <path class="st3" d="M576.3,1000.9c-1.1,1.3-1.5,2.9-1.4,4.6,1.4-1.4,1.9-3.2,1.9-5.2h0c-.2.2-.4.4-.5.5Z"/>
    <path class="st3" d="M621,880.8c-.3.9-.4,1.8-.4,2.8h0c1.4-1.4,1.9-3.2,1.9-5.1-.8.7-1.2,1.5-1.5,2.3Z"/>
    <path class="st3" d="M854.8,597.8c-.4-1.9-1.3-3.6-2.9-4.7.2,2.1,1,3.7,2.9,4.7Z"/>
    <path class="st3" d="M524.7,1138c0,.2-.1.4-.2.7s0,.5-.1.7c0,.1,0,.2,0,.3,0,.2,0,.5,0,.7,0,.1,0,.2,0,.4,1.3-1.4,2-3.1,1.9-5.1-.6.5-1,1.1-1.2,1.7,0,.2-.2.4-.2.6Z"/>
    <path class="st3" d="M566.5,1026.9c-.7.9-1,2-1.1,3.2,0,.3,0,.7-.1,1.1,1.4-1.4,2.1-3,2-5.1h0c-.3.3-.5.5-.7.8Z"/>
    <path class="st3" d="M572.8,1010.9c-1.4,1.4-1.8,3.2-1.9,5.1,1.3-1.4,2-3.1,1.9-5.1Z"/>
    <path class="st3" d="M586.2,975c1.5-1.4,1.9-3.2,2-5.1-1.6,1.3-1.9,3.2-2,5.1Z"/>
    <path class="st3" d="M609.4,911.9c-.2.7-.2,1.4-.2,2.1,1.5-1.4,2-3.2,1.9-5.1h0c-.9.9-1.4,1.9-1.7,3Z"/>
    <path class="st3" d="M606.2,921.6c1.4-1.4,1.9-3.1,1.9-5.1-1.5,1.4-1.9,3.2-1.9,5.1Z"/>
    <path class="st3" d="M822.7,547c-.4-2-1.3-3.6-3-4.8.2,2.1,1,3.8,3,4.8Z"/>
    <path class="st3" d="M627.2,865.5c1.5-1.4,2-3.1,2-5.1-1.6,1.3-2,3.2-2,5.1Z"/>
    <path class="st3" d="M633.8,848c-1.4,1.4-1.8,3.2-1.9,5.1,1.3-1.4,2.1-3.1,1.9-5.1Z"/>
    <path class="st3" d="M647.2,812.1c1.5-1.4,1.9-3.2,2-5.1-1.5,1.4-1.9,3.2-2,5.1Z"/>
    <path class="st3" d="M653,796.9c1.4-1.4,2-3.1,1.9-5.1-1.5,1.4-1.9,3.2-1.9,5.1Z"/>
    <path class="st3" d="M659.3,778.2c-.1.3-.2.6-.3,1,0,.2-.1.4-.1.7-.1.6-.2,1.1-.2,1.7,1.3-1.4,2-3.1,1.9-5.1h0c-.5.5-.9,1.1-1.2,1.7Z"/>
    <path class="st3" d="M668.7,753.2c0,.2-.1.4-.2.7s0,.5-.1.7c0,.5,0,1,0,1.4,1.5-1.4,1.9-3.2,2-5.1-.8.7-1.3,1.5-1.6,2.3Z"/>
    <path class="st3" d="M673,743.5c1.4-1.4,2-3.1,1.9-5.1-1.5,1.4-1.9,3.2-1.9,5.1Z"/>
    <path class="st3" d="M681.6,720.3c-.6.5-1,1.1-1.2,1.7-.5,1-.6,2.2-.7,3.4,1.4-1.4,2-3.1,1.9-5.1Z"/>
    <path class="st3" d="M804.3,517.8c-.3-1.7-1-3.2-2.6-4.1.2,1.8.8,3.3,2.6,4.1Z"/>
    <path class="st3" d="M861.5,608.3c-.3-1.8-1.1-3.2-2.6-4.2.2,1.8.9,3.3,2.6,4.2Z"/>
    <path class="st3" d="M378.2,413.2c0,0,0-.2,0-.2,0,0,0-.2,0-.3,0-.1,0-.3,0-.4-.1-.5-.5-1-1-1.4h0c0,1.2-.2,2.3-.3,3.5.2.2.4.3.7.4.4-.5.6-1.1.6-1.6Z"/>
    <path class="st3" d="M884.4,644.5c-.3-1.7-1.1-3.2-2.6-4.2.2,1.8.9,3.3,2.6,4.2Z"/>
    <path class="st3" d="M589.2,219.8c-1.4.4-2.7,1-3.4,2.4,1.1,0,2.3,0,3.4,0,0-.8,0-1.6,0-2.4Z"/>
    <path class="st3" d="M585.2,222.5c-1.8.3-3.2,1.2-4.2,2.7,1.9,0,3.5-.7,4.2-2.7Z"/>
    <path class="st3" d="M866.2,615.9c-.3-1.7-1.1-3.1-2.6-4,0,1.8.8,3.3,2.6,4Z"/>
    <path class="st3" d="M825.3,551.1c-.3-1.7-1-3.2-2.6-4,.1,1.8.8,3.3,2.6,4Z"/>
    <path class="st3" d="M887.2,649.2c-.3-1.8-1.1-3.2-2.6-4.2.1,1.9.8,3.4,2.6,4.2Z"/>
    <path class="st3" d="M868.5,619.4c-.1-1.5-.9-2.7-2.2-3.5,0,1.6.6,2.9,2.2,3.5Z"/>
    <path class="st3" d="M870.3,622.3c.1,1.8.8,3.3,2.6,4-.3-1.7-1-3.1-2.6-4,0-1.3-.7-2.3-1.9-2.9,0,1.4.6,2.4,1.9,2.9Z"/>
    <path class="st3" d="M863.7,611.8c0-1.4-.7-2.4-1.9-3,0,1.4.6,2.5,1.9,3Z"/>
    <path class="st3" d="M824.3,67.9c-1.4,0-2.4.8-3.1,1.9,1.5.1,2.6-.5,3.1-1.9Z"/>
    <path class="st3" d="M876.9,674.6c1.2,0,2-.7,2.4-1.7-1.2,0-2.1.5-2.4,1.7Z"/>
    <path class="st3" d="M836,568.1c.7,2.8,2.1,5.2,4.5,6.9-.9-2.7-2.2-5.2-4.5-6.9,0-1.4-.6-2.4-1.9-3,0,1.4.5,2.5,1.9,3Z"/>
    <path class="st3" d="M842.7,578.5c.1,1.8.9,3.2,2.6,4.1-.3-1.7-1.1-3.1-2.6-4.1,0-1.4-.7-2.4-1.9-3,0,1.4.5,2.5,1.9,3Z"/>
    <path class="st3" d="M847.5,586.1c.7,2.8,1.9,5.3,4.4,6.9-.9-2.7-2.2-5.1-4.4-6.9-.1-1.3-.8-2.3-1.9-3,0,1.4.5,2.5,1.9,3Z"/>
    <path class="st3" d="M806.2,520.7c0-1.4-.7-2.3-1.9-2.9,0,1.4.6,2.4,1.9,2.9Z"/>
    <path class="st3" d="M808.4,524.2c.2,1.8.8,3.3,2.6,4-.2-1.7-1-3.2-2.6-4,0-1.4-.7-2.4-1.9-3,0,1.4.5,2.5,1.9,3Z"/>
    <path class="st2" d="M760.5,109.2c-1.2,0-2.2.6-2.7,1.7,1.4.1,2.4-.2,2.7-1.7Z"/>
    <path class="st3" d="M812.8,531.2c0-1.3-.7-2.3-1.8-2.9,0,1.4.5,2.4,1.8,2.9Z"/>
    <path class="st2" d="M754.8,112.9c-1.2.1-2.2.7-2.8,1.8,1.4.1,2.5-.2,2.8-1.8Z"/>
    <path class="st3" d="M815,534.8c.2,1.8,1,3.2,2.7,4-.2-1.8-1.1-3.1-2.7-4,0-1.4-.7-2.3-1.9-3,0,1.4.5,2.5,1.9,3Z"/>
    <path class="st3" d="M874.8,629.3c0-1.3-.6-2.3-1.8-2.9,0,1.4.5,2.4,1.8,2.9Z"/>
    <path class="st3" d="M888.5,652c.5-1.3-.2-2.2-1.3-2.8-.1,1.2.4,2.1,1.3,2.8Z"/>
    <path class="st3" d="M857,601.4c-.1,1.2.4,1.9,1.5,2.2,0-1.1-.5-1.9-1.5-2.2,0-1.4-.6-2.4-1.9-3,0,1.4.5,2.5,1.9,3Z"/>
    <path class="st3" d="M580.5,225.5c-1.1,0-1.9.5-2.3,1.5,1.2.1,2-.4,2.3-1.5Z"/>
    <path class="st3" d="M837.6,58.8c-1.2,0-1.9.6-2.3,1.7,1.3.2,2.1-.4,2.3-1.7Z"/>
    <path class="st2" d="M831.3,871.2c-.2-.6-.4-1.3-.5-1.9-.8.9-.4,1.5.5,1.9Z"/>
    <path class="st3" d="M624.8,871.3c-.1.2-.3.3-.3.5,0,0,0,.2,0,.3,0,.3,0,.6,0,1h0c1-.5,1.1-1.4.8-2.3-.2.1-.4.3-.5.5Z"/>
    <path class="st3" d="M619.1,886.5c0,0-.1.2-.2.3-.1.2-.2.4-.2.6,0,.3,0,.6,0,1,1-.5,1.1-1.3.9-2.3h0c-.2.1-.4.3-.5.5Z"/>
    <path class="st3" d="M611.9,905.7c0,.2,0,.4.1.7h0c1-.5,1.1-1.3.9-2.2-.6.4-1,.9-1,1.6Z"/>
    <path class="st3" d="M819.5,541.7c0-1.1-.5-1.9-1.5-2.4-.1,1.2.4,2,1.5,2.4Z"/>
    <path class="st3" d="M597.7,944.5c1-.5,1.2-1.3.9-2.2-.8.5-1.2,1.2-.9,2.2Z"/>
    <path class="st3" d="M595.9,949.4c.9-.6,1.1-1.4.9-2.4-.3.2-.6.4-.8.7-.3.5-.3,1,0,1.6Z"/>
    <path class="st3" d="M589.2,967.5c.9-.6,1.1-1.4.9-2.3-.9.6-1.2,1.3-.9,2.3Z"/>
    <path class="st3" d="M638.7,835c1-.5,1.1-1.3.9-2.2-.8.6-1.2,1.2-.9,2.2Z"/>
    <path class="st3" d="M578.1,996.1c-.1.2-.3.3-.3.5-.1.3-.1.6,0,1,0,.1,0,.2.1.4h0c1-.5,1-1.4.8-2.4-.2.1-.4.3-.5.5Z"/>
    <path class="st3" d="M569.2,1020.8c.9-.6,1.1-1.4.8-2.4-.9.6-1.2,1.3-.8,2.4Z"/>
    <path class="st3" d="M563.5,1036c1-.5,1-1.4.8-2.3-.8.6-1.2,1.3-.8,2.3Z"/>
    <path class="st3" d="M376.8,376.3c-.9.7-1,1.5-.4,2.4.7-.7.9-1.5.4-2.4Z"/>
    <path class="st3" d="M551.1,1067.8c-.3.4-.4.9-.2,1.5,1-.5,1.1-1.3.8-2.2h0c-.3.2-.5.4-.7.7Z"/>
    <path class="st3" d="M549.2,1074.2c.9-.6,1.1-1.4.9-2.4-.9.6-1.2,1.3-.9,2.4Z"/>
    <path class="st3" d="M545.3,1084.6c1-.5,1.1-1.3.8-2.3-.8.6-1.2,1.3-.8,2.3Z"/>
    <path class="st3" d="M531,1122.7c1-.5,1.1-1.3.8-2.3-.3.2-.5.5-.7.7-.3.4-.4.9-.2,1.6Z"/>
    <path class="st3" d="M522.5,1145.6c1-.5,1.2-1.3,1-2.3-.3.2-.6.4-.8.7-.3.4-.4,1-.2,1.6Z"/>
    <path class="st3" d="M801.4,513.1c0-1.1-.5-1.9-1.6-2.4,0,1.2.4,2,1.6,2.4Z"/>
    <path class="st3" d="M554.8,1057.6c-.1.4-.1.8,0,1.4h0c.9-.6,1.1-1.4.9-2.3-.5.3-.8.6-.9,1Z"/>
    <path class="st3" d="M885.1,666c-.2.3-.3.8-.3,1.3h0c1-.3,1.5-1,1.5-2.1-.5.1-.9.4-1.1.7Z"/>
    <path class="st3" d="M688.3,702.6c.9-.4,1.2-1.1.7-2-.8.5-1,1.2-.7,2Z"/>
    <path class="st3" d="M881.4,639.8c0-1.1-.5-1.9-1.6-2.4,0,1.2.4,2,1.6,2.4Z"/>
    <path class="st3" d="M592,959.8c1-.5,1.1-1.3.8-2.3-.8.6-1.2,1.3-.8,2.3Z"/>
    <path class="st3" d="M685.4,710.2c1-.5,1.1-1.3.8-2.3-.8.6-1.2,1.3-.8,2.3Z"/>
    <path class="st3" d="M665.4,763.6c1-.5,1.1-1.4.8-2.3-.4.3-.7.6-.8,1s-.2.8,0,1.3Z"/>
    <path class="st3" d="M662.6,769.9c-.2.4-.2.8,0,1.3h0c.9-.5,1.2-1.3.9-2.3-.5.3-.8.6-.9,1Z"/>
    <path class="st3" d="M644.4,818.5c-.1.3-.2.6,0,.9,0,.1,0,.2,0,.4,1-.5,1.1-1.3.8-2.3-.4.3-.7.6-.8,1Z"/>
    <path class="st3" d="M641.6,827.4c.9-.5,1.2-1.3.9-2.3-.9.5-1.2,1.3-.9,2.3Z"/>
    <path class="st3" d="M630.2,857.9h0c1-.5,1.1-1.3.9-2.3-.2.1-.4.3-.5.4-.4.5-.6,1.1-.4,1.9Z"/>
    <path class="st0" d="M750.3,115.7c.5-.3,1-.6,1.6-1"/>
    <path class="st2" d="M762.3,108c-.8,0-1.4.2-1.6,1,.8,0,1.3-.3,1.6-1Z"/>
    <path class="st2" d="M743.2,120.3c-.8,0-1.6-.1-1.8.9.8,0,1.5-.1,1.8-.9Z"/>
    <path class="st2" d="M741.4,121.3c-.8,0-1.6,0-1.9,1,.8,0,1.5,0,1.9-1Z"/>
    <path class="st2" d="M687.1,156.6c-.8-.1-1.4.2-1.6,1,.8.1,1.3-.2,1.6-1Z"/>
    <path class="st0" d="M756.1,112c.5-.3,1-.6,1.5-1"/>
    <path class="st2" d="M766.8,105.3c.2,0,.4-.2.4-.5-.2.1-.5.3-.7.4h0c0,0,.2,0,.3,0Z"/>
    <path class="st0" d="M747.4,117.6c.2-.2.5-.3.7-.5"/>
    <path class="st0" d="M745.3,119c-.3.2-.5.4-.8.5"/>
    <path class="st0" d="M737.6,124.2c.3-.3.6-.7.9-1"/>
    <path class="st0" d="M691.7,153.6c-.4.3-.9.6-1.3.9"/>
    <path class="st0" d="M688.7,155.5c.4-.3.8-.5,1.3-.8"/>
    <path class="st0" d="M685.2,157.8c-.3.2-.7.5-1,.7"/>
    <path class="st0" d="M682.6,159.5c.2-.2.5-.3.7-.5"/>
    <path class="st0" d="M749.1,116.6c.3-.2.6-.4,1-.7"/>
    <path class="st0" d="M819.5,70.8c.4-.2.8-.5,1.2-.7"/>
    <path class="st0" d="M818.5,71.6c-.3.4-.5.8-.8,1.2"/>
    <path class="st0" d="M838.6,58c-.2.2-.4.3-.6.5"/>
    <path class="st0" d="M687.1,156.6c.3-.2.7-.5,1-.7"/>
    <path class="st0" d="M769.1,103.6c-.3.2-.7.4-1,.7"/>
    <path class="st0" d="M765.3,106.1c.3-.2.7-.4,1-.7"/>
    <path class="st0" d="M763.4,107.3c-.3.2-.7.5-1,.7"/>
    <path class="st1" d="M692,634.1h0c-.2.2-.3.5-.4.7.5,0,.9,0,1.4,0-.3-.2-.7-.5-1-.7Z"/>
    <path class="st0" d="M755.8,112.2c-.3.2-.6.4-.9.6"/>
    <path class="st0" d="M746.2,118.5c.3-.2.7-.5,1-.7"/>
    <path class="st1" d="M378.8,420.3c-.2-1.1-.7-2.1-1-3.1-2.5,4.6-6.3,7.5-11.1,9.3-1.9.7-3.9,1.4-5.8,2.2-1.9.8-3.7,1.8-5.5,2.7-2.4,1.2-4.7,2.6-7.2,3.6-2.8,1.1-5.7,1-8.2-.8-2.6-1.9-5.3-3.6-7.4-6-2.7-3-5.5-5.7-8.7-8.1-4.4-3.2-7.8-7.5-11.2-11.6-.8-1-1.4-2.1-3.5-2.1-4.6,3.9-9.9,7.5-14.8,12,.6.9.9,1.6,1.4,2.2,2.6,3,5.3,5.9,7.9,8.9,8.8,9.8,17.6,19.6,26.3,29.5,1.6,1.8,3.1,3.6,4.7,5.4,1.4,1.6,3.2,2.6,5.2,3.1,4,1.1,7.7.9,11.5-1,8.2-4.2,16.2-8.7,24.1-13.4,3.7-2.2,7.4-4.2,11.2-6.3-.3-1-.5-2.1-.9-3.1-3-7.6-5.4-15.3-7.3-23.3Z"/>
    <path class="st5" d="M665.7,360.7c.2.2.4.3.7.5-.4-.6-.8-1.2-1.2-1.8,0,.1,0,.2,0,.3,0,.4.2.7.4,1Z"/>
    <path class="st0" d="M666.8,361.5c.4.3.9.6,1.3.9"/>
    <path class="st2" d="M510.3,1139.1c3-8.7,6.2-17.3,9.2-26,2.4-6.9,4.4-13.9,6.7-20.8,1.7-5.1,3.4-10.2,5.1-15.4,3.5-10.9,6.8-21.8,10.3-32.6,1.6-5,3.5-9.9,5.2-14.8.7-2.1,1.2-4.3,2-6.4,4.8-13.1,9.6-26.2,14.5-39.3,3.8-10.1,7.6-20.2,11.6-30.2,3.3-8.4,6.8-16.8,10-25.2,4.5-11.5,9.1-23,14-34.4,4.2-9.9,8.4-19.9,12.5-29.8,5.2-12.6,10.4-25.2,15.7-37.8,4.2-10.1,8.5-20.2,12.7-30.3,3.5-8.3,6.8-16.8,10.3-25.1,3.5-8.3,7.1-16.6,10.6-24.9,3-7,5.9-14,9-21,3.4-7.7,6.8-15.4,10.2-23.1,2-4.5,4.1-9,6.1-13.4,0-.2.2-.4.2-.5.6-1.3,1.2-2.5,2.8-2.9h0c-.2-4.5-.3-4.6-4.5-4.7-1.1,0-2.2,0-3.3,0-3.3-.2-6.7-.2-9.9-.6-4.5-.5-5.1-.3-6.8,3.9-4.1,10-8.1,20-12.1,30-4.4,11.2-8.8,22.4-13.2,33.6-3,7.7-6,15.4-9.1,23-3.8,9.4-7.7,18.8-11.4,28.2-7.4,18.7-14.7,37.5-22.1,56.2-3.5,8.8-7.1,17.7-10.6,26.5-3.3,8.4-6.6,16.8-10,25.2-3.2,8.1-6.5,16.2-9.7,24.3-5.3,13.4-10.6,26.8-15.9,40.2-4.4,11.2-8.8,22.4-13.2,33.6-3,7.5-5.9,15.1-8.9,22.6-2.5,6.3-5.2,12.6-7.8,18.9-6.3,15.9-12.5,31.9-18.8,47.8-5.5,13.9-11,27.7-16.5,41.5-.5,1.2-.8,2.4-1.1,3.6-.2,1,.3,1.9,1.3,2.3,1,.4,2.1.7,3.2,1,4.9,1.3,9.9,2.5,14.8,3.8.2,0,.3,0,.5.2,1.2.4,2.3,1,3.4,1.4h0s.4,0,.4,0h.4c-.3-3.2,1.3-5.9,2.3-8.7Z"/>
    <path class="st1" d="M728.9,523c5.2-10.5,10.5-20.9,16.3-31.1,3.8-6.7,7.7-13.4,11.9-19.9,4.9-7.6,10.1-14.9,15.7-22,5.1-6.5,10.6-12.5,17.4-17.4.4-.3.8-.7,1.2-1.1s.7-.9,1.1-1.3h0c-.6.2-1.2.4-1.8.7s-1.2.5-1.7.8c-3.8,2-7.6,3.9-11.3,6-3.3,1.9-6.7,3.6-9.7,5.9-9,6.7-18.1,13.3-26.8,20.4-7.1,5.8-13.8,12.1-19.7,19.2-6.3,7.6-9.7,16.3-9.4,26.2.2,6.9,2.2,13.4,5.7,19.4,1.1,1.9,1.8,4,3.9,5.4.5,0,1-.2,1.4-.3,1.3-.4,2.5-1.2,3.5-2.2-.3-3.2,1.1-5.9,2.5-8.5Z"/>
    <path class="st1" d="M701.2,634.7c3.2,0,6.5-.2,9.7-.2h0c-1-.2-2.1-.3-3.1-.4-2.2-.2-4.4-.1-6.6.6Z"/>
    <path class="st3" d="M800,308.1c.2.4.4.7.7,1,0,0,0,0,.1,0,0,0,0,0,0,0,.6.4,1.3.6,2.1.7-.7-1.4-1.7-2.2-3.2-2.5,0,.1,0,.2,0,.3,0,.1,0,.3.2.4Z"/>
    <path class="st3" d="M796.7,305.6c.4.3.9.5,1.5.5-.7-1.3-1.8-2.2-3.2-2.5,0,.2.2.3.3.5.4.6.8,1.2,1.4,1.5Z"/>
    <path class="st3" d="M805.2,312.5c.4.3.9.4,1.5.3h0c-.3-1.1-1-1.6-2.1-1.7,0,.6.3,1.1.7,1.3Z"/>
    <path class="st5" d="M693,352.8c-.1-.4-.3-.7-.6-.9-.4-.4-1-.6-1.6-.7.2.8.7,1.3,1.4,1.5.2,0,.5,0,.8,0h0Z"/>
    <path class="st5" d="M688.6,349.1c0,0-.1,0-.2-.1,0,0,0,0,0,0-.4-.3-.8-.4-1.4-.4.3,1.1,1.1,1.6,2.2,1.6,0-.1-.1-.2-.2-.4-.1-.2-.3-.4-.4-.6Z"/>
    <path class="st0" d="M697.4,355.9c-.6-.4-1.1-.7-1.7-1.1"/>
    <path class="st0" d="M793.4,302.4c-.4-.3-.8-.6-1.2-.9"/>
    <line class="st0" x1="793.4" y1="302.4" x2="793.4" y2="302.4"/>
    <path class="st3" d="M799.3,307s0-.4,0-.4h-.4c0,.1,0,.2.1.3,0,0,.2.1.3,0Z"/>
    <path class="st0" d="M695.7,354.8c-.3-.3-.7-.5-1-.8"/>
    <path class="st0" d="M698.5,356.7c-.3-.2-.7-.5-1-.7"/>
    <polygon class="st3" points="807.8 313.7 807.7 313.4 807.4 313.5 807.5 313.7 807.8 313.7"/>
    <path class="st3" d="M794.6,303.2s-.1-.4-.1-.4h-.4c0,.1,0,.2.1.3,0,0,.2,0,.3,0Z"/>
    <path class="st3" d="M804.1,310.9s0-.4,0-.4h-.4c0,.1,0,.2.1.3,0,0,.2,0,.3,0Z"/>
    <path class="st0" d="M701.3,358.6c-.3-.2-.5-.4-.8-.6"/>
    <path class="st2" d="M768.3,683.1s0,0,0,0c0,0,.2,0,.2,0,.3,0,.7-.3,1.4-.7-.9-.8-1.9-.8-2.9-.4.3.3.6.6.8.7.2.1.3.2.4.3Z"/>
    <path class="st1" d="M864.2,70.3c2,1.2,4.3,2.1,6.4,3.2,1.7.9,3.2,2,4.8,3,5.3,3.5,9.9,7.8,14.3,12.4,2.8,3,5.9,5.8,8.5,8.9,5.1,6.1,9.7,12.5,13.9,19.2,4.1,6.6,8.4,13.1,11.7,20.1,2.8,6,5.6,12.1,8.2,18.2,5.7,13.6,10,27.6,11.8,42.4,1,8.4,1.3,16.7,0,25.1-.5,3.1-.8,6.2-1.3,9.6.2,0,.4,0,.6,0,.6,0,1.3.2,2,.3h0s0-.1.2-.2h0c.5-.7,1-1.3,1.6-1.9.1-.3.3-.6.4-.9,0-.1.1-.2.2-.3.2-.5.5-1,.7-1.5,1.1-2.7,2-5.4,2.7-8.1.2-.9.4-1.8.6-2.8.3-1.4.5-2.8.7-4.2.1-.9.2-1.9.3-2.8.1-1.4.2-2.9.3-4.3.4-10.3,0-20.6-1.3-30.9-2.1-16.6-6.3-32.7-13.6-47.8-4.6-9.5-10.7-18-17.6-25.9-5.5-6.3-11.5-12.3-17.4-18.2-5.7-5.6-12.1-10.2-19.2-13.9-4-2-8.1-3.5-12.6-4-1.2-.1-2.4-.6-3.6-1-1.6,0-3.2.1-4.8.2-1.1,1-2.4,1-3.8.7-.7.5-1.5.8-2.2,1.2-.1,0-.2.1-.3.2,0,0,0,0,0,0-.4.3-.8.6-1.2,1.1-.1.2-.2.4-.3.6h0c3.4-.3,6.6.5,9.5,2.3Z"/>
    <path class="st2" d="M957.8,159.3c-1.1-6.4-1.9-12.8-3.5-19.1-2.4-10-5.3-19.9-10.2-29.1-4.1-7.7-8.9-15-15.3-21-2.4-2.3-5.1-4.3-7.4-6.6-3.9-3.9-8.4-7.3-12.8-10.6-4.8-3.6-9.8-7-15.4-9.4-2.5-1.1-5-2-7.8-1.9-3.3,0-6.6,0-9.9-.7-3.4-.7-6.1.7-8.3,3.3,1.2.3,2.4.8,3.6,1,4.5.5,8.6,2,12.6,4,7.1,3.7,13.6,8.3,19.2,13.9,6,5.9,11.9,11.9,17.4,18.2,6.9,7.9,13,16.4,17.6,25.9,7.3,15.1,11.5,31.2,13.6,47.8,1.3,10.2,1.7,20.6,1.3,30.9,0,1.4-.1,2.9-.3,4.3,0,.9-.2,1.9-.3,2.8-.2,1.4-.4,2.8-.7,4.2-.2.9-.4,1.9-.6,2.8-.7,2.8-1.6,5.5-2.7,8.1-.2.5-.5,1-.7,1.5,0,.1-.1.2-.2.3-.1.3-.3.6-.4.9-.1,1-.6,1.6-1.6,1.8,0,0,0,0,0,0,0,0-.2.2-.2.2h0c-.8.6-1.7,1.3-2.5,1.9h0c.8.7,1.6,1,2.4.9,0,0,.1,0,.2,0,.1,0,.2,0,.3,0,.2,0,.4-.1.6-.3.3-.1.5-.3.8-.5.8-.7,1.7-1.5,2.2-2.5,2-3.8,4.2-7.5,5.7-11.5,3-8.1,4.4-16.6,5-25.1.7-9.5.2-19-1-28.4-.3-2.7-.4-5.4-.9-8Z"/>
    <path class="st2" d="M862.5,64.2c-.4-.2-.7-.4-1-.5-.4-.2-.7-.3-1-.3,0,0,0,0,0,0-.1,0-.2,0-.4,0-.4.2-.8.6-1.4,1.5,1.4.3,2.7.2,3.8-.7Z"/>
    <path class="st2" d="M746,172.9h0c1,5.4,2.9,10.6,5.7,15.4-.9-5.4-3.2-10.2-5.3-15.2,0-.1-.3-.2-.4-.3Z"/>
    <path class="st2" d="M744.9,168c-.9-3.8-1.9-7.5-2.9-11.3,0,0,0,0,0-.1-.2-.3-.6-.6-.9-.8h0c.5,4.7,1.6,9.3,3.8,13.6,0-.5.2-1,0-1.4Z"/>
    <path class="st2" d="M761,207.2c-.5-.7-1.1-1.3-1.9-1.9h0c.2.8.4,1.6.7,2.4.2.5.5,1,.7,1.5.4.7.9,1.4,1.5,2.1,0-.3,0-.6,0-.9-.1-1.2-.4-2.3-1.1-3.2Z"/>
    <path class="st2" d="M765.6,216.6s0,0,0,0c-.1-.4-.3-.8-.4-1.1-.5-1-1.2-1.8-2.2-2.5h0c.5,2.2,1.5,4.1,3.1,5.7,0-.3,0-.6-.1-.8,0-.4-.2-.8-.3-1.2Z"/>
    <path class="st2" d="M754.3,193.1c-.3-.8-.8-1.5-1.6-2.1h0c0,1.8.7,3.3,2,4.6,0-.2,0-.5,0-.7,0-.7-.1-1.3-.4-1.9Z"/>
    <path class="st2" d="M757.7,200.8c-.3-.5-.7-.9-1.3-1.2h0c0,1.6.7,2.9,1.9,3.9,0-.2,0-.4,0-.6,0-.8-.2-1.5-.6-2.1Z"/>
    <path class="st2" d="M796.2,261.9s0,0,0,0c0-.1-.1-.2-.2-.3-.4-.5-1-.8-1.8-.9.3,1.3,1.2,2.2,2.4,2.8,0-.2,0-.4,0-.6,0-.4-.2-.7-.3-.9Z"/>
    <path class="st2" d="M800.7,267.2c-.4-.4-1-.7-1.7-.9h0c0,.3.2.6.3.9.4.8,1.1,1.4,2.1,1.8,0-.2,0-.4,0-.5-.1-.5-.3-.9-.6-1.3Z"/>
    <path class="st2" d="M785.8,248.8c-.2-.3-.6-.5-1-.6h0c.4.6.9,1.2,1.3,1.8,0-.1,0-.3,0-.4,0-.3-.1-.6-.3-.8Z"/>
    <path class="st2" d="M779.3,239.5s0,0,0,0c0,0,0-.1-.1-.2-.2-.3-.6-.5-1-.6h0c.4.6.9,1.2,1.3,1.8,0-.1,0-.2,0-.3,0-.2,0-.4-.1-.6Z"/>
    <path class="st2" d="M768.9,223.1c0-.1,0-.3,0-.4,0-.2,0-.3-.2-.5-.2-.3-.5-.6-1-.7h0c.2.3.4.7.6,1,.2.3.4.7.6,1,0-.1,0-.2,0-.4Z"/>
    <path class="st2" d="M772.8,229.7c0-.4-.1-.8-.4-1-.2-.2-.4-.4-.8-.5h0c0,.9.3,1.5,1.1,1.9,0-.1,0-.2,0-.3,0,0,0,0,0,0Z"/>
    <path class="st2" d="M777.5,237.7c0-.2,0-.5,0-.6,0-.2-.1-.4-.2-.5-.2-.3-.5-.6-1-.7.4.6.8,1.3,1.2,1.9h0s0,0,0,0Z"/>
    <path class="st3" d="M880.4,265.7s0,0,0,0c0,0,.1.1.2.2.4.2.9.3,1.5.3-.5-1-1.2-1.5-2.3-1.5,0,.2,0,.3.1.4.1.3.2.5.4.6Z"/>
    <path class="st3" d="M877.5,263.8s0,0,0,0c0,0,.2.1.3.2.4.2.9.3,1.5.3-.4-1-1.2-1.5-2.3-1.6,0,.2,0,.3.1.4,0,.3.2.5.4.6Z"/>
    <path class="st5" d="M862.5,251.9s0,0,0,0c.5.5,1.2.8,2,1-.5-1.3-1.4-2-2.8-2.1,0,.1.2.3.2.4.2.3.4.5.6.7Z"/>
    <path class="st3" d="M875,261.8c.4.3.8.5,1.4.5-.8-.6-1.5-1.1-2.3-1.7,0,.1.1.3.2.4.2.4.4.6.7.9Z"/>
    <path class="st0" d="M868.7,256.7c-.4-.3-.7-.5-1.1-.8"/>
    <path class="st0" d="M867.6,255.9s0,0,0,0"/>
    <line class="st0" x1="868.7" y1="256.7" x2="868.7" y2="256.7"/>
    <path class="st0" d="M870.3,257.9c.3.2.6.5.9.7"/>
    <path class="st0" d="M882.7,266.6s0,0,0,0"/>
    <path class="st0" d="M883.6,267.8c-.3-.4-.6-.8-.9-1.2"/>
    <line class="st0" x1="883.6" y1="267.8" x2="883.6" y2="267.8"/>
    <polygon class="st3" points="872.5 259.5 872.5 259.3 872.3 259.4 872.5 259.5"/>
    <path class="st3" d="M873.8,260.4s-.2-.4-.2-.4h-.4c0,.1.1.2.2.3s.2.1.4,0Z"/>
    <path class="st3" d="M869.8,257.5s0-.4,0-.4h-.4c0,.1,0,.2.1.3,0,0,.2,0,.3,0Z"/>
    <path class="st2" d="M859,659c-2.3-4-4.5-8-6.7-12-3.8-6.8-7.6-13.5-11.4-20.3-2.7-4.9-5.2-9.8-7.9-14.7-4.1-7.5-8.2-15-12.2-22.6-2.5-4.8-4.9-9.6-7.2-14.5-3.1-6.4-6.1-12.9-9.2-19.3-.5-1-.9-2-1.2-3.1-2-6.8-4.2-13.6-5.8-20.6-1.1-4.6-2.2-9.2-.8-14.1.2-.6.3-1.3.4-1.9.3-2,.4-4,.7-6-.3-2.2-1.7-3.7-3.1-5.3-1.1-1.2-2.4-1.4-3.9-.7-1.9.9-3.4,2.3-4.5,4.1-2.2,4-4.4,8.2-5.3,12.7-.7,3.8-1.9,7.7-.7,11.7.4,1.3.2,2.8.2,4.3,0,4.7,1.1,9.1,3.3,13.2,2.8,5,5.5,10,8.4,14.9,6.6,11,13.3,21.9,20.1,32.8,8,12.7,16.2,25.4,24.3,38,6.5,10.1,12.9,20.3,19.5,30.4,2.3,3.6,4.9,7,7.6,10.3,1.9,2.3,2,2.2,5.3.8-.2-.4-.3-.9-.5-1.3-3.2-5.6-6.5-11.2-9.7-16.9Z"/>
    <path class="st3" d="M816.7,76h-.2c0,.1,0,.2,0,.2h0s0,.3,0,.3c0,0,0,0,0,0,.2-.1.2-.3.2-.5Z"/>
    <path class="st3" d="M815.8,78.8l-.3.2s0,.3,0,.3c.2-.1.3-.3.2-.5Z"/>
    <path class="st1" d="M339.9,503.5c0-1.5-.9-3.1-2.6-3.6-1.5-.5-3.1.1-4.1,1.6-1.1,1.5-1.7,3.1-1.5,4.9.4,5.1,1.2,10,2.9,14.8.2.7.7,1.4,1.3,2,1.6,1.7,4,1.3,5.2-.7.9-1.5.7-3,.3-4.6-1-4.6-2.5-9.2-1.4-14.4Z"/>
    <path class="st4" d="M930.2,169c-6.3-21-15.4-40.6-28.2-58.5-5.3-7.4-11.2-14.2-18-20.3-5.3-4.7-11-8.6-17.7-11-2.1-.8-4.2-1.4-6.5-1.1-1.7.2-2.7,1.2-2.9,2.7-.2,1.6.3,2.9,1.6,3.7.7.4,1.4.7,2.2.9,7.1,1.9,13,5.9,18.4,10.7,8.7,7.6,15.6,16.6,21.8,26.3,9.1,14.4,16.2,29.8,21.3,46.1,4.4,14.1,7.5,28.5,7.1,43.5,0,2.7,0,5.4,0,8.1,0,1.1,0,2.2.1,3.3.2,1.6,1.3,2.6,2.8,2.8,1.4.2,3-.6,3.5-1.9.4-.9.5-1.8.7-2.8,1.6-9.2.6-18.4-.6-27.5-1.1-8.5-3.1-16.8-5.5-25.1Z"/>
    <path class="st1" d="M887.6,143.5c.5-5,1.1-10.1,1.6-15.1.2-2,.5-4.1.7-6.1.1-2.1.2-4.1.2-6.2,0-1.7-.9-3-2.2-4.1-1.5-1.2-3.5-1-4.5.6-.4.6-.7,1.4-.8,2.2-.4,3.6-.7,7.2-1.1,10.9-.1,1.4-.1,2.9-.2,4.3-.5,5.5-1.2,11-1.6,16.5-.5,6.3-.7,12.6-1.1,19-.2,3.6-.7,7.2-1,10.9-.3,2.7-.7,5.3-1,8,0,0,.2,0,.2,0,0,1.4,0,2.9,0,4.3,0,.8,0,1.6.3,2.3.4,1.5,1.5,2.4,3,2.7,1.4.2,2.8-.5,3.4-2,.5-1.3.8-2.7.8-4.1.2-2.7,0-5.4.3-8.1.8-7.1,1.8-14.1,1.8-21.3,0-.6,0-1.3.1-1.9.3-3.1.6-6.3.8-9.4,0-1.1,0-2.2.2-3.3Z"/>
    <path class="st1" d="M897.7,139.8c-1.4-.2-2.5.6-3.1,1.7-.7,1.2-1.2,2.6-1.4,4-.8,5.5-1.3,11-2,16.5-.4,3.5-.9,6.9-1.3,10.4-.6,4.9-1.2,9.7-1.5,14.6-.3,3.1-.1,6.3-.8,9.4-.4,1.8-.2,3.8-.1,5.7.2,2.3,1.6,3.7,3.4,3.9,1.6.2,3.1-1,3.7-3.1.3-1.2.4-2.5.4-3.8.1-4.1,0-8.2.9-12.3.5-2.3.7-4.7,1-7,.9-7.1,1.8-14.1,2.7-21.2.5-4.1.9-8.2,1.4-12-.1-1.5,0-2.8-.3-4-.3-1.5-1.3-2.6-2.8-2.8Z"/>
    <path class="st1" d="M867.9,140.6c-1.5.3-2.3,1.4-2.5,3.5-.6,6-1.1,11.9-1.7,17.9,0,.5,0,1,0,1.4.2,2.2,1.9,3.7,4.2,3.7,1.9,0,3-1,3.3-3.3.7-5.6,1.2-11.3,1.9-17.9,0-.3-.2-1.6-.6-2.8-.7-2.1-2.4-3-4.5-2.6Z"/>
    <path class="st5" d="M946.9,230.7c-.5.6-1,1.2-1.6,1.8,1-.2,1.5-.8,1.6-1.8Z"/>
    <path class="st0" d="M947.4,229.6c0,.1-.1.2-.2.3"/>
    <path class="st0" d="M947.4,229.6c.2-.5.5-1,.7-1.5"/>
    <path id="telescope-lens" class="st5" d="M943.1,232.6c-.2,0-.4,0-.6,0,.5-3.4.8-6.5,1.3-9.6,1.3-8.4,1-16.7,0-25.1-1.8-14.8-6.1-28.8-11.8-42.4-2.6-6.1-5.4-12.2-8.2-18.2-3.3-7.1-7.5-13.6-11.7-20.1-4.2-6.7-8.8-13.1-13.9-19.2-2.6-3.2-5.7-6-8.5-8.9-4.4-4.6-9-8.9-14.3-12.4-1.6-1-3.2-2.1-4.8-3-2.1-1.1-4.3-2-6.4-3.2-3-1.8-6.1-2.6-9.5-2.3-2.5,1.8-4.6,3.8-6.3,6.1-.6.7-1.1,1.4-1.6,2.2-.2.3-.4.6-.6,1-.4.7-.8,1.3-1.1,2-.5,1-1,2.1-1.5,3.1-4.7,10.8-6.2,22.3-5.7,34,.4,9.4,1.9,18.6,4.5,27.7,6.9,24.3,19.1,45.6,36.8,63.7,6.8,7,14.3,13.1,22.7,18,7.6,4.4,15.6,7.9,24.3,9.5,4.1.7,8.1,1.3,12.2,0,.2,0,.3,0,.5-.1.2,0,.5,0,.7-.1,1-.1,2-.1,3-.3h0c.8-.6,1.7-1.3,2.5-1.9-.7,0-1.3-.2-2-.2ZM871.1,163.8c-.3,2.3-1.4,3.3-3.3,3.3-2.3,0-4-1.5-4.2-3.7,0-.5,0-1,0-1.4.6-6,1.1-11.9,1.7-17.9.2-2.2,1-3.2,2.5-3.5,2-.4,3.7.5,4.5,2.6.4,1.2.5,2.4.6,2.8-.7,6.6-1.2,12.2-1.9,17.9ZM886.5,158.1c0,7.1-.9,14.2-1.8,21.3-.3,2.7,0,5.4-.3,8.1,0,1.4-.4,2.8-.8,4.1-.6,1.5-2,2.2-3.4,2-1.6-.2-2.6-1.2-3-2.7-.2-.7-.3-1.6-.3-2.3,0-1.4,0-2.9,0-4.3,0,0-.2,0-.2,0,.3-2.7.7-5.3,1-8,.4-3.6.8-7.2,1-10.9.4-6.3.6-12.6,1.1-19,.4-5.5,1.1-11,1.6-16.5.1-1.4.1-2.8.2-4.3.3-3.6.6-7.2,1.1-10.9,0-.8.4-1.5.8-2.2,1.1-1.7,3-1.9,4.5-.6,1.3,1,2.2,2.3,2.2,4.1,0,2.1,0,4.1-.2,6.2-.1,2-.5,4.1-.7,6.1-.6,5-1.1,10.1-1.6,15.1-.1,1.1-.1,2.2-.2,3.3-.3,3.1-.5,6.3-.8,9.4,0,.6-.1,1.3-.1,1.9ZM899.5,158.7c-.9,7.1-1.8,14.1-2.7,21.2-.3,2.4-.5,4.7-1,7-.9,4.1-.8,8.2-.9,12.3,0,1.3,0,2.6-.4,3.8-.5,2.1-2.1,3.2-3.7,3.1-1.9-.2-3.3-1.7-3.4-3.9-.1-1.9-.3-3.9.1-5.7.7-3.1.5-6.3.8-9.4.4-4.9,1-9.7,1.5-14.6.4-3.5.9-6.9,1.3-10.4.7-5.5,1.2-11,2-16.5.2-1.4.7-2.7,1.4-4,.6-1.1,1.7-1.9,3.1-1.7,1.6.3,2.5,1.4,2.8,2.8.3,1.2.2,2.5.3,4-.4,3.9-.9,8-1.4,12ZM936.3,221.6c-.2.9-.3,1.9-.7,2.8-.5,1.3-2.1,2.1-3.5,1.9-1.5-.2-2.6-1.2-2.8-2.8-.1-1.1-.1-2.2-.1-3.3,0-2.7,0-5.4,0-8.1.4-14.9-2.7-29.3-7.1-43.5-5.1-16.3-12.1-31.7-21.3-46.1-6.1-9.7-13.1-18.7-21.8-26.3-5.4-4.8-11.3-8.7-18.4-10.7-.8-.2-1.5-.5-2.2-.9-1.3-.8-1.8-2.1-1.6-3.7.2-1.5,1.3-2.4,2.9-2.7,2.3-.3,4.4.3,6.5,1.1,6.6,2.5,12.4,6.4,17.7,11,6.8,6,12.7,12.9,18,20.3,12.8,17.9,21.9,37.5,28.2,58.5,2.5,8.2,4.5,16.6,5.5,25.1,1.2,9.1,2.2,18.3.6,27.5Z"/>
  </g>
</svg>