<?xml version="1.0" encoding="UTF-8"?>
<svg id="uranus" xmlns="http://www.w3.org/2000/svg" version="1.1" viewBox="0 0 800 800">
  <!-- Generator: Adobe Illustrator 29.1.0, SVG Export Plug-In . SVG Version: 2.1.0 Build 142)  -->
  <defs>
    <style>
      .st0 {
        fill: none;
      }

      .st1 {
        fill: #9dc1ff;
      }

      .st2 {
        fill: #3d6edd;
      }

      .st3 {
        fill: #708aff;
      }

      #uranus-group:hover {
        animation: fadeInOut 1s;
      }

      #uranus-group #uranus-ring path {
        animation: fadeInOut 3s;
      }

  @keyframes fadeInOut {
    0% { opacity: 1; } 
    50% { opacity: 0.5; }
    100% { opacity: 1; }
  }

      
    </style>

    <script>
    const marsObj = document.querySelector('#uranus');

    function logId() {
      console.log(this.id);
    }

    uraObj.addEventListener('click',logId);
    </script>

  </defs>
  <g id="uranus-group">
   <g id="uranus-ring">
    <path class="st0" d="M113.8,541.2c-.8-1.7-1.7-3.4-2.5-5.2-.2-.5-.5-1-.7-1.5-.8-1.7-1.6-3.4-2.3-5.1-.3-.6-.5-1.1-.7-1.7-.7-1.7-1.5-3.3-2.2-5-.2-.6-.5-1.2-.7-1.8-.7-1.7-1.4-3.4-2-5.1-.2-.6-.4-1.1-.6-1.7-.7-1.8-1.3-3.5-2-5.3-.1-.3-.2-.6-.3-1-1.9-5.3-3.7-10.6-5.3-16-17.4,16.9-25.2,31.2-21.2,41.2,4.1,10,19.6,14.7,43.9,14.6-.9-1.7-1.8-3.5-2.7-5.2-.2-.4-.4-.9-.7-1.3Z"/>
    <path class="st0" d="M726.8,266.9c-4.1-10-19.6-14.7-43.9-14.6,9.3,17.7,16.9,36.3,22.7,55.8,17.4-16.9,25.2-31.1,21.2-41.1Z"/>
    <path class="st3" d="M143.8,590.2c-.9-1.2-1.8-2.5-2.7-3.7.9,1.3,1.8,2.5,2.7,3.7Z"/>
    <path class="st3" d="M455,85.6c1.9.3,3.8.7,5.7,1.1-1.9-.4-3.8-.7-5.7-1.1Z"/>
    <path class="st3" d="M462.6,87c2,.4,4.1.8,6.1,1.3-2-.4-4.1-.9-6.1-1.3Z"/>
    <path class="st3" d="M477.3,90.3c2.3.6,4.6,1.2,6.9,1.8-2.3-.6-4.6-1.2-6.9-1.8Z"/>
    <path class="st3" d="M111.3,536.1c.8,1.7,1.6,3.4,2.5,5.2-.8-1.7-1.7-3.4-2.5-5.2Z"/>
    <path class="st3" d="M105.4,522.7c.7,1.7,1.4,3.4,2.2,5-.7-1.7-1.5-3.3-2.2-5Z"/>
    <path class="st3" d="M102.6,515.9c.7,1.7,1.3,3.4,2,5.1-.7-1.7-1.4-3.4-2-5.1Z"/>
    <path class="st3" d="M100,509c.6,1.8,1.3,3.5,2,5.3-.7-1.8-1.3-3.5-2-5.3Z"/>
    <path class="st3" d="M138.8,583.3c-.1-.2-.2-.3-.4-.5.1.2.2.4.4.5Z"/>
    <path class="st3" d="M108.3,529.5c.8,1.7,1.5,3.4,2.3,5.1-.8-1.7-1.6-3.4-2.3-5.1Z"/>
    <path class="st3" d="M94.4,492h0c1.6,5.4,3.4,10.7,5.3,16-1.9-5.3-3.7-10.6-5.3-16Z"/>
    <path class="st3" d="M470,88.6c2.2.5,4.3,1,6.5,1.5-2.2-.5-4.3-1-6.5-1.5Z"/>
    <path class="st3" d="M82,427c0-1.1-.2-2.2-.3-3.3,0,1.1.2,2.2.3,3.3Z"/>
    <path class="st3" d="M424.1,81.8c1.4.1,2.8.2,4.3.4-1.4-.1-2.8-.3-4.3-.4Z"/>
    <path class="st3" d="M81.1,410.6c0-.9,0-1.8,0-2.6,0,.9,0,1.8,0,2.6Z"/>
    <path class="st3" d="M416.1,81.3c1.3,0,2.5.2,3.8.2-1.3,0-2.5-.2-3.8-.2Z"/>
    <path class="st3" d="M408.1,81c1,0,2,0,3,.1-1,0-2,0-3-.1Z"/>
    <path class="st3" d="M117.1,547.8h0c-.9-1.7-1.8-3.5-2.7-5.2.9,1.8,1.8,3.5,2.7,5.2Z"/>
    <path class="st3" d="M447.4,84.4c1.8.3,3.6.6,5.4.9-1.8-.3-3.6-.6-5.4-.9Z"/>
    <path class="st3" d="M82.8,434.9c-.1-1.2-.3-2.3-.4-3.5.1,1.2.2,2.3.4,3.5Z"/>
    <path class="st3" d="M439.7,83.3c1.7.2,3.4.4,5,.7-1.7-.2-3.3-.5-5-.7Z"/>
    <path class="st3" d="M431.9,82.5c1.6.2,3.1.3,4.7.5-1.6-.2-3.1-.4-4.7-.5Z"/>
    <path class="st3" d="M81.5,419c0-1-.1-2.1-.2-3.1,0,1,.1,2.1.2,3.1Z"/>
    <path class="st1" d="M797.4,238.1c-12.3-30.3-66.4-40.4-144.1-32.2-80.7,8.5-187.1,36.6-298.9,82.2-12.1,4.9-24.1,10-35.8,15.1-96.4,42.2-178.7,90.1-235.5,135-61.3,48.5-92.9,93.4-80.5,123.7,12.3,30.3,66.4,40.3,144,32.2-.2-.2-.3-.4-.4-.6-.7-.9-1.3-1.8-2-2.7-.2-.2-.3-.4-.5-.6-.9-1.2-1.8-2.5-2.7-3.7-.8-1.1-1.5-2.1-2.3-3.2-.1-.2-.2-.3-.4-.5-7.7-11.2-14.8-22.8-21.1-35,0,0-.1,0-.2,0h0c-24.3,0-39.8-4.6-43.9-14.6s3.8-24.2,21.2-41.2h0c33-32,100.3-73.8,186.1-114.8,29.2-14,60.6-27.9,93.5-41.3,129.5-52.7,247.4-83.6,309-83.7,24.3,0,39.8,4.6,43.9,14.6,4.1,10-3.8,24.2-21.2,41.1,0,0,0,0,0,0,5.2,17.3,9,35.3,11.2,53.7,0,0,0,0,0,0,61.2-48.4,92.9-93.4,80.5-123.7Z"/>
   </g>
   <g id="uranus-circle">
    <path class="st3" d="M580.8,166c-108.6,0-204.6,54.3-262.2,137.2,11.7-5.1,23.7-10.2,35.8-15.1,111.8-45.6,218.2-73.7,298.9-82.2-41.8-54.5-100.7-95.1-168.8-113.7,51.3,14.1,97.4,40.6,134.9,76.2-12.6-1.5-25.5-2.4-38.6-2.4Z"/>
    <path class="st3" d="M705.6,308.1s0,0,0,0c-5.8-19.4-13.5-38.1-22.7-55.8-61.6.2-179.5,31-309,83.7-32.9,13.4-64.2,27.3-93.5,41.3-12.1,33.7-18.7,70-18.7,107.9,0,91.2,38.3,173.5,99.7,231.6-88.7-10.7-166.3-57.8-217.2-125.9.7.9,1.3,1.8,2,2.7,58.3,76.4,150.3,125.7,253.8,125.7,176.2,0,319.1-142.9,319.1-319.1s-.8-25.7-2.3-38.2c0,0,0,0,0,0-2.2-18.4-6-36.4-11.2-53.7Z"/>
    <path class="st2" d="M361.4,716.7c-61.4-58.2-99.7-140.4-99.7-231.6s6.6-74.2,18.7-107.9c-85.8,41-153.1,82.7-186.1,114.8,1.6,5.4,3.4,10.7,5.3,16,.1.3.2.6.3,1,.6,1.8,1.3,3.5,2,5.3.2.6.4,1.1.6,1.7.7,1.7,1.3,3.4,2,5.1.2.6.5,1.2.7,1.8.7,1.7,1.4,3.4,2.2,5,.2.6.5,1.1.7,1.7.8,1.7,1.5,3.4,2.3,5.1.2.5.5,1,.7,1.5.8,1.7,1.6,3.4,2.5,5.2.2.4.4.9.7,1.3.9,1.8,1.8,3.5,2.7,5.2,0,0,.1,0,.2,0,6.3,12.1,13.4,23.8,21.1,35,.1.2.2.4.4.5.7,1.1,1.5,2.1,2.3,3.2.9,1.3,1.8,2.5,2.7,3.7.2.2.3.4.5.6,50.9,68.1,128.5,115.2,217.2,125.9Z"/>
    <path class="st2" d="M318.6,303.2c57.6-82.9,153.6-137.2,262.2-137.2s25.9.9,38.6,2.4c-37.5-35.5-83.6-62.1-134.9-76.2-.1,0-.2,0-.3,0-2.3-.6-4.6-1.2-6.9-1.8-.3,0-.5-.1-.8-.2-2.2-.5-4.3-1-6.5-1.5-.4,0-.9-.2-1.3-.3-2-.4-4.1-.9-6.1-1.3-.6-.1-1.2-.2-1.8-.3-1.9-.4-3.8-.7-5.7-1.1-.7-.1-1.5-.2-2.2-.4-1.8-.3-3.6-.6-5.4-.9-.9-.1-1.8-.2-2.7-.4-1.7-.2-3.3-.5-5-.7-1-.1-2.1-.2-3.1-.4-1.6-.2-3.1-.4-4.7-.5-1.2-.1-2.4-.2-3.6-.3-1.4-.1-2.8-.3-4.3-.4-1.4-.1-2.8-.2-4.2-.3-1.3,0-2.5-.2-3.8-.2-1.7,0-3.3-.1-5-.2-1,0-2,0-3-.1-2.7,0-5.4-.1-8.1-.1-176.2,0-319.1,142.9-319.1,319.1s0,5.3.1,7.9c0,.9,0,1.8,0,2.6,0,1.8.1,3.5.2,5.3,0,1,.1,2.1.2,3.1,0,1.6.2,3.1.3,4.7,0,1.1.2,2.2.3,3.3.1,1.5.2,3,.4,4.4.1,1.2.2,2.3.4,3.5.1,1.1.2,2.2.4,3.3,56.8-44.9,139-92.8,235.5-135Z"/>
   </g>
  </g>

</svg>